<svg width="14" height="14" viewBox="0 0 14 14" fill="none" xmlns="http://www.w3.org/2000/svg">
<circle cx="7" cy="7" r="7" fill="#FAFAFA"/>
<circle cx="7" cy="7" r="6.5" stroke="black" stroke-opacity="0.1"/>
<g clip-path="url(#clip0_4813_147972)">
<path d="M8 4C8 3.73478 7.89464 3.48043 7.70711 3.29289C7.51957 3.10536 7.26522 3 7 3C6.73478 3 6.48043 3.10536 6.29289 3.29289C6.10536 3.48043 6 3.73478 6 4C6 4.26522 6.10536 4.51957 6.29289 4.70711C6.48043 4.89464 6.73478 5 7 5C7.26522 5 7.51957 4.89464 7.70711 4.70711C7.89464 4.51957 8 4.26522 8 4Z" stroke="#2C3E50" stroke-linecap="round" stroke-linejoin="round"/>
<path d="M8 10C8 9.73478 7.89464 9.48043 7.70711 9.29289C7.51957 9.10536 7.26522 9 7 9C6.73478 9 6.48043 9.10536 6.29289 9.29289C6.10536 9.48043 6 9.73478 6 10C6 10.2652 6.10536 10.5196 6.29289 10.7071C6.48043 10.8946 6.73478 11 7 11C7.26522 11 7.51957 10.8946 7.70711 10.7071C7.89464 10.5196 8 10.2652 8 10Z" stroke="#2C3E50" stroke-linecap="round" stroke-linejoin="round"/>
<path d="M7 5V9" stroke="#2C3E50" stroke-linecap="round" stroke-linejoin="round"/>
</g>
<defs>
<clipPath id="clip0_4813_147972">
<rect width="12" height="12" fill="white" transform="translate(1 1)"/>
</clipPath>
</defs>
</svg>
