<svg width="14" height="14" viewBox="0 0 14 14" fill="none" xmlns="http://www.w3.org/2000/svg">
<circle cx="7" cy="7" r="7" fill="#FAFAFA"/>
<circle cx="7" cy="7" r="6.5" stroke="black" stroke-opacity="0.1"/>
<g clip-path="url(#clip0_4813_147979)">
<path d="M8 4C8 3.73478 7.89464 3.48043 7.70711 3.29289C7.51957 3.10536 7.26522 3 7 3C6.73478 3 6.48043 3.10536 6.29289 3.29289C6.10536 3.48043 6 3.73478 6 4C6 4.26522 6.10536 4.51957 6.29289 4.70711C6.48043 4.89464 6.73478 5 7 5C7.26522 5 7.51957 4.89464 7.70711 4.70711C7.89464 4.51957 8 4.26522 8 4Z" stroke="#2C3E50" stroke-linecap="round" stroke-linejoin="round"/>
<path d="M4.5 8C4.5 7.73478 4.39464 7.48043 4.20711 7.29289C4.01957 7.10536 3.76522 7 3.5 7C3.23478 7 2.98043 7.10536 2.79289 7.29289C2.60536 7.48043 2.5 7.73478 2.5 8C2.5 8.26522 2.60536 8.51957 2.79289 8.70711C2.98043 8.89464 3.23478 9 3.5 9C3.76522 9 4.01957 8.89464 4.20711 8.70711C4.39464 8.51957 4.5 8.26522 4.5 8Z" stroke="#2C3E50" stroke-linecap="round" stroke-linejoin="round"/>
<path d="M11.5 8C11.5 7.73478 11.3946 7.48043 11.2071 7.29289C11.0196 7.10536 10.7652 7 10.5 7C10.2348 7 9.98043 7.10536 9.79289 7.29289C9.60536 7.48043 9.5 7.73478 9.5 8C9.5 8.26522 9.60536 8.51957 9.79289 8.70711C9.98043 8.89464 10.2348 9 10.5 9C10.7652 9 11.0196 8.89464 11.2071 8.70711C11.3946 8.51957 11.5 8.26522 11.5 8Z" stroke="#2C3E50" stroke-linecap="round" stroke-linejoin="round"/>
<path d="M8 10C8 9.73478 7.89464 9.48043 7.70711 9.29289C7.51957 9.10536 7.26522 9 7 9C6.73478 9 6.48043 9.10536 6.29289 9.29289C6.10536 9.48043 6 9.73478 6 10C6 10.2652 6.10536 10.5196 6.29289 10.7071C6.48043 10.8946 6.73478 11 7 11C7.26522 11 7.51957 10.8946 7.70711 10.7071C7.89464 10.5196 8 10.2652 8 10Z" stroke="#2C3E50" stroke-linecap="round" stroke-linejoin="round"/>
<path d="M7 5V9" stroke="#2C3E50" stroke-linecap="round" stroke-linejoin="round"/>
<path d="M4.1582 7.24801L6.3422 4.75201" stroke="#2C3E50" stroke-linecap="round" stroke-linejoin="round"/>
<path d="M9.84218 7.24799L7.65918 4.75299" stroke="#2C3E50" stroke-linecap="round" stroke-linejoin="round"/>
</g>
<defs>
<clipPath id="clip0_4813_147979">
<rect width="12" height="12" fill="white" transform="translate(1 1)"/>
</clipPath>
</defs>
</svg>
