<svg width="26" height="26" viewBox="0 0 26 26" fill="none" xmlns="http://www.w3.org/2000/svg">
<mask id="mask0_4812_146213" style="mask-type:alpha" maskUnits="userSpaceOnUse" x="1" y="0" width="24" height="25">
<circle cx="13.0001" cy="12.9958" r="12.0001" fill="#D9D9D9"/>
</mask>
<g mask="url(#mask0_4812_146213)">
<rect x="1" y="0.995694" width="7.33337" height="24.0001" fill="#004692"/>
<rect x="8.33398" y="0.995694" width="9.33338" height="24.0001" fill="#FBD381"/>
<rect x="17.666" y="0.995694" width="7.33337" height="24.0001" fill="#DD2033"/>
<rect x="10.334" y="10.3291" width="2.66668" height="2.66668" fill="#DD2033"/>
<path d="M15.6116 12.9958H13L13 16.2776C14.3967 15.7078 15.3753 14.4542 15.6116 12.9958Z" fill="#DD2033"/>
<path fill-rule="evenodd" clip-rule="evenodd" d="M11.6667 8.6624V7.99573C11.6667 7.62754 11.9652 7.32906 12.3333 7.32906H13.6667C14.0349 7.32906 14.3334 7.62754 14.3334 7.99573V8.6624C14.3334 8.29421 14.6318 7.99573 15 7.99573L16.3334 7.99573C16.7016 7.99573 17 8.29421 17 8.6624V12.3095C17 14.2797 15.9715 16.0796 14.3334 17.0907V18.3291C14.3334 18.6973 14.0349 18.9958 13.6667 18.9958H12.3333C11.9652 18.9958 11.6667 18.6973 11.6667 18.3291V17.0907C10.0285 16.0796 9 14.2797 9 12.3095V8.6624C9 8.29421 9.29848 7.99573 9.66667 7.99573L11 7.99573C11.3682 7.99573 11.6667 8.29421 11.6667 8.6624ZM10.3333 10.3291V12.3095C10.3333 14.0521 11.3883 15.6201 13 16.2776C14.6117 15.6201 15.6667 14.0521 15.6667 12.3095V10.3291H10.3333Z" fill="#FF9E42"/>
</g>
<rect x="1" y="0.995694" width="24.0001" height="24.0001" rx="12.0001" stroke="#EDEDED"/>
</svg>
