<svg width="26" height="26" viewBox="0 0 26 26" fill="none" xmlns="http://www.w3.org/2000/svg">
<mask id="mask0_4812_146211" style="mask-type:alpha" maskUnits="userSpaceOnUse" x="1" y="0" width="24" height="25">
<circle cx="13.0001" cy="12.9958" r="12.0001" fill="#D9D9D9"/>
</mask>
<g mask="url(#mask0_4812_146211)">
<rect x="1" y="0.995694" width="6.6667" height="24.0001" fill="#31373D"/>
<rect x="7.66602" y="0.995694" width="10.6667" height="24.0001" fill="#DD2033"/>
<rect x="18.334" y="0.995694" width="6.6667" height="24.0001" fill="#005B33"/>
<path fill-rule="evenodd" clip-rule="evenodd" d="M17.6654 11.9957C17.6654 14.5731 15.5761 16.6624 12.9987 16.6624C10.4214 16.6624 8.33203 14.5731 8.33203 11.9957C8.33203 10.9839 8.65405 10.0473 9.20119 9.28279L10.2863 10.0578C9.89541 10.6039 9.66537 11.273 9.66537 11.9957C9.66537 13.8367 11.1578 15.3291 12.9987 15.3291C14.8397 15.3291 16.3321 13.8367 16.3321 11.9957C16.3321 11.2732 16.1022 10.6044 15.7116 10.0584L16.7967 9.28338C17.3436 10.0478 17.6654 10.9842 17.6654 11.9957ZM12.989 7.32907H13.0084C13.0052 7.32906 13.002 7.32906 12.9987 7.32906C12.9955 7.32906 12.9923 7.32906 12.989 7.32907Z" fill="#F5F7F8"/>
<path fill-rule="evenodd" clip-rule="evenodd" d="M14 10.6624C14 10.1101 13.5523 9.6624 13 9.6624C12.4477 9.6624 12 10.1101 12 10.6624V12.6624H14V10.6624ZM13 8.6624C14.1046 8.6624 15 9.55783 15 10.6624V13.6624H11V10.6624C11 9.55783 11.8954 8.6624 13 8.6624Z" fill="#F5F7F8"/>
</g>
<rect x="1" y="0.995694" width="24.0001" height="24.0001" rx="12.0001" stroke="#EDEDED"/>
</svg>
