<svg width="26" height="26" viewBox="0 0 26 26" fill="none" xmlns="http://www.w3.org/2000/svg">
<mask id="mask0_4812_146209" style="mask-type:alpha" maskUnits="userSpaceOnUse" x="1" y="0" width="25" height="25">
<circle cx="13.002" cy="12.9958" r="12.0001" fill="#D9D9D9"/>
</mask>
<g mask="url(#mask0_4812_146209)">
<rect x="1.00195" y="0.995694" width="24.0001" height="24.0001" fill="#004692"/>
<mask id="mask1_4812_146209" style="mask-type:alpha" maskUnits="userSpaceOnUse" x="1" y="0" width="13" height="13">
<path d="M1.00195 12.9958V12.9958C1.00195 6.3683 6.37456 0.995693 13.002 0.995693V0.995693L13.002 12.9957L1.00195 12.9958Z" fill="#002F6C"/>
</mask>
<g mask="url(#mask1_4812_146209)">
<path d="M5.17547 2.04033L4.46836 2.74744L14.3104 12.5895L15.0175 11.8824L5.17547 2.04033Z" fill="#F5F7F8"/>
<path d="M3.28985 3.92596L2.11133 5.10447L11.9534 14.9465L13.1319 13.768L3.28985 3.92596Z" fill="#F5F7F8"/>
<path d="M3.28985 3.92596L4.46836 2.74744L14.3104 12.5895L13.1319 13.768L3.28985 3.92596Z" fill="#DD2033"/>
<path d="M13.002 4.9957V6.66238L6.66863 6.66238L6.66863 12.9958H5.00195V4.9957H13.002Z" fill="#F5F7F8"/>
<path d="M13.002 0.32903V1.9957L2.66863 1.9957L2.66863 12.9958H1.00195V0.32903H13.002Z" fill="#F5F7F8"/>
<path fill-rule="evenodd" clip-rule="evenodd" d="M2.00195 12.9958H5.00197L5.00197 4.99572L13.002 4.99572V1.9957H5.00197H2.00195L2.00195 4.99572L2.00195 12.9958Z" fill="#DD2033"/>
</g>
<path d="M14.7363 12.6624H21.7364V15.5768C21.7364 17.6046 20.5002 19.4275 18.6164 20.1778L18.2363 20.3291L17.8563 20.1778C15.9725 19.4275 14.7363 17.6046 14.7363 15.5768V12.6624Z" fill="#F5F7F8"/>
<mask id="mask2_4812_146209" style="mask-type:alpha" maskUnits="userSpaceOnUse" x="14" y="17" width="9" height="4">
<rect x="14.7344" y="17.6624" width="7.33337" height="2.66668" fill="#D9D9D9"/>
</mask>
<g mask="url(#mask2_4812_146209)">
<path d="M14.7344 12.6624H21.7344V15.5768C21.7344 17.6046 20.4983 19.4275 18.6144 20.1778L18.2344 20.3291L17.8544 20.1778C15.9705 19.4275 14.7344 17.6046 14.7344 15.5768V12.6624Z" fill="#3CCBDA"/>
</g>
<circle cx="17.2357" cy="15.4958" r="0.833337" fill="#FF9E42"/>
<circle cx="18.9017" cy="14.1624" r="0.833337" fill="#FF9E42"/>
<circle cx="19.5697" cy="16.1624" r="0.833337" fill="#FF9E42"/>
</g>
<rect x="1.00195" y="0.995694" width="24.0001" height="24.0001" rx="12.0001" stroke="#EDEDED"/>
</svg>
