<svg width="26" height="26" viewBox="0 0 26 26" fill="none" xmlns="http://www.w3.org/2000/svg">
<mask id="mask0_4812_146208" style="mask-type:alpha" maskUnits="userSpaceOnUse" x="1" y="0" width="25" height="25">
<circle cx="13.002" cy="12.9958" r="12.0001" fill="#D9D9D9"/>
</mask>
<g mask="url(#mask0_4812_146208)">
<rect x="1.00195" y="0.995694" width="24.0001" height="24.0001" fill="#DD2033"/>
<path d="M17.103 8.46414C16.5396 8.42561 15.7124 8.50856 15.0692 8.82879C14.4894 9.1174 14.0853 9.56826 14.0853 10.4132V10.7034L19.2144 9.32907C19.405 10.0404 18.9828 10.7715 18.2716 10.9621L14.0853 12.0838V12.4289L19.3237 11.0252C19.5143 11.7365 19.0922 12.4676 18.3809 12.6582L14.2313 13.7701L14.5053 14.0418L19.1112 12.8077C19.3018 13.519 18.8797 14.2501 18.1684 14.4407L15.6012 15.1285L17.8647 17.3728L16.4764 18.7494L14.0292 16.3229L15.067 18.8954L13.1036 20.8422L11.1402 18.8954L12.1753 16.3295L9.72375 18.7604L8.33544 17.3838L10.566 15.1722L7.83591 14.4407C7.12462 14.2501 6.70251 13.519 6.8931 12.8077L11.6619 14.0855L11.9359 13.8138L7.62334 12.6582C6.91205 12.4676 6.48994 11.7365 6.68053 11.0252L12.1149 12.4814V12.1363L7.73272 10.9621C7.02143 10.7715 6.59931 10.0404 6.7899 9.32907L12.1149 10.7559V10.4242C12.1149 9.57922 11.7107 9.12836 11.131 8.83975C10.4877 8.51952 9.66056 8.43657 9.09714 8.4751L8.96206 6.53296C9.7543 6.47879 10.9606 6.57661 12.0119 7.09997C12.4046 7.29546 12.7771 7.55306 13.0948 7.87966C13.4148 7.54786 13.7912 7.28668 14.1882 7.08901C15.2395 6.56564 16.4459 6.46783 17.2381 6.522L17.103 8.46414Z" fill="#31373D"/>
</g>
<rect x="1.00195" y="0.995694" width="24.0001" height="24.0001" rx="12.0001" stroke="#EDEDED"/>
</svg>
