<svg width="26" height="26" viewBox="0 0 26 26" fill="none" xmlns="http://www.w3.org/2000/svg">
<mask id="mask0_4812_146206" style="mask-type:alpha" maskUnits="userSpaceOnUse" x="1" y="0" width="24" height="25">
<circle cx="13.0001" cy="12.9958" r="12.0001" fill="#D9D9D9"/>
</mask>
<g mask="url(#mask0_4812_146206)">
<rect x="1" y="24.9958" width="12.0001" height="24.0001" transform="rotate(-90 1 24.9958)" fill="#31373D"/>
<rect x="1" y="12.9958" width="12.0001" height="24.0001" transform="rotate(-90 1 12.9958)" fill="#DD2033"/>
<path d="M10.8659 8.99573L10.3691 10.1194L9.19922 10.269L10.0621 11.113L9.83581 12.3291L10.8659 11.6346L11.896 12.3291L11.6697 11.113L12.5326 10.269L11.3627 10.1194L10.8659 8.99573Z" fill="#F1B434"/>
<path d="M17.4382 15.6146C18.9109 13.0637 18.0369 9.80182 15.486 8.32906C14.4235 7.71563 13.2377 7.50933 12.1092 7.66175L12.0111 9.22503C12.9044 9.03082 13.87 9.15563 14.7241 9.64872C16.5462 10.7007 17.1704 13.0306 16.1185 14.8526C16.0735 14.9305 16.0262 15.0062 15.9767 15.0797L12.3672 12.9958L12.2005 13.2844C11.8323 13.9222 12.0508 14.7376 12.6886 15.1058L14.6951 16.2643C13.5599 16.905 12.1251 16.946 10.9145 16.247C10.05 15.7479 9.45517 14.9611 9.18105 14.0774L7.88086 14.9625C8.31205 16.0216 9.08566 16.9507 10.1527 17.5667C12.1127 18.6984 14.4925 18.4444 16.1579 17.1089L19.2297 18.8823L20.063 17.439L17.2987 15.843C17.3468 15.7684 17.3933 15.6923 17.4382 15.6146Z" fill="#F1B434"/>
<path d="M8.20578 10.2721L8.19525 10.2903L8.20051 10.2812L8.20578 10.2721Z" fill="#F1B434"/>
</g>
<rect x="1" y="0.995694" width="24.0001" height="24.0001" rx="12.0001" stroke="#EDEDED"/>
</svg>
