<svg width="26" height="26" viewBox="0 0 26 26" fill="none" xmlns="http://www.w3.org/2000/svg">
<mask id="mask0_4812_146205" style="mask-type:alpha" maskUnits="userSpaceOnUse" x="1" y="0" width="24" height="25">
<circle cx="13.0001" cy="12.9958" r="12.0001" fill="#D9D9D9"/>
</mask>
<g mask="url(#mask0_4812_146205)">
<rect x="1" y="0.995694" width="24.0001" height="24.0001" fill="#0091DA"/>
<path d="M9.44607 10.7502C7.44455 11.4227 6.23994 9.62947 5.77662 9.01306C5.4208 9.23721 5.44304 9.89098 5.49863 10.1898L6.99977 12.7676C7.1332 15.0539 8.09319 16.3726 8.5565 16.7462C10.2467 17.5083 12.3742 17.4 13.2267 17.2505C13.8939 17.6988 13.5047 18.5954 13.2267 18.9877C18.5641 20.7361 19.6019 15.3453 19.4536 12.4313L18.4529 11.927C18.7198 10.6269 18.3417 9.44268 18.1193 9.01306L12.3927 6.99572L10.6136 8.11647C10.5951 8.90099 10.3356 10.5261 9.44607 10.7502Z" fill="#F5F7F8"/>
</g>
<rect x="1" y="0.995694" width="24.0001" height="24.0001" rx="12.0001" stroke="#EDEDED"/>
</svg>
