<svg width="26" height="26" viewBox="0 0 26 26" fill="none" xmlns="http://www.w3.org/2000/svg">
<mask id="mask0_4812_146203" style="mask-type:alpha" maskUnits="userSpaceOnUse" x="1" y="0" width="24" height="25">
<circle cx="13.0001" cy="12.9959" r="12.0001" fill="#D9D9D9"/>
</mask>
<g mask="url(#mask0_4812_146203)">
<rect x="1" y="0.995872" width="24.0001" height="24.0001" fill="#004692"/>
<path d="M-2.6668 12.9959L25 26.996L25 -1.00414L-2.6668 12.9959Z" fill="#DD2033"/>
<path d="M2.66719 12.9959L30.334 26.996L30.334 -1.00414L2.66719 12.9959Z" fill="#F5F7F8"/>
<path d="M21.0007 12.6626H19.6673C20.027 12.2173 19.9551 11.6187 19.55 11.201C19.9791 10.7585 19.9791 10.041 19.55 9.59842L19.5241 9.62517C19.9532 9.18267 19.9791 8.43841 19.55 7.99591L13.334 14.4062C13.7631 14.8487 14.4467 14.8435 14.8758 14.4009L14.9954 14.2882L17.9719 14.0091V15.3293H18.9815V13.9145L20.4959 13.7725L21.0007 12.6626Z" fill="#936846"/>
<path d="M19.5494 11.201C19.9545 11.6187 20.0264 12.2173 19.6668 12.6626H18.6668L16.4414 11.201L19.5494 7.99591C19.9785 8.43841 19.9785 9.15592 19.5494 9.59842C19.9785 10.041 19.9785 10.7585 19.5494 11.201Z" fill="#FF9E42"/>
<path d="M13.3565 15.9959L12.334 15.496L13.3565 14.9959H20.0007V15.9959H13.3565Z" fill="#F1B434"/>
</g>
<rect x="1" y="0.995872" width="24.0001" height="24.0001" rx="12.0001" stroke="#EDEDED"/>
</svg>
