<svg width="26" height="26" viewBox="0 0 26 26" fill="none" xmlns="http://www.w3.org/2000/svg">
<mask id="mask0_4812_146200" style="mask-type:alpha" maskUnits="userSpaceOnUse" x="1" y="0" width="24" height="25">
<circle cx="13.0001" cy="12.9959" r="12.0001" fill="#D9D9D9"/>
</mask>
<g mask="url(#mask0_4812_146200)">
<rect x="1" y="0.995872" width="24.0001" height="24.0001" fill="#0091DA"/>
<path d="M9.00006 5.66256L10.2247 8.43777L13 9.66262L10.2247 10.8874L9.00006 13.6626L7.77521 10.8874L5 9.66262L7.77521 8.43777L9.00006 5.66256Z" fill="#DD2033"/>
<path fill-rule="evenodd" clip-rule="evenodd" d="M8.99997 3.5396L10.8746 7.78775L15.1228 9.66265L10.8746 11.5374L8.99997 15.7856L7.12504 11.5374L2.87695 9.66265L7.12503 7.78775L8.99997 3.5396ZM7.77506 8.43777L4.99984 9.66262L7.77506 10.8874L8.99991 13.6626L10.2246 10.8874L12.9999 9.66262L10.2246 8.43777L8.99991 5.66256L7.77506 8.43777Z" fill="#F5F7F8"/>
<rect x="1" y="16.9959" width="24.0001" height="2.00001" fill="#FBD381"/>
<rect x="1" y="20.996" width="24.0001" height="2.00001" fill="#FBD381"/>
</g>
<rect x="1" y="0.995872" width="24.0001" height="24.0001" rx="12.0001" stroke="#EDEDED"/>
</svg>
