<svg width="26" height="26" viewBox="0 0 26 26" fill="none" xmlns="http://www.w3.org/2000/svg">
<mask id="mask0_4812_146199" style="mask-type:alpha" maskUnits="userSpaceOnUse" x="1" y="0" width="25" height="25">
<circle cx="13.002" cy="12.9959" r="12.0001" fill="#D9D9D9"/>
</mask>
<g mask="url(#mask0_4812_146199)">
<rect x="1.00195" y="0.995872" width="24.0001" height="24.0001" fill="#005EB8"/>
<path d="M7.80146 24.996H5.80145L5.80146 16.8959H1.13477V14.8959H5.80146H7.80146V16.8959L7.80146 24.996Z" fill="#FBD381"/>
<path d="M5.80146 11.0959H1.13477V9.09593H5.80146L5.80146 0.995872H7.80146L7.80146 9.09593V11.0959L5.80146 11.0959Z" fill="#FBD381"/>
<path d="M11.6015 9.09593L11.6015 0.995872H13.6015L13.6015 9.09593H25.1349V11.0959H13.6015H11.6015V9.09593Z" fill="#FBD381"/>
<path d="M13.6015 14.8959L25.1349 14.8959V16.8959L13.6015 16.8959L13.6015 24.996H11.6014V16.8959V14.8959H13.6015Z" fill="#FBD381"/>
<path d="M7.66865 24.996H11.6687L11.6687 14.9959L25.0021 14.9959V10.9959L11.6687 10.9959L11.6687 0.995872H7.66865L7.66865 10.9959L1.00195 10.9959V14.9959H7.66865L7.66865 24.996Z" fill="#DD2033"/>
</g>
<rect x="1.00195" y="0.995872" width="24.0001" height="24.0001" rx="12.0001" stroke="#EDEDED"/>
</svg>
