<svg width="26" height="26" viewBox="0 0 26 26" fill="none" xmlns="http://www.w3.org/2000/svg">
<mask id="mask0_4812_146198" style="mask-type:alpha" maskUnits="userSpaceOnUse" x="1" y="0" width="25" height="25">
<circle cx="13.002" cy="12.9959" r="12.0001" fill="#D9D9D9"/>
</mask>
<g mask="url(#mask0_4812_146198)">
<rect x="1.00195" y="24.996" width="6.00003" height="24.0001" transform="rotate(-90 1.00195 24.996)" fill="#009B77"/>
<rect x="1.00195" y="18.996" width="12.0001" height="24.0001" transform="rotate(-90 1.00195 18.996)" fill="#DD2033"/>
<path d="M16.002 9.99591L16.7403 11.5796L18.4078 11.1843L17.661 12.7639L19.002 13.8546L17.3325 14.2405L17.3371 15.9959L16.002 14.8977L14.6668 15.9959L14.6715 14.2405L13.002 13.8546L14.3428 12.7639L13.5961 11.1843L15.2636 11.5796L16.002 9.99591Z" fill="#F5F7F8"/>
<rect x="1.00195" y="6.9959" width="6.00003" height="24.0001" transform="rotate(-90 1.00195 6.9959)" fill="#0091DA"/>
<path d="M13.6674 9.41995C13.3993 9.36056 13.1206 9.32924 12.8347 9.32924C10.7176 9.32924 9.00131 11.0455 9.00131 13.1626C9.00131 15.2797 10.7176 16.9959 12.8347 16.9959C13.1206 16.9959 13.3993 16.9646 13.6674 16.9052C12.9525 17.3836 12.0928 17.6626 11.168 17.6626C8.6827 17.6626 6.66797 15.6479 6.66797 13.1626C6.66797 10.6773 8.6827 8.66257 11.168 8.66257C12.0928 8.66257 12.9525 8.94155 13.6674 9.41995Z" fill="#F5F7F8"/>
</g>
<rect x="1.00195" y="0.995872" width="24.0001" height="24.0001" rx="12.0001" stroke="#EDEDED"/>
</svg>
