<svg width="26" height="26" viewBox="0 0 26 26" fill="none" xmlns="http://www.w3.org/2000/svg">
<mask id="mask0_4812_146197" style="mask-type:alpha" maskUnits="userSpaceOnUse" x="1" y="0" width="25" height="25">
<circle cx="12.0001" cy="12.0001" r="12.0001" transform="matrix(1 0 0 -1 1.00195 24.996)" fill="#D9D9D9"/>
</mask>
<g mask="url(#mask0_4812_146197)">
<rect x="0.935547" y="0.995872" width="24.0001" height="24.0001" fill="#004692"/>
<path d="M3.00543 4.67766L3.60158 3.32922L4.19771 4.67766L5.60158 4.85708L4.56612 5.86993L4.83767 7.32924L3.60157 6.4959L2.36548 7.32924L2.63702 5.86993L1.60156 4.85708L3.00543 4.67766Z" fill="#F5F7F8"/>
<path d="M6.33878 8.01101L6.93493 6.66257L7.53106 8.01101L8.93493 8.19043L7.89947 9.20328L8.17102 10.6626L6.93492 9.82925L5.69883 10.6626L5.97037 9.20328L4.93491 8.19043L6.33878 8.01101Z" fill="#F5F7F8"/>
<path d="M10.2683 9.99591L9.67213 11.3444L8.26826 11.5238L9.30372 12.5366L9.03217 13.9959L10.2683 13.1626L11.5044 13.9959L11.2328 12.5366L12.2683 11.5238L10.8644 11.3444L10.2683 9.99591Z" fill="#F5F7F8"/>
<path d="M13.0055 14.6777L13.6016 13.3293L14.1978 14.6777L15.6016 14.8571L14.5662 15.87L14.8377 17.3293L13.6016 16.4959L12.3655 17.3293L12.6371 15.87L11.6016 14.8571L13.0055 14.6777Z" fill="#F5F7F8"/>
<path d="M16.935 16.6626L16.3388 18.0111L14.935 18.1905L15.9704 19.2033L15.6989 20.6626L16.935 19.8293L18.1711 20.6626L17.8995 19.2033L18.935 18.1905L17.5311 18.0111L16.935 16.6626Z" fill="#F5F7F8"/>
<path d="M19.6722 21.3444L20.2683 19.996L20.8645 21.3444L22.2683 21.5238L21.2329 22.5367L21.5044 23.996L20.2683 23.1626L19.0322 23.996L19.3038 22.5367L18.2683 21.5238L19.6722 21.3444Z" fill="#F5F7F8"/>
<path d="M25.0027 0.995871V21.6626L4.33594 0.995871H25.0027Z" fill="#F1B434"/>
</g>
<rect x="1.00195" y="0.995872" width="24.0001" height="24.0001" rx="12.0001" stroke="#EDEDED"/>
</svg>
