<svg width="26" height="26" viewBox="0 0 26 26" fill="none" xmlns="http://www.w3.org/2000/svg">
<mask id="mask0_4812_146196" style="mask-type:alpha" maskUnits="userSpaceOnUse" x="1" y="0" width="24" height="25">
<circle cx="13.0001" cy="12.9959" r="12.0001" transform="rotate(-90 13.0001 12.9959)" fill="#D9D9D9"/>
</mask>
<g mask="url(#mask0_4812_146196)">
<rect x="25" y="24.996" width="24.0001" height="24.0001" transform="rotate(180 25 24.996)" fill="#004692"/>
<rect x="18.334" y="24.996" width="10.6667" height="24.0001" transform="rotate(180 18.334 24.996)" fill="#F1B434"/>
<path d="M16.7811 8.78379L16.0306 8.40775C15.9854 8.49846 15.0054 10.4967 14.8453 13.5489H13.7045V8.78379L12.8654 7.66257L12.0263 8.78379V13.5489H10.8855C10.7254 10.4967 9.74549 8.49846 9.70021 8.40775L8.19922 9.15988C8.20957 9.18053 9.22945 11.2609 9.22945 14.3899V15.2308H12.0264V18.6626H13.7045V15.2308H16.5015V14.3898C16.5015 12.7721 16.7807 11.4382 17.0151 10.604C17.2706 9.69442 17.53 9.1632 17.5326 9.15791L16.7811 8.78379Z" fill="#31373D"/>
</g>
<rect x="1" y="0.995872" width="24.0001" height="24.0001" rx="12.0001" stroke="#EDEDED"/>
</svg>
