<svg width="26" height="26" viewBox="0 0 26 26" fill="none" xmlns="http://www.w3.org/2000/svg">
<mask id="mask0_4812_146190" style="mask-type:alpha" maskUnits="userSpaceOnUse" x="1" y="0" width="24" height="25">
<circle cx="13.0001" cy="12.9961" r="12.0001" fill="#D9D9D9"/>
</mask>
<g mask="url(#mask0_4812_146190)">
<path d="M1 0.996025L13.0001 12.6627L25.0001 0.996025V24.9961L13.0001 12.6627L1 24.9961V0.996025Z" fill="#009B77"/>
<path d="M1 24.9961L12.6667 12.9961L0.999999 0.996025L25.0001 0.996024L12.6667 12.9961L25.0001 24.9961L1 24.9961Z" fill="#A00009"/>
<path d="M20.5326 2.99606L22.6539 5.11739L18.5173 9.25396C19.2422 10.3208 19.6658 11.609 19.6658 12.9961C19.6658 14.1863 19.3539 15.3037 18.8074 16.271L23.0683 20.5318L20.9469 22.6532L16.7809 18.4871C15.7063 19.2286 14.4035 19.6628 12.9992 19.6628C11.6121 19.6628 10.3239 19.2392 9.25702 18.5142L5.20531 22.566L3.08398 20.4446L7.21514 16.3135C6.65359 15.3365 6.33245 14.2038 6.33245 12.9961C6.33245 11.5918 6.76665 10.2889 7.50812 9.21433L3.44059 5.1468L5.56192 3.02547L9.72428 7.18783C10.6915 6.64129 11.8089 6.32938 12.9992 6.32938C14.2069 6.32938 15.3396 6.65052 16.3165 7.21207L20.5326 2.99606Z" fill="#F5F7F8"/>
<path d="M13.1342 7.99606L12.538 9.3445L11.1341 9.52392L12.1696 10.5368L11.898 11.9961L13.1341 11.1627L14.3702 11.9961L14.0987 10.5368L15.1341 9.52392L13.7303 9.3445L13.1342 7.99606Z" fill="#A00009"/>
<path d="M9.8008 12.3294L9.20465 13.6779L7.80078 13.8573L8.83624 14.8701L8.5647 16.3294L9.80079 15.4961L11.0369 16.3294L10.7653 14.8701L11.8008 13.8573L10.3969 13.6779L9.8008 12.3294Z" fill="#A00009"/>
<path d="M16.1342 12.3294L15.538 13.6779L14.1341 13.8573L15.1696 14.8701L14.8981 16.3294L16.1342 15.4961L17.3703 16.3294L17.0987 14.8701L18.1342 13.8573L16.7303 13.6779L16.1342 12.3294Z" fill="#A00009"/>
</g>
<rect x="1" y="0.996025" width="24.0001" height="24.0001" rx="12.0001" stroke="#EDEDED"/>
</svg>
