<svg width="26" height="26" viewBox="0 0 26 26" fill="none" xmlns="http://www.w3.org/2000/svg">
<mask id="mask0_4812_146187" style="mask-type:alpha" maskUnits="userSpaceOnUse" x="1" y="0" width="25" height="25">
<circle cx="13.002" cy="12.9961" r="12.0001" fill="#D9D9D9"/>
</mask>
<g mask="url(#mask0_4812_146187)">
<rect x="1.00195" y="0.996025" width="24.0001" height="24.0001" fill="#DD2033"/>
<path d="M14.6016 12.6628H21.6016V15.5772C21.6016 17.6049 20.3654 19.4278 18.4816 20.1781L18.1016 20.3295L17.7216 20.1781C15.8377 19.4278 14.6016 17.6049 14.6016 15.5772V12.6628Z" fill="#F5F7F8"/>
<mask id="mask1_4812_146187" style="mask-type:alpha" maskUnits="userSpaceOnUse" x="14" y="17" width="8" height="4">
<rect x="14.6035" y="17.6628" width="7.33337" height="2.66668" fill="#D9D9D9"/>
</mask>
<g mask="url(#mask1_4812_146187)">
<path d="M14.6035 12.6627H21.6035V15.5772C21.6035 17.6049 20.3674 19.4278 18.4836 20.1781L18.1035 20.3294L17.7235 20.1781C15.8397 19.4278 14.6035 17.6049 14.6035 15.5772V12.6627Z" fill="#009B77"/>
</g>
<rect x="17.2695" y="13.6628" width="1.66667" height="3.66668" rx="0.833337" fill="#DD2033"/>
<path d="M16.6016 17.6628V15.3294H19.6016V17.6628H16.6016Z" fill="#86C5FA"/>
<path d="M18.1016 18.6152L16.6016 17.6628H19.6016L18.1016 18.6152Z" fill="#F5F7F8"/>
<mask id="mask2_4812_146187" style="mask-type:alpha" maskUnits="userSpaceOnUse" x="1" y="0" width="13" height="13">
<path d="M1.00195 12.9961V12.9961C1.00195 6.36863 6.37456 0.996021 13.002 0.996021V0.996021L13.002 12.9961L1.00195 12.9961Z" fill="#002F6C"/>
</mask>
<g mask="url(#mask2_4812_146187)">
<rect x="1.00195" y="0.996025" width="12.0001" height="12.0001" fill="#004692"/>
<path d="M5.17547 2.04066L4.46836 2.74777L14.3104 12.5898L15.0175 11.8827L5.17547 2.04066Z" fill="#F5F7F8"/>
<path d="M3.28985 3.92629L2.11133 5.1048L11.9534 14.9469L13.1319 13.7683L3.28985 3.92629Z" fill="#F5F7F8"/>
<path d="M3.28985 3.92629L4.46836 2.74777L14.3104 12.5898L13.1319 13.7683L3.28985 3.92629Z" fill="#DD2033"/>
<path d="M13.002 4.99603V6.66271L6.66863 6.66271L6.66863 12.9961H5.00195V4.99603H13.002Z" fill="#F5F7F8"/>
<path d="M13.002 0.329361V1.99604L2.66863 1.99604L2.66863 12.9961H1.00195V0.329361H13.002Z" fill="#F5F7F8"/>
<path fill-rule="evenodd" clip-rule="evenodd" d="M2.00195 12.9961H5.00197L5.00197 4.99605L13.002 4.99605V1.99603H5.00197H2.00195L2.00195 4.99605L2.00195 12.9961Z" fill="#DD2033"/>
</g>
</g>
<rect x="1.00195" y="0.996025" width="24.0001" height="24.0001" rx="12.0001" stroke="#EDEDED"/>
</svg>
