<svg width="26" height="26" viewBox="0 0 26 26" fill="none" xmlns="http://www.w3.org/2000/svg">
<mask id="mask0_4812_146186" style="mask-type:alpha" maskUnits="userSpaceOnUse" x="1" y="0" width="24" height="25">
<circle cx="13.0001" cy="12.9961" r="12.0001" fill="#D9D9D9"/>
</mask>
<g mask="url(#mask0_4812_146186)">
<rect x="1" y="0.996025" width="24.0001" height="24.0001" fill="#F1B434"/>
<rect x="0.337891" y="8.75346" width="6.00003" height="24.0001" transform="rotate(-45 0.337891 8.75346)" fill="#31373D"/>
<rect x="4.58203" y="4.51077" width="6.00003" height="24.0001" transform="rotate(-45 4.58203 4.51077)" fill="#F5F7F8"/>
<path fill-rule="evenodd" clip-rule="evenodd" d="M13.1994 7.21675C13.7657 6.56635 15.0042 5.66263 16.5328 7.67459C16.3878 7.86633 16.245 8.03108 16.1049 8.17168C17.4539 9.15496 18.3327 10.7619 18.3327 12.5775C18.3327 15.5701 15.9449 17.9961 12.9994 17.9961C10.0538 17.9961 7.66602 15.5701 7.66602 12.5775C7.66602 10.8298 8.4804 9.27532 9.74466 8.28447C9.56715 8.12147 9.38511 7.92018 9.19939 7.67459C10.728 5.66263 11.9665 6.56635 12.5327 7.21675L12.5327 3.6627H13.1994L13.1994 7.21675ZM13.5327 8.43406V15.5242C15.6374 15.2575 17.266 13.4334 17.266 11.2228C17.266 10.052 16.8091 8.98954 16.0666 8.20952C15.0104 9.23996 14.1076 8.90332 13.5327 8.43406ZM9.81015 8.34305C10.804 9.20873 11.651 8.88175 12.1994 8.43406L12.1994 15.4817C10.2253 15.1012 8.73266 13.3391 8.73266 11.2228C8.73266 10.1175 9.13985 9.10875 9.81015 8.34305Z" fill="#DD2033"/>
<path d="M17.6661 19.3294V18.6628H8.33269V19.3294H7.66602V21.3295H10.9994V20.6628H14.9994V21.3295H18.3327V19.3294H17.6661Z" fill="#DD2033"/>
</g>
<rect x="1" y="0.996025" width="24.0001" height="24.0001" rx="12.0001" stroke="#EDEDED"/>
</svg>
