<svg width="26" height="26" viewBox="0 0 26 26" fill="none" xmlns="http://www.w3.org/2000/svg">
<mask id="mask0_4812_146185" style="mask-type:alpha" maskUnits="userSpaceOnUse" x="1" y="0" width="24" height="25">
<circle cx="13.0001" cy="12.9961" r="12.0001" fill="#D9D9D9"/>
</mask>
<g mask="url(#mask0_4812_146185)">
<rect x="1" y="24.9962" width="7.33337" height="24.0001" transform="rotate(-90 1 24.9962)" fill="#009B77"/>
<rect x="1" y="17.6628" width="9.33338" height="24.0001" transform="rotate(-90 1 17.6628)" fill="#FBD381"/>
<rect x="1" y="8.32939" width="7.33337" height="24.0001" transform="rotate(-90 1 8.32939)" fill="#DD2033"/>
<path d="M12.9989 13.8294L12.1328 13.3294L10.1328 16.7935L10.9988 17.2935L12.9989 13.8294Z" fill="#936846"/>
<path d="M13.1328 13.8294L13.9989 13.3294L15.9989 16.7935L15.1329 17.2935L13.1328 13.8294Z" fill="#936846"/>
<path d="M10.9994 11.9961L6.66602 10.9961V14.7753C6.66602 15.5925 7.39442 16.2174 8.2021 16.0931L10.9994 15.6628V11.9961Z" fill="#DD2033"/>
<path d="M14.9994 11.9961L19.3327 10.9961V14.7753C19.3327 15.5925 18.6043 16.2174 17.7967 16.0931L14.9994 15.6628V11.9961Z" fill="#DD2033"/>
<path d="M7.66602 10.3294L11.9994 11.3294V14.9961L9.2021 15.4264C8.39442 15.5507 7.66602 14.9258 7.66602 14.1086V10.3294Z" fill="#A00009"/>
<path d="M18.3327 10.3294L13.9994 11.3294V14.9961L16.7966 15.4264C17.6043 15.5507 18.3327 14.9258 18.3327 14.1086V10.3294Z" fill="#A00009"/>
<path d="M8.66602 9.66273L12.9994 10.6627L17.3327 9.66273V13.4419C17.3327 14.2591 16.6043 14.884 15.7966 14.7598L12.9994 14.3294L10.2021 14.7598C9.39442 14.884 8.66602 14.2591 8.66602 13.4419V9.66273Z" fill="#DD2033"/>
<path d="M10.9233 14.7038L13.001 14.3294L15.0786 14.7038C15.9138 14.8542 16.6751 14.1966 16.6477 13.3484L16.5343 9.84734L13.001 10.6627L9.46757 9.84734L9.35424 13.3484C9.32678 14.1966 10.0882 14.8542 10.9233 14.7038Z" fill="#F1B434"/>
<mask id="mask1_4812_146185" style="mask-type:alpha" maskUnits="userSpaceOnUse" x="10" y="9" width="6" height="8">
<ellipse cx="13.0013" cy="12.9961" rx="2.33334" ry="3.33335" fill="#D9D9D9"/>
</mask>
<g mask="url(#mask1_4812_146185)">
<path d="M15.198 15.7354C14.6897 16.4616 13.9236 16.9961 13.002 16.9961C12.0804 16.9961 11.3142 16.4616 10.8059 15.7354C10.2961 15.0072 10.002 14.0366 10.002 12.9961C10.002 11.9556 10.2961 10.985 10.8059 10.2567C11.3142 9.53057 12.0804 8.99606 13.002 8.99606C13.9236 8.99606 14.6897 9.53057 15.198 10.2567C15.7078 10.985 16.002 11.9556 16.002 12.9961C16.002 14.0366 15.7078 15.0072 15.198 15.7354Z" fill="#FBD381"/>
<path d="M12.2706 12.8071C12.7141 12.5169 13.2873 12.5169 13.7307 12.8071L15.8974 14.2248C17.0063 14.9504 16.4925 16.6739 15.1674 16.6739H10.834C9.50888 16.6739 8.99511 14.9504 10.104 14.2248L12.2706 12.8071Z" fill="#008259"/>
</g>
<path fill-rule="evenodd" clip-rule="evenodd" d="M15.1961 15.7354C14.6878 16.4616 13.9216 16.9961 13 16.9961C12.0784 16.9961 11.3123 16.4616 10.8039 15.7354C10.2941 15.0072 10 14.0366 10 12.9961C10 11.9556 10.2941 10.985 10.8039 10.2567C11.3123 9.53057 12.0784 8.99606 13 8.99606C13.9216 8.99606 14.6878 9.53057 15.1961 10.2567C15.7059 10.985 16 11.9556 16 12.9961C16 14.0366 15.7059 15.0072 15.1961 15.7354ZM13 16.3294C14.2887 16.3294 15.3334 14.837 15.3334 12.9961C15.3334 11.1551 14.2887 9.66273 13 9.66273C11.7113 9.66273 10.6667 11.1551 10.6667 12.9961C10.6667 14.837 11.7113 16.3294 13 16.3294Z" fill="#005EB8"/>
</g>
<rect x="1" y="0.996025" width="24.0001" height="24.0001" rx="12.0001" stroke="#EDEDED"/>
</svg>
