<svg width="26" height="26" viewBox="0 0 26 26" fill="none" xmlns="http://www.w3.org/2000/svg">
<mask id="mask0_4812_146183" style="mask-type:alpha" maskUnits="userSpaceOnUse" x="1" y="0" width="24" height="25">
<circle cx="13.0001" cy="12.9963" r="12.0001" fill="#D9D9D9"/>
</mask>
<g mask="url(#mask0_4812_146183)">
<rect x="1" y="0.996201" width="24.0001" height="24.0001" fill="#008259"/>
<path d="M13 5.66289L23.0001 12.9963L13 20.3296L3 12.9963L13 5.66289Z" fill="#F1B434"/>
<path d="M13.166 17.6629C15.6513 17.6629 17.6661 15.5736 17.6661 12.9963C17.6661 10.4189 15.6513 8.32957 13.166 8.32957C10.6807 8.32957 8.66602 10.4189 8.66602 12.9963C8.66602 15.5736 10.6807 17.6629 13.166 17.6629Z" fill="#004692"/>
<path d="M8.73438 12.1882C9.30523 12.0623 9.89619 11.9962 10.5005 11.9962C13.1454 11.9962 15.5346 13.2624 17.1016 15.2631C17.4072 14.6939 17.6012 14.0515 17.6532 13.3677C15.8163 11.4895 13.2895 10.3296 10.5005 10.3296C10.141 10.3296 9.78594 10.3488 9.43611 10.3864C9.08902 10.919 8.84519 11.5299 8.73438 12.1882Z" fill="#F5F7F8"/>
</g>
<rect x="1" y="0.996201" width="24.0001" height="24.0001" rx="12.0001" stroke="#EDEDED"/>
</svg>
