<svg width="26" height="26" viewBox="0 0 26 26" fill="none" xmlns="http://www.w3.org/2000/svg">
<mask id="mask0_4812_146181" style="mask-type:alpha" maskUnits="userSpaceOnUse" x="1" y="0" width="24" height="25">
<circle cx="13.0001" cy="12.9963" r="12.0001" fill="#D9D9D9"/>
</mask>
<g mask="url(#mask0_4812_146181)">
<rect x="1" y="0.996201" width="24.0001" height="24.0001" fill="#E26E00"/>
<path d="M0.867186 0.996193L0.867188 24.9963L24.8673 0.996192L0.867186 0.996193Z" fill="#F1B434"/>
<path d="M15.3804 5.76569C14.003 5.46807 12.8188 6.7711 13.2463 8.11391L14.4276 11.824L10.7718 11.0999C9.63828 10.8754 8.58225 11.7428 8.58225 12.8983V14.6572L5.62891 16.3118L6.76934 18.3474L8.69915 17.2663V19.3296H11.0325V17.1622L12.2116 17.3194L12.52 15.0065L10.9156 14.7926V13.5071L14.0375 14.1254L13.8032 14.8282C13.483 15.7888 14.0021 16.827 14.9627 17.1472L17.8303 18.1031L18.5681 15.8895L16.1749 15.0917L16.7067 13.4963H19.3659V11.1629H16.6659L15.7316 8.22877L19.6195 9.0688L20.1123 6.78808L15.3804 5.76569Z" fill="#F5F7F8"/>
</g>
<rect x="1" y="0.996201" width="24.0001" height="24.0001" rx="12.0001" stroke="#EDEDED"/>
</svg>
