<svg width="26" height="26" viewBox="0 0 26 26" fill="none" xmlns="http://www.w3.org/2000/svg">
<mask id="mask0_4812_146180" style="mask-type:alpha" maskUnits="userSpaceOnUse" x="1" y="0" width="24" height="25">
<circle cx="13.0001" cy="12.9963" r="12.0001" fill="#D9D9D9"/>
</mask>
<g mask="url(#mask0_4812_146180)">
<rect x="1" y="0.996201" width="24.0001" height="24.0001" fill="#DD2033"/>
<path fill-rule="evenodd" clip-rule="evenodd" d="M7.79951 24.9963H5.7995L5.7995 16.8963H1.13281V14.8963H5.7995L5.7995 11.0963H1.13281V9.09626H5.7995L5.7995 0.996201H7.79951L7.79951 9.09626H11.5995L11.5995 0.996201H13.5995L13.5995 9.09626H25.1329V11.0963L13.5995 11.0963V14.8963L25.1329 14.8963V16.8963L13.5995 16.8963L13.5995 24.9963H11.5995L11.5995 16.8963H7.79951L7.79951 24.9963ZM11.5995 11.0963H7.79951L7.79951 14.8963H11.5995L11.5995 11.0963Z" fill="#F5F7F8"/>
<path d="M7.6667 24.9963H11.6667L11.6667 14.9963L25.0001 14.9963V10.9962L11.6667 10.9962L11.6667 0.996201H7.6667L7.6667 10.9962L1 10.9962V14.9963H7.6667L7.6667 24.9963Z" fill="#004692"/>
</g>
<rect x="1" y="0.996201" width="24.0001" height="24.0001" rx="12.0001" stroke="#EDEDED"/>
</svg>
