<svg width="26" height="26" viewBox="0 0 26 26" fill="none" xmlns="http://www.w3.org/2000/svg">
<mask id="mask0_4812_146214" style="mask-type:alpha" maskUnits="userSpaceOnUse" x="1" y="0" width="25" height="25">
<circle cx="13.002" cy="12.9963" r="12.0001" fill="#D9D9D9"/>
</mask>
<g mask="url(#mask0_4812_146214)">
<rect x="1.00195" y="0.996201" width="24.0001" height="24.0001" fill="#F5F7F8"/>
<path d="M1.00146 14.9963L1.00146 0.996201L25.0016 0.9962V14.9963H1.00146Z" fill="#A00009"/>
<path d="M1.00146 0.996201L9.00149 0.9962V24.9963H1.00146L1.00146 0.996201Z" fill="#F5F7F8"/>
<path fill-rule="evenodd" clip-rule="evenodd" d="M2.66812 -7.00384L5.90994 -1.24061L4.32439 1.57815L2.78741 -1.15425L1.33478 -0.337141L3.36826 3.27793L1.68896 6.26336L1.45407 5.84579L0.00144189 6.66289L0.732832 7.96314L-1.45117 11.8458L0.00146096 12.6629L1.68896 9.66292L3.36826 12.6484L1.68896 15.6338L0.120735 12.8458L-1.3319 13.6629L0.732832 17.3336L-0.117832 18.8459L1.3348 19.663L1.68896 19.0333L3.36826 22.0188L1.21551 25.8459L2.66814 26.663L4.32439 23.7185L5.92036 26.5558L3.88219 30.1792L5.33482 30.9963L6.87648 28.2556L7.66815 29.663L9.12078 28.8459L7.83261 26.5558L14.3349 14.9963L12.8822 14.1792L9.51191 20.1708L7.91595 17.3336L9.59525 14.3481L10.3348 15.6629L11.7875 14.8458L10.5514 12.6484L11.6682 10.6629L10.2156 9.84581L9.59525 10.9486L7.91595 7.96314L9.5015 5.14438L11.6682 8.99624L13.1208 8.17913L7.82219 -1.24061L9.0015 -3.33716L7.54887 -4.15426L6.86607 -2.94039L4.12075 -7.82095L2.66812 -7.00384ZM8.55579 21.8706L6.95982 19.0333L5.28052 22.0188L6.87648 24.856L8.55579 21.8706ZM6.00369 17.3336L4.32439 20.319L2.64509 17.3336L4.32439 14.3481L6.00369 17.3336ZM8.63912 12.6484L6.95982 15.6338L5.28052 12.6484L6.95982 9.66292L8.63912 12.6484ZM6.00369 7.96314L4.32439 10.9486L2.64509 7.96314L4.32439 4.97772L6.00369 7.96314ZM8.54537 3.4446L6.95982 6.26336L5.28052 3.27793L6.86607 0.459176L8.54537 3.4446Z" fill="#A00009"/>
<rect x="9.00195" y="24.9963" width="10" height="16.0001" transform="rotate(-90 9.00195 24.9963)" fill="#008259"/>
</g>
<rect x="1.00195" y="0.996201" width="24.0001" height="24.0001" rx="12.0001" stroke="#EDEDED"/>
</svg>
