<svg width="26" height="26" viewBox="0 0 26 26" fill="none" xmlns="http://www.w3.org/2000/svg">
<mask id="mask0_4812_146215" style="mask-type:alpha" maskUnits="userSpaceOnUse" x="1" y="0" width="25" height="25">
<circle cx="13.002" cy="12.9963" r="12.0001" fill="#D9D9D9"/>
</mask>
<g mask="url(#mask0_4812_146215)">
<rect x="1.00195" y="24.9963" width="24.0001" height="24.0001" transform="rotate(-90 1.00195 24.9963)" fill="#DD2033"/>
<rect x="1.00195" y="3.66288" width="24.0001" height="18.6668" fill="#004692"/>
<circle cx="13.002" cy="12.9963" r="8.00004" fill="#F5F7F8"/>
<path fill-rule="evenodd" clip-rule="evenodd" d="M13.0026 17.9963C15.7641 17.9963 18.0027 15.7577 18.0027 12.9963C18.0027 10.2348 15.7641 7.99623 13.0026 7.99623C10.2412 7.99623 8.00261 10.2348 8.00261 12.9963C8.00261 15.7577 10.2412 17.9963 13.0026 17.9963ZM13.0026 19.663C16.6846 19.663 19.6693 16.6782 19.6693 12.9963C19.6693 9.31434 16.6846 6.32956 13.0026 6.32956C9.32072 6.32956 6.33594 9.31434 6.33594 12.9963C6.33594 16.6782 9.32072 19.663 13.0026 19.663Z" fill="#009B77"/>
<path d="M9.93555 10.3296H15.9356V12.5485C15.9356 14.504 14.7486 16.2637 12.9356 16.9963V16.9963V16.9963C11.1225 16.2637 9.93555 14.504 9.93555 12.5485V10.3296Z" fill="#86C5FA"/>
<mask id="mask1_4812_146215" style="mask-type:alpha" maskUnits="userSpaceOnUse" x="9" y="10" width="7" height="7">
<path d="M9.93555 10.3296H15.9356V12.5485C15.9356 14.504 14.7486 16.2637 12.9356 16.9963V16.9963V16.9963C11.1225 16.2637 9.93555 14.504 9.93555 12.5485V10.3296Z" fill="#86C5FA"/>
</mask>
<g mask="url(#mask1_4812_146215)">
<rect x="9.60156" y="10.0199" width="4.2362" height="8.33337" transform="rotate(-45 9.60156 10.0199)" fill="#F1B434"/>
</g>
</g>
<rect x="1.00195" y="0.996201" width="24.0001" height="24.0001" rx="12.0001" stroke="#EDEDED"/>
</svg>
