<svg width="26" height="26" viewBox="0 0 26 26" fill="none" xmlns="http://www.w3.org/2000/svg">
<mask id="mask0_4812_146217" style="mask-type:alpha" maskUnits="userSpaceOnUse" x="1" y="0" width="24" height="25">
<circle cx="13.0001" cy="12.9963" r="12.0001" fill="#D9D9D9"/>
</mask>
<g mask="url(#mask0_4812_146217)">
<rect x="1" y="0.996201" width="24.0001" height="24.0001" fill="#008259"/>
<circle cx="6.8008" cy="8.32957" r="3.00001" fill="#F1B434"/>
<rect x="6.4668" y="7.99623" width="0.66667" height="2.66668" fill="#936846"/>
<path d="M6.80014 5.99622L7.12829 6.7001L7.86941 6.52441L7.5375 7.22642L8.13348 7.7112L7.39147 7.88272L7.39352 8.6629L6.80014 8.1748L6.20673 8.6629L6.20881 7.88272L5.4668 7.7112L6.06275 7.22642L5.73088 6.52441L6.47196 6.7001L6.80014 5.99622Z" fill="#009B77"/>
<path d="M20.129 8.03344L19.8008 7.32957L19.4727 8.03344L18.7316 7.85776L19.0634 8.55977L18.4675 9.04454L19.2095 9.21606L19.2074 9.99625L19.8008 9.50814L20.3942 9.99625L20.3922 9.21606L21.1342 9.04454L20.5382 8.55977L20.8701 7.85776L20.129 8.03344Z" fill="#F1B434"/>
<path d="M13.9674 10.4962C14.1723 10.4962 14.3715 10.5209 14.562 10.5674C14.0674 10.2081 13.4589 9.99625 12.8008 9.99625C11.1439 9.99625 9.80078 11.3394 9.80078 12.9963C9.80078 14.6531 11.1439 15.9963 12.8008 15.9963C13.4589 15.9963 14.0674 15.7844 14.562 15.4251C14.3715 15.4716 14.1723 15.4963 13.9674 15.4963C12.5867 15.4963 11.4674 14.377 11.4674 12.9963C11.4674 11.6155 12.5867 10.4962 13.9674 10.4962Z" fill="#F1B434"/>
<path d="M16.7956 12.7001L16.4675 11.9963L16.1393 12.7001L15.3982 12.5244L15.7301 13.2265L15.1341 13.7112L15.8762 13.8827L15.8741 14.6629L16.4675 14.1748L17.0609 14.6629L17.0588 13.8827L17.8008 13.7112L17.2048 13.2265L17.5368 12.5244L16.7956 12.7001Z" fill="#F1B434"/>
<path d="M18.8008 18.3296L19.129 19.0335L19.8701 18.8578L19.5382 19.5598L20.1342 20.0446L19.3922 20.2161L19.3942 20.9963L18.8008 20.5082L18.2074 20.9963L18.2095 20.2161L17.4675 20.0446L18.0634 19.5598L17.7316 18.8578L18.4726 19.0335L18.8008 18.3296Z" fill="#F1B434"/>
<path d="M22.4675 11.6629L22.7957 12.3668L23.5368 12.1911L23.2049 12.8931L23.8008 13.3779L23.0588 13.5494L23.0609 14.3296L22.4675 13.8415L21.8741 14.3296L21.8762 13.5494L21.1342 13.3779L21.7301 12.8931L21.3983 12.1911L22.1393 12.3668L22.4675 11.6629Z" fill="#F1B434"/>
<path d="M21.1342 16.3296C21.5024 16.3296 21.8008 16.0311 21.8008 15.6629C21.8008 15.2947 21.5024 14.9963 21.1342 14.9963C20.766 14.9963 20.4675 15.2947 20.4675 15.6629C20.4675 16.0311 20.766 16.3296 21.1342 16.3296Z" fill="#F1B434"/>
</g>
<rect x="1" y="0.996201" width="24.0001" height="24.0001" rx="12.0001" stroke="#EDEDED"/>
</svg>
