<svg width="26" height="26" viewBox="0 0 26 26" fill="none" xmlns="http://www.w3.org/2000/svg">
<mask id="mask0_4812_146223" style="mask-type:alpha" maskUnits="userSpaceOnUse" x="1" y="0" width="25" height="25">
<circle cx="13.002" cy="12.9964" r="12.0001" fill="#D9D9D9"/>
</mask>
<g mask="url(#mask0_4812_146223)">
<rect x="1.00195" y="0.996353" width="24.0001" height="24.0001" fill="#004692"/>
<path d="M12.7933 15.7662L12.4515 16.5395L11.6465 16.6424L12.2402 17.2231L12.0845 18.0599L12.7933 17.5821L13.5021 18.0599L13.3464 17.2231L13.9402 16.6424L13.1352 16.5395L12.7933 15.7662Z" fill="#F5F7F8"/>
<path d="M13.6532 13.6381L13.9951 12.8649L14.3369 13.6381L15.1419 13.741L14.5482 14.3218L14.7039 15.1586L13.9951 14.6807L13.2863 15.1586L13.442 14.3218L12.8482 13.741L13.6532 13.6381Z" fill="#F5F7F8"/>
<path d="M16.5547 12.4363L16.8966 11.6631L17.2384 12.4363L18.0434 12.5392L17.4496 13.12L17.6053 13.9568L16.8965 13.4789L16.1877 13.9568L16.3434 13.12L15.7497 12.5392L16.5547 12.4363Z" fill="#F5F7F8"/>
<path d="M13.6532 19.4409L13.9951 18.6676L14.3369 19.4409L15.1419 19.5437L14.5482 20.1245L14.7039 20.9613L13.9951 20.4835L13.2863 20.9613L13.442 20.1245L12.8482 19.5437L13.6532 19.4409Z" fill="#F5F7F8"/>
<path d="M16.8966 19.8694L16.5547 20.6427L15.7497 20.7455L16.3434 21.3263L16.1877 22.1631L16.8965 21.6853L17.6053 22.1631L17.4496 21.3263L18.0434 20.7455L17.2384 20.6427L16.8966 19.8694Z" fill="#F5F7F8"/>
<path d="M19.456 19.4409L19.7978 18.6676L20.1397 19.4409L20.9447 19.5437L20.3509 20.1245L20.5066 20.9613L19.7978 20.4835L19.089 20.9613L19.2447 20.1245L18.651 19.5437L19.456 19.4409Z" fill="#F5F7F8"/>
<path d="M20.9996 15.7662L20.6578 16.5395L19.8528 16.6424L20.4465 17.2231L20.2908 18.0599L20.9996 17.5821L21.7084 18.0599L21.5527 17.2231L22.1465 16.6424L21.3415 16.5395L20.9996 15.7662Z" fill="#F5F7F8"/>
<path d="M19.456 13.6381L19.7978 12.8649L20.1397 13.6381L20.9447 13.741L20.3509 14.3218L20.5066 15.1586L19.7978 14.6807L19.089 15.1586L19.2447 14.3218L18.651 13.741L19.456 13.6381Z" fill="#F5F7F8"/>
<mask id="mask1_4812_146223" style="mask-type:alpha" maskUnits="userSpaceOnUse" x="1" y="0" width="13" height="13">
<path d="M1.00195 12.9964V12.9964C1.00195 6.36896 6.37456 0.996357 13.002 0.996356V0.996356L13.002 12.9964L1.00195 12.9964Z" fill="#002F6C"/>
</mask>
<g mask="url(#mask1_4812_146223)">
<path d="M5.17547 2.04099L4.46836 2.7481L14.3104 12.5901L15.0175 11.883L5.17547 2.04099Z" fill="#F5F7F8"/>
<path d="M3.28985 3.92662L2.11133 5.10513L11.9534 14.9472L13.1319 13.7687L3.28985 3.92662Z" fill="#F5F7F8"/>
<path d="M3.28985 3.92662L4.46836 2.7481L14.3104 12.5901L13.1319 13.7687L3.28985 3.92662Z" fill="#DD2033"/>
<path d="M13.002 4.99637V6.66304L6.66863 6.66304L6.66863 12.9964H5.00195V4.99637H13.002Z" fill="#F5F7F8"/>
<path d="M13.002 0.329681V1.99636L2.66863 1.99636L2.66863 12.9964H1.00195V0.329681H13.002Z" fill="#F5F7F8"/>
<path fill-rule="evenodd" clip-rule="evenodd" d="M2.00195 12.9964H5.00197L5.00197 4.99638L13.002 4.99638V1.99637H5.00197H2.00195L2.00195 4.99638L2.00195 12.9964Z" fill="#DD2033"/>
</g>
</g>
<rect x="1.00195" y="0.996353" width="24.0001" height="24.0001" rx="12.0001" stroke="#EDEDED"/>
</svg>
