<svg width="26" height="26" viewBox="0 0 26 26" fill="none" xmlns="http://www.w3.org/2000/svg">
<mask id="mask0_4812_146226" style="mask-type:alpha" maskUnits="userSpaceOnUse" x="1" y="0" width="24" height="25">
<circle cx="13.0001" cy="12.9964" r="12.0001" fill="#D9D9D9"/>
</mask>
<g mask="url(#mask0_4812_146226)">
<rect x="1" y="0.996353" width="24.0001" height="24.0001" fill="#DD2033"/>
<path d="M14.1844 2.59789L13.2595 3.74609L11.857 3.55604L12.5951 4.80238L11.9551 6.14168L13.3647 5.65666L14.343 6.78153L14.4584 5.30166L15.7208 4.59132L14.4112 4.05467L14.1844 2.59789Z" fill="#F1B434"/>
<path d="M7.6667 7.52975L6.57376 10.0019L4 10.3308L5.89834 12.1877L5.40051 14.8631L7.66668 13.3353L9.93286 14.8631L9.43503 12.1877L11.3334 10.3308L8.75961 10.0019L7.6667 7.52975Z" fill="#F1B434"/>
<path d="M15.5889 9.05468L15.8157 7.59789L16.7406 8.74609L18.143 8.55605L17.405 9.80238L18.045 11.1417L16.6353 10.6567L15.657 11.7815L15.5416 10.3017L14.2793 9.59133L15.5889 9.05468Z" fill="#F1B434"/>
<path d="M15.6667 12.5298L15.0706 13.8782L13.6667 14.0576L14.7022 15.0705L14.4306 16.5298L15.6667 15.6964L16.9028 16.5298L16.6313 15.0705L17.6667 14.0576L16.2629 13.8782L15.6667 12.5298Z" fill="#F1B434"/>
<path d="M11.9262 17.7461L12.851 16.5979L13.0778 18.0547L14.3874 18.5914L13.1251 19.3017L13.0097 20.7816L12.0314 19.6567L10.6217 20.1417L11.2617 18.8024L10.5237 17.5561L11.9262 17.7461Z" fill="#F1B434"/>
</g>
<rect x="1" y="0.996353" width="24.0001" height="24.0001" rx="12.0001" stroke="#EDEDED"/>
</svg>
