<svg width="26" height="26" viewBox="0 0 26 26" fill="none" xmlns="http://www.w3.org/2000/svg">
<mask id="mask0_4812_146230" style="mask-type:alpha" maskUnits="userSpaceOnUse" x="0" y="0" width="25" height="25">
<circle cx="12.9981" cy="12.9966" r="12.0001" fill="#D9D9D9"/>
</mask>
<g mask="url(#mask0_4812_146230)">
<rect x="0.998047" y="0.996536" width="24.0001" height="24.0001" fill="#004692"/>
<rect x="0.998047" y="18.9966" width="6.00003" height="24.0001" transform="rotate(-90 0.998047 18.9966)" fill="#F5F7F8"/>
<rect x="0.998047" y="16.9966" width="2.00001" height="24.0001" transform="rotate(-90 0.998047 16.9966)" fill="#DD2033"/>
<path d="M6.1449 14.5998L5.80306 15.373L4.99805 15.4759L5.5918 16.0567L5.43609 16.8935L6.1449 16.4156L6.8537 16.8935L6.69799 16.0567L7.29175 15.4759L6.48674 15.373L6.1449 14.5998Z" fill="#F1B434"/>
<path d="M7.00478 12.4716L7.34663 11.6984L7.68847 12.4716L8.49347 12.5745L7.89972 13.1553L8.05543 13.9921L7.34662 13.5142L6.63782 13.9921L6.79353 13.1553L6.19977 12.5745L7.00478 12.4716Z" fill="#F1B434"/>
<path d="M9.90627 11.2698L10.2481 10.4966L10.5899 11.2698L11.395 11.3727L10.8012 11.9535L10.9569 12.7903L10.2481 12.3124L9.5393 12.7903L9.69501 11.9535L9.10126 11.3727L9.90627 11.2698Z" fill="#F1B434"/>
<path d="M7.00478 18.2744L7.34663 17.5011L7.68846 18.2744L8.49347 18.3772L7.89972 18.958L8.05543 19.7948L7.34662 19.317L6.63782 19.7948L6.79353 18.958L6.19977 18.3772L7.00478 18.2744Z" fill="#F1B434"/>
<path d="M10.2481 18.7029L9.90627 19.4762L9.10126 19.579L9.69501 20.1598L9.5393 20.9966L10.2481 20.5188L10.9569 20.9966L10.8012 20.1598L11.395 19.579L10.5899 19.4762L10.2481 18.7029Z" fill="#F1B434"/>
<path d="M12.8075 18.2744L13.1494 17.5011L13.4912 18.2744L14.2962 18.3772L13.7025 18.958L13.8582 19.7948L13.1494 19.317L12.4406 19.7948L12.5963 18.958L12.0025 18.3772L12.8075 18.2744Z" fill="#F1B434"/>
<path d="M14.3512 14.5998L14.0094 15.373L13.2043 15.4759L13.7981 16.0567L13.6424 16.8935L14.3512 16.4156L15.06 16.8935L14.9043 16.0567L15.498 15.4759L14.693 15.373L14.3512 14.5998Z" fill="#F1B434"/>
<path d="M12.8075 12.4716L13.1494 11.6984L13.4912 12.4716L14.2962 12.5745L13.7025 13.1553L13.8582 13.9921L13.1494 13.5142L12.4406 13.9921L12.5963 13.1553L12.0025 12.5745L12.8075 12.4716Z" fill="#F1B434"/>
</g>
<rect x="0.998047" y="0.996536" width="24.0001" height="24.0001" rx="12.0001" stroke="#EDEDED"/>
</svg>
