<svg width="26" height="26" viewBox="0 0 26 26" fill="none" xmlns="http://www.w3.org/2000/svg">
<mask id="mask0_4812_146231" style="mask-type:alpha" maskUnits="userSpaceOnUse" x="1" y="0" width="24" height="25">
<circle cx="13.0001" cy="12.9966" r="12.0001" fill="#D9D9D9"/>
</mask>
<g mask="url(#mask0_4812_146231)">
<rect x="1" y="0.996536" width="24.0001" height="24.0001" fill="#004692"/>
<rect x="1.13281" y="16.9967" width="2.00001" height="24.0001" transform="rotate(-90 1.13281 16.9967)" fill="#FBD381"/>
<path d="M6.87182 5.46113L7.66669 3.66321L8.46153 5.46113L10.3334 5.70036L8.95275 7.05082L9.31481 8.99657L7.66668 7.88545L6.01855 8.99657L6.38061 7.05082L5 5.70036L6.87182 5.46113Z" fill="#F5F7F8"/>
<path d="M12.3398 8.91063L13.3334 6.66322L14.3269 8.91063L16.6667 9.20966L14.941 10.8977L15.3935 13.3299L13.3334 11.941L11.2732 13.3299L11.7258 10.8977L10 9.20966L12.3398 8.91063Z" fill="#F5F7F8"/>
</g>
<rect x="1" y="0.996536" width="24.0001" height="24.0001" rx="12.0001" stroke="#EDEDED"/>
</svg>
