<svg width="26" height="26" viewBox="0 0 26 26" fill="none" xmlns="http://www.w3.org/2000/svg">
<mask id="mask0_4812_146232" style="mask-type:alpha" maskUnits="userSpaceOnUse" x="1" y="0" width="24" height="25">
<circle cx="12.0001" cy="12.0001" r="12.0001" transform="matrix(1 0 0 -1 1 24.9966)" fill="#D9D9D9"/>
</mask>
<g mask="url(#mask0_4812_146232)">
<rect width="24.0001" height="24.0001" transform="matrix(1 0 0 -1 1 24.9966)" fill="#004692"/>
<path d="M25.1993 0.996539L25.1993 24.9967L1.19922 0.996536L25.1993 0.996539Z" fill="#008259"/>
<path fill-rule="evenodd" clip-rule="evenodd" d="M21.7363 11.4753C21.3566 11.7007 21.1471 12.0424 21.0742 12.2628V12.2628C20.9303 12.6981 20.3252 12.7264 20.1414 12.3063V12.3063C19.88 11.7091 19.3934 11.4438 18.8244 11.3578C18.2368 11.2688 17.6084 11.3845 17.2178 11.5208L16.8883 10.5767C17.3894 10.4018 18.1856 10.2497 18.9741 10.369C19.5421 10.4549 20.1267 10.6879 20.5751 11.1653C20.746 10.9641 20.9616 10.7723 21.2259 10.6154C21.8549 10.242 22.712 10.0947 23.7965 10.4145L23.5137 11.3736C22.663 11.1228 22.0982 11.2605 21.7363 11.4753Z" fill="#F1B434"/>
<path d="M4.94277 10.5431L4.53257 9.66324L4.12235 10.5431L3.196 10.3235L3.61084 11.201L2.8659 11.807L3.79341 12.0214L3.79081 12.9966L4.53257 12.3865L5.2743 12.9966L5.27173 12.0214L6.19925 11.807L5.45428 11.201L5.86917 10.3235L4.94277 10.5431Z" fill="#F5F7F8"/>
<path d="M1.86589 13.6633L2.27609 14.5431L3.20249 14.3235L2.7876 15.201L3.53257 15.807L2.60505 16.0214L2.60762 16.9966L1.86589 16.3865L1.12413 16.9966L1.12673 16.0214L0.199219 15.807L0.944161 15.201L0.529325 14.3235L1.45567 14.5431L1.86589 13.6633Z" fill="#F5F7F8"/>
<path d="M7.19925 21.33L7.60945 22.2098L8.53585 21.9902L8.12096 22.8677L8.86593 23.4737L7.93841 23.6881L7.94098 24.6633L7.19925 24.0532L6.45749 24.6633L6.46009 23.6881L5.53258 23.4737L6.27752 22.8677L5.86268 21.9902L6.78903 22.2098L7.19925 21.33Z" fill="#F5F7F8"/>
<path d="M7.86592 12.3299L8.27612 13.2098L9.20252 12.9902L8.78763 13.8677L9.5326 14.4736L8.60508 14.688L8.60765 15.6633L7.86592 15.0531L7.12416 15.6633L7.12676 14.688L6.19925 14.4736L6.94419 13.8677L6.52935 12.9902L7.4557 13.2098L7.86592 12.3299Z" fill="#F5F7F8"/>
<path d="M6.03258 18.3299C6.49282 18.3299 6.86592 17.9569 6.86592 17.4966C6.86592 17.0364 6.49282 16.6633 6.03258 16.6633C5.57234 16.6633 5.19924 17.0364 5.19924 17.4966C5.19924 17.9569 5.57234 18.3299 6.03258 18.3299Z" fill="#F5F7F8"/>
<circle cx="13.0326" cy="12.8299" r="2.83335" fill="#F1B434"/>
</g>
<rect x="1" y="0.996536" width="24.0001" height="24.0001" rx="12.0001" stroke="#EDEDED"/>
</svg>
