<svg width="26" height="26" viewBox="0 0 26 26" fill="none" xmlns="http://www.w3.org/2000/svg">
<mask id="mask0_4812_146233" style="mask-type:alpha" maskUnits="userSpaceOnUse" x="1" y="0" width="25" height="25">
<circle cx="13.002" cy="12.9966" r="12.0001" fill="#D9D9D9"/>
</mask>
<g mask="url(#mask0_4812_146233)">
<rect x="1.00195" y="0.996536" width="24.0001" height="24.0001" fill="#F5F7F8"/>
<path d="M6.74238 9.82326C6.74238 9.82326 6.4676 13.0166 9.62262 13.2881L10.1986 13.981L11.4607 14.0896C11.4607 14.0896 12.2565 12.2279 13.5185 12.3365C13.5185 12.3365 13.6284 11.0592 14.8905 11.1678C16.1525 11.2764 16.7835 11.3306 16.7835 11.3306C16.7835 11.3306 16.3723 8.72165 19.6922 7.07714L18.4851 6.3299C18.4851 6.3299 13.7933 9.14317 10.6932 8.23304L10.5833 9.51039L9.32131 9.4018L8.74529 8.70886L6.74238 9.82326Z" fill="#FF9E42"/>
<path d="M7.32617 15.8592C8.07403 17.7583 9.81805 19.1888 11.9474 19.5654C11.8862 19.6042 11.8282 19.6503 11.7748 19.7037C11.3843 20.0943 11.3843 20.7274 11.7748 21.118L13.1284 19.7644L14.482 21.118C14.8725 20.7274 14.8725 20.0943 14.482 19.7037C14.4205 19.6422 14.353 19.5904 14.2813 19.5483C16.3683 19.1469 18.0725 17.7305 18.8094 15.8592L17.0871 15.4593C16.4118 16.9448 14.8664 17.9832 13.0679 17.9832C11.2694 17.9832 9.72392 16.9447 9.04863 15.4592L7.32617 15.8592Z" fill="#009B77"/>
</g>
<rect x="1.00195" y="0.996536" width="24.0001" height="24.0001" rx="12.0001" stroke="#EDEDED"/>
</svg>
