<svg width="26" height="26" viewBox="0 0 26 26" fill="none" xmlns="http://www.w3.org/2000/svg">
<mask id="mask0_4812_146238" style="mask-type:alpha" maskUnits="userSpaceOnUse" x="1" y="0" width="24" height="25">
<circle cx="13.0001" cy="12.9966" r="12.0001" fill="#D9D9D9"/>
</mask>
<g mask="url(#mask0_4812_146238)">
<rect x="1" y="0.996536" width="24.0001" height="24.0001" fill="#008259"/>
<path d="M14.3334 0.996536H17.0001V14.3299H25.0001V16.9966H17.0001V24.9967H14.3334V16.9966L1 16.9966V14.3299L14.3334 14.3299V0.996536Z" fill="#F5F7F8"/>
<path d="M9.00004 0.996536H11.6667V8.99657L25.0001 8.99657V11.6633L11.6667 11.6633V24.9967H9.00004V11.6633L1 11.6633V8.99657L9.00004 8.99657V0.996536Z" fill="#FBD381"/>
<path d="M14.3334 0.996536H11.6667V11.6633L1 11.6633V14.3299H11.6667V24.9967H14.3334V14.3299H25.0001V11.6633L14.3334 11.6633V0.996536Z" fill="#31373D"/>
<circle cx="13.0671" cy="12.9966" r="6.6667" fill="#DD2033"/>
<path d="M14.4004 17.33H13.067C11.9625 17.33 11.067 16.4345 11.067 15.3299V11.6633H14.4004V17.33Z" fill="#005B33"/>
<path d="M12.3997 8.66324H11.7331V11.6633H11.0664V13.3299C11.0664 15.1709 12.5588 16.6633 14.3998 16.6633V10.6632C14.3998 9.55867 13.5043 8.66324 12.3997 8.66324Z" fill="#642F6C"/>
<path d="M11.7324 8.66324V8.66324C11.1801 8.66324 10.7324 9.11096 10.7324 9.66324V10.3299H11.7324V8.66324Z" fill="#FBD381"/>
<path d="M13.3995 11.6633C13.3995 11.111 13.8472 10.6633 14.3995 10.6633V12.3125L15.5903 15.7797C15.9491 16.8244 15.3931 17.9621 14.3484 18.3209L12.9086 14.1287C12.7117 13.5552 12.9282 12.9398 13.3995 12.6067V11.6633Z" fill="#008259"/>
</g>
<rect x="1" y="0.996536" width="24.0001" height="24.0001" rx="12.0001" stroke="#EDEDED"/>
</svg>
