<svg width="26" height="26" viewBox="0 0 26 26" fill="none" xmlns="http://www.w3.org/2000/svg">
<mask id="mask0_4812_146240" style="mask-type:alpha" maskUnits="userSpaceOnUse" x="0" y="0" width="25" height="25">
<circle cx="12.9981" cy="12.9968" r="12.0001" transform="rotate(-90 12.9981 12.9968)" fill="#D9D9D9"/>
</mask>
<g mask="url(#mask0_4812_146240)">
<rect x="0.998047" y="0.996704" width="24.0001" height="24.0001" fill="#005B33"/>
<rect x="12.998" y="0.996704" width="12.0001" height="24.0001" fill="#F5F7F8"/>
<path d="M14.6654 7.6634C16.2421 7.6634 17.659 8.34757 18.6354 9.43522C17.4537 7.56905 15.3709 6.33006 12.9987 6.33006C9.31681 6.33006 6.33203 9.31485 6.33203 12.9968C6.33203 16.6787 9.31681 19.6635 12.9987 19.6635C15.3709 19.6635 17.4538 18.4245 18.6354 16.5583C17.659 17.646 16.2421 18.3301 14.6654 18.3301C11.7199 18.3301 9.33205 15.9423 9.33205 12.9968C9.33205 10.0512 11.7199 7.6634 14.6654 7.6634Z" fill="#DD2033"/>
<path d="M14.2334 12.777L13.2581 10.2561L15.779 11.2314L17.8315 9.64406L17.8022 12.2994L20.046 13.8392L17.3633 14.3613L16.8412 17.044L15.3014 14.8002L12.646 14.8295L14.2334 12.777Z" fill="#DD2033"/>
</g>
<rect x="0.998047" y="0.996704" width="24.0001" height="24.0001" rx="12.0001" stroke="#EDEDED"/>
</svg>
