<svg width="26" height="26" viewBox="0 0 26 26" fill="none" xmlns="http://www.w3.org/2000/svg">
<mask id="mask0_4812_146241" style="mask-type:alpha" maskUnits="userSpaceOnUse" x="1" y="0" width="24" height="25">
<circle cx="13.0001" cy="12.9968" r="12.0001" fill="#D9D9D9"/>
</mask>
<g mask="url(#mask0_4812_146241)">
<rect x="1" y="24.9969" width="6.00003" height="24.0001" transform="rotate(-90 1 24.9969)" fill="#DD2033"/>
<rect x="1" y="12.9968" width="12.0001" height="24.0001" transform="rotate(-90 1 12.9968)" fill="#F1B434"/>
<rect x="1" y="18.9968" width="6.00003" height="24.0001" transform="rotate(-90 1 18.9968)" fill="#004692"/>
<path fill-rule="evenodd" clip-rule="evenodd" d="M14.0703 8.14214C13.6906 8.36751 13.481 8.70926 13.4082 8.92965V8.92965C13.2643 9.36495 12.6592 9.39317 12.4754 8.97317V8.97317C12.214 8.37595 11.7274 8.11067 11.1584 8.02458C10.5708 7.93567 9.94238 8.05133 9.55179 8.18765L9.22227 7.2435C9.72338 7.06861 10.5196 6.91653 11.308 7.03583C11.876 7.12177 12.4607 7.35471 12.9091 7.83213C13.08 7.63088 13.2956 7.43908 13.5599 7.28219C14.1889 6.90887 15.0459 6.76151 16.1305 7.08129L15.8477 8.04047C14.997 7.78963 14.4322 7.92733 14.0703 8.14214Z" fill="#936846"/>
<path d="M11.0658 11.9968L6.73242 10.9967V14.776C6.73242 15.5931 7.46082 16.218 8.26851 16.0938L11.0658 15.6634V11.9968Z" fill="#FBD381"/>
<path d="M15.0658 11.9968L19.3991 10.9967V14.776C19.3991 15.5931 18.6707 16.218 17.8631 16.0938L15.0658 15.6634V11.9968Z" fill="#FBD381"/>
<path d="M12.0658 11.3301L7.73242 10.3301V14.1093C7.73242 14.9265 8.46082 15.5514 9.26851 15.4271L12.0658 14.9968V11.3301Z" fill="#004692"/>
<path d="M14.0658 11.3301L18.3991 10.3301V14.1093C18.3991 14.9265 17.6707 15.5514 16.8631 15.4271L14.0658 14.9968V11.3301Z" fill="#004692"/>
<path d="M8.73242 9.66341L13.0658 10.6634L17.3991 9.66341V13.4426C17.3991 14.2598 16.6707 14.8847 15.863 14.7604L13.0658 14.3301L10.2685 14.7604C9.46082 14.8847 8.73242 14.2598 8.73242 13.4426V9.66341Z" fill="#DD2033"/>
<path d="M15.2625 15.7361C14.7542 16.4623 13.988 16.9968 13.0664 16.9968C12.1448 16.9968 11.3787 16.4623 10.8703 15.7361C10.3605 15.0078 10.0664 14.0372 10.0664 12.9968C10.0664 11.9563 10.3605 10.9857 10.8703 10.2574C11.3787 9.53124 12.1448 8.99673 13.0664 8.99673C13.988 8.99673 14.7542 9.53124 15.2625 10.2574C15.7723 10.9857 16.0664 11.9563 16.0664 12.9968C16.0664 14.0372 15.7723 15.0078 15.2625 15.7361Z" fill="#0091DA"/>
<path fill-rule="evenodd" clip-rule="evenodd" d="M15.2625 15.7361C14.7542 16.4623 13.988 16.9968 13.0664 16.9968C12.1448 16.9968 11.3787 16.4623 10.8703 15.7361C10.3605 15.0078 10.0664 14.0372 10.0664 12.9968C10.0664 11.9563 10.3605 10.9857 10.8703 10.2574C11.3787 9.53124 12.1448 8.99673 13.0664 8.99673C13.988 8.99673 14.7542 9.53124 15.2625 10.2574C15.7723 10.9857 16.0664 11.9563 16.0664 12.9968C16.0664 14.0372 15.7723 15.0078 15.2625 15.7361ZM13.0664 16.3301C14.3551 16.3301 15.3998 14.8377 15.3998 12.9968C15.3998 11.1558 14.3551 9.6634 13.0664 9.6634C11.7777 9.6634 10.7331 11.1558 10.7331 12.9968C10.7331 14.8377 11.7777 16.3301 13.0664 16.3301Z" fill="#C1C3C3"/>
<mask id="mask1_4812_146241" style="mask-type:alpha" maskUnits="userSpaceOnUse" x="10" y="9" width="6" height="8">
<ellipse cx="13.0677" cy="12.9968" rx="2.33334" ry="3.33335" fill="#D9D9D9"/>
</mask>
<g mask="url(#mask1_4812_146241)">
<path d="M12.2018 13.3301L10.8685 15.3301L10.5352 13.3301H12.2018Z" fill="#008259"/>
<path d="M12.2018 13.3301L15.1352 15.3301L15.8685 13.3301H12.2018Z" fill="#008259"/>
<path d="M12.8679 11.9968L14.5345 13.3301H10.2012L10.7012 11.6634L12.2012 12.3301L12.8679 11.9968Z" fill="#F5F7F8"/>
</g>
</g>
<rect x="1" y="0.996704" width="24.0001" height="24.0001" rx="12.0001" stroke="#EDEDED"/>
</svg>
