<svg width="26" height="26" viewBox="0 0 26 26" fill="none" xmlns="http://www.w3.org/2000/svg">
<mask id="mask0_4812_146243" style="mask-type:alpha" maskUnits="userSpaceOnUse" x="1" y="0" width="25" height="25">
<circle cx="13.002" cy="12.9968" r="12.0001" fill="#D9D9D9"/>
</mask>
<g mask="url(#mask0_4812_146243)">
<rect x="1.00195" y="24.9969" width="8.00004" height="24.0001" transform="rotate(-90 1.00195 24.9969)" fill="#31373D"/>
<rect x="1.00195" y="16.9967" width="8.00004" height="24.0001" transform="rotate(-90 1.00195 16.9967)" fill="#F5F7F8"/>
<rect x="1.00195" y="8.9967" width="8.00004" height="24.0001" transform="rotate(-90 1.00195 8.9967)" fill="#DD2033"/>
<path d="M11.3346 6.33006H12.668C13.7726 6.33006 14.668 7.2255 14.668 8.33007V10.0244C15.6139 10.1831 16.3347 11.0058 16.3347 11.9968V18.3301L13.4965 17.1949C13.1786 17.0677 12.824 17.0677 12.5061 17.1949L9.66797 18.3301V11.9968C9.66797 11.0058 10.3887 10.1831 11.3346 10.0244V6.33006Z" fill="#F1B434"/>
<path d="M12.2684 18.1674L10.3346 19.4968H15.8347L13.7481 18.1467C13.2959 17.8541 12.7122 17.8622 12.2684 18.1674Z" fill="#F1B434"/>
</g>
<rect x="1.00195" y="0.996704" width="24.0001" height="24.0001" rx="12.0001" stroke="#EDEDED"/>
</svg>
