<svg width="26" height="26" viewBox="0 0 26 26" fill="none" xmlns="http://www.w3.org/2000/svg">
<mask id="mask0_4812_146244" style="mask-type:alpha" maskUnits="userSpaceOnUse" x="1" y="0" width="25" height="25">
<circle cx="13.002" cy="12.9968" r="12.0001" fill="#D9D9D9"/>
</mask>
<g mask="url(#mask0_4812_146244)">
<rect x="1.00195" y="24.9969" width="7.33337" height="24.0001" transform="rotate(-90 1.00195 24.9969)" fill="#005B33"/>
<rect x="1.00195" y="17.6634" width="9.33338" height="24.0001" transform="rotate(-90 1.00195 17.6634)" fill="#F5F7F8"/>
<rect x="1.00195" y="8.33008" width="7.33337" height="24.0001" transform="rotate(-90 1.00195 8.33008)" fill="#31373D"/>
<path d="M1.00195 3.99672V21.9968H1.66862L5.66864 18.9968L13.6687 12.9968L5.66864 6.99673L1.66862 3.99672H1.00195Z" fill="#DD2033"/>
<path d="M16.3353 12.9968C16.3353 11.7542 17.1851 10.7101 18.3353 10.4141C18.1222 10.3592 17.8988 10.3301 17.6686 10.3301C16.1959 10.3301 15.002 11.524 15.002 12.9968C15.002 14.4695 16.1959 15.6634 17.6686 15.6634C17.8988 15.6634 18.1222 15.6343 18.3353 15.5794C17.1851 15.2834 16.3353 14.2393 16.3353 12.9968Z" fill="#DD2033"/>
<path d="M19.7392 12.3452L20.3353 10.9967L20.9315 12.3452L22.3353 12.5246L21.2999 13.5375L21.5714 14.9968L20.3353 14.1634L19.0992 14.9968L19.3708 13.5375L18.3353 12.5246L19.7392 12.3452Z" fill="#DD2033"/>
</g>
<rect x="1.00195" y="0.996704" width="24.0001" height="24.0001" rx="12.0001" stroke="#EDEDED"/>
</svg>
