<svg width="26" height="26" viewBox="0 0 26 26" fill="none" xmlns="http://www.w3.org/2000/svg">
<mask id="mask0_4812_146245" style="mask-type:alpha" maskUnits="userSpaceOnUse" x="1" y="0" width="25" height="25">
<circle cx="13.002" cy="12.9968" r="12.0001" fill="#D9D9D9"/>
</mask>
<g mask="url(#mask0_4812_146245)">
<rect x="1.00195" y="0.996704" width="24.0001" height="12.0001" fill="#009B77"/>
<rect x="1.00195" y="24.9968" width="12.0001" height="24.0001" transform="rotate(-90 1.00195 24.9968)" fill="#0091DA"/>
<path d="M25.0021 12.9968L1.00195 0.996704V24.9968L25.0021 12.9968Z" fill="#DD2033"/>
<path d="M9.00263 17.6635C11.58 17.6635 13.6693 15.5741 13.6693 12.9968C13.6693 11.7081 13.147 10.5414 12.3025 9.69691L11.3597 10.6397C11.9629 11.2429 12.336 12.0763 12.336 12.9968C12.336 14.6094 11.1908 15.9546 9.6693 16.2634V10.9968H8.33596V16.2634C6.81446 15.9546 5.66928 14.6094 5.66928 12.9968C5.66928 12.0763 6.04237 11.243 6.64557 10.6398L5.70276 9.69694C4.85827 10.5414 4.33594 11.7081 4.33594 12.9968C4.33594 15.5741 6.42529 17.6635 9.00263 17.6635Z" fill="#FBD381"/>
<path d="M9.00263 8.33008L9.01248 8.33009H8.99278L9.00263 8.33008Z" fill="#FBD381"/>
</g>
<rect x="1.00195" y="0.996704" width="24.0001" height="24.0001" rx="12.0001" stroke="#EDEDED"/>
</svg>
