<svg width="26" height="26" viewBox="0 0 26 26" fill="none" xmlns="http://www.w3.org/2000/svg">
<mask id="mask0_4812_146246" style="mask-type:alpha" maskUnits="userSpaceOnUse" x="1" y="0" width="24" height="25">
<circle cx="12.9999" cy="12.9968" r="12.0001" transform="rotate(180 12.9999 12.9968)" fill="#D9D9D9"/>
</mask>
<g mask="url(#mask0_4812_146246)">
<rect x="1" y="0.996704" width="24.0001" height="24.0001" fill="#A00009"/>
<rect x="25" y="6.99678" width="12.0001" height="24.0001" transform="rotate(90 25 6.99678)" fill="#F1B434"/>
<path fill-rule="evenodd" clip-rule="evenodd" d="M8.53321 7.55234H9.19988V7.99678L9.86655 7.99678V8.66345H9.19988V9.28627C9.396 9.17283 9.62369 9.1079 9.86655 9.1079C10.6029 9.1079 11.1999 9.70485 11.1999 10.4412C11.1999 10.8361 11.0282 11.1909 10.7554 11.4351V11.9968H6.97762V11.435C6.70486 11.1909 6.5332 10.8361 6.5332 10.4412C6.5332 9.70485 7.13016 9.1079 7.86654 9.1079C8.1094 9.1079 8.3371 9.17283 8.53321 9.28627V8.66345H7.86654V7.99678L8.53321 7.99678V7.55234ZM8.86655 9.55929L8.86038 9.55235H8.87272L8.86655 9.55929ZM8.86037 11.3301L8.86655 11.3232L8.87273 11.3301H8.86037Z" fill="#E26E00"/>
<path d="M5.86719 11.9968L11.8672 11.9968L11.8672 15.2708C11.8672 16.5886 11.0673 17.7746 9.84541 18.2683V18.2683C9.21791 18.5218 8.51649 18.5218 7.889 18.2683V18.2683C6.66711 17.7746 5.86719 16.5886 5.86719 15.2708L5.86719 11.9968Z" fill="#F5F7F8"/>
<mask id="mask1_4812_146246" style="mask-type:alpha" maskUnits="userSpaceOnUse" x="5" y="11" width="7" height="8">
<path d="M5.86523 11.9968H11.8653V15.2708C11.8653 16.5886 11.0653 17.7746 9.84345 18.2683V18.2683C9.21596 18.5218 8.51454 18.5218 7.88704 18.2683V18.2683C6.66516 17.7746 5.86523 16.5886 5.86523 15.2708V11.9968Z" fill="#F5F7F8"/>
</mask>
<g mask="url(#mask1_4812_146246)">
<rect x="5.86523" y="11.9968" width="3.00001" height="3.33335" fill="#DD2033"/>
<rect x="5.86523" y="15.3302" width="3.00001" height="3.33335" fill="#E26E00"/>
<rect x="8.86523" y="15.3302" width="3.00001" height="3.33335" fill="#DD2033"/>
</g>
<path d="M12.5325 11.9968H13.5326V18.3302H12.5325V11.9968Z" fill="#F5F7F8"/>
<path d="M4.19922 11.9968H5.19922V18.3302H4.19922V11.9968Z" fill="#F5F7F8"/>
</g>
<rect x="1" y="0.996704" width="24.0001" height="24.0001" rx="12.0001" stroke="#EDEDED"/>
</svg>
