<svg width="26" height="26" viewBox="0 0 26 26" fill="none" xmlns="http://www.w3.org/2000/svg">
<mask id="mask0_4812_146247" style="mask-type:alpha" maskUnits="userSpaceOnUse" x="1" y="0" width="24" height="25">
<circle cx="13.0001" cy="12.9968" r="12.0001" fill="#D9D9D9"/>
</mask>
<g mask="url(#mask0_4812_146247)">
<rect x="1" y="24.9969" width="8.00004" height="24.0001" transform="rotate(-90 1 24.9969)" fill="#DD2033"/>
<rect x="1" y="16.9967" width="8.00004" height="24.0001" transform="rotate(-90 1 16.9967)" fill="#FBD381"/>
<rect x="1" y="8.9967" width="8.00004" height="24.0001" transform="rotate(-90 1 8.9967)" fill="#009B77"/>
<circle cx="13.0007" cy="12.9968" r="6.6667" fill="#004692"/>
<path d="M11.9066 11.8022L12.9996 9.33008L14.0925 11.8022L16.6662 12.1312L14.7679 13.988L15.2657 16.6634L12.9995 15.1357L10.7334 16.6634L11.2312 13.988L9.33285 12.1312L11.9066 11.8022Z" fill="#FBD381"/>
<path d="M10.6899 9.68441L11.3724 10.5375L11.2202 10.8818L10.4463 10.9807L9.90904 10.3091L10.6899 9.68441Z" fill="#FBD381"/>
<path d="M8.75781 14.7089L9.97006 14.1533L10.1505 14.3298L9.97939 15.2491L9.17447 15.618L8.75781 14.7089Z" fill="#FBD381"/>
<path d="M12.4662 17.6635V16.7013L12.9996 16.3417L13.4662 16.6563V17.6635H12.4662Z" fill="#FBD381"/>
<path d="M16.7579 15.618L16.0259 15.2825L15.8486 14.3298L16.0077 14.1741L17.1745 14.7089L16.7579 15.618Z" fill="#FBD381"/>
<path d="M16.0305 10.1331L15.3996 10.9611L14.7789 10.8818L14.5674 10.4033L15.2351 9.52706L16.0305 10.1331Z" fill="#FBD381"/>
</g>
<rect x="1" y="0.996704" width="24.0001" height="24.0001" rx="12.0001" stroke="#EDEDED"/>
</svg>
