<svg width="26" height="26" viewBox="0 0 26 26" fill="none" xmlns="http://www.w3.org/2000/svg">
<mask id="mask0_4812_146248" style="mask-type:alpha" maskUnits="userSpaceOnUse" x="1" y="0" width="24" height="25">
<circle cx="13.0001" cy="12.9968" r="12.0001" transform="rotate(-90 13.0001 12.9968)" fill="#D9D9D9"/>
</mask>
<g mask="url(#mask0_4812_146248)">
<rect x="1" y="0.996704" width="24.0001" height="24.0001" fill="#004692"/>
<path d="M12.9896 3.85228L12.3935 5.20072L10.9896 5.38014L12.0251 6.39299L11.7535 7.8523L12.9896 7.01896L14.2257 7.8523L13.9542 6.39299L14.9896 5.38014L13.5858 5.20072L12.9896 3.85228Z" fill="#F1B434"/>
<path d="M7.92972 5.94812L7.33357 7.29656L5.9297 7.47598L6.96516 8.48883L6.69361 9.94813L7.92971 9.1148L9.1658 9.94813L8.89426 8.48883L9.92972 7.47598L8.52585 7.29656L7.92972 5.94812Z" fill="#F1B434"/>
<path d="M5.834 11.0079L5.23785 12.3563L3.83398 12.5357L4.86944 13.5486L4.5979 15.0079L5.83399 14.1746L7.07009 15.0079L6.79855 13.5486L7.834 12.5357L6.43014 12.3563L5.834 11.0079Z" fill="#F1B434"/>
<path d="M7.92972 16.0676L7.33357 17.4161L5.9297 17.5955L6.96516 18.6083L6.69361 20.0676L7.92971 19.2343L9.1658 20.0676L8.89426 18.6083L9.92972 17.5955L8.52585 17.4161L7.92972 16.0676Z" fill="#F1B434"/>
<path d="M12.9896 18.1635L12.3935 19.5119L10.9896 19.6913L12.0251 20.7042L11.7535 22.1635L12.9896 21.3301L14.2257 22.1635L13.9542 20.7042L14.9896 19.6913L13.5858 19.5119L12.9896 18.1635Z" fill="#F1B434"/>
<path d="M18.0492 16.0676L17.4531 17.4161L16.0492 17.5955L17.0847 18.6083L16.8131 20.0676L18.0492 19.2343L19.2853 20.0676L19.0138 18.6083L20.0492 17.5955L18.6454 17.4161L18.0492 16.0676Z" fill="#F1B434"/>
<path d="M20.1451 11.0079L19.549 12.3563L18.1451 12.5357L19.1805 13.5486L18.909 15.0079L20.1451 14.1746L21.3812 15.0079L21.1096 13.5486L22.1451 12.5357L20.7412 12.3563L20.1451 11.0079Z" fill="#F1B434"/>
<path d="M18.0492 5.94811L17.4531 7.29656L16.0492 7.47598L17.0847 8.48882L16.8131 9.94813L18.0492 9.1148L19.2853 9.94813L19.0138 8.48882L20.0492 7.47598L18.6454 7.29656L18.0492 5.94811Z" fill="#F1B434"/>
</g>
<rect x="1" y="0.996704" width="24.0001" height="24.0001" rx="12.0001" stroke="#EDEDED"/>
</svg>
