<svg width="26" height="26" viewBox="0 0 26 26" fill="none" xmlns="http://www.w3.org/2000/svg">
<mask id="mask0_4812_146250" style="mask-type:alpha" maskUnits="userSpaceOnUse" x="0" y="0" width="25" height="25">
<circle cx="12.9981" cy="12.9969" r="12.0001" fill="#D9D9D9"/>
</mask>
<g mask="url(#mask0_4812_146250)">
<rect x="0.998047" y="0.996887" width="24.0001" height="24.0001" fill="#86C5FA"/>
<path d="M14.5977 12.6636H21.5977V15.578C21.5977 17.6058 20.3615 19.4287 18.4777 20.179L18.0977 20.3303L17.7177 20.179C15.8338 19.4287 14.5977 17.6058 14.5977 15.578V12.6636Z" fill="#F5F7F8"/>
<mask id="mask1_4812_146250" style="mask-type:alpha" maskUnits="userSpaceOnUse" x="14" y="12" width="8" height="9">
<path d="M14.5996 12.6636H21.5996V15.578C21.5996 17.6058 20.3635 19.4287 18.4796 20.179L18.0996 20.3303L17.7196 20.179C15.8358 19.4287 14.5996 17.6058 14.5996 15.578V12.6636Z" fill="#F5F7F8"/>
</mask>
<g mask="url(#mask1_4812_146250)">
<path d="M14.5996 12.6636H21.5996V14.6636H18.5996V16.6636H21.5996V17.6636H18.5996V20.3303H17.5996V17.6636H14.5996V16.6636H17.5996V14.6636H14.5996V12.6636Z" fill="#DD2033"/>
</g>
<mask id="mask2_4812_146250" style="mask-type:alpha" maskUnits="userSpaceOnUse" x="0" y="0" width="13" height="13">
<path d="M0.998047 12.9969V12.9969C0.998047 6.3695 6.37065 0.996891 12.9981 0.99689V0.99689L12.9981 12.9969L0.998047 12.9969Z" fill="#002F6C"/>
</mask>
<g mask="url(#mask2_4812_146250)">
<rect x="0.998047" y="0.996887" width="12.0001" height="12.0001" fill="#004692"/>
<path d="M5.17157 2.04154L4.46446 2.74865L14.3065 12.5907L15.0136 11.8836L5.17157 2.04154Z" fill="#F5F7F8"/>
<path d="M3.28594 3.92716L2.10742 5.10568L11.9495 14.9477L13.128 13.7692L3.28594 3.92716Z" fill="#F5F7F8"/>
<path d="M3.28594 3.92716L4.46446 2.74865L14.3065 12.5907L13.128 13.7692L3.28594 3.92716Z" fill="#DD2033"/>
<path d="M12.9981 4.99689V6.66356L6.66472 6.66356L6.66472 12.9969H4.99805V4.99689H12.9981Z" fill="#F5F7F8"/>
<path d="M12.9981 0.330231V1.99691L2.66472 1.9969L2.66472 12.997H0.998047V0.330231H12.9981Z" fill="#F5F7F8"/>
<path fill-rule="evenodd" clip-rule="evenodd" d="M1.99805 12.9969H4.99806L4.99806 4.9969L12.9981 4.9969V1.99689H4.99806H1.99805L1.99805 4.9969L1.99805 12.9969Z" fill="#DD2033"/>
</g>
</g>
<rect x="0.998047" y="0.996887" width="24.0001" height="24.0001" rx="12.0001" stroke="#EDEDED"/>
</svg>
