<svg width="26" height="26" viewBox="0 0 26 26" fill="none" xmlns="http://www.w3.org/2000/svg">
<mask id="mask0_4812_146251" style="mask-type:alpha" maskUnits="userSpaceOnUse" x="1" y="0" width="24" height="25">
<circle cx="13.0001" cy="12.9969" r="12.0001" fill="#D9D9D9"/>
</mask>
<g mask="url(#mask0_4812_146251)">
<rect x="1" y="0.996887" width="24.0001" height="24.0001" fill="#004692"/>
<path d="M21.5332 18.6636H14.5332V20.3303H15.5332V21.3303H20.5332V20.3303H21.5332V18.6636Z" fill="#FBD381"/>
<path d="M14.5332 12.6636H21.5332V15.578C21.5332 17.6058 20.2971 19.4287 18.4132 20.179L18.0332 20.3303L17.6532 20.179C15.7694 19.4287 14.5332 17.6058 14.5332 15.578V12.6636Z" fill="#0091DA"/>
<mask id="mask1_4812_146251" style="mask-type:alpha" maskUnits="userSpaceOnUse" x="14" y="12" width="8" height="9">
<path d="M14.5332 12.6636H21.5332V15.578C21.5332 17.6058 20.2971 19.4287 18.4132 20.179L18.0332 20.3303L17.6532 20.179C15.7694 19.4287 14.5332 17.6058 14.5332 15.578V12.6636Z" fill="#0091DA"/>
</mask>
<g mask="url(#mask1_4812_146251)">
<path d="M18.033 16.9969C17.158 16.9969 17.158 17.7242 16.2831 17.7242C15.4082 17.7242 15.4082 16.9969 14.5332 16.9969V18.2697C15.4082 18.2697 15.4082 18.997 16.2831 18.997C17.158 18.997 17.158 18.2697 18.033 18.2697C18.908 18.2697 18.908 18.997 19.7831 18.997C20.6582 18.997 20.6582 18.2697 21.5332 18.2697V16.9969C20.6582 16.9969 20.6582 17.7242 19.7831 17.7242C18.908 17.7242 18.908 16.9969 18.033 16.9969Z" fill="#F5F7F8"/>
<path d="M18.033 14.6636C17.158 14.6636 17.158 15.3909 16.2831 15.3909C15.4082 15.3909 15.4082 14.6636 14.5332 14.6636V15.9363C15.4082 15.9363 15.4082 16.6636 16.2831 16.6636C17.158 16.6636 17.158 15.9363 18.033 15.9363C18.908 15.9363 18.908 16.6636 19.7831 16.6636C20.6582 16.6636 20.6582 15.9363 21.5332 15.9363V14.6636C20.6582 14.6636 20.6582 15.3909 19.7831 15.3909C18.908 15.3909 18.908 14.6636 18.033 14.6636Z" fill="#F5F7F8"/>
</g>
<mask id="mask2_4812_146251" style="mask-type:alpha" maskUnits="userSpaceOnUse" x="1" y="0" width="12" height="13">
<path d="M1 12.9969V12.9969C1 6.3695 6.37261 0.996891 13.0001 0.99689V0.99689L13.0001 12.9969L1 12.9969Z" fill="#002F6C"/>
</mask>
<g mask="url(#mask2_4812_146251)">
<rect x="1" y="0.996887" width="12.0001" height="12.0001" fill="#004692"/>
<path d="M5.17352 2.04154L4.46641 2.74865L14.3085 12.5907L15.0156 11.8836L5.17352 2.04154Z" fill="#F5F7F8"/>
<path d="M3.28789 3.92716L2.10938 5.10568L11.9514 14.9477L13.1299 13.7692L3.28789 3.92716Z" fill="#F5F7F8"/>
<path d="M3.28789 3.92716L4.46641 2.74865L14.3085 12.5907L13.1299 13.7692L3.28789 3.92716Z" fill="#DD2033"/>
<path d="M13 4.99689V6.66356L6.66667 6.66356L6.66667 12.9969H5V4.99689H13Z" fill="#F5F7F8"/>
<path d="M13.0001 0.330231V1.99691L2.66667 1.9969L2.66667 12.997H1V0.330231H13.0001Z" fill="#F5F7F8"/>
<path fill-rule="evenodd" clip-rule="evenodd" d="M2 12.9969H5.00002L5.00002 4.9969L13.0001 4.9969V1.99689H5.00002H2L2 4.9969L2 12.9969Z" fill="#DD2033"/>
</g>
</g>
<rect x="1" y="0.996887" width="24.0001" height="24.0001" rx="12.0001" stroke="#EDEDED"/>
</svg>
