<svg width="26" height="26" viewBox="0 0 26 26" fill="none" xmlns="http://www.w3.org/2000/svg">
<mask id="mask0_4812_146253" style="mask-type:alpha" maskUnits="userSpaceOnUse" x="1" y="0" width="24" height="25">
<circle cx="13.0001" cy="12.997" r="12.0001" transform="rotate(-90 13.0001 12.997)" fill="#D9D9D9"/>
</mask>
<g mask="url(#mask0_4812_146253)">
<rect x="1" y="0.996887" width="24.0001" height="24.0001" fill="#86C5FA"/>
<path d="M12.2062 5.12816L13.001 3.33023L13.7959 5.12816L15.6677 5.36738L14.2871 6.71784L14.6491 8.66359L13.001 7.55247L11.3529 8.66359L11.7149 6.71784L10.3343 5.36738L12.2062 5.12816Z" fill="#F5F7F8"/>
<path d="M4.87839 12.6181L4.6678 10.6636L6.25512 11.8232L7.99578 11.0945L7.47537 12.9543L8.76179 14.4583L6.77891 14.3202L5.90715 16.1065L5.24783 14.2404L3.37695 13.7611L4.87839 12.6181Z" fill="#F5F7F8"/>
<path d="M21.1104 10.6636L20.8998 12.6181L22.4013 13.7611L20.5304 14.2404L19.8711 16.1065L18.9993 14.3202L17.0164 14.4583L18.3029 12.9543L17.7824 11.0945L19.5231 11.8232L21.1104 10.6636Z" fill="#F5F7F8"/>
<path d="M13.7959 20.8657L13.001 22.6636L12.2062 20.8657L10.3343 20.6265L11.7149 19.276L11.3529 17.3303L13.001 18.4414L14.6491 17.3303L14.2871 19.276L15.6677 20.6265L13.7959 20.8657Z" fill="#F5F7F8"/>
</g>
<rect x="1" y="0.996887" width="24.0001" height="24.0001" rx="12.0001" stroke="#EDEDED"/>
</svg>
