<svg width="26" height="26" viewBox="0 0 26 26" fill="none" xmlns="http://www.w3.org/2000/svg">
<mask id="mask0_4812_146254" style="mask-type:alpha" maskUnits="userSpaceOnUse" x="1" y="0" width="25" height="25">
<circle cx="13.002" cy="12.9969" r="12.0001" fill="#D9D9D9"/>
</mask>
<g mask="url(#mask0_4812_146254)">
<rect x="1.00195" y="0.996887" width="24.0001" height="24.0001" fill="#F5F7F8"/>
<path fill-rule="evenodd" clip-rule="evenodd" d="M7.66865 24.997H5.66864L5.66864 16.8969H1.00195V14.8969H5.66864L5.66864 11.097H1.00195V9.09694H5.66864L5.66864 0.996887H7.66865L7.66865 9.09694H11.4686L11.4686 0.996887H13.4686L13.4686 9.09694H25.0021V11.097L13.4686 11.097V14.8969L25.0021 14.8969V16.8969L13.4686 16.8969L13.4686 24.997H11.4686L11.4686 16.8969H7.66865L7.66865 24.997ZM11.4686 11.097H7.66865L7.66865 14.8969H11.4686L11.4686 11.097Z" fill="#004692"/>
<path d="M7.66865 24.997H11.6687L11.6687 14.997L25.0021 14.997V10.9969L11.6687 10.9969L11.6687 0.996887H7.66865L7.66865 10.9969L1.00195 10.9969V14.997H7.66865L7.66865 24.997Z" fill="#DD2033"/>
</g>
<rect x="1.00195" y="0.996887" width="24.0001" height="24.0001" rx="12.0001" stroke="#EDEDED"/>
</svg>
