<svg width="26" height="26" viewBox="0 0 26 26" fill="none" xmlns="http://www.w3.org/2000/svg">
<mask id="mask0_4812_146258" style="mask-type:alpha" maskUnits="userSpaceOnUse" x="1" y="0" width="24" height="25">
<circle cx="13.0001" cy="12.9969" r="12.0001" fill="#D9D9D9"/>
</mask>
<g mask="url(#mask0_4812_146258)">
<rect x="1" y="0.996887" width="24.0001" height="24.0001" fill="#004692"/>
<path d="M15.2634 11.9984L14.5563 12.7055L23.0416 21.1908L23.7487 20.4837L15.2634 11.9984Z" fill="#F5F7F8"/>
<path d="M13.3777 13.884L12.1992 15.0626L20.6845 23.5479L21.8631 22.3694L13.3777 13.884Z" fill="#F5F7F8"/>
<path d="M13.3777 13.884L14.5563 12.7055L23.0416 21.1908L21.8631 22.3694L13.3777 13.884Z" fill="#DD2033"/>
<path d="M13.7477 15.0611L13.0406 14.354L4.55531 22.8393L5.26242 23.5464L13.7477 15.0611Z" fill="#F5F7F8"/>
<path d="M11.8621 13.1755L10.6836 11.9969L2.19827 20.4823L3.37679 21.6608L11.8621 13.1755Z" fill="#F5F7F8"/>
<path d="M11.8621 13.1755L13.0406 14.354L4.55531 22.8393L3.37679 21.6608L11.8621 13.1755Z" fill="#DD2033"/>
<path d="M11.0198 14.5464L11.7269 13.8393L3.24163 5.35401L2.53452 6.06112L11.0198 14.5464Z" fill="#F5F7F8"/>
<path d="M12.9055 12.6608L14.084 11.4823L5.59866 2.99698L4.42015 4.1755L12.9055 12.6608Z" fill="#F5F7F8"/>
<path d="M12.9055 12.6608L11.7269 13.8393L3.24163 5.35401L4.42015 4.1755L12.9055 12.6608Z" fill="#DD2033"/>
<path d="M11.8675 11.4836L12.5746 12.1907L21.0599 3.70538L20.3528 2.99827L11.8675 11.4836Z" fill="#F5F7F8"/>
<path d="M13.7531 13.3692L14.9316 14.5477L23.417 6.06241L22.2384 4.88389L13.7531 13.3692Z" fill="#F5F7F8"/>
<path d="M13.7531 13.3692L12.5746 12.1907L21.0599 3.70538L22.2384 4.88389L13.7531 13.3692Z" fill="#DD2033"/>
<path fill-rule="evenodd" clip-rule="evenodd" d="M11 24.997H9.33337L9.33337 16.6636H1V14.997H9.33337L9.33337 10.9969L1 10.9969V9.33026L9.33337 9.33026L9.33337 0.996887H11L11 9.33026H15.0001L15.0001 0.996887H16.6667L16.6667 9.33026L25.0001 9.33026V10.9969L16.6667 10.9969V14.997L25.0001 14.997V16.6636L16.6667 16.6636L16.6667 24.997H15.0001L15.0001 16.6636H11L11 24.997ZM15.0001 10.9969H11L11 14.997H15.0001V10.9969Z" fill="#F5F7F8"/>
<path d="M11 24.997H15.0001L15.0001 14.997H25.0001V10.9969L15.0001 10.9969L15.0001 0.996887H11L11 10.9969L1 10.9969V14.997H11L11 24.997Z" fill="#DD2033"/>
</g>
<rect x="1" y="0.996887" width="24.0001" height="24.0001" rx="12.0001" stroke="#EDEDED"/>
</svg>
