<svg width="26" height="26" viewBox="0 0 26 26" fill="none" xmlns="http://www.w3.org/2000/svg">
<mask id="mask0_4812_146260" style="mask-type:alpha" maskUnits="userSpaceOnUse" x="1" y="0" width="24" height="25">
<circle cx="13.0001" cy="12.9969" r="12.0001" fill="#D9D9D9"/>
</mask>
<g mask="url(#mask0_4812_146260)">
<rect x="1" y="0.996887" width="24.0001" height="24.0001" fill="#F5F7F8"/>
<path d="M11.1333 24.997H15.1334L15.1334 14.997H25.0001V10.9969L15.1334 10.9969L15.1334 0.996887H11.1334L11.1334 10.9969L1 10.9969V14.997H11.1333L11.1333 24.997Z" fill="#DD2033"/>
<path fill-rule="evenodd" clip-rule="evenodd" d="M11.8741 10.6938L13.0664 7.99692L14.2587 10.6938L17.0664 11.0526L14.9955 13.0783L15.5386 15.997L13.0664 14.3303L10.5942 15.997L11.1373 13.0783L9.06641 11.0526L11.8741 10.6938ZM13.7331 10.9969H12.7331V11.6636H12.0664V13.9969H13.7331V13.3303H14.3998V12.3303H13.7331V10.9969Z" fill="#F5F7F8"/>
<path fill-rule="evenodd" clip-rule="evenodd" d="M12.4004 2.33023H13.4004V2.9969L14.4004 2.9969V3.99691H13.4004V4.93114C13.6946 4.76097 14.0361 4.66358 14.4004 4.66358C15.505 4.66358 16.4004 5.55901 16.4004 6.66358C16.4004 7.25592 16.1429 7.78811 15.7338 8.15433V8.99693H10.0671V8.15433C9.65789 7.78811 9.40039 7.25592 9.40039 6.66358C9.40039 5.55901 10.2958 4.66358 11.4004 4.66358C11.7647 4.66358 12.1062 4.76097 12.4004 4.93114V3.99691H11.4004V2.9969L12.4004 2.9969V2.33023ZM12.9004 5.34067L12.8911 5.33025H12.9097L12.9004 5.34067ZM12.8911 7.99692L12.9004 7.9865L12.9097 7.99692H12.8911Z" fill="#F1B434"/>
<path d="M10.4004 6.66358C10.4004 7.21587 10.8481 7.66358 11.4004 7.66358H12.4004V6.66358C12.4004 6.11129 11.9527 5.66357 11.4004 5.66357C10.8481 5.66357 10.4004 6.11129 10.4004 6.66358Z" fill="#DD2033"/>
<path d="M14.4004 7.66358C14.9527 7.66358 15.4004 7.21587 15.4004 6.66358C15.4004 6.11129 14.9527 5.66357 14.4004 5.66357C13.8481 5.66357 13.4004 6.11129 13.4004 6.66358V7.66358H14.4004Z" fill="#DD2033"/>
</g>
<rect x="1" y="0.996887" width="24.0001" height="24.0001" rx="12.0001" stroke="#EDEDED"/>
</svg>
