<svg width="26" height="26" viewBox="0 0 26 26" fill="none" xmlns="http://www.w3.org/2000/svg">
<mask id="mask0_4812_146262" style="mask-type:alpha" maskUnits="userSpaceOnUse" x="0" y="0" width="25" height="25">
<circle cx="12.9981" cy="12.9971" r="12.0001" fill="#D9D9D9"/>
</mask>
<g mask="url(#mask0_4812_146262)">
<rect x="0.998047" y="0.997009" width="24.0001" height="12.0001" fill="#F5F7F8"/>
<rect x="0.998047" y="12.9971" width="24.0001" height="12.0001" fill="#009B77"/>
<path d="M15.8992 7.6637L11.4485 11.1469L10.9434 12.5117L10.4036 10.0029C10.4032 9.71511 10.3271 9.44505 10.1941 9.21158C10.5042 8.92627 10.7336 8.56131 10.8293 8.20553C10.4371 8.20553 10.0026 8.40854 9.64725 8.64202C9.40076 8.48804 9.1095 8.39905 8.79746 8.39905C7.91042 8.39905 7.19133 9.11814 7.19133 10.0052H8.54027L8.22745 11.0814C7.95408 12.0219 8.09004 12.9622 8.51206 13.7379L7.67414 14.5714L6.65142 13.5541V12.1293L5.86608 11.3482L5.26562 11.9518L5.79998 12.4833V13.5541L5.26562 14.0856L5.86608 14.6893L6.2257 14.3316L7.67414 15.7723L9.01335 14.4402C9.10585 14.5412 9.20427 14.6369 9.30816 14.7268L7.88452 17.0532H6.57504V17.9047H9.20676V17.0532H8.88273L9.8444 15.4817L9.82302 15.5395L10.2385 15.3053C10.6548 15.4805 11.1148 15.5782 11.6033 15.5782L11.6018 15.5709L12.7128 16.1882L12.1388 17.1263H10.8293V17.9777H13.461V17.1263H13.137L14.3273 15.1812L14.3261 15.1805L14.8349 14.8429L17.2911 15.4931L16.2798 17.1456H14.9703V17.9971H17.6021V17.1456H17.278L18.4251 15.2711L18.4341 15.2686L18.4294 15.2641L18.4683 15.2006L18.1829 15.0259L17.2924 14.1656C17.8882 13.8918 18.9361 13.1886 19.4578 12.1759L20.4148 12.7284V10.1302L18.1647 11.4293L18.9713 11.895C18.3998 12.3437 17.5533 12.7751 16.4289 12.8811L17.4086 12.1144V7.6637L15.8992 8.84496V7.6637Z" fill="#DD2033"/>
</g>
<rect x="0.998047" y="0.997009" width="24.0001" height="24.0001" rx="12.0001" stroke="#EDEDED"/>
</svg>
