<svg width="26" height="26" viewBox="0 0 26 26" fill="none" xmlns="http://www.w3.org/2000/svg">
<mask id="mask0_4812_146263" style="mask-type:alpha" maskUnits="userSpaceOnUse" x="1" y="0" width="24" height="25">
<circle cx="13.0001" cy="12.9971" r="12.0001" transform="rotate(-90 13.0001 12.9971)" fill="#D9D9D9"/>
</mask>
<g mask="url(#mask0_4812_146263)">
<rect x="1" y="0.997009" width="24.0001" height="24.0001" fill="#A00009"/>
<mask id="mask1_4812_146263" style="mask-type:alpha" maskUnits="userSpaceOnUse" x="3" y="3" width="20" height="20">
<circle cx="13.0013" cy="12.9971" r="9.33338" fill="#DD2033"/>
</mask>
<g mask="url(#mask1_4812_146263)">
<rect x="23.8398" y="23.8358" width="21.6775" height="21.6775" transform="rotate(-180 23.8398 23.8358)" fill="#008259"/>
<path d="M2.10156 23.8358L12.6392 12.9971L2.10157 2.15829L23.7791 2.15829L12.6392 12.9971L23.7791 23.8358L2.10156 23.8358Z" fill="#F1B434"/>
</g>
<path d="M8.5332 12.9971C8.5332 10.6038 10.4733 8.66373 12.8666 8.66373V8.66373C15.2598 8.66373 17.1999 10.6038 17.1999 12.9971V12.9971C17.1999 15.3903 15.2598 17.3304 12.8666 17.3304V17.3304C10.4733 17.3304 8.5332 15.3903 8.5332 12.9971V12.9971Z" fill="#A00009"/>
<path d="M12.8672 8.66373L11.6749 11.3606L8.86719 11.7194L10.9381 13.7451L10.395 16.6638L12.8672 14.9971L15.3394 16.6638L14.7963 13.7451L16.8672 11.7195L14.0595 11.3606L12.8672 8.66373Z" fill="#F1B434"/>
<path fill-rule="evenodd" clip-rule="evenodd" d="M12.8655 2.99704C13.2337 2.99704 13.5322 2.69856 13.5322 2.33037C13.5322 1.96217 13.2337 1.6637 12.8655 1.6637C12.4973 1.6637 12.1988 1.96217 12.1988 2.33037C12.1988 2.69856 12.4973 2.99704 12.8655 2.99704ZM7.86535 4.33678C8.18421 4.15269 8.29346 3.74496 8.10937 3.42609C7.92527 3.10723 7.51754 2.99798 7.19868 3.18208C6.87982 3.36617 6.77057 3.7739 6.95466 4.09276C7.13876 4.41163 7.54649 4.52088 7.86535 4.33678ZM18.7761 4.09277C18.592 4.41164 18.1843 4.52089 17.8654 4.33679C17.5465 4.1527 17.4373 3.74497 17.6214 3.4261C17.8055 3.10724 18.2132 2.99799 18.5321 3.18209C18.8509 3.36618 18.9602 3.77391 18.7761 4.09277ZM12.8655 24.3305C13.2337 24.3305 13.5322 24.032 13.5322 23.6638C13.5322 23.2956 13.2337 22.9971 12.8655 22.9971C12.4973 22.9971 12.1988 23.2956 12.1988 23.6638C12.1988 24.032 12.4973 24.3305 12.8655 24.3305ZM18.7761 21.9014C18.9602 22.2203 18.8509 22.628 18.5321 22.8121C18.2132 22.9962 17.8055 22.8869 17.6214 22.5681C17.4373 22.2492 17.5465 21.8415 17.8654 21.6574C18.1843 21.4733 18.592 21.5825 18.7761 21.9014ZM7.19868 22.8121C7.51754 22.9962 7.92527 22.8869 8.10937 22.5681C8.29346 22.2492 8.18421 21.8415 7.86535 21.6574C7.54649 21.4733 7.13876 21.5825 6.95466 21.9014C6.77057 22.2203 6.87982 22.628 7.19868 22.8121Z" fill="#F1B434"/>
</g>
<rect x="1" y="0.997009" width="24.0001" height="24.0001" rx="12.0001" stroke="#EDEDED"/>
</svg>
