<svg width="26" height="26" viewBox="0 0 26 26" fill="none" xmlns="http://www.w3.org/2000/svg">
<mask id="mask0_4812_146264" style="mask-type:alpha" maskUnits="userSpaceOnUse" x="1" y="0" width="24" height="25">
<circle cx="13.0001" cy="12.9971" r="12.0001" fill="#D9D9D9"/>
</mask>
<g mask="url(#mask0_4812_146264)">
<rect x="1" y="0.997009" width="24.0001" height="24.0001" fill="#F5F7F8"/>
<path d="M11.1333 24.9971H15.1334L15.1334 14.9971H25.0001V10.9971L15.1334 10.9971L15.1334 0.997009H11.1334L11.1334 10.9971L1 10.9971V14.9971H11.1333L11.1333 24.9971Z" fill="#DD2033"/>
<path d="M4.46665 7.66371V6.33037H6.46666V4.33036H7.8V6.33037H9.80001V7.66371H7.8V9.66372H6.46666V7.66371H4.46665Z" fill="#DD2033"/>
<path d="M16.4667 7.66371V6.33037H18.4667V4.33036H19.8001V6.33037H21.8001V7.66371H19.8001V9.66372H18.4667V7.66371H16.4667Z" fill="#DD2033"/>
<path d="M4.46665 19.6638V18.3304H6.46666V16.3304H7.8V18.3304H9.80001V19.6638H7.8V21.6638H6.46666V19.6638H4.46665Z" fill="#DD2033"/>
<path d="M16.4667 19.6638V18.3304H18.4667V16.3304H19.8001V18.3304H21.8001V19.6638H19.8001V21.6638H18.4667V19.6638H16.4667Z" fill="#DD2033"/>
</g>
<rect x="1" y="0.997009" width="24.0001" height="24.0001" rx="12.0001" stroke="#EDEDED"/>
</svg>
