<svg width="26" height="26" viewBox="0 0 26 26" fill="none" xmlns="http://www.w3.org/2000/svg">
<mask id="mask0_4812_146267" style="mask-type:alpha" maskUnits="userSpaceOnUse" x="1" y="0" width="24" height="25">
<circle cx="13.0001" cy="12.9971" r="12.0001" transform="rotate(-90 13.0001 12.9971)" fill="#D9D9D9"/>
</mask>
<g mask="url(#mask0_4812_146267)">
<rect x="1" y="0.99707" width="24.0001" height="16.0001" fill="#F5F7F8"/>
<rect x="1" y="16.9971" width="24.0001" height="8.00004" fill="#DD2033"/>
<path d="M7.99936 7.66367L7.99936 8.99701H8.66603L8.66603 7.66367H9.99937L9.99936 8.99701H9.3327V11.3304H10.9994V6.66366L10.3327 6.66366V5.33032L11.666 5.33032L11.666 6.66366L12.3327 6.66366V5.33032L13.666 5.33032V6.66366L14.3327 6.66366V5.33032L15.6661 5.33032V6.66366L14.9994 6.66366V11.3304H16.6661V8.99701H15.9994V7.66367H17.3327V8.99701H17.9994V7.66367L19.3327 7.66367V8.99701H18.6661V11.3304L18.9994 11.3304V15.6637L6.99935 15.6637L6.99935 11.3304H7.33269L7.33269 8.99701L6.66602 8.99701L6.66602 7.66367H7.99936Z" fill="#DD2033"/>
<path fill-rule="evenodd" clip-rule="evenodd" d="M13.1999 23.3304H12.1999V22.9279H10.5332L10.5332 20.5945H12.1999L12.1999 18.911C11.2986 18.6486 10.64 17.8164 10.64 16.8304C10.64 15.6338 11.61 14.6637 12.8067 14.6637C14.0033 14.6637 14.9733 15.6338 14.9733 16.8304C14.9733 17.8927 14.2088 18.7765 13.1999 18.9615L13.1999 23.3304ZM13.9733 16.8304C13.9733 17.4747 13.451 17.9971 12.8067 17.9971C12.1623 17.9971 11.64 17.4747 11.64 16.8304C11.64 16.1861 12.1623 15.6637 12.8067 15.6637C13.451 15.6637 13.9733 16.1861 13.9733 16.8304Z" fill="#F1B434"/>
</g>
<rect x="1" y="0.997009" width="24.0001" height="24.0001" rx="12.0001" stroke="#EDEDED"/>
</svg>
