<svg width="26" height="26" viewBox="0 0 26 26" fill="none" xmlns="http://www.w3.org/2000/svg">
<mask id="mask0_4812_146268" style="mask-type:alpha" maskUnits="userSpaceOnUse" x="1" y="0" width="24" height="25">
<circle cx="12.9999" cy="12.9971" r="12.0001" transform="rotate(180 12.9999 12.9971)" fill="#D9D9D9"/>
</mask>
<g mask="url(#mask0_4812_146268)">
<rect x="25" y="0.997009" width="12.0001" height="24.0001" transform="rotate(90 25 0.997009)" fill="#F5F7F8"/>
<rect x="25" y="12.9971" width="12.0001" height="24.0001" transform="rotate(90 25 12.9971)" fill="#DD2033"/>
<path d="M10.9994 7.6637C8.05384 7.6637 5.66602 10.0515 5.66602 12.9971L16.3327 12.9971C16.3327 10.0515 13.9449 7.6637 10.9994 7.6637Z" fill="#DD2033"/>
<path d="M10.9994 18.3304C8.05384 18.3304 5.66602 15.9426 5.66602 12.9971L16.3327 12.9971C16.3327 15.9426 13.9449 18.3304 10.9994 18.3304Z" fill="#F5F7F8"/>
</g>
<rect x="1" y="0.997009" width="24.0001" height="24.0001" rx="12.0001" stroke="#EDEDED"/>
</svg>
