<svg width="26" height="26" viewBox="0 0 26 26" fill="none" xmlns="http://www.w3.org/2000/svg">
<mask id="mask0_4812_146271" style="mask-type:alpha" maskUnits="userSpaceOnUse" x="1" y="0" width="24" height="25">
<circle cx="13.0001" cy="12.9972" r="12.0001" fill="#D9D9D9"/>
</mask>
<g mask="url(#mask0_4812_146271)">
<rect x="1" y="24.9973" width="7.33337" height="24.0001" transform="rotate(-90 1 24.9973)" fill="#DD2033"/>
<rect x="1" y="17.6639" width="9.33338" height="24.0001" transform="rotate(-90 1 17.6639)" fill="#F5F7F8"/>
<rect x="1" y="8.33051" width="7.33337" height="24.0001" transform="rotate(-90 1 8.33051)" fill="#008259"/>
<path d="M10.3334 12.9972L1 0.997192V24.9973L10.3334 12.9972Z" fill="#0091DA"/>
<path d="M13 9.33057H19.6667V11.9777C19.6667 14.0027 18.4338 15.8238 16.5536 16.5758L16.3333 16.6639L16.1131 16.5758C14.2329 15.8238 13 14.0027 13 11.9777V9.33057Z" fill="#C1C3C3"/>
<rect x="15.666" y="12.9973" width="1.33334" height="2.00001" fill="#936846"/>
<path d="M17.6674 11.6639C17.6674 10.9275 17.0704 10.3306 16.334 10.3306C15.5976 10.3306 15.0006 10.9275 15.0006 11.6639C14.6324 11.6639 14.334 11.9624 14.334 12.3306C14.334 12.6988 14.6324 12.9972 15.0006 12.9972H17.6674C18.0355 12.9972 18.334 12.6988 18.334 12.3306C18.334 11.9624 18.0356 11.6639 17.6674 11.6639V11.6639Z" fill="#009B77"/>
</g>
<rect x="1" y="0.997192" width="24.0001" height="24.0001" rx="12.0001" stroke="#EDEDED"/>
</svg>
