<svg width="26" height="26" viewBox="0 0 26 26" fill="none" xmlns="http://www.w3.org/2000/svg">
<mask id="mask0_4812_146273" style="mask-type:alpha" maskUnits="userSpaceOnUse" x="1" y="0" width="25" height="25">
<circle cx="13.002" cy="12.9973" r="12.0001" transform="rotate(-90 13.002 12.9973)" fill="#D9D9D9"/>
</mask>
<g mask="url(#mask0_4812_146273)">
<rect x="1.00195" y="0.997192" width="24.0001" height="24.0001" fill="#004692"/>
<rect x="16.4688" y="9.93057" width="3.00001" height="2.66668" fill="#C1C3C3"/>
<path d="M16.8027 7.59723L17.6361 7.59723V8.59723L18.8027 8.59723L18.8027 9.93057L16.8027 9.93057L16.8027 7.59723Z" fill="#936846"/>
<path d="M21.4688 18.5973H14.4688V20.264H15.4688V21.264H20.4688V20.264H21.4688V18.5973Z" fill="#FBD381"/>
<path d="M14.4688 12.5972L21.4688 12.5972L21.4688 15.5116C21.4688 17.5394 20.2326 19.3623 18.3488 20.1126L17.9688 20.2639L17.5887 20.1126C15.7049 19.3623 14.4688 17.5394 14.4688 15.5116L14.4688 12.5972Z" fill="#F5F7F8"/>
<mask id="mask1_4812_146273" style="mask-type:alpha" maskUnits="userSpaceOnUse" x="1" y="0" width="13" height="13">
<path d="M1.00195 12.9973V12.9973C1.00195 6.3698 6.37456 0.997196 13.002 0.997196V0.997196L13.002 12.9973L1.00195 12.9973Z" fill="#002F6C"/>
</mask>
<g mask="url(#mask1_4812_146273)">
<rect x="1.00195" y="0.997192" width="12.0001" height="12.0001" fill="#004692"/>
<path d="M5.17547 2.04184L4.46836 2.74895L14.3104 12.591L15.0175 11.8839L5.17547 2.04184Z" fill="#F5F7F8"/>
<path d="M3.28985 3.92747L2.11133 5.10599L11.9534 14.948L13.1319 13.7695L3.28985 3.92747Z" fill="#F5F7F8"/>
<path d="M3.28985 3.92747L4.46836 2.74895L14.3104 12.591L13.1319 13.7695L3.28985 3.92747Z" fill="#DD2033"/>
<path d="M13.002 4.99719V6.66387L6.66863 6.66387L6.66863 12.9972H5.00195V4.99719H13.002Z" fill="#F5F7F8"/>
<path d="M13.002 0.330536V1.99721L2.66863 1.99721L2.66863 12.9973H1.00195V0.330536H13.002Z" fill="#F5F7F8"/>
<path fill-rule="evenodd" clip-rule="evenodd" d="M2.00195 12.9972H5.00197L5.00197 4.99721L13.002 4.99721V1.99719H5.00197H2.00195L2.00195 4.99721L2.00195 12.9972Z" fill="#DD2033"/>
</g>
</g>
<mask id="mask2_4812_146273" style="mask-type:alpha" maskUnits="userSpaceOnUse" x="14" y="12" width="8" height="9">
<path d="M14.4688 12.5973L21.4688 12.5973L21.4688 15.5117C21.4688 17.5394 20.2326 19.3623 18.3488 20.1126L17.9688 20.264L17.5887 20.1126C15.7049 19.3623 14.4688 17.5394 14.4688 15.5117L14.4688 12.5973Z" fill="#F5F7F8"/>
</mask>
<g mask="url(#mask2_4812_146273)">
<path d="M17.8848 12.4306L19.4682 14.0139L17.8848 15.5973L16.3015 14.0139L17.8848 12.4306Z" fill="#005EB8"/>
<path d="M14.7181 15.5973L16.3015 17.1806L14.7181 18.764L13.1348 17.1806L14.7181 15.5973Z" fill="#005EB8"/>
<path d="M22.635 14.0139L21.0517 12.4306L19.4682 14.0139L21.0517 15.5973L22.635 14.0139Z" fill="#005EB8"/>
<path d="M17.8848 15.5973L19.4682 17.1806L17.8848 18.764L19.4682 20.3473L17.8848 21.9307L16.3015 20.3473L17.8848 18.764L16.3015 17.1806L17.8848 15.5973Z" fill="#005EB8"/>
<path d="M16.3015 14.0139L14.7181 12.4306L13.1348 14.0139L14.7181 15.5973L16.3015 14.0139Z" fill="#005EB8"/>
<path d="M21.0517 15.5973L22.635 17.1806L21.0517 18.764L19.4682 17.1806L21.0517 15.5973Z" fill="#005EB8"/>
</g>
<rect x="1.00195" y="0.997192" width="24.0001" height="24.0001" rx="12.0001" stroke="#EDEDED"/>
</svg>
