<svg width="26" height="26" viewBox="0 0 26 26" fill="none" xmlns="http://www.w3.org/2000/svg">
<mask id="mask0_4812_146274" style="mask-type:alpha" maskUnits="userSpaceOnUse" x="1" y="0" width="25" height="25">
<circle cx="13.002" cy="12.9973" r="12.0001" transform="rotate(-90 13.002 12.9973)" fill="#D9D9D9"/>
</mask>
<g mask="url(#mask0_4812_146274)">
<rect x="1.00195" y="0.997314" width="24.0001" height="24.0001" fill="#0091DA"/>
<rect x="6.33594" y="0.997223" width="13.3334" height="24.0001" fill="#F5F7F8"/>
<path d="M7.13729 12.809C7.04864 13.2193 7.00195 13.6453 7.00195 14.0821C7.00195 17.3958 9.68826 20.0821 13.002 20.0821C16.3157 20.0821 19.002 17.3958 19.002 14.0821C19.002 13.6359 18.9533 13.2011 18.8609 12.7826L16.9731 13.599C16.9922 13.7573 17.002 13.9186 17.002 14.0821C17.002 16.2913 15.2111 18.0821 13.002 18.0821C10.7928 18.0821 9.00196 16.2913 9.00196 14.0821C9.00196 13.928 9.01067 13.776 9.02763 13.6264L7.13729 12.809Z" fill="#009B77"/>
<path d="M10.3353 9.99728H15.002C15.3702 9.99728 15.6686 10.2958 15.6686 10.664C15.6686 11.0321 15.3702 11.3306 15.002 11.3306H14.9039L15.6686 15.664H10.6686C10.3004 15.664 10.002 15.3655 10.002 14.9973C10.002 14.6291 10.3004 14.3306 10.6686 14.3306H11.1L10.3353 9.99728Z" fill="#FBD381"/>
<path fill-rule="evenodd" clip-rule="evenodd" d="M15.2915 12.9736C15.3023 11.5937 14.8529 10.2145 14.4344 9.37192L15.0315 9.07536C15.4836 9.98562 15.9699 11.4686 15.9582 12.9788C15.9464 14.4989 15.4256 16.0838 13.8198 17.0945L13.4647 16.5303C14.8209 15.6767 15.2809 14.3436 15.2915 12.9736Z" fill="#F1B434"/>
<path d="M14.3073 7.99767C14.3259 7.94542 14.3359 7.88919 14.3359 7.8306C14.3359 7.55446 14.1121 7.3306 13.8359 7.3306C13.5598 7.3306 13.3359 7.55446 13.3359 7.8306C13.3359 8.03404 13.4574 8.2091 13.6318 8.28718C13.4491 8.46837 13.3359 8.71961 13.3359 8.99727C13.3359 9.54956 13.7837 9.99728 14.3359 9.99728C14.4575 9.99728 14.5739 9.9756 14.6817 9.9359C15.0806 10.6821 15.4544 11.6385 15.589 12.6296C15.7733 13.9872 15.5077 15.3722 14.2867 16.41L14.7185 16.9179C16.1642 15.6891 16.4541 14.0463 16.2496 12.5399C16.0949 11.4009 15.6569 10.3185 15.202 9.49751C15.2872 9.35037 15.3359 9.17952 15.3359 8.99727C15.3359 8.44498 14.8882 7.99727 14.3359 7.99727C14.3264 7.99727 14.3168 7.9974 14.3073 7.99767Z" fill="#008259"/>
</g>
<rect x="1.00195" y="0.997192" width="24.0001" height="24.0001" rx="12.0001" stroke="#EDEDED"/>
</svg>
