<svg width="26" height="26" viewBox="0 0 26 26" fill="none" xmlns="http://www.w3.org/2000/svg">
<mask id="mask0_4812_146275" style="mask-type:alpha" maskUnits="userSpaceOnUse" x="1" y="0" width="25" height="25">
<circle cx="13.002" cy="12.9972" r="12.0001" fill="#D9D9D9"/>
</mask>
<g mask="url(#mask0_4812_146275)">
<rect x="1.00195" y="0.997192" width="24.0001" height="24.0001" fill="#DD2033"/>
<rect x="1.00195" y="3.99719" width="24.0001" height="18.0001" fill="#004692"/>
<path fill-rule="evenodd" clip-rule="evenodd" d="M12.9345 5.37961L13.5626 5.88449C15.7952 7.67938 17.0163 9.45979 17.4868 11.1846C17.9613 12.9248 17.6374 14.4818 17.0231 15.7467C16.4167 16.995 15.5226 17.9738 14.8059 18.6287C14.4437 18.9597 14.117 19.2168 13.8782 19.3929C13.7586 19.4811 13.6603 19.5495 13.5899 19.5972C13.5546 19.621 13.5263 19.6398 13.5056 19.6532C13.4953 19.6599 13.4869 19.6653 13.4805 19.6694L13.4725 19.6745L13.4696 19.6764L13.4684 19.6771C13.4679 19.6774 13.4675 19.6777 12.936 18.8306C12.936 18.8306 21.4361 13.4973 12.936 6.66387C4.26933 13.6639 12.936 18.8306 12.936 18.8306C12.4239 19.6896 12.4235 19.6893 12.423 19.689L12.4218 19.6883L12.4189 19.6865L12.4106 19.6815C12.4041 19.6776 12.3955 19.6723 12.385 19.6658C12.3639 19.6527 12.335 19.6346 12.299 19.6114C12.2271 19.5651 12.1269 19.4985 12.0048 19.4126C11.7611 19.241 11.4277 18.9901 11.0579 18.6658C10.3265 18.0244 9.41217 17.0607 8.79157 15.8195C8.16176 14.5599 7.83151 13.0029 8.31593 11.2515C8.79512 9.51902 10.0374 7.7196 12.3077 5.88593L12.9345 5.37961ZM12.936 18.8306L13.4675 19.6777L12.9493 20.0028L12.4239 19.6896L12.936 18.8306Z" fill="#DD2033"/>
<mask id="mask1_4812_146275" style="mask-type:alpha" maskUnits="userSpaceOnUse" x="9" y="6" width="8" height="13">
<path d="M12.9358 6.66388C21.4359 13.4973 12.9358 18.8306 12.9358 18.8306C12.9358 18.8306 4.26917 13.664 12.9358 6.66388Z" fill="#FBD381"/>
</mask>
<g mask="url(#mask1_4812_146275)">
<rect x="8.26758" y="15.6639" width="9.33338" height="4.00002" fill="#FBD381"/>
<rect x="8.26758" y="13.6639" width="9.33338" height="2.00001" fill="#0091DA"/>
<rect x="8.26758" y="6.66388" width="9.33338" height="7.00003" fill="#86C5FA"/>
<rect x="12.2676" y="10.6639" width="0.66667" height="6.00003" fill="#936846"/>
<path d="M12.7682 8.33057L13.3015 9.47437L14.5058 9.18887L13.9665 10.3296L14.9349 11.1174L13.7291 11.3961L13.7325 12.6639L12.7682 11.8707L11.804 12.6639L11.8073 11.3961L10.6016 11.1174L11.57 10.3296L11.0307 9.18887L12.2349 9.47437L12.7682 8.33057Z" fill="#009B77"/>
</g>
</g>
<rect x="1.00195" y="0.997192" width="24.0001" height="24.0001" rx="12.0001" stroke="#EDEDED"/>
</svg>
