<svg width="26" height="26" viewBox="0 0 26 26" fill="none" xmlns="http://www.w3.org/2000/svg">
<mask id="mask0_4812_146278" style="mask-type:alpha" maskUnits="userSpaceOnUse" x="1" y="0" width="24" height="25">
<circle cx="13.0001" cy="12.9973" r="12.0001" transform="rotate(-90 13.0001 12.9973)" fill="#D9D9D9"/>
</mask>
<g mask="url(#mask0_4812_146278)">
<rect x="1" y="0.997192" width="24.0001" height="24.0001" fill="#DD2033"/>
<path fill-rule="evenodd" clip-rule="evenodd" d="M14.092 9.94541C13.9348 10.6001 13.7145 10.8517 13.5018 11.0947C13.3031 11.3216 13.111 11.5411 12.983 12.0743C11.422 11.6983 10.4606 10.1261 10.8359 8.56244C11.2111 6.9989 12.781 6.03597 14.3421 6.41191C14.0333 7.69869 14.0917 8.30112 14.1405 8.80387C14.1755 9.16392 14.2054 9.47285 14.092 9.94541ZM13.4007 8.33057C13.4007 8.69876 13.1023 8.99724 12.7341 8.99724C12.3659 8.99724 12.0674 8.69876 12.0674 8.33057C12.0674 7.96237 12.3659 7.6639 12.7341 7.6639C13.1023 7.6639 13.4007 7.96237 13.4007 8.33057Z" fill="#F5F7F8"/>
<path fill-rule="evenodd" clip-rule="evenodd" d="M10.0413 10.8836C10.6144 11.2356 10.7852 11.5232 10.9502 11.801C11.1043 12.0604 11.2532 12.3112 11.72 12.5979C10.8806 13.9687 9.09062 14.3986 7.72185 13.5579C6.35314 12.7173 5.92389 10.9243 6.76327 9.55346C7.88975 10.2453 8.47981 10.3758 8.97228 10.4846C9.32493 10.5626 9.62755 10.6295 10.0413 10.8836ZM8.73406 11.6639C8.73406 12.0321 8.43558 12.3306 8.06739 12.3306C7.6992 12.3306 7.40072 12.0321 7.40072 11.6639C7.40072 11.2958 7.6992 10.9973 8.06739 10.9973C8.43558 10.9973 8.73406 11.2958 8.73406 11.6639Z" fill="#F5F7F8"/>
<path fill-rule="evenodd" clip-rule="evenodd" d="M9.68035 15.0322C10.1917 14.5951 10.5176 14.5212 10.8323 14.4499C11.1262 14.3833 11.4103 14.3189 11.8268 13.9629C12.8692 15.186 12.7242 17.024 11.5031 18.0681C10.2818 19.1121 8.44678 18.9667 7.40451 17.7437C8.40936 16.8845 8.71557 16.3627 8.97111 15.9273C9.15414 15.6154 9.31118 15.3478 9.68035 15.0322ZM10.0674 17.3306C10.0674 17.6988 9.76892 17.9973 9.40073 17.9973C9.03254 17.9973 8.73406 17.6988 8.73406 17.3306C8.73406 16.9624 9.03254 16.6639 9.40073 16.6639C9.76892 16.6639 10.0674 16.9624 10.0674 17.3306Z" fill="#F5F7F8"/>
<path fill-rule="evenodd" clip-rule="evenodd" d="M13.5079 16.6581C13.2507 16.0358 13.2813 15.7026 13.3108 15.3807C13.3384 15.0802 13.365 14.7896 13.1557 14.283C14.6392 13.668 16.3397 14.3741 16.9537 15.86C17.5677 17.3458 16.8627 19.049 15.3791 19.664C14.8739 18.4411 14.4731 17.9881 14.1386 17.6101C13.8991 17.3394 13.6935 17.1072 13.5079 16.6581ZM16.4008 17.3306C16.4008 17.6988 16.1023 17.9973 15.7341 17.9973C15.3659 17.9973 15.0674 17.6988 15.0674 17.3306C15.0674 16.9624 15.3659 16.6639 15.7341 16.6639C16.1023 16.6639 16.4008 16.9624 16.4008 17.3306Z" fill="#F5F7F8"/>
<path fill-rule="evenodd" clip-rule="evenodd" d="M16.2349 13.5142C15.5646 13.5669 15.2576 13.4348 14.9611 13.3072C14.6842 13.188 14.4165 13.0729 13.8707 13.1158C13.7452 11.5127 14.9412 10.1109 16.5418 9.98508C18.1424 9.85956 19.5419 11.0573 19.6674 12.6606C18.35 12.764 17.7961 13.0059 17.3338 13.2077C17.0027 13.3522 16.7186 13.4762 16.2349 13.5142ZM18.4008 11.6639C18.4008 12.0321 18.1023 12.3306 17.7341 12.3306C17.3659 12.3306 17.0674 12.0321 17.0674 11.6639C17.0674 11.2958 17.3659 10.9973 17.7341 10.9973C18.1023 10.9973 18.4008 11.2958 18.4008 11.6639Z" fill="#F5F7F8"/>
</g>
<rect x="1" y="0.997192" width="24.0001" height="24.0001" rx="12.0001" stroke="#EDEDED"/>
</svg>
