<svg width="26" height="26" viewBox="0 0 26 26" fill="none" xmlns="http://www.w3.org/2000/svg">
<mask id="mask0_4812_146279" style="mask-type:alpha" maskUnits="userSpaceOnUse" x="1" y="0" width="24" height="25">
<circle cx="13.0001" cy="12.9974" r="12.0001" fill="#D9D9D9"/>
</mask>
<g mask="url(#mask0_4812_146279)">
<rect x="1" y="0.997375" width="24.0001" height="24.0001" fill="#004692"/>
<path d="M19.4102 6.87725L19.0001 5.99741L18.5898 6.87725L17.6635 6.65764L18.0783 7.53515L17.3334 8.14112L18.2609 8.35552L18.2583 9.33076L19.0001 8.72062L19.7418 9.33076L19.7392 8.35552L20.6667 8.14112L19.9218 7.53515L20.3367 6.65764L19.4102 6.87725Z" fill="#F5F7F8"/>
<path d="M15.6667 8.66409L16.0769 9.54393L17.0033 9.32432L16.5884 10.2018L17.3334 10.8078L16.4059 11.0222L16.4084 11.9974L15.6667 11.3873L14.9249 11.9974L14.9275 11.0222L14 10.8078L14.745 10.2018L14.3301 9.32432L15.2565 9.54393L15.6667 8.66409Z" fill="#F5F7F8"/>
<path d="M10.7384 17.2478L10 15.6641L9.26161 17.2478L7.59419 16.8525L8.3409 18.4321L7 19.5228L8.66952 19.9087L8.66485 21.6641L10 20.5659L11.3351 21.6641L11.3305 19.9087L13 19.5228L11.6591 18.4321L12.4059 16.8525L10.7384 17.2478Z" fill="#F5F7F8"/>
<path d="M18.4923 17.7199L18.0001 16.6641L17.5078 17.7199L16.3962 17.4564L16.894 18.5094L16 19.2366L17.1131 19.4939L17.1099 20.6641L18.0001 19.932L18.8901 20.6641L18.887 19.4939L20.0001 19.2366L19.1061 18.5094L19.604 17.4564L18.4923 17.7199Z" fill="#F5F7F8"/>
<path d="M22.3334 9.33076L22.7436 10.2106L23.67 9.99099L23.2551 10.8685L24.0001 11.4745L23.0726 11.6889L23.0751 12.6641L22.3334 12.054L21.5916 12.6641L21.5942 11.6889L20.6667 11.4745L21.4117 10.8685L20.9968 9.99099L21.9232 10.2106L22.3334 9.33076Z" fill="#F5F7F8"/>
<path d="M19.8334 14.6641C20.2936 14.6641 20.6667 14.291 20.6667 13.8308C20.6667 13.3705 20.2936 12.9974 19.8334 12.9974C19.3732 12.9974 19.0001 13.3705 19.0001 13.8308C19.0001 14.291 19.3732 14.6641 19.8334 14.6641Z" fill="#F5F7F8"/>
<mask id="mask1_4812_146279" style="mask-type:alpha" maskUnits="userSpaceOnUse" x="1" y="0" width="12" height="13">
<path d="M1 12.9974V12.9974C1 6.36999 6.37261 0.997379 13.0001 0.997379V0.997379L13.0001 12.9974L1 12.9974Z" fill="#002F6C"/>
</mask>
<g mask="url(#mask1_4812_146279)">
<rect x="1" y="0.997375" width="12.0001" height="12.0001" fill="#004692"/>
<path d="M5.17352 2.04203L4.46641 2.74914L14.3085 12.5912L15.0156 11.8841L5.17352 2.04203Z" fill="#F5F7F8"/>
<path d="M3.28789 3.92765L2.10938 5.10617L11.9514 14.9482L13.1299 13.7697L3.28789 3.92765Z" fill="#F5F7F8"/>
<path d="M3.28789 3.92765L4.46641 2.74914L14.3085 12.5912L13.1299 13.7697L3.28789 3.92765Z" fill="#DD2033"/>
<path d="M13 4.99738V6.66405L6.66667 6.66405L6.66667 12.9974H5V4.99738H13Z" fill="#F5F7F8"/>
<path d="M13.0001 0.330719V1.99739L2.66667 1.99739L2.66667 12.9974H1V0.330719H13.0001Z" fill="#F5F7F8"/>
<path fill-rule="evenodd" clip-rule="evenodd" d="M2 12.9974H5.00002L5.00002 4.99739L13.0001 4.99739V1.99738H5.00002H2L2 4.99739L2 12.9974Z" fill="#DD2033"/>
</g>
</g>
<rect x="1" y="0.997375" width="24.0001" height="24.0001" rx="12.0001" stroke="#EDEDED"/>
</svg>
