<svg width="26" height="26" viewBox="0 0 26 26" fill="none" xmlns="http://www.w3.org/2000/svg">
<mask id="mask0_4812_146280" style="mask-type:alpha" maskUnits="userSpaceOnUse" x="0" y="0" width="25" height="25">
<circle cx="12.9981" cy="12.9974" r="12.0001" fill="#D9D9D9"/>
</mask>
<g mask="url(#mask0_4812_146280)">
<rect x="0.998047" y="0.997375" width="24.0001" height="24.0001" fill="#0091DA"/>
<rect x="0.998047" y="18.9975" width="12.0001" height="24.0001" transform="rotate(-90 0.998047 18.9975)" fill="#F5F7F8"/>
<path d="M7.26565 8.66409L6.66949 10.0125L5.26562 10.192L6.30108 11.2048L6.02954 12.6641L7.26563 11.8308L8.50173 12.6641L8.23019 11.2048L9.26564 10.192L7.86178 10.0125L7.26565 8.66409Z" fill="#0091DA"/>
<path d="M12.9323 13.3308L12.3362 14.6792L10.9323 14.8586L11.9678 15.8715L11.6962 17.3308L12.9323 16.4975L14.1684 17.3308L13.8969 15.8715L14.9323 14.8586L13.5285 14.6792L12.9323 13.3308Z" fill="#0091DA"/>
<path d="M18.0029 10.0125L18.599 8.66409L19.1952 10.0125L20.599 10.192L19.5636 11.2048L19.8351 12.6641L18.599 11.8308L17.3629 12.6641L17.6345 11.2048L16.599 10.192L18.0029 10.0125Z" fill="#0091DA"/>
</g>
<rect x="0.998047" y="0.997375" width="24.0001" height="24.0001" rx="12.0001" stroke="#EDEDED"/>
</svg>
