<svg width="26" height="26" viewBox="0 0 26 26" fill="none" xmlns="http://www.w3.org/2000/svg">
<mask id="mask0_4812_146281" style="mask-type:alpha" maskUnits="userSpaceOnUse" x="1" y="0" width="24" height="25">
<circle cx="13.0001" cy="12.9974" r="12.0001" fill="#D9D9D9"/>
</mask>
<g mask="url(#mask0_4812_146281)">
<rect x="1" y="24.9975" width="8.00004" height="24.0001" transform="rotate(-90 1 24.9975)" fill="#004692"/>
<rect x="1" y="16.9974" width="8.00004" height="24.0001" transform="rotate(-90 1 16.9974)" fill="#F5F7F8"/>
<rect x="1" y="8.99738" width="8.00004" height="24.0001" transform="rotate(-90 1 8.99738)" fill="#DD2033"/>
<path d="M8.33398 8.99741H17.6674V14.3308C17.6674 16.9081 15.578 18.9975 13.0007 18.9975V18.9975C10.4233 18.9975 8.33398 16.9081 8.33398 14.3308V8.99741Z" fill="#F5F7F8"/>
<mask id="mask1_4812_146281" style="mask-type:alpha" maskUnits="userSpaceOnUse" x="8" y="8" width="10" height="11">
<path d="M8.33203 8.99744H17.6654V14.3308C17.6654 16.9081 15.5761 18.9975 12.9987 18.9975V18.9975C10.4214 18.9975 8.33203 16.9081 8.33203 14.3308V8.99744Z" fill="#F5F7F8"/>
</mask>
<g mask="url(#mask1_4812_146281)">
<path fill-rule="evenodd" clip-rule="evenodd" d="M10.6654 8.99744H8.33203V11.3308H10.6654V13.6641H8.33203V15.9975H10.6654V18.3308H8.33203V20.6642H10.6654V18.3308H12.9987V20.6642H15.3321V18.3308H17.6654V15.9975H15.3321V13.6641H17.6654V11.3308L15.3321 11.3308V8.99744H12.9987V11.3308L10.6654 11.3308V8.99744ZM12.9987 13.6641H15.3321V11.3308L12.9987 11.3308V13.6641ZM12.9987 15.9975H10.6654V13.6641H12.9987V15.9975ZM12.9987 15.9975H15.3321V18.3308H12.9987V15.9975Z" fill="#DD2033"/>
</g>
<path d="M8.33398 6.66407L9.83399 5.66406L11.334 6.66407V8.99741H8.33398V6.66407Z" fill="#0091DA"/>
<path d="M11.334 6.66407L13.0007 5.66406L14.6673 6.66407V8.99741H11.334V6.66407Z" fill="#004692"/>
<path d="M14.666 6.66407L16.166 5.66406L17.666 6.66407V8.99741H14.666V6.66407Z" fill="#0091DA"/>
</g>
<rect x="1" y="0.997375" width="24.0001" height="24.0001" rx="12.0001" stroke="#EDEDED"/>
</svg>
