<svg width="26" height="26" viewBox="0 0 26 26" fill="none" xmlns="http://www.w3.org/2000/svg">
<mask id="mask0_4812_146282" style="mask-type:alpha" maskUnits="userSpaceOnUse" x="1" y="0" width="24" height="25">
<circle cx="12.9999" cy="12.9974" r="12.0001" transform="rotate(180 12.9999 12.9974)" fill="#D9D9D9"/>
</mask>
<g mask="url(#mask0_4812_146282)">
<rect x="25" y="0.997375" width="12.0001" height="24.0001" transform="rotate(90 25 0.997375)" fill="#004692"/>
<rect x="25" y="12.9974" width="12.0001" height="24.0001" transform="rotate(90 25 12.9974)" fill="#DD2033"/>
<rect x="7.66602" y="7.99741" width="10.6667" height="10" fill="#F5F7F8"/>
<path d="M12.5353 17.8945C12.2851 17.8721 12.0354 17.8195 11.7914 17.7355C11.347 17.6957 10.9039 17.561 10.4921 17.3232C8.97747 16.4488 8.45853 14.512 9.33299 12.9974L9.81498 13.2757C9.96945 12.9064 10.197 12.5605 10.4975 12.2599L10.957 12.7194C11.1761 12.4736 11.4376 12.2582 11.7383 12.0846L13.0456 14.349L14.4033 11.9974C14.6782 12.1561 14.9203 12.3498 15.1272 12.5696L15.4582 12.2386C15.7685 12.5489 16.0049 12.9053 16.1672 13.2856L16.6664 12.9974C17.5868 14.5918 17.0406 16.6304 15.4463 17.5509C14.8409 17.9004 14.1714 18.0384 13.5235 17.9879C13.1896 18.009 12.856 17.9767 12.5353 17.8945Z" fill="#004692"/>
<path d="M7.66602 17.9975L11.5363 15.4576C12.4246 14.8746 13.5742 14.8746 14.4625 15.4576L18.3327 17.9975L7.66602 17.9975Z" fill="#008259"/>
<rect x="12.8008" y="10.9974" width="0.66667" height="4.66669" fill="#936846"/>
<path d="M13.2995 8.66409L13.8327 9.80789L15.0371 9.5224L14.4977 10.6632L15.4662 11.4509L14.2604 11.7296L14.2637 12.9974L13.2995 12.2043L12.3352 12.9974L12.3386 11.7296L11.1328 11.4509L12.1012 10.6632L11.5619 9.5224L12.7662 9.80789L13.2995 8.66409Z" fill="#009B77"/>
</g>
<rect x="1" y="0.997375" width="24.0001" height="24.0001" rx="12.0001" stroke="#EDEDED"/>
</svg>
