<svg width="26" height="26" viewBox="0 0 26 26" fill="none" xmlns="http://www.w3.org/2000/svg">
<mask id="mask0_4812_146286" style="mask-type:alpha" maskUnits="userSpaceOnUse" x="1" y="0" width="24" height="25">
<circle cx="13.0001" cy="12.9974" r="12.0001" fill="#D9D9D9"/>
</mask>
<g mask="url(#mask0_4812_146286)">
<rect x="0.867188" y="24.9975" width="24.0001" height="24.0001" transform="rotate(-90 0.867188 24.9975)" fill="#F5F7F8"/>
<rect x="1" y="22.3308" width="3.33335" height="24.0001" transform="rotate(-90 1 22.3308)" fill="#005EB8"/>
<rect x="1" y="7.66406" width="3.33335" height="24.0001" transform="rotate(-90 1 7.66406)" fill="#005EB8"/>
<path fill-rule="evenodd" clip-rule="evenodd" d="M11.5205 10.9974L12.8676 8.66409L14.2148 10.9974H16.9092L15.562 13.3309L16.9091 15.6641H14.2149L12.8677 17.9975L11.5206 15.6641H8.82617L10.1734 13.3307L8.82628 10.9974H11.5205ZM11.1356 11.6641H9.98098L10.5583 12.664L11.1356 11.6641ZM10.9432 13.3307L11.9054 11.6641H13.8299L14.7922 13.3309L13.83 14.9975H11.9055L10.9432 13.3307ZM10.5583 13.9974L9.98088 14.9975H11.1357L10.5583 13.9974ZM12.2904 15.6641L12.8677 16.6641L13.4451 15.6641H12.2904ZM14.5998 14.9975H15.7544L15.1771 13.9975L14.5998 14.9975ZM15.1771 12.6642L15.7545 11.6641H14.5997L15.1771 12.6642ZM13.445 10.9974H12.2903L12.8676 9.99743L13.445 10.9974Z" fill="#005EB8"/>
</g>
<rect x="1" y="0.997375" width="24.0001" height="24.0001" rx="12.0001" stroke="#EDEDED"/>
</svg>
