<svg width="26" height="26" viewBox="0 0 26 26" fill="none" xmlns="http://www.w3.org/2000/svg">
<mask id="mask0_4812_146287" style="mask-type:alpha" maskUnits="userSpaceOnUse" x="1" y="0" width="24" height="25">
<circle cx="13.0001" cy="12.9974" r="12.0001" fill="#D9D9D9"/>
</mask>
<g mask="url(#mask0_4812_146287)">
<rect x="1" y="0.997375" width="24.0001" height="24.0001" fill="#DD2033"/>
<path d="M7.04462 9.98439C6.86409 10.1117 6.61149 10.0576 6.50081 9.86802L5 7.29691L5.52854 6.99741L7.32639 8.67691L11.869 7.03988C12.21 6.91701 12.5851 7.10492 12.6852 7.44872L12.7054 7.51797L14.1275 11.1427L14.2471 11.2409L14.2521 11.2323L16.2876 12.2971L16.4175 11.7076C16.4899 11.379 16.6011 11.0598 16.7488 10.7566L17.669 8.86715L17.6089 8.12759C17.5912 7.90956 17.7684 7.72409 17.9903 7.72832L21.0001 7.78561L20.9883 8.38624L18.6011 9.03914L17.6847 13.7186C17.6159 14.0698 17.2592 14.2897 16.9086 14.1972L16.8379 14.1785L12.9359 13.5091L12.9412 13.5001H12.8317L12.8381 13.5102L10.9146 14.761L11.3777 15.1557C11.6358 15.3757 11.8669 15.6247 12.0663 15.8976L13.3093 17.5983L13.997 17.9004C14.1998 17.9895 14.2802 18.2316 14.1702 18.4215L12.6779 20.9975L12.1484 20.6997L12.7097 18.3222L8.97903 15.2888C8.69903 15.0612 8.67385 14.6473 8.92423 14.3883L8.97466 14.3362L11.4395 11.2815L11.447 11.2935L11.4793 11.2194L11.4748 11.2195L11.3523 8.95205L10.7726 9.14604C10.4494 9.25418 10.1145 9.32472 9.77472 9.35623L7.65699 9.55261L7.04462 9.98439Z" fill="#F5F7F8"/>
</g>
<rect x="1" y="0.997375" width="24.0001" height="24.0001" rx="12.0001" stroke="#EDEDED"/>
</svg>
