<svg width="26" height="26" viewBox="0 0 26 26" fill="none" xmlns="http://www.w3.org/2000/svg">
<mask id="mask0_4812_146288" style="mask-type:alpha" maskUnits="userSpaceOnUse" x="1" y="0" width="24" height="25">
<circle cx="13.0001" cy="12.9974" r="12.0001" fill="#D9D9D9"/>
</mask>
<g mask="url(#mask0_4812_146288)">
<rect x="1" y="24.9975" width="6.6667" height="24.0001" transform="rotate(-90 1 24.9975)" fill="#009B77"/>
<rect x="1" y="18.3308" width="10.6667" height="24.0001" transform="rotate(-90 1 18.3308)" fill="#F5F7F8"/>
<rect x="1" y="7.66406" width="6.6667" height="24.0001" transform="rotate(-90 1 7.66406)" fill="#FF9E42"/>
<path fill-rule="evenodd" clip-rule="evenodd" d="M17.3327 12.9974C17.3327 15.3907 15.3926 17.3308 12.9994 17.3308C10.6061 17.3308 8.66602 15.3907 8.66602 12.9974C8.66602 10.6042 10.6061 8.66409 12.9994 8.66409C15.3926 8.66409 17.3327 10.6042 17.3327 12.9974ZM13.8241 15.8827C13.5621 15.9574 13.2854 15.9975 12.9994 15.9975C12.7133 15.9975 12.4366 15.9574 12.1746 15.8827L12.9993 14.9578L13.8241 15.8827ZM13.9447 15.8455C14.5134 15.6568 15.0067 15.3025 15.3673 14.8397L14.0952 14.5839L13.9447 15.8455ZM15.3986 14.7987C15.7758 14.2971 15.9994 13.6734 15.9994 12.9974C15.9994 12.9975 15.9994 12.9974 15.9994 12.9974C15.9994 12.3215 15.7758 11.6978 15.3987 11.1962L14.7736 12.3913L15.9994 12.9974L14.7735 13.6036L15.3986 14.7987ZM15.3673 11.1552C15.0067 10.6924 14.5135 10.3381 13.9447 10.1494L14.0952 11.411L15.3673 11.1552ZM13.8242 10.1122L12.9993 11.0371L12.1746 10.1122C12.4367 10.0375 12.7133 9.99743 12.9994 9.99743C13.2854 9.99743 13.5621 10.0375 13.8242 10.1122ZM12.0541 10.1494C11.4853 10.3381 10.992 10.6924 10.6314 11.1552L11.9035 11.411L12.0541 10.1494ZM10.6001 11.1962C10.2229 11.6978 9.99936 12.3215 9.99936 12.9974C9.99936 12.9974 9.99936 12.9974 9.99936 12.9974C9.99936 13.6733 10.2229 14.2971 10.6001 14.7987L11.2252 13.6036L9.99936 12.9974L11.2252 12.3913L10.6001 11.1962ZM10.6314 14.8397C10.992 15.3025 11.4853 15.6568 12.0541 15.8455L11.9035 14.5839L10.6314 14.8397Z" fill="#004692"/>
</g>
<rect x="1" y="0.997375" width="24.0001" height="24.0001" rx="12.0001" stroke="#EDEDED"/>
</svg>
