<svg width="26" height="26" viewBox="0 0 26 26" fill="none" xmlns="http://www.w3.org/2000/svg">
<mask id="mask0_4812_146289" style="mask-type:alpha" maskUnits="userSpaceOnUse" x="1" y="0" width="24" height="25">
<circle cx="13.0001" cy="12.9976" r="12.0001" fill="#D9D9D9"/>
</mask>
<g mask="url(#mask0_4812_146289)">
<rect x="1" y="0.997528" width="24.0001" height="24.0001" fill="#004692"/>
<path d="M24.745 4.14939C25.0023 3.91329 25.2596 3.67721 25.761 3.66531C25.7868 3.99711 25.8003 4.3324 25.8003 4.67082C25.8003 4.90265 25.7937 5.13293 25.7815 5.36173C25.2665 5.36753 25.0057 5.60689 24.7449 5.84625C24.4809 6.08857 24.2168 6.33089 23.689 6.33089C23.1613 6.33089 22.8974 6.0885 22.6335 5.84609C22.3696 5.60366 22.1057 5.36123 21.5779 5.36123C21.0501 5.36123 20.7862 5.60365 20.5224 5.84606C20.2585 6.08848 19.9946 6.33089 19.4668 6.33089C18.9391 6.33089 18.6752 6.08848 18.4113 5.84607C18.1475 5.60365 17.8836 5.36123 17.3558 5.36123C16.8281 5.36123 16.5642 5.60363 16.3003 5.84604C16.0364 6.08846 15.7725 6.33089 15.2447 6.33089C14.7168 6.33089 14.4529 6.08848 14.189 5.84606C13.9251 5.60365 13.6612 5.36123 13.1334 5.36123C12.6056 5.36123 12.3418 5.60364 12.0779 5.84605C11.814 6.08847 11.5501 6.33089 11.0223 6.33089C10.4947 6.33089 10.2308 6.0885 9.96695 5.84609C9.70307 5.60366 9.43919 5.36123 8.9114 5.36123C8.38358 5.36123 8.11967 5.60365 7.85575 5.84606C7.59184 6.08848 7.32793 6.33089 6.80011 6.33089C6.27229 6.33089 6.00838 6.08848 5.74447 5.84606C5.48056 5.60365 5.21665 5.36123 4.68883 5.36123C4.16115 5.36123 3.8973 5.60363 3.63344 5.84604C3.36956 6.08846 3.10568 6.33089 2.57789 6.33089C2.05009 6.33089 1.78608 6.08856 1.52208 5.84623C1.26132 5.60688 1.00057 5.36753 0.485649 5.36173C0.473328 5.13298 0.466797 4.90265 0.466797 4.67082C0.466797 4.3324 0.480255 3.99711 0.506034 3.66531C1.00731 3.67726 1.26463 3.91334 1.52194 4.14942C1.78602 4.3917 2.05009 4.63398 2.57784 4.63398C3.10563 4.63398 3.36951 4.39152 3.63339 4.14907C3.89725 3.90664 4.1611 3.66422 4.68878 3.66422C5.2166 3.66422 5.48051 3.90666 5.74442 4.1491C6.00833 4.39154 6.27224 4.63398 6.80006 4.63398C7.32788 4.63398 7.59179 4.39154 7.8557 4.1491C8.11961 3.90666 8.38353 3.66422 8.91135 3.66422C9.43914 3.66422 9.70302 3.90667 9.9669 4.14912C10.2308 4.39156 10.4946 4.63398 11.0223 4.63398C11.55 4.63398 11.8139 4.39154 12.0778 4.14911C12.3417 3.90666 12.6055 3.66422 13.1333 3.66422C13.6612 3.66422 13.9251 3.90666 14.189 4.14911C14.4529 4.39154 14.7168 4.63398 15.2446 4.63398C15.7724 4.63398 16.0363 4.39153 16.3002 4.14909C16.5641 3.90665 16.828 3.66422 17.3558 3.66422C17.8835 3.66422 18.1474 3.90666 18.4113 4.1491C18.6752 4.39154 18.939 4.63398 19.4668 4.63398C19.9945 4.63398 20.2584 4.39154 20.5223 4.14911C20.7862 3.90666 21.05 3.66422 21.5778 3.66422C22.1056 3.66422 22.3695 3.90666 22.6334 4.14911C22.8973 4.39154 23.1612 4.63398 23.689 4.63398C24.2168 4.63398 24.4809 4.39168 24.745 4.14939Z" fill="#F5F7F8"/>
<path d="M24.745 14.1494C25.0023 13.9133 25.2596 13.6773 25.761 13.6654C25.7868 13.9972 25.8003 14.3324 25.8003 14.6709C25.8003 14.9027 25.7937 15.133 25.7815 15.3618C25.2665 15.3676 25.0057 15.6069 24.7449 15.8463C24.4809 16.0886 24.2168 16.3309 23.689 16.3309C23.1613 16.3309 22.8974 16.0885 22.6335 15.8461C22.3696 15.6037 22.1057 15.3613 21.5779 15.3613C21.0501 15.3613 20.7862 15.6037 20.5224 15.8461C20.2585 16.0885 19.9946 16.3309 19.4668 16.3309C18.9391 16.3309 18.6752 16.0885 18.4113 15.8461C18.1475 15.6037 17.8836 15.3613 17.3558 15.3613C16.8281 15.3613 16.5642 15.6037 16.3003 15.8461C16.0364 16.0885 15.7725 16.3309 15.2447 16.3309C14.7168 16.3309 14.4529 16.0885 14.189 15.8461C13.9251 15.6037 13.6612 15.3613 13.1334 15.3613C12.6056 15.3613 12.3418 15.6037 12.0779 15.8461C11.814 16.0885 11.5501 16.3309 11.0223 16.3309C10.4947 16.3309 10.2308 16.0885 9.96695 15.8461C9.70307 15.6037 9.43919 15.3613 8.9114 15.3613C8.38358 15.3613 8.11967 15.6037 7.85575 15.8461C7.59184 16.0885 7.32793 16.3309 6.80011 16.3309C6.27229 16.3309 6.00838 16.0885 5.74447 15.8461C5.48056 15.6037 5.21665 15.3613 4.68883 15.3613C4.16115 15.3613 3.8973 15.6037 3.63344 15.8461C3.36956 16.0885 3.10568 16.3309 2.57789 16.3309C2.05009 16.3309 1.78608 16.0886 1.52208 15.8463C1.26132 15.6069 1.00057 15.3676 0.485649 15.3618C0.473328 15.133 0.466797 14.9027 0.466797 14.6709C0.466797 14.3324 0.480255 13.9972 0.506034 13.6654C1.00731 13.6773 1.26463 13.9134 1.52194 14.1495C1.78602 14.3918 2.05009 14.634 2.57784 14.634C3.10563 14.634 3.36951 14.3916 3.63339 14.1491C3.89725 13.9067 4.1611 13.6643 4.68878 13.6643C5.2166 13.6643 5.48051 13.9067 5.74442 14.1491C6.00833 14.3916 6.27224 14.634 6.80006 14.634C7.32788 14.634 7.59179 14.3916 7.8557 14.1491C8.11961 13.9067 8.38353 13.6643 8.91135 13.6643C9.43914 13.6643 9.70302 13.9067 9.9669 14.1492C10.2308 14.3916 10.4946 14.634 11.0223 14.634C11.55 14.634 11.8139 14.3916 12.0778 14.1492C12.3417 13.9067 12.6055 13.6643 13.1333 13.6643C13.6612 13.6643 13.9251 13.9067 14.189 14.1492C14.4529 14.3916 14.7168 14.634 15.2446 14.634C15.7724 14.634 16.0363 14.3916 16.3002 14.1491C16.5641 13.9067 16.828 13.6643 17.3558 13.6643C17.8835 13.6643 18.1474 13.9067 18.4113 14.1491C18.6752 14.3916 18.939 14.634 19.4668 14.634C19.9945 14.634 20.2584 14.3916 20.5223 14.1492C20.7862 13.9067 21.05 13.6643 21.5778 13.6643C22.1056 13.6643 22.3695 13.9067 22.6334 14.1492C22.8973 14.3916 23.1612 14.634 23.689 14.634C24.2168 14.634 24.4809 14.3917 24.745 14.1494Z" fill="#F5F7F8"/>
<path d="M25.761 16.9987C25.2596 17.0106 25.0023 17.2467 24.745 17.4828C24.4809 17.7251 24.2168 17.9674 23.689 17.9674C23.1612 17.9674 22.8973 17.7249 22.6334 17.4825C22.3695 17.2401 22.1056 16.9976 21.5778 16.9976C21.05 16.9976 20.7862 17.2401 20.5223 17.4825C20.2584 17.7249 19.9945 17.9674 19.4668 17.9674C18.939 17.9674 18.6752 17.7249 18.4113 17.4825C18.1474 17.2401 17.8835 16.9976 17.3558 16.9976C16.828 16.9976 16.5641 17.24 16.3002 17.4825C16.0363 17.7249 15.7724 17.9674 15.2446 17.9674C14.7168 17.9674 14.4529 17.7249 14.189 17.4825C13.9251 17.2401 13.6612 16.9976 13.1333 16.9976C12.6055 16.9976 12.3417 17.2401 12.0778 17.4825C11.8139 17.7249 11.55 17.9674 11.0223 17.9674C10.4946 17.9674 10.2308 17.725 9.9669 17.4825C9.70302 17.2401 9.43914 16.9976 8.91135 16.9976C8.38353 16.9976 8.11961 17.2401 7.8557 17.4825C7.59179 17.7249 7.32788 17.9674 6.80006 17.9674C6.27224 17.9674 6.00833 17.7249 5.74442 17.4825C5.48051 17.2401 5.2166 16.9976 4.68878 16.9976C4.1611 16.9976 3.89725 17.24 3.63339 17.4825C3.36951 17.7249 3.10563 17.9674 2.57784 17.9674C2.05009 17.9674 1.78602 17.7251 1.52194 17.4828C1.26463 17.2467 1.00731 17.0107 0.506034 16.9987C0.480255 17.3305 0.466797 17.6658 0.466797 18.0042C0.466797 18.236 0.473328 18.4664 0.485649 18.6951C1.00057 18.7009 1.26132 18.9403 1.52208 19.1796C1.78608 19.422 2.05009 19.6643 2.57789 19.6643C3.10568 19.6643 3.36956 19.4219 3.63344 19.1794C3.8973 18.937 4.16115 18.6946 4.68883 18.6946C5.21665 18.6946 5.48056 18.937 5.74447 19.1795C6.00838 19.4219 6.27229 19.6643 6.80011 19.6643C7.32793 19.6643 7.59184 19.4219 7.85575 19.1795C8.11967 18.937 8.38358 18.6946 8.9114 18.6946C9.43919 18.6946 9.70307 18.9371 9.96695 19.1795C10.2308 19.4219 10.4947 19.6643 11.0223 19.6643C11.5501 19.6643 11.814 19.4219 12.0779 19.1795C12.3418 18.937 12.6056 18.6946 13.1334 18.6946C13.6612 18.6946 13.9251 18.937 14.189 19.1795C14.4529 19.4219 14.7168 19.6643 15.2447 19.6643C15.7725 19.6643 16.0364 19.4219 16.3003 19.1794C16.5642 18.937 16.8281 18.6946 17.3558 18.6946C17.8836 18.6946 18.1475 18.937 18.4113 19.1795C18.6752 19.4219 18.9391 19.6643 19.4668 19.6643C19.9946 19.6643 20.2585 19.4219 20.5224 19.1795C20.7862 18.937 21.0501 18.6946 21.5779 18.6946C22.1057 18.6946 22.3696 18.9371 22.6335 19.1795C22.8974 19.4219 23.1613 19.6643 23.689 19.6643C24.2168 19.6643 24.4809 19.422 24.7449 19.1796C25.0057 18.9403 25.2665 18.7009 25.7815 18.6951C25.7937 18.4663 25.8003 18.236 25.8003 18.0042C25.8003 17.6658 25.7868 17.3305 25.761 16.9987Z" fill="#F5F7F8"/>
<path d="M24.745 7.48274C25.0023 7.24664 25.2596 7.01056 25.761 6.99866C25.7868 7.33046 25.8003 7.66575 25.8003 8.00417C25.8003 8.236 25.7937 8.46628 25.7815 8.69508C25.2665 8.70088 25.0057 8.94024 24.7449 9.1796C24.4809 9.42192 24.2168 9.66424 23.689 9.66424C23.1613 9.66424 22.8974 9.42184 22.6335 9.17944C22.3696 8.93701 22.1057 8.69458 21.5779 8.69458C21.0501 8.69458 20.7862 8.93699 20.5224 9.17941C20.2585 9.42183 19.9946 9.66424 19.4668 9.66424C18.9391 9.66424 18.6752 9.42183 18.4113 9.17942C18.1475 8.937 17.8836 8.69458 17.3558 8.69458C16.8281 8.69458 16.5642 8.93698 16.3003 9.17939C16.0364 9.42181 15.7725 9.66424 15.2447 9.66424C14.7168 9.66424 14.4529 9.42183 14.189 9.17941C13.9251 8.93699 13.6612 8.69458 13.1334 8.69458C12.6056 8.69458 12.3418 8.93699 12.0779 9.1794C11.814 9.42182 11.5501 9.66424 11.0223 9.66424C10.4947 9.66424 10.2308 9.42184 9.96695 9.17944C9.70307 8.93701 9.43919 8.69458 8.9114 8.69458C8.38358 8.69458 8.11967 8.93699 7.85575 9.17941C7.59184 9.42183 7.32793 9.66424 6.80011 9.66424C6.27229 9.66424 6.00838 9.42183 5.74447 9.17941C5.48056 8.93699 5.21665 8.69458 4.68883 8.69458C4.16115 8.69458 3.8973 8.93698 3.63344 9.17939C3.36956 9.42181 3.10568 9.66424 2.57789 9.66424C2.05009 9.66424 1.78608 9.42191 1.52208 9.17958C1.26132 8.94023 1.00057 8.70088 0.485649 8.69508C0.473328 8.46633 0.466797 8.236 0.466797 8.00417C0.466797 7.66575 0.480255 7.33046 0.506034 6.99866C1.00731 7.01061 1.26463 7.24669 1.52194 7.48277C1.78602 7.72505 2.05009 7.96733 2.57784 7.96733C3.10563 7.96733 3.36951 7.72487 3.63339 7.48242C3.89725 7.23999 4.1611 6.99756 4.68878 6.99756C5.2166 6.99756 5.48051 7.24001 5.74442 7.48245C6.00833 7.72489 6.27224 7.96733 6.80006 7.96733C7.32788 7.96733 7.59179 7.72489 7.8557 7.48245C8.11961 7.24001 8.38353 6.99756 8.91135 6.99756C9.43914 6.99756 9.70302 7.24002 9.9669 7.48247C10.2308 7.7249 10.4946 7.96733 11.0223 7.96733C11.55 7.96733 11.8139 7.72489 12.0778 7.48246C12.3417 7.24001 12.6055 6.99756 13.1333 6.99756C13.6612 6.99756 13.9251 7.24001 14.189 7.48246C14.4529 7.72489 14.7168 7.96733 15.2446 7.96733C15.7724 7.96733 16.0363 7.72488 16.3002 7.48244C16.5641 7.24 16.828 6.99756 17.3558 6.99756C17.8835 6.99756 18.1474 7.24001 18.4113 7.48245C18.6752 7.72489 18.939 7.96733 19.4668 7.96733C19.9945 7.96733 20.2584 7.72489 20.5223 7.48246C20.7862 7.24001 21.05 6.99756 21.5778 6.99756C22.1056 6.99756 22.3695 7.24001 22.6334 7.48246C22.8973 7.72489 23.1612 7.96733 23.689 7.96733C24.2168 7.96733 24.4809 7.72503 24.745 7.48274Z" fill="#F5F7F8"/>
<path d="M25.761 20.3321C25.2596 20.344 25.0023 20.58 24.745 20.8161C24.4809 21.0584 24.2168 21.3007 23.689 21.3007C23.1612 21.3007 22.8973 21.0583 22.6334 20.8159C22.3695 20.5734 22.1056 20.331 21.5778 20.331C21.05 20.331 20.7862 20.5734 20.5223 20.8159C20.2584 21.0583 19.9945 21.3007 19.4668 21.3007C18.939 21.3007 18.6752 21.0583 18.4113 20.8158C18.1474 20.5734 17.8835 20.331 17.3558 20.331C16.828 20.331 16.5641 20.5734 16.3002 20.8158C16.0363 21.0583 15.7724 21.3007 15.2446 21.3007C14.7168 21.3007 14.4529 21.0583 14.189 20.8159C13.9251 20.5734 13.6612 20.331 13.1333 20.331C12.6055 20.331 12.3417 20.5734 12.0778 20.8159C11.8139 21.0583 11.55 21.3007 11.0223 21.3007C10.4946 21.3007 10.2308 21.0583 9.9669 20.8159C9.70302 20.5734 9.43914 20.331 8.91135 20.331C8.38353 20.331 8.11961 20.5734 7.8557 20.8158C7.59179 21.0583 7.32788 21.3007 6.80006 21.3007C6.27224 21.3007 6.00833 21.0583 5.74442 20.8158C5.48051 20.5734 5.2166 20.331 4.68878 20.331C4.1611 20.331 3.89725 20.5734 3.63339 20.8158C3.36951 21.0583 3.10563 21.3007 2.57784 21.3007C2.05009 21.3007 1.78602 21.0584 1.52194 20.8162C1.26463 20.5801 1.00731 20.344 0.506034 20.3321C0.480255 20.6639 0.466797 20.9991 0.466797 21.3376C0.466797 21.5694 0.473328 21.7997 0.485649 22.0285C1.00057 22.0343 1.26132 22.2736 1.52208 22.513C1.78608 22.7553 2.05009 22.9976 2.57789 22.9976C3.10568 22.9976 3.36956 22.7552 3.63344 22.5128C3.8973 22.2704 4.16115 22.028 4.68883 22.028C5.21665 22.028 5.48056 22.2704 5.74447 22.5128C6.00838 22.7552 6.27229 22.9976 6.80011 22.9976C7.32793 22.9976 7.59184 22.7552 7.85575 22.5128C8.11967 22.2704 8.38358 22.028 8.9114 22.028C9.43919 22.028 9.70307 22.2704 9.96695 22.5128C10.2308 22.7552 10.4947 22.9976 11.0223 22.9976C11.5501 22.9976 11.814 22.7552 12.0779 22.5128C12.3418 22.2704 12.6056 22.028 13.1334 22.028C13.6612 22.028 13.9251 22.2704 14.189 22.5128C14.4529 22.7552 14.7168 22.9976 15.2447 22.9976C15.7725 22.9976 16.0364 22.7552 16.3003 22.5128C16.5642 22.2704 16.8281 22.028 17.3558 22.028C17.8836 22.028 18.1475 22.2704 18.4113 22.5128C18.6752 22.7552 18.9391 22.9976 19.4668 22.9976C19.9946 22.9976 20.2585 22.7552 20.5224 22.5128C20.7862 22.2704 21.0501 22.028 21.5779 22.028C22.1057 22.028 22.3696 22.2704 22.6335 22.5128C22.8974 22.7552 23.1613 22.9976 23.689 22.9976C24.2168 22.9976 24.4809 22.7553 24.7449 22.513C25.0057 22.2736 25.2665 22.0343 25.7815 22.0285C25.7937 21.7997 25.8003 21.5694 25.8003 21.3376C25.8003 20.9991 25.7868 20.6639 25.761 20.3321Z" fill="#F5F7F8"/>
<path d="M24.745 10.8161C25.0023 10.58 25.2596 10.3439 25.761 10.332C25.7868 10.6638 25.8003 10.9991 25.8003 11.3375C25.8003 11.5693 25.7937 11.7996 25.7815 12.0284C25.2665 12.0342 25.0057 12.2736 24.7449 12.5129C24.4809 12.7553 24.2168 12.9976 23.689 12.9976C23.1613 12.9976 22.8974 12.7552 22.6335 12.5128C22.3696 12.2704 22.1057 12.0279 21.5779 12.0279C21.0501 12.0279 20.7862 12.2703 20.5224 12.5128C20.2585 12.7552 19.9946 12.9976 19.4668 12.9976C18.9391 12.9976 18.6752 12.7552 18.4113 12.5128C18.1475 12.2703 17.8836 12.0279 17.3558 12.0279C16.8281 12.0279 16.5642 12.2703 16.3003 12.5127C16.0364 12.7552 15.7725 12.9976 15.2447 12.9976C14.7168 12.9976 14.4529 12.7552 14.189 12.5128C13.9251 12.2703 13.6612 12.0279 13.1334 12.0279C12.6056 12.0279 12.3418 12.2703 12.0779 12.5128C11.814 12.7552 11.5501 12.9976 11.0223 12.9976C10.4947 12.9976 10.2308 12.7552 9.96695 12.5128C9.70307 12.2704 9.43919 12.0279 8.9114 12.0279C8.38358 12.0279 8.11967 12.2703 7.85575 12.5128C7.59184 12.7552 7.32793 12.9976 6.80011 12.9976C6.27229 12.9976 6.00838 12.7552 5.74447 12.5128C5.48056 12.2703 5.21665 12.0279 4.68883 12.0279C4.16115 12.0279 3.8973 12.2703 3.63344 12.5127C3.36956 12.7552 3.10568 12.9976 2.57789 12.9976C2.05009 12.9976 1.78608 12.7553 1.52208 12.5129C1.26132 12.2736 1.00057 12.0342 0.485649 12.0284C0.473328 11.7997 0.466797 11.5693 0.466797 11.3375C0.466797 10.9991 0.480255 10.6638 0.506034 10.332C1.00731 10.344 1.26463 10.58 1.52194 10.8161C1.78602 11.0584 2.05009 11.3007 2.57784 11.3007C3.10563 11.3007 3.36951 11.0582 3.63339 10.8158C3.89725 10.5733 4.1611 10.3309 4.68878 10.3309C5.2166 10.3309 5.48051 10.5734 5.74442 10.8158C6.00833 11.0582 6.27224 11.3007 6.80006 11.3007C7.32788 11.3007 7.59179 11.0582 7.8557 10.8158C8.11961 10.5734 8.38353 10.3309 8.91135 10.3309C9.43914 10.3309 9.70302 10.5734 9.9669 10.8158C10.2308 11.0583 10.4946 11.3007 11.0223 11.3007C11.55 11.3007 11.8139 11.0582 12.0778 10.8158C12.3417 10.5734 12.6055 10.3309 13.1333 10.3309C13.6612 10.3309 13.9251 10.5734 14.189 10.8158C14.4529 11.0582 14.7168 11.3007 15.2446 11.3007C15.7724 11.3007 16.0363 11.0582 16.3002 10.8158C16.5641 10.5733 16.828 10.3309 17.3558 10.3309C17.8835 10.3309 18.1474 10.5734 18.4113 10.8158C18.6752 11.0582 18.939 11.3007 19.4668 11.3007C19.9945 11.3007 20.2584 11.0582 20.5223 10.8158C20.7862 10.5734 21.05 10.3309 21.5778 10.3309C22.1056 10.3309 22.3695 10.5734 22.6334 10.8158C22.8973 11.0582 23.1612 11.3007 23.689 11.3007C24.2168 11.3007 24.4809 11.0584 24.745 10.8161Z" fill="#F5F7F8"/>
<path d="M17.9999 11.0014V11.9976H18.0476V12.4976H18.8095V13.7771C19.6728 13.9319 20.3333 14.6768 20.3333 15.5809C20.3333 16.0696 20.1394 16.5131 19.8254 16.8407V17.6643H17.9999V20.331H16.6666V17.6643H14.8412V16.8408C14.5272 16.5131 14.3333 16.0697 14.3333 15.5809C14.3333 14.6768 14.9938 13.9318 15.8571 13.7771V12.4976H16.619V11.9976H16.6666V11.0013L15.8112 11.7049L15.8166 9.70211L13.9277 9.2655L15.4455 8.03089L14.5971 6.23634L16.4896 6.68498L17.3333 4.87537L18.1769 6.68498L20.0695 6.23634L19.221 8.03089L20.7388 9.26549L18.85 9.70211L18.8552 11.7049L17.9999 11.0014Z" fill="#F5F7F8"/>
<rect x="17" y="9.66425" width="0.66667" height="10.3334" fill="#936846"/>
<path fill-rule="evenodd" clip-rule="evenodd" d="M16.9517 12.3309H17.7137V12.8309L18.4756 12.8309L18.4756 13.5809H17.7137V14.2816C17.9378 14.154 18.198 14.0809 18.4756 14.0809C19.3172 14.0809 19.9994 14.7525 19.9994 15.5809C19.9994 16.0252 19.8032 16.4243 19.4915 16.699V17.3309H15.174V16.699C14.8622 16.4244 14.666 16.0252 14.666 15.5809C14.666 14.7525 15.3483 14.0809 16.1898 14.0809C16.4674 14.0809 16.7276 14.154 16.9517 14.2816V13.5809H16.1899V12.8309L16.9517 12.8309V12.3309ZM17.3327 14.5888L17.3256 14.5809H17.3398L17.3327 14.5888ZM17.3257 16.5809L17.3327 16.5731L17.3397 16.5809H17.3257Z" fill="#F1B434"/>
<path d="M17.3327 5.66422L17.989 7.07197L19.4713 6.72059L18.8074 8.12461L19.9994 9.09416L18.5154 9.4372L18.5195 10.9976L17.3327 10.0214L16.1459 10.9976L16.15 9.4372L14.666 9.09416L15.8579 8.12461L15.1942 6.72059L16.6763 7.07197L17.3327 5.66422Z" fill="#009B77"/>
<mask id="mask1_4812_146289" style="mask-type:alpha" maskUnits="userSpaceOnUse" x="1" y="0" width="12" height="13">
<path d="M1 12.9976V12.9976C1 6.37014 6.37261 0.997532 13.0001 0.997531V0.997531L13.0001 12.9976L1 12.9976Z" fill="#002F6C"/>
</mask>
<g mask="url(#mask1_4812_146289)">
<rect x="1" y="0.997528" width="12.0001" height="12.0001" fill="#004692"/>
<path d="M5.17352 2.04218L4.46641 2.74929L14.3085 12.5913L15.0156 11.8842L5.17352 2.04218Z" fill="#F5F7F8"/>
<path d="M3.28789 3.92781L2.10938 5.10632L11.9514 14.9484L13.1299 13.7699L3.28789 3.92781Z" fill="#F5F7F8"/>
<path d="M3.28789 3.92781L4.46641 2.74929L14.3085 12.5913L13.1299 13.7699L3.28789 3.92781Z" fill="#DD2033"/>
<path d="M13 4.99753V6.6642L6.66667 6.6642L6.66667 12.9976H5V4.99753H13Z" fill="#F5F7F8"/>
<path d="M13.0001 0.330872V1.99755L2.66667 1.99755L2.66667 12.9976H1V0.330872H13.0001Z" fill="#F5F7F8"/>
<path fill-rule="evenodd" clip-rule="evenodd" d="M2 12.9976H5.00002L5.00002 4.99754L13.0001 4.99754V1.99753H5.00002H2L2 4.99754L2 12.9976Z" fill="#DD2033"/>
</g>
</g>
<rect x="1" y="0.997528" width="24.0001" height="24.0001" rx="12.0001" stroke="#EDEDED"/>
</svg>
