<svg width="26" height="26" viewBox="0 0 26 26" fill="none" xmlns="http://www.w3.org/2000/svg">
<mask id="mask0_4812_146290" style="mask-type:alpha" maskUnits="userSpaceOnUse" x="0" y="0" width="25" height="25">
<circle cx="12.9981" cy="12.9976" r="12.0001" fill="#D9D9D9"/>
</mask>
<g mask="url(#mask0_4812_146290)">
<rect x="0.998047" y="24.9977" width="8.00004" height="24.0001" transform="rotate(-90 0.998047 24.9977)" fill="#31373D"/>
<rect x="0.998047" y="16.9976" width="8.00004" height="24.0001" transform="rotate(-90 0.998047 16.9976)" fill="#F5F7F8"/>
<rect x="0.998047" y="8.99753" width="8.00004" height="24.0001" transform="rotate(-90 0.998047 8.99753)" fill="#DD2033"/>
<path d="M10.9974 11.6642L8.99741 12.3313L10.8051 12.3309C11.6463 12.3309 12.3307 13.0287 12.3307 13.8864V15.6642H5.66406V14.3309H11.023V13.8865C11.023 13.764 10.9253 13.6643 10.8051 13.6643H6.9974V11.6642L10.9974 10.3309V11.6642Z" fill="#008259"/>
<path d="M14.3308 14.3309V10.3309H12.9974V15.6643H15.6641V14.3309H14.3308Z" fill="#008259"/>
<path d="M19.6641 10.3309V14.3309H20.3308V15.6643H16.3308V12.9976H17.6641L17.6641 14.3309L18.3308 14.3309V10.3309H19.6641Z" fill="#008259"/>
</g>
<rect x="0.998047" y="0.997528" width="24.0001" height="24.0001" rx="12.0001" stroke="#EDEDED"/>
</svg>
