<svg width="26" height="26" viewBox="0 0 26 26" fill="none" xmlns="http://www.w3.org/2000/svg">
<mask id="mask0_4812_146291" style="mask-type:alpha" maskUnits="userSpaceOnUse" x="1" y="0" width="24" height="25">
<circle cx="13.0001" cy="12.9976" r="12.0001" fill="#D9D9D9"/>
</mask>
<g mask="url(#mask0_4812_146291)">
<rect x="1" y="0.997528" width="24.0001" height="24.0001" fill="#F5F7F8"/>
<path d="M2.66663 17.6643L1 17.6643V24.9977L25.0001 24.9977V17.6643L24.3334 17.6643V19.3309H22.6667V17.6643L21.0001 17.6643V19.3309H19.3334V17.6643L17.6667 17.6643V19.3309H16V17.6643L14.3334 17.6643V19.3309H12.6667V17.6643L11 17.6643V19.3309H9.33333V17.6643L7.66666 17.6643V19.3309H5.99998V17.6643L4.33331 17.6643V19.3309H2.66663V17.6643Z" fill="#DD2033"/>
<path d="M1 0.997407V6.66414H2.66667V8.33078H4.33335V6.66414H6.00002V8.33078L7.6667 8.33077V6.66414H9.33337V8.33077H11V6.66414H12.6667V8.33077H14.3334V6.66414H16.0001V8.33077H17.6667V6.66414H19.3334V8.33077H21.0001V6.66414H22.6668V8.33077H25.0001V0.997406L1 0.997407Z" fill="#009B77"/>
<path d="M15.3098 15.6643C16.5254 14.8967 17.3327 13.5414 17.3327 11.9976C17.3327 10.8009 16.8477 9.7176 16.0635 8.93342L15.188 9.80889C15.7482 10.369 16.0946 11.1428 16.0946 11.9976C16.0946 13.495 15.0312 14.7441 13.6184 15.0309V10.1404H12.3803V15.0309C10.9675 14.7441 9.90412 13.495 9.90412 11.9976C9.90412 11.1428 10.2506 10.369 10.8107 9.80891L9.93521 8.93344C9.15103 9.71763 8.66602 10.801 8.66602 11.9976C8.66602 13.5414 9.47337 14.8967 10.6889 15.6643H10.1994V16.6643H15.8661V15.6643H15.3098Z" fill="#DD2033"/>
<path d="M13.0089 7.66423L12.9994 7.66422L12.9898 7.66423H13.0089Z" fill="#DD2033"/>
</g>
<rect x="1" y="0.997528" width="24.0001" height="24.0001" rx="12.0001" stroke="#EDEDED"/>
</svg>
