<svg width="26" height="26" viewBox="0 0 26 26" fill="none" xmlns="http://www.w3.org/2000/svg">
<mask id="mask0_4812_146292" style="mask-type:alpha" maskUnits="userSpaceOnUse" x="1" y="0" width="24" height="25">
<circle cx="13.0001" cy="12.9976" r="12.0001" fill="#D9D9D9"/>
</mask>
<g mask="url(#mask0_4812_146292)">
<rect x="1" y="0.997528" width="24.0001" height="24.0001" fill="#004692"/>
<path fill-rule="evenodd" clip-rule="evenodd" d="M7.79951 24.9976H5.7995L5.7995 16.8976H1.13281V14.8976H5.7995L5.7995 11.0976H1.13281V9.09758H5.7995L5.7995 0.997528H7.79951L7.79951 9.09758H11.5995L11.5995 0.997528H13.5995L13.5995 9.09758H25.1329V11.0976L13.5995 11.0976V14.8976L25.1329 14.8976V16.8976L13.5995 16.8976L13.5995 24.9976H11.5995L11.5995 16.8976H7.79951L7.79951 24.9976ZM11.5995 11.0976H7.79951L7.79951 14.8976H11.5995L11.5995 11.0976Z" fill="#F5F7F8"/>
<path d="M7.6667 24.9976H11.6667L11.6667 14.9976L25.0001 14.9976V10.9976L11.6667 10.9976L11.6667 0.997528H7.6667L7.6667 10.9976L1 10.9976V14.9976H7.6667L7.6667 24.9976Z" fill="#DD2033"/>
</g>
<rect x="1" y="0.997528" width="24.0001" height="24.0001" rx="12.0001" stroke="#EDEDED"/>
</svg>
