<svg width="26" height="26" viewBox="0 0 26 26" fill="none" xmlns="http://www.w3.org/2000/svg">
<mask id="mask0_4812_146294" style="mask-type:alpha" maskUnits="userSpaceOnUse" x="1" y="0" width="25" height="25">
<circle cx="13.002" cy="12.9976" r="12.0001" fill="#D9D9D9"/>
</mask>
<g mask="url(#mask0_4812_146294)">
<rect x="1.00195" y="0.997528" width="24.0001" height="24.0001" fill="#F5F7F8"/>
<path d="M20.1664 22.8029L22.9949 19.9744L15.9238 12.9033L22.9006 5.92649L20.0722 3.09805L13.0953 10.0749L6.02423 3.00378L3.19578 5.83222L10.2669 12.9033L3.10156 20.0687L5.93 22.8971L13.0953 15.7318L20.1664 22.8029Z" fill="#DD2033"/>
<path d="M9.66797 4.66422H16.3347V7.3113C16.3347 9.33636 15.1018 11.1574 13.2215 11.9095L13.0013 11.9976L12.7811 11.9095C10.9009 11.1574 9.66797 9.33636 9.66797 7.3113V4.66422Z" fill="#F1B434"/>
</g>
<rect x="1.00195" y="0.997528" width="24.0001" height="24.0001" rx="12.0001" stroke="#EDEDED"/>
</svg>
