<svg width="26" height="26" viewBox="0 0 26 26" fill="none" xmlns="http://www.w3.org/2000/svg">
<mask id="mask0_4812_146299" style="mask-type:alpha" maskUnits="userSpaceOnUse" x="1" y="0" width="24" height="25">
<circle cx="13.0001" cy="12.9978" r="12.0001" transform="rotate(-90 13.0001 12.9978)" fill="#D9D9D9"/>
</mask>
<g mask="url(#mask0_4812_146299)">
<rect x="25" y="24.9978" width="24.0001" height="24.0001" transform="rotate(180 25 24.9978)" fill="#DD2033"/>
<path d="M12.9994 8.99776C10.7902 8.99776 8.99937 10.7886 8.99937 12.9978C8.99937 15.2069 10.7902 16.9978 12.9994 16.9978C15.2085 16.9978 16.9994 15.2069 16.9994 12.9978C16.9994 10.7886 15.2085 8.99776 12.9994 8.99776Z" fill="#F1B434"/>
<path fill-rule="evenodd" clip-rule="evenodd" d="M22.3328 12.9977L18.519 14.8836L20.5498 18.7662L16.4086 17.9334L15.8839 22.3312L12.9993 19.0967L10.1149 22.3312L9.59016 17.9334L5.44884 18.7661L7.47975 14.8835L3.66602 12.9977L7.47988 11.112L5.44884 7.22948L9.59002 8.06216L10.115 3.6644L12.9993 6.89881L15.884 3.6644L16.4086 8.06216L20.5499 7.22948L18.5192 11.1121L22.3328 12.9977ZM7.66602 12.9978C7.66602 10.0522 10.0539 7.66442 12.9994 7.66442C15.9449 7.66442 18.3327 10.0522 18.3327 12.9978C18.3327 15.9433 15.9449 18.3311 12.9994 18.3311C10.0539 18.3311 7.66602 15.9433 7.66602 12.9978Z" fill="#F1B434"/>
<path d="M9.49219 11.0731C10.3794 11.209 11.2076 11.5244 11.9385 11.981C10.9748 12.9523 10.2638 14.1748 9.91246 15.5416C10.2343 15.9317 10.6286 16.2598 11.0749 16.5052C11.2961 15.0612 11.9926 13.7737 12.9996 12.8074C14.0065 13.7737 14.703 15.0612 14.9243 16.5052C15.3705 16.2598 15.7648 15.9317 16.0867 15.5416C15.7353 14.1748 15.0243 12.9523 14.0607 11.981C14.7915 11.5244 15.6197 11.209 16.5069 11.0731C16.2615 10.6269 15.9335 10.2325 15.5433 9.91068C14.6183 10.1485 13.7593 10.551 12.9996 11.0852C12.2398 10.551 11.3808 10.1485 10.4558 9.91068C10.0657 10.2325 9.73758 10.6269 9.49219 11.0731Z" fill="#DD2033"/>
</g>
<rect x="1" y="0.997711" width="24.0001" height="24.0001" rx="12.0001" stroke="#EDEDED"/>
</svg>
