<svg width="26" height="26" viewBox="0 0 26 26" fill="none" xmlns="http://www.w3.org/2000/svg">
<mask id="mask0_4812_146300" style="mask-type:alpha" maskUnits="userSpaceOnUse" x="0" y="0" width="25" height="25">
<circle cx="12.9981" cy="12.9978" r="12.0001" fill="#D9D9D9"/>
</mask>
<g mask="url(#mask0_4812_146300)">
<rect x="0.998047" y="0.997711" width="24.0001" height="24.0001" fill="#004692"/>
<rect x="0.998047" y="18.9978" width="12.0001" height="24.0001" transform="rotate(-90 0.998047 18.9978)" fill="#DD2033"/>
<path d="M7.33204 13.3311L7.33204 14.9978H6.66537L6.66537 15.6644L5.9987 15.6644L5.9987 16.3311L5.33203 16.3311V16.9978L20.6654 16.9978V16.3311L19.9988 16.3311V15.6644L19.3321 15.6644V14.9978H18.6654V13.3311L18.3321 13.3311V10.9978H16.3321V13.3311L14.9987 13.3311V8.99774H10.9987V13.3311L9.66539 13.3311V10.9978H7.66538L7.66538 13.3311H7.33204Z" fill="#F5F7F8"/>
</g>
<rect x="0.998047" y="0.997711" width="24.0001" height="24.0001" rx="12.0001" stroke="#EDEDED"/>
</svg>
