<svg width="26" height="26" viewBox="0 0 26 26" fill="none" xmlns="http://www.w3.org/2000/svg">
<mask id="mask0_4812_146301" style="mask-type:alpha" maskUnits="userSpaceOnUse" x="1" y="0" width="24" height="25">
<circle cx="13.0001" cy="12.9978" r="12.0001" fill="#D9D9D9"/>
</mask>
<g mask="url(#mask0_4812_146301)">
<rect x="1" y="0.997711" width="24.0001" height="14.3334" fill="#DD2033"/>
<path fill-rule="evenodd" clip-rule="evenodd" d="M13.0594 4.70011C12.7188 4.98111 12.5642 5.35098 12.526 5.57994V5.57994C12.4507 6.03218 11.8571 6.15298 11.611 5.76618V5.76618C11.261 5.21618 10.7394 5.02877 10.164 5.03107C9.5697 5.03344 8.96648 5.24423 8.60145 5.43892L8.13086 4.55656C8.59917 4.30679 9.36262 4.03425 10.16 4.03107C10.7345 4.02878 11.348 4.16917 11.8644 4.57208C12.0023 4.34698 12.1859 4.12434 12.423 3.92873C12.9872 3.46325 13.8114 3.18603 14.9323 3.33547L14.8001 4.32671C13.9209 4.20948 13.384 4.43226 13.0594 4.70011Z" fill="#F1B434"/>
<path d="M19.5326 13.331L16.8085 14.6781L18.2591 17.4514L15.3011 16.8565L14.9263 19.9978L12.8659 17.6875L10.8056 19.9978L10.4307 16.8565L7.47267 17.4513L8.92331 14.678L6.19922 13.331L8.92341 11.9841L7.47267 9.21089L10.4307 9.80566L10.8057 6.6644L12.8659 8.9747L14.9264 6.6644L15.3011 9.80566L18.2592 9.21089L16.8086 11.9842L19.5326 13.331Z" fill="#F1B434"/>
<rect x="0.867188" y="15.3311" width="24.0001" height="9.66671" fill="#004692"/>
<path d="M25.6282 13.6655C25.1268 13.6774 24.8695 13.9135 24.6122 14.1496C24.3481 14.3919 24.084 14.6342 23.5562 14.6342C23.0284 14.6342 22.7645 14.3918 22.5006 14.1493C22.2367 13.9069 21.9728 13.6644 21.445 13.6644C20.9172 13.6644 20.6533 13.9069 20.3895 14.1493C20.1256 14.3918 19.8617 14.6342 19.334 14.6342C18.8062 14.6342 18.5423 14.3918 18.2785 14.1493C18.0146 13.9069 17.7507 13.6644 17.2229 13.6644C16.6952 13.6644 16.4313 13.9069 16.1674 14.1493C15.9035 14.3917 15.6396 14.6342 15.1118 14.6342C14.584 14.6342 14.3201 14.3918 14.0562 14.1493C13.7923 13.9069 13.5283 13.6644 13.0005 13.6644C12.4727 13.6644 12.2088 13.9069 11.945 14.1493C11.6811 14.3918 11.4172 14.6342 10.8895 14.6342C10.3618 14.6342 10.0979 14.3918 9.83409 14.1493C9.57021 13.9069 9.30633 13.6644 8.77853 13.6644C8.25071 13.6644 7.9868 13.9069 7.72289 14.1493C7.45898 14.3918 7.19507 14.6342 6.66725 14.6342C6.13943 14.6342 5.87552 14.3918 5.61161 14.1493C5.3477 13.9069 5.08378 13.6644 4.55596 13.6644C4.02828 13.6644 3.76443 13.9069 3.50058 14.1493C3.2367 14.3917 2.97281 14.6342 2.44502 14.6342C1.91728 14.6342 1.6532 14.3919 1.38913 14.1496C1.13181 13.9136 0.874494 13.6775 0.373222 13.6655C0.347443 13.9973 0.333984 14.3326 0.333984 14.671C0.333984 14.9029 0.340516 15.1332 0.352836 15.3619C0.867761 15.3677 1.12851 15.6071 1.38927 15.8464C1.65327 16.0888 1.91728 16.3311 2.44507 16.3311C2.97286 16.3311 3.23675 16.0887 3.50063 15.8462C3.76448 15.6038 4.02833 15.3614 4.55601 15.3614C5.08383 15.3614 5.34774 15.6039 5.61165 15.8463C5.87557 16.0887 6.13948 16.3311 6.6673 16.3311C7.19512 16.3311 7.45903 16.0887 7.72294 15.8463C7.98685 15.6039 8.25076 15.3614 8.77859 15.3614C9.30638 15.3614 9.57026 15.6039 9.83414 15.8463C10.098 16.0887 10.3618 16.3311 10.8895 16.3311C11.4173 16.3311 11.6812 16.0887 11.9451 15.8463C12.2089 15.6039 12.4728 15.3614 13.0006 15.3614C13.5284 15.3614 13.7923 15.6039 14.0562 15.8463C14.3201 16.0887 14.584 16.3311 15.1118 16.3311C15.6397 16.3311 15.9036 16.0887 16.1675 15.8462C16.4314 15.6038 16.6953 15.3614 17.223 15.3614C17.7508 15.3614 18.0147 15.6039 18.2785 15.8463C18.5424 16.0887 18.8063 16.3311 19.334 16.3311C19.8618 16.3311 20.1257 16.0887 20.3895 15.8463C20.6534 15.6039 20.9173 15.3614 21.4451 15.3614C21.9729 15.3614 22.2368 15.6039 22.5007 15.8463C22.7646 16.0887 23.0285 16.3311 23.5562 16.3311C24.084 16.3311 24.3481 16.0888 24.6121 15.8465C24.8729 15.6071 25.1337 15.3677 25.6487 15.3619C25.6609 15.1331 25.6674 14.9029 25.6674 14.671C25.6674 14.3326 25.654 13.9973 25.6282 13.6655Z" fill="#F5F7F8"/>
<path d="M25.6282 16.9989C25.1268 17.0108 24.8695 17.2469 24.6122 17.4829C24.3481 17.7252 24.084 17.9675 23.5562 17.9675C23.0284 17.9675 22.7645 17.7251 22.5006 17.4827C22.2367 17.2402 21.9728 16.9978 21.445 16.9978C20.9172 16.9978 20.6533 17.2402 20.3895 17.4827C20.1256 17.7251 19.8617 17.9675 19.334 17.9675C18.8062 17.9675 18.5423 17.7251 18.2785 17.4827C18.0146 17.2402 17.7507 16.9978 17.2229 16.9978C16.6952 16.9978 16.4313 17.2402 16.1674 17.4827C15.9035 17.7251 15.6396 17.9675 15.1118 17.9675C14.584 17.9675 14.3201 17.7251 14.0562 17.4827C13.7923 17.2402 13.5283 16.9978 13.0005 16.9978C12.4727 16.9978 12.2088 17.2402 11.945 17.4827C11.6811 17.7251 11.4172 17.9675 10.8895 17.9675C10.3618 17.9675 10.0979 17.7251 9.83409 17.4827C9.57021 17.2402 9.30633 16.9978 8.77853 16.9978C8.25071 16.9978 7.9868 17.2402 7.72289 17.4827C7.45898 17.7251 7.19507 17.9675 6.66725 17.9675C6.13943 17.9675 5.87552 17.7251 5.61161 17.4827C5.3477 17.2402 5.08378 16.9978 4.55596 16.9978C4.02828 16.9978 3.76443 17.2402 3.50058 17.4826C3.2367 17.7251 2.97281 17.9675 2.44502 17.9675C1.91728 17.9675 1.6532 17.7253 1.38913 17.483C1.13181 17.2469 0.874494 17.0108 0.373222 16.9989C0.347443 17.3307 0.333984 17.666 0.333984 18.0044C0.333984 18.2362 0.340516 18.4665 0.352836 18.6953C0.867761 18.7011 1.12851 18.9404 1.38927 19.1798C1.65327 19.4221 1.91728 19.6645 2.44507 19.6645C2.97286 19.6645 3.23675 19.422 3.50063 19.1796C3.76448 18.9372 4.02833 18.6948 4.55601 18.6948C5.08383 18.6948 5.34774 18.9372 5.61165 19.1796C5.87557 19.422 6.13948 19.6645 6.6673 19.6645C7.19512 19.6645 7.45903 19.422 7.72294 19.1796C7.98685 18.9372 8.25076 18.6948 8.77859 18.6948C9.30638 18.6948 9.57026 18.9372 9.83414 19.1796C10.098 19.4221 10.3618 19.6645 10.8895 19.6645C11.4173 19.6645 11.6812 19.422 11.9451 19.1796C12.2089 18.9372 12.4728 18.6948 13.0006 18.6948C13.5284 18.6948 13.7923 18.9372 14.0562 19.1796C14.3201 19.422 14.584 19.6645 15.1118 19.6645C15.6397 19.6645 15.9036 19.422 16.1675 19.1796C16.4314 18.9372 16.6953 18.6948 17.223 18.6948C17.7508 18.6948 18.0147 18.9372 18.2785 19.1796C18.5424 19.422 18.8063 19.6645 19.334 19.6645C19.8618 19.6645 20.1257 19.422 20.3895 19.1796C20.6534 18.9372 20.9173 18.6948 21.4451 18.6948C21.9729 18.6948 22.2368 18.9372 22.5007 19.1796C22.7646 19.4221 23.0285 19.6645 23.5562 19.6645C24.084 19.6645 24.3481 19.4221 24.6121 19.1798C24.8729 18.9405 25.1337 18.7011 25.6487 18.6953C25.6609 18.4665 25.6674 18.2362 25.6674 18.0044C25.6674 17.666 25.654 17.3307 25.6282 16.9989Z" fill="#F5F7F8"/>
<path d="M24.6122 20.8163C24.8695 20.5802 25.1268 20.3441 25.6282 20.3322C25.654 20.664 25.6674 20.9993 25.6674 21.3377C25.6674 21.5696 25.6609 21.7998 25.6487 22.0286C25.1337 22.0344 24.8729 22.2738 24.6121 22.5132C24.3481 22.7555 24.084 22.9978 23.5562 22.9978C23.0285 22.9978 22.7646 22.7554 22.5007 22.513C22.2368 22.2706 21.9729 22.0281 21.4451 22.0281C20.9173 22.0281 20.6534 22.2706 20.3895 22.513C20.1257 22.7554 19.8618 22.9978 19.334 22.9978C18.8063 22.9978 18.5424 22.7554 18.2785 22.513C18.0147 22.2706 17.7508 22.0281 17.223 22.0281C16.6953 22.0281 16.4314 22.2705 16.1675 22.5129C15.9036 22.7554 15.6397 22.9978 15.1118 22.9978C14.584 22.9978 14.3201 22.7554 14.0562 22.513C13.7923 22.2706 13.5284 22.0281 13.0006 22.0281C12.4728 22.0281 12.2089 22.2706 11.9451 22.513C11.6812 22.7554 11.4173 22.9978 10.8895 22.9978C10.3618 22.9978 10.098 22.7554 9.83414 22.513C9.57026 22.2706 9.30638 22.0281 8.77859 22.0281C8.25076 22.0281 7.98685 22.2706 7.72294 22.513C7.45903 22.7554 7.19512 22.9978 6.6673 22.9978C6.13948 22.9978 5.87557 22.7554 5.61165 22.513C5.34774 22.2706 5.08383 22.0281 4.55601 22.0281C4.02833 22.0281 3.76448 22.2705 3.50063 22.5129C3.23675 22.7554 2.97286 22.9978 2.44507 22.9978C1.91728 22.9978 1.65327 22.7555 1.38927 22.5131C1.12851 22.2738 0.867761 22.0344 0.352836 22.0286C0.340516 21.7999 0.333984 21.5696 0.333984 21.3377C0.333984 20.9993 0.347443 20.664 0.373222 20.3322C0.874494 20.3442 1.13181 20.5803 1.38913 20.8163C1.6532 21.0586 1.91728 21.3009 2.44502 21.3009C2.97281 21.3009 3.2367 21.0584 3.50058 20.816C3.76443 20.5736 4.02828 20.3311 4.55596 20.3311C5.08378 20.3311 5.3477 20.5736 5.61161 20.816C5.87552 21.0585 6.13943 21.3009 6.66725 21.3009C7.19507 21.3009 7.45898 21.0585 7.72289 20.816C7.9868 20.5736 8.25071 20.3311 8.77853 20.3311C9.30633 20.3311 9.57021 20.5736 9.83409 20.816C10.0979 21.0585 10.3618 21.3009 10.8895 21.3009C11.4172 21.3009 11.6811 21.0585 11.945 20.816C12.2088 20.5736 12.4727 20.3311 13.0005 20.3311C13.5283 20.3311 13.7923 20.5736 14.0562 20.816C14.3201 21.0585 14.584 21.3009 15.1118 21.3009C15.6396 21.3009 15.9035 21.0584 16.1674 20.816C16.4313 20.5736 16.6952 20.3311 17.2229 20.3311C17.7507 20.3311 18.0146 20.5736 18.2785 20.816C18.5423 21.0585 18.8062 21.3009 19.334 21.3009C19.8617 21.3009 20.1256 21.0585 20.3895 20.816C20.6533 20.5736 20.9172 20.3311 21.445 20.3311C21.9728 20.3311 22.2367 20.5736 22.5006 20.816C22.7645 21.0585 23.0284 21.3009 23.5562 21.3009C24.084 21.3009 24.3481 21.0586 24.6122 20.8163Z" fill="#F5F7F8"/>
</g>
<rect x="1" y="0.997711" width="24.0001" height="24.0001" rx="12.0001" stroke="#EDEDED"/>
</svg>
