<svg width="26" height="26" viewBox="0 0 26 26" fill="none" xmlns="http://www.w3.org/2000/svg">
<mask id="mask0_4812_146302" style="mask-type:alpha" maskUnits="userSpaceOnUse" x="1" y="0" width="24" height="25">
<circle cx="13.0001" cy="12.9978" r="12.0001" fill="#D9D9D9"/>
</mask>
<g mask="url(#mask0_4812_146302)">
<rect x="1" y="24.9978" width="6.00003" height="24.0001" transform="rotate(-90 1 24.9978)" fill="#004692"/>
<rect x="1" y="18.9978" width="6.00003" height="24.0001" transform="rotate(-90 1 18.9978)" fill="#DD2033"/>
<rect x="1" y="12.9978" width="6.00003" height="24.0001" transform="rotate(-90 1 12.9978)" fill="#F5F7F8"/>
<rect x="1" y="6.99774" width="6.00003" height="24.0001" transform="rotate(-90 1 6.99774)" fill="#FBD381"/>
<path d="M17.0001 12.9978L1 0.997711V24.9978L17.0001 12.9978Z" fill="#009B77"/>
<path d="M4.4673 12.9978C4.4673 10.7874 6.004 8.93598 8.06733 8.45355C7.72475 8.37345 7.36766 8.33109 7.00067 8.33109C4.42333 8.33109 2.33398 10.4204 2.33398 12.9978C2.33398 15.5751 4.42333 17.6645 7.00067 17.6645C7.36766 17.6645 7.72475 17.6221 8.06733 17.542C6.004 17.0596 4.4673 15.2081 4.4673 12.9978Z" fill="#F5F7F8"/>
<path d="M9.46732 11.3311C10.0196 11.3311 10.4673 10.8834 10.4673 10.3311C10.4673 9.77881 10.0196 9.33109 9.46732 9.33109C8.91503 9.33109 8.46731 9.77881 8.46731 10.3311C8.46731 10.8834 8.91503 11.3311 9.46732 11.3311Z" fill="#F5F7F8"/>
<path d="M9.46732 13.9978C10.0196 13.9978 10.4673 13.5501 10.4673 12.9978C10.4673 12.4455 10.0196 11.9978 9.46732 11.9978C8.91503 11.9978 8.46731 12.4455 8.46731 12.9978C8.46731 13.5501 8.91503 13.9978 9.46732 13.9978Z" fill="#F5F7F8"/>
<path d="M10.4673 15.6645C10.4673 16.2167 10.0196 16.6645 9.46732 16.6645C8.91503 16.6645 8.46731 16.2167 8.46731 15.6645C8.46731 15.1122 8.91503 14.6644 9.46732 14.6644C10.0196 14.6644 10.4673 15.1122 10.4673 15.6645Z" fill="#F5F7F8"/>
</g>
<rect x="1" y="0.997711" width="24.0001" height="24.0001" rx="12.0001" stroke="#EDEDED"/>
</svg>
