<svg width="26" height="26" viewBox="0 0 26 26" fill="none" xmlns="http://www.w3.org/2000/svg">
<mask id="mask0_4812_146303" style="mask-type:alpha" maskUnits="userSpaceOnUse" x="1" y="0" width="25" height="25">
<circle cx="13.002" cy="12.9978" r="12.0001" fill="#D9D9D9"/>
</mask>
<g mask="url(#mask0_4812_146303)">
<rect x="1.00195" y="0.997711" width="24.0001" height="24.0001" fill="#009B77"/>
<path d="M25.002 24.9978L1.00184 24.9978L25.002 0.997711V24.9978Z" fill="#DD2033"/>
<rect width="10.6667" height="24.6668" transform="matrix(0.707107 0.707107 0.707107 -0.707107 0.84375 17.9475)" fill="#FBD381"/>
<rect x="6.9707" y="24.0158" width="6.6667" height="24.1807" transform="rotate(-135 6.9707 24.0158)" fill="#31373D"/>
<path d="M6.62094 15.921L7.3302 17.7544L6.17578 19.2471L8.10694 19.2258L9.22678 20.8577L9.6065 18.9066L11.5576 18.5269L9.92572 17.407L9.94704 15.4759L8.4543 16.6303L6.62094 15.921Z" fill="#F5F7F8"/>
<path d="M15.9919 6.55002L16.7012 8.38341L15.5468 9.87614L17.4779 9.85483L18.5978 11.4867L18.9775 9.53561L20.9286 9.15589L19.2967 8.03605L19.318 6.10489L17.8253 7.25931L15.9919 6.55002Z" fill="#F5F7F8"/>
</g>
<rect x="1.00195" y="0.997711" width="24.0001" height="24.0001" rx="12.0001" stroke="#EDEDED"/>
</svg>
