<svg width="26" height="26" viewBox="0 0 26 26" fill="none" xmlns="http://www.w3.org/2000/svg">
<mask id="mask0_4812_146304" style="mask-type:alpha" maskUnits="userSpaceOnUse" x="1" y="0" width="25" height="25">
<circle cx="13.002" cy="12.9978" r="12.0001" fill="#D9D9D9"/>
</mask>
<g mask="url(#mask0_4812_146304)">
<rect x="1.00195" y="0.997711" width="24.0001" height="24.0001" fill="#004692"/>
<rect x="1.00195" y="20.9978" width="16.0001" height="24.0001" transform="rotate(-90 1.00195 20.9978)" fill="#F5F7F8"/>
<rect x="1.00195" y="18.9978" width="12.0001" height="24.0001" transform="rotate(-90 1.00195 18.9978)" fill="#DD2033"/>
<path fill-rule="evenodd" clip-rule="evenodd" d="M8.66734 8.6644C6.27409 8.6644 4.33398 10.6045 4.33398 12.9978C4.33398 15.391 6.27409 17.3311 8.66734 17.3311C11.0606 17.3311 13.0007 15.391 13.0007 12.9978C13.0007 10.6045 11.0606 8.6644 8.66734 8.6644ZM7.67377 11.9118L8.66736 9.6644L9.66091 11.9118L12.0007 12.2108L10.2749 13.8989L10.7275 16.3311L8.66734 14.9422L6.60718 16.3311L7.05975 13.8989L5.33399 12.2108L7.67377 11.9118Z" fill="#F5F7F8"/>
</g>
<rect x="1.00195" y="0.997711" width="24.0001" height="24.0001" rx="12.0001" stroke="#EDEDED"/>
</svg>
