<svg width="26" height="26" viewBox="0 0 26 26" fill="none" xmlns="http://www.w3.org/2000/svg">
<mask id="mask0_4812_146305" style="mask-type:alpha" maskUnits="userSpaceOnUse" x="1" y="0" width="25" height="25">
<circle cx="13.002" cy="12.9978" r="12.0001" fill="#D9D9D9"/>
</mask>
<g mask="url(#mask0_4812_146305)">
<rect x="1.00195" y="0.997711" width="24.0001" height="24.0001" fill="#F5F7F8"/>
<path fill-rule="evenodd" clip-rule="evenodd" d="M17.3347 12.9993C17.3347 15.3895 15.3955 17.3311 12.9998 17.3311C10.6042 17.3311 8.66797 15.3895 8.66797 12.9993C8.66797 10.6091 10.6072 8.66443 13.0028 8.66443C15.3985 8.66443 17.3347 10.6091 17.3347 12.9993Z" fill="#DD2033"/>
<path fill-rule="evenodd" clip-rule="evenodd" d="M8.73077 12.2351C8.868 13.3269 9.06789 14.5426 10.7654 14.6666C11.4009 14.7049 12.639 14.519 13.0626 12.8016C13.6235 11.155 15.3002 10.6829 16.4428 11.5741C17.0962 11.9931 17.2752 12.657 17.3169 13.1587C17.2662 14.7522 16.3354 16.1391 15.145 16.7588C13.7727 17.5643 11.8752 17.582 10.2135 16.3604C9.46468 15.6669 8.41751 14.3833 8.73077 12.2351V12.2351Z" fill="#004692"/>
<path d="M7.51472 4.2767L4.21487 7.57655L4.92198 8.28366L8.22183 4.98381L7.51472 4.2767Z" fill="#31373D"/>
<path d="M4.21484 18.4189L7.51469 21.7188L8.2218 21.0117L4.92195 17.7118L4.21484 18.4189Z" fill="#31373D"/>
<path d="M17.1785 16.769L18.5927 15.3548L19.2998 16.0619L17.8856 17.4761L17.1785 16.769Z" fill="#31373D"/>
<path d="M19.7712 16.5333L18.357 17.9475L19.0641 18.6546L20.4784 17.2404L19.7712 16.5333Z" fill="#31373D"/>
<path d="M19.5355 19.126L20.9498 17.7118L21.6569 18.4189L20.2427 19.8332L19.5355 19.126Z" fill="#31373D"/>
<path d="M16.7071 17.2404L15.2929 18.6546L16 19.3618L17.4142 17.9475L16.7071 17.2404Z" fill="#31373D"/>
<path d="M16.4714 19.8332L17.8856 18.4189L18.5927 19.126L17.1785 20.5403L16.4714 19.8332Z" fill="#31373D"/>
<path d="M19.0641 19.5975L17.6499 21.0117L18.357 21.7188L19.7712 20.3046L19.0641 19.5975Z" fill="#31373D"/>
<path d="M6.80758 18.6546L5.39336 17.2404L6.10047 16.5333L7.51469 17.9475L6.80758 18.6546Z" fill="#31373D"/>
<path d="M7.98609 18.4189L7.27898 19.1261L8.6932 20.5403L9.40031 19.8332L7.98609 18.4189Z" fill="#31373D"/>
<path d="M5.39338 8.75508L8.69323 5.45524L9.40034 6.16235L6.10049 9.46219L5.39338 8.75508Z" fill="#31373D"/>
<path d="M16.4714 6.16235L19.7713 9.4622L20.4784 8.75509L17.1785 5.45524L16.4714 6.16235Z" fill="#31373D"/>
<path d="M6.5719 9.9336L9.87175 6.63375L10.5789 7.34086L7.27901 10.6407L6.5719 9.9336Z" fill="#31373D"/>
<path d="M6.57187 16.0619L9.87172 19.3617L10.5788 18.6546L7.27898 15.3548L6.57187 16.0619Z" fill="#31373D"/>
<path d="M19.0641 6.39806L17.6499 4.98384L18.357 4.27673L19.7713 5.69095L19.0641 6.39806Z" fill="#31373D"/>
<path d="M15.2929 7.34088L16.7071 8.7551L17.4142 8.04799L16 6.63377L15.2929 7.34088Z" fill="#31373D"/>
<path d="M20.9498 8.28369L19.5356 6.86947L20.2427 6.16236L21.6569 7.57658L20.9498 8.28369Z" fill="#31373D"/>
<path d="M17.1785 9.22651L18.5927 10.6407L19.2999 9.93362L17.8856 8.5194L17.1785 9.22651Z" fill="#31373D"/>
</g>
<rect x="1.00195" y="0.997711" width="24.0001" height="24.0001" rx="12.0001" stroke="#EDEDED"/>
</svg>
