<svg width="26" height="26" viewBox="0 0 26 26" fill="none" xmlns="http://www.w3.org/2000/svg">
<mask id="mask0_4812_146307" style="mask-type:alpha" maskUnits="userSpaceOnUse" x="1" y="0" width="24" height="25">
<circle cx="13.0001" cy="12.9978" r="12.0001" fill="#D9D9D9"/>
</mask>
<g mask="url(#mask0_4812_146307)">
<rect x="1" y="0.997711" width="24.0001" height="24.0001" fill="#004692"/>
<path d="M21.4668 18.6645H14.4668V20.3311H15.4668V21.3311H20.4668V20.3311H21.4668V18.6645Z" fill="#FBD381"/>
<circle cx="17.9662" cy="10.1644" r="0.833337" fill="#FBD381"/>
<circle cx="17.9668" cy="12.8311" r="2.50001" fill="#008259"/>
<path d="M14.4668 12.6644H21.4668V15.5788C21.4668 17.6066 20.2307 19.4295 18.3468 20.1798L17.9668 20.3311L17.5868 20.1798C15.7029 19.4295 14.4668 17.6066 14.4668 15.5788V12.6644Z" fill="#DD2033"/>
<mask id="mask1_4812_146307" style="mask-type:alpha" maskUnits="userSpaceOnUse" x="14" y="12" width="8" height="9">
<path d="M14.4668 12.6644H21.4668V15.5788C21.4668 17.6066 20.2307 19.4295 18.3468 20.1798L17.9668 20.3311L17.5868 20.1798C15.7029 19.4295 14.4668 17.6066 14.4668 15.5788V12.6644Z" fill="#DD2033"/>
</mask>
<g mask="url(#mask1_4812_146307)">
<rect x="14.4668" y="15.9978" width="7.00003" height="4.33335" fill="#005EB8"/>
<path d="M17.9666 17.3311C17.0916 17.3311 17.0916 18.0584 16.2167 18.0584C15.3417 18.0584 15.3417 17.3311 14.4668 17.3311V18.6038C15.3417 18.6038 15.3417 19.3311 16.2167 19.3311C17.0916 19.3311 17.0916 18.6038 17.9666 18.6038C18.8416 18.6038 18.8416 19.3311 19.7167 19.3311C20.5918 19.3311 20.5917 18.6038 21.4668 18.6038V17.3311C20.5918 17.3311 20.5918 18.0584 19.7167 18.0584C18.8416 18.0584 18.8416 17.3311 17.9666 17.3311V17.3311Z" fill="#F5F7F8"/>
<path d="M17.9666 14.9978C17.0916 14.9978 17.0916 15.7251 16.2167 15.7251C15.3417 15.7251 15.3417 14.9978 14.4668 14.9978V16.2705C15.3417 16.2705 15.3417 16.9978 16.2167 16.9978C17.0916 16.9978 17.0916 16.2705 17.9666 16.2705C18.8416 16.2705 18.8416 16.9978 19.7167 16.9978C20.5918 16.9978 20.5917 16.2705 21.4668 16.2705V14.9978C20.5918 14.9978 20.5918 15.7251 19.7167 15.7251C18.8416 15.7251 18.8416 14.9978 17.9666 14.9978Z" fill="#F5F7F8"/>
<rect x="15.4668" y="13.3311" width="5.00002" height="1.33334" fill="#F1B434"/>
</g>
<mask id="mask2_4812_146307" style="mask-type:alpha" maskUnits="userSpaceOnUse" x="1" y="0" width="12" height="13">
<path d="M1 12.9978V12.9978C1 6.37032 6.37261 0.997715 13.0001 0.997714V0.997714L13.0001 12.9978L1 12.9978Z" fill="#002F6C"/>
</mask>
<g mask="url(#mask2_4812_146307)">
<rect x="1" y="0.997711" width="12.0001" height="12.0001" fill="#004692"/>
<path d="M5.17352 2.04236L4.46641 2.74947L14.3085 12.5915L15.0156 11.8844L5.17352 2.04236Z" fill="#F5F7F8"/>
<path d="M3.28789 3.92799L2.10938 5.10651L11.9514 14.9486L13.1299 13.77L3.28789 3.92799Z" fill="#F5F7F8"/>
<path d="M3.28789 3.92799L4.46641 2.74947L14.3085 12.5915L13.1299 13.77L3.28789 3.92799Z" fill="#DD2033"/>
<path d="M13 4.99771V6.66439L6.66667 6.66439L6.66667 12.9978H5V4.99771H13Z" fill="#F5F7F8"/>
<path d="M13.0001 0.331055V1.99773L2.66667 1.99773L2.66667 12.9978H1V0.331055H13.0001Z" fill="#F5F7F8"/>
<path fill-rule="evenodd" clip-rule="evenodd" d="M2 12.9978H5.00002L5.00002 4.99773L13.0001 4.99773V1.99771H5.00002H2L2 4.99773L2 12.9978Z" fill="#DD2033"/>
</g>
</g>
<rect x="1" y="0.997711" width="24.0001" height="24.0001" rx="12.0001" stroke="#EDEDED"/>
</svg>
