<svg width="26" height="26" viewBox="0 0 26 26" fill="none" xmlns="http://www.w3.org/2000/svg">
<mask id="mask0_4812_146308" style="mask-type:alpha" maskUnits="userSpaceOnUse" x="1" y="0" width="24" height="25">
<circle cx="13.0001" cy="12.9978" r="12.0001" fill="#D9D9D9"/>
</mask>
<g mask="url(#mask0_4812_146308)">
<rect x="1" y="0.997711" width="24.0001" height="24.0001" fill="#3CCBDA"/>
<path d="M6.39976 6.65489L3.06641 9.98824L3.06641 0.997711H6.39976L6.39976 6.65489Z" fill="#FBD381"/>
<path d="M3.06641 11.8739L3.06641 14.1217L6.39975 17.455L6.39976 8.54052L3.06641 11.8739Z" fill="#FBD381"/>
<path d="M3.06641 16.0073L6.39975 19.3407L6.39975 24.9978H3.06641L3.06641 16.0073Z" fill="#FBD381"/>
<path d="M19.7332 10.3311L18.0987 11.1393L18.969 12.8033L17.1942 12.4464L16.9693 14.3311L15.7331 12.9449L14.4969 14.3311L14.272 12.4464L12.4972 12.8032L13.3676 11.1392L11.7331 10.3311L13.3676 9.52288L12.4972 7.85896L14.272 8.21582L14.497 6.33107L15.7331 7.71725L16.9694 6.33107L17.1942 8.21582L18.9691 7.85896L18.0988 9.52294L19.7332 10.3311Z" fill="#FBD381"/>
<path d="M21.2117 11.9978C21.021 12.6352 20.7251 13.2533 20.3201 13.8247C19.5116 14.9654 18.3987 15.7362 17.1921 16.0998C16.8716 16.1964 16.5445 16.2642 16.2147 16.3026C16.1906 16.3054 16.1665 16.3081 16.1424 16.3106C16.0617 16.3189 15.9808 16.3255 15.8998 16.3303L12.2977 19.9978L16.1464 19.3153C16.5136 19.2874 16.8778 19.2229 17.2332 19.1226C17.6807 18.9963 18.1144 18.8132 18.5232 18.5752C19.2045 18.1785 19.8167 17.6292 20.3084 16.9355C21.3562 15.457 21.6316 13.6404 21.2117 11.9978Z" fill="#FBD381"/>
<path d="M14.3627 16.2046C13.6362 16.0393 12.9332 15.7212 12.2976 15.2425C11.2461 14.4505 10.5448 13.3438 10.2214 12.1279C9.70732 14.3435 10.4844 16.7598 12.3738 18.1935L14.3627 16.2046Z" fill="#FBD381"/>
</g>
<rect x="1" y="0.997711" width="24.0001" height="24.0001" rx="12.0001" stroke="#EDEDED"/>
</svg>
