<svg width="26" height="26" viewBox="0 0 26 26" fill="none" xmlns="http://www.w3.org/2000/svg">
<mask id="mask0_4812_146312" style="mask-type:alpha" maskUnits="userSpaceOnUse" x="1" y="0" width="24" height="25">
<circle cx="13.0001" cy="12.9979" r="12.0001" fill="#D9D9D9"/>
</mask>
<g mask="url(#mask0_4812_146312)">
<rect x="0.867188" y="24.998" width="12.0001" height="24.0001" transform="rotate(-90 0.867188 24.998)" fill="#DD2033"/>
<rect x="0.867188" y="12.9979" width="12.0001" height="24.0001" transform="rotate(-90 0.867188 12.9979)" fill="#004692"/>
<path fill-rule="evenodd" clip-rule="evenodd" d="M9.13283 3.66455H10.1328V4.33122L11.1328 4.33122V5.33123H10.1328V6.26546C10.427 6.09529 10.7685 5.9979 11.1328 5.9979C12.2374 5.9979 13.1328 6.89333 13.1328 7.9979C13.1328 8.59024 12.8753 9.12243 12.4662 9.48865V10.3312H6.79948V9.48865C6.39031 9.12243 6.13281 8.59024 6.13281 7.9979C6.13281 6.89333 7.02825 5.9979 8.13282 5.9979C8.49711 5.9979 8.83865 6.09529 9.13283 6.26546V5.33123H8.13282V4.33122L9.13283 4.33122V3.66455ZM9.63283 6.67499L9.62357 6.66457H9.64209L9.63283 6.67499ZM9.62357 9.33124L9.63283 9.32082L9.64209 9.33124H9.62357Z" fill="#F1B434"/>
</g>
<rect x="1" y="0.997864" width="24.0001" height="24.0001" rx="12.0001" stroke="#EDEDED"/>
</svg>
