<svg width="26" height="26" viewBox="0 0 26 26" fill="none" xmlns="http://www.w3.org/2000/svg">
<mask id="mask0_4812_146313" style="mask-type:alpha" maskUnits="userSpaceOnUse" x="1" y="0" width="25" height="25">
<circle cx="13.002" cy="12.9979" r="12.0001" fill="#D9D9D9"/>
</mask>
<g mask="url(#mask0_4812_146313)">
<rect x="1.00195" y="0.997864" width="24.0001" height="24.0001" fill="#F1B434"/>
<rect x="5.73633" y="2.99786" width="5.33336" height="20.0001" fill="#E26E00"/>
<rect x="0.402344" y="2.99786" width="5.33336" height="20.0001" fill="#005B33"/>
<path fill-rule="evenodd" clip-rule="evenodd" d="M25.0684 2.99786H13.0684V22.998H25.0684V16.1084C24.9437 16.1313 24.8151 16.1432 24.6838 16.1432H21.5043V17.9979H19.6496V16.9381H20.4445V15.9891C19.9614 15.7936 19.5669 15.4252 19.3376 14.9607L18.3248 14.376V15.6133C18.3248 15.906 18.0875 16.1432 17.7949 16.1432C17.5022 16.1432 17.265 15.906 17.265 15.6133V12.9637H16.735V12.6988H17.265V8.72439C17.265 8.13906 17.7395 7.66455 18.3248 7.66455L18.3248 12.8462L19.2239 13.3653C19.5008 12.5169 20.2985 11.9039 21.2393 11.9039H24.6838C24.8151 11.9039 24.9437 11.9158 25.0684 11.9387V2.99786ZM21.9017 9.51926L22.8291 8.5919L22.8291 11.9039H19.1197V11.3993L19.0472 11.4163L18.9639 10.5705L19.1197 10.6388V9.51926H21.9017Z" fill="#A00009"/>
</g>
<rect x="1.00195" y="0.997864" width="24.0001" height="24.0001" rx="12.0001" stroke="#EDEDED"/>
</svg>
