<svg width="26" height="26" viewBox="0 0 26 26" fill="none" xmlns="http://www.w3.org/2000/svg">
<mask id="mask0_4812_146314" style="mask-type:alpha" maskUnits="userSpaceOnUse" x="1" y="0" width="25" height="25">
<circle cx="13.002" cy="12.9979" r="12.0001" fill="#D9D9D9"/>
</mask>
<g mask="url(#mask0_4812_146314)">
<rect x="1.00195" y="0.997864" width="24.0001" height="24.0001" fill="#F5F7F8"/>
<path d="M25.0021 6.99788V3.99786L1.00195 3.99786V6.99788L25.0021 6.99788Z" fill="#DD2033"/>
<path d="M25.0021 9.99789V12.9979L1.00195 12.9979V9.99789L25.0021 9.99789Z" fill="#DD2033"/>
<path d="M25.0021 18.9979V15.9979L1.00195 15.9979V18.9979L25.0021 18.9979Z" fill="#DD2033"/>
<path d="M25.0021 24.998V21.998L1.00195 21.9979V24.998L25.0021 24.998Z" fill="#DD2033"/>
<rect x="1.13477" y="12.9979" width="12.0001" height="12.0001" transform="rotate(-90 1.13477 12.9979)" fill="#004692"/>
<path d="M8.40173 4.33121L7.40814 6.57861L5.06836 6.87764L6.79412 8.56572L6.34155 10.9979L8.40171 9.60901L10.4619 10.9979L10.0093 8.56572L11.7351 6.87764L9.39528 6.57861L8.40173 4.33121Z" fill="#F5F7F8"/>
</g>
<rect x="1.00195" y="0.997864" width="24.0001" height="24.0001" rx="12.0001" stroke="#EDEDED"/>
</svg>
