<svg width="26" height="26" viewBox="0 0 26 26" fill="none" xmlns="http://www.w3.org/2000/svg">
<mask id="mask0_4812_146319" style="mask-type:alpha" maskUnits="userSpaceOnUse" x="1" y="0" width="24" height="25">
<circle cx="13.0001" cy="12.9981" r="12.0001" fill="#D9D9D9"/>
</mask>
<g mask="url(#mask0_4812_146319)">
<rect x="1" y="24.9982" width="6.00003" height="24.0001" transform="rotate(-90 1 24.9982)" fill="#009B77"/>
<rect x="1" y="18.9981" width="12.0001" height="24.0001" transform="rotate(-90 1 18.9981)" fill="#31373D"/>
<rect x="1" y="6.99805" width="6.00003" height="24.0001" transform="rotate(-90 1 6.99805)" fill="#DD2033"/>
<path d="M11.2215 9.66472C11.4947 9.66472 11.7603 9.69758 12.0144 9.75957C11.3549 9.28056 10.5435 8.99805 9.66603 8.99805C7.45689 8.99805 5.66602 10.7889 5.66602 12.9981C5.66602 15.2072 7.45689 16.9981 9.66603 16.9981C10.5435 16.9981 11.3549 16.7156 12.0144 16.2366C11.7603 16.2985 11.4947 16.3314 11.2215 16.3314C9.38059 16.3314 7.88819 14.839 7.88819 12.9981C7.88819 11.1571 9.38059 9.66472 11.2215 9.66472Z" fill="#F5F7F8"/>
<path d="M14.8903 11.9597L15.2305 9.7745L16.6178 11.4968L18.7215 11.2117L17.6144 13.0812L18.5744 15.0902L16.4599 14.3627L14.9925 16.05L14.8194 13.8302L12.9259 12.7647L14.8903 11.9597Z" fill="#F5F7F8"/>
</g>
<rect x="1" y="0.998016" width="24.0001" height="24.0001" rx="12.0001" stroke="#EDEDED"/>
</svg>
