<svg width="26" height="26" viewBox="0 0 26 26" fill="none" xmlns="http://www.w3.org/2000/svg">
<mask id="mask0_4812_146320" style="mask-type:alpha" maskUnits="userSpaceOnUse" x="0" y="0" width="25" height="25">
<circle cx="12.9981" cy="12.9981" r="12.0001" fill="#D9D9D9"/>
</mask>
<g mask="url(#mask0_4812_146320)">
<rect x="0.998047" y="24.9982" width="24.0001" height="24.0001" transform="rotate(-90 0.998047 24.9982)" fill="#DD2033"/>
<path d="M21.6654 10.6187H15.0447L12.9987 3.99805L10.9528 10.6187H4.33203L9.68834 14.7105L7.64237 21.3314L12.9987 17.2395L18.3551 21.3315L16.3091 14.7106L21.6654 10.6187ZM11.1875 14.1984L11.8793 11.9595H14.1181L14.81 14.1984V14.1984L12.9987 15.5821L11.1875 14.1984L11.1875 14.1984ZM13.7038 10.6187H12.2937L12.9987 8.33706L13.7038 10.6187ZM15.8947 13.3697L15.459 11.9596H17.7406L15.8947 13.3697ZM10.5385 11.9596L10.1027 13.3697L8.25676 11.9596H10.5385ZM10.068 17.821L10.7731 15.5394L11.914 16.4108L10.068 17.821ZM14.0835 16.4109L15.2244 15.5394L15.9294 17.821L14.0835 16.4109Z" fill="#005B33"/>
</g>
<rect x="0.998047" y="0.998016" width="24.0001" height="24.0001" rx="12.0001" stroke="#EDEDED"/>
</svg>
