<svg width="26" height="26" viewBox="0 0 26 26" fill="none" xmlns="http://www.w3.org/2000/svg">
<mask id="mask0_4812_146322" style="mask-type:alpha" maskUnits="userSpaceOnUse" x="1" y="0" width="24" height="25">
<circle cx="13.0001" cy="12.9982" r="12.0001" fill="#D9D9D9"/>
</mask>
<g mask="url(#mask0_4812_146322)">
<rect x="25" y="24.9982" width="5.33336" height="24.0001" transform="rotate(180 25 24.9982)" fill="#DD2033"/>
<rect x="19.666" y="24.9982" width="13.3334" height="24.0001" transform="rotate(180 19.666 24.9982)" fill="#F1B434"/>
<rect x="6.33398" y="24.9981" width="5.33336" height="24.0001" transform="rotate(180 6.33398 24.9981)" fill="#004692"/>
<path d="M9.22793 8.7518C9.79134 8.71327 10.6185 8.79623 11.2618 9.11645C11.8415 9.40507 12.2457 9.85592 12.2457 10.7009V13.9131L8.46623 17.6605L9.85454 19.0371L12.3061 16.6062L11.271 19.1721L13.2344 21.1189L15.1978 19.1721L14.1599 16.5996L16.6072 19.0261L17.9955 17.6495L14.2161 13.9021V10.6899H14.209C14.205 8.9827 13.2552 7.93047 12.1427 7.37667C11.0914 6.85331 9.88508 6.75549 9.09284 6.80967L9.22793 8.7518Z" fill="#936846"/>
<path d="M8.13281 9.66483L8.13281 16.3315L10.4662 14.6649L10.4662 10.9982C10.4662 10.2618 9.8692 9.66483 9.13282 9.66483H8.13281Z" fill="#936846"/>
<path d="M18.1329 16.3315V9.66479H17.1329C16.3966 9.66479 15.7996 10.2617 15.7996 10.9981V14.6648L18.1329 16.3315Z" fill="#936846"/>
<path d="M9.73242 10.2725L16.3991 10.2725L16.3991 12.9196C16.3991 14.9447 15.1662 16.7657 13.286 17.5178L13.0658 17.6059L12.8456 17.5178C10.9653 16.7657 9.73242 14.9447 9.73242 12.9196L9.73242 10.2725Z" fill="#DD2033"/>
<mask id="mask1_4812_146322" style="mask-type:alpha" maskUnits="userSpaceOnUse" x="9" y="10" width="8" height="8">
<path d="M9.73242 10.2725H16.3991V12.9196C16.3991 14.9447 15.1662 16.7657 13.286 17.5178L13.0658 17.6059L12.8456 17.5178C10.9653 16.7657 9.73242 14.9447 9.73242 12.9196V10.2725Z" fill="#005EB8"/>
</mask>
<g mask="url(#mask1_4812_146322)">
<path d="M9.73242 13.6648H16.3991V17.6648H9.73242V13.6648Z" fill="#0091DA"/>
<path d="M13.8008 13.4864C14.1993 13.2559 14.4675 12.825 14.4675 12.3314C14.4675 11.9633 14.3182 11.6299 14.0769 11.3886L13.8075 11.658C13.9799 11.8303 14.0865 12.0685 14.0865 12.3315C14.0865 12.5979 13.9771 12.8388 13.8008 13.0116V12.6648H12.4675V13.0116C12.2911 12.8387 12.1817 12.5979 12.1817 12.3315C12.1817 12.0685 12.2883 11.8304 12.4607 11.658L12.1913 11.3887C11.95 11.6299 11.8008 11.9633 11.8008 12.3314C11.8008 12.825 12.0689 13.2559 12.4675 13.4864V15.3315C12.4675 15.6997 12.7659 15.9981 13.1341 15.9981C13.5023 15.9981 13.8008 15.6997 13.8008 15.3315V13.4864Z" fill="#F1B434"/>
<path d="M13.1341 10.9981L13.1394 10.9981L13.1289 10.9981L13.1341 10.9981Z" fill="#F1B434"/>
</g>
</g>
<rect x="1" y="0.998016" width="24.0001" height="24.0001" rx="12.0001" stroke="#EDEDED"/>
</svg>
