<svg width="26" height="26" viewBox="0 0 26 26" fill="none" xmlns="http://www.w3.org/2000/svg">
<mask id="mask0_4812_146323" style="mask-type:alpha" maskUnits="userSpaceOnUse" x="1" y="0" width="25" height="25">
<circle cx="13.002" cy="12.9981" r="12.0001" transform="rotate(-90 13.002 12.9981)" fill="#D9D9D9"/>
</mask>
<g mask="url(#mask0_4812_146323)">
<rect x="25.002" y="24.9982" width="24.0001" height="24.0001" transform="rotate(180 25.002 24.9982)" fill="#F1B434"/>
<circle cx="13.0014" cy="12.9981" r="10.3334" fill="#DD2033"/>
<path d="M13.2352 6.99806C14.0636 6.99806 14.7352 6.32649 14.7352 5.49805C14.7352 4.66962 14.0636 3.99805 13.2352 3.99805C12.4068 3.99805 11.7352 4.66962 11.7352 5.49805C11.7352 6.32649 12.4068 6.99806 13.2352 6.99806Z" fill="#F1B434"/>
<path d="M15.1356 9.16442C15.7788 8.84419 16.606 8.76124 17.1694 8.79977L17.3045 6.85763C16.5123 6.80346 15.3059 6.90128 14.2546 7.42464C13.8576 7.62231 13.4812 7.88349 13.1612 8.21529C12.8435 7.88869 12.471 7.63109 12.0783 7.4356C11.027 6.91224 9.8207 6.81442 9.02846 6.8686L9.16355 8.81073C9.72696 8.77221 10.5541 8.85516 11.1974 9.17539C11.7771 9.464 12.1813 9.91485 12.1813 10.7598V11.0916L6.85631 9.66474C6.66572 10.376 7.08783 11.1072 7.79912 11.2977L12.1813 12.4719V12.817L6.74694 11.3609C6.55635 12.0722 6.97846 12.8033 7.68975 12.9939L12.0023 14.1495L11.7283 14.4211L6.9595 13.1433C6.76891 13.8546 7.19102 14.5857 7.90231 14.7763L10.6323 15.5078L8.40185 17.7194L9.79016 19.096L12.2417 16.6652L11.2066 19.2311L13.17 21.1778L15.1334 19.2311L14.0956 16.6585L16.5428 19.085L17.9311 17.7085L15.6677 15.4642L18.2348 14.7763C18.9461 14.5857 19.3682 13.8546 19.1776 13.1433L14.5717 14.3775L14.2977 14.1058L18.4473 12.9939C19.1586 12.8033 19.5807 12.0722 19.3901 11.3609L14.1517 12.7645V12.4195L18.338 11.2977C19.0492 11.1072 19.4714 10.376 19.2808 9.66474L14.1517 11.0391V10.7488C14.1517 9.90389 14.5558 9.45303 15.1356 9.16442Z" fill="#F1B434"/>
<path d="M9.66797 10.3314L16.3347 10.3314L16.3347 12.9785C16.3347 15.0036 15.1018 16.8246 13.2215 17.5767L13.0013 17.6648L12.7811 17.5767C10.9009 16.8246 9.66797 15.0036 9.66797 12.9785L9.66797 10.3314Z" fill="#005EB8"/>
<mask id="mask1_4812_146323" style="mask-type:alpha" maskUnits="userSpaceOnUse" x="9" y="10" width="8" height="8">
<path d="M9.66797 10.3314H16.3347V12.9785C16.3347 15.0036 15.1018 16.8246 13.2215 17.5767L13.0013 17.6648L12.7811 17.5767C10.9009 16.8246 9.66797 15.0036 9.66797 12.9785V10.3314Z" fill="#005EB8"/>
</mask>
<g mask="url(#mask1_4812_146323)">
<rect x="9.66797" y="13.6647" width="6.6667" height="4.00002" fill="#009B77"/>
</g>
</g>
<rect x="1.00195" y="0.998016" width="24.0001" height="24.0001" rx="12.0001" stroke="#EDEDED"/>
</svg>
