<svg width="26" height="26" viewBox="0 0 26 26" fill="none" xmlns="http://www.w3.org/2000/svg">
<mask id="mask0_4812_146326" style="mask-type:alpha" maskUnits="userSpaceOnUse" x="1" y="0" width="24" height="25">
<circle cx="13.0001" cy="12.9981" r="12.0001" fill="#D9D9D9"/>
</mask>
<g mask="url(#mask0_4812_146326)">
<rect x="1" y="0.998016" width="24.0001" height="24.0001" fill="#004692"/>
<path d="M5.68945 22.659L5.03247 22.002L20.3031 3.33132L22.6601 5.68835L5.68945 22.659Z" fill="#F1B434"/>
<path d="M6.3623 23.3315L5.68984 22.659L22.6605 5.68837L25.0175 8.04541L6.3623 23.3315Z" fill="#F5F7F8"/>
<path d="M12 9.66472L10.3656 10.473L11.2359 12.1369L9.46112 11.78L9.23623 13.6648L7.99999 12.2786L6.76381 13.6648L6.53892 11.78L4.76407 12.1369L5.63446 10.4729L4 9.66472L5.63451 8.85654L4.76407 7.19263L6.53886 7.54949L6.76386 5.66473L7.99999 7.05091L9.23629 5.66473L9.46112 7.54949L11.236 7.19263L10.3656 8.8566L12 9.66472Z" fill="#F5F7F8"/>
</g>
<rect x="1" y="0.998016" width="24.0001" height="24.0001" rx="12.0001" stroke="#EDEDED"/>
</svg>
