<svg width="26" height="26" viewBox="0 0 26 26" fill="none" xmlns="http://www.w3.org/2000/svg">
<mask id="mask0_4812_146327" style="mask-type:alpha" maskUnits="userSpaceOnUse" x="1" y="0" width="24" height="25">
<circle cx="13.0001" cy="12.9981" r="12.0001" fill="#D9D9D9"/>
</mask>
<g mask="url(#mask0_4812_146327)">
<rect x="1" y="0.998016" width="24.0001" height="24.0001" fill="#DD2033"/>
<path d="M9.30349 10.3318C9.61968 9.87841 10.0143 9.48378 10.4677 9.16759L5.43374 1.998L2.13389 5.29785L9.30349 10.3318Z" fill="#FBD381"/>
<path d="M12.2004 8.42479C12.5021 8.36354 12.8143 8.33138 13.134 8.33138C13.3632 8.33138 13.5886 8.3479 13.8089 8.37982L15.3341 -0.335327H10.6674L12.2004 8.42479Z" fill="#FBD381"/>
<path d="M16.9728 10.3437C16.6745 9.91313 16.3057 9.53518 15.883 9.22656L21.0545 1.86108L24.3543 5.16092L16.9728 10.3437Z" fill="#FBD381"/>
<path d="M17.7436 12.266C17.7812 12.5045 17.8007 12.749 17.8007 12.9981C17.8007 13.3038 17.7713 13.6026 17.7152 13.8919L26.4174 15.4147V10.7481L17.7436 12.266Z" fill="#FBD381"/>
<path d="M15.8547 16.79C16.2673 16.4935 16.6294 16.1314 16.9259 15.7188L24.4079 20.9721L21.108 24.272L15.8547 16.79Z" fill="#FBD381"/>
<path d="M13.7804 17.6203C13.5692 17.6496 13.3534 17.6648 13.134 17.6648C12.8242 17.6648 12.5215 17.6346 12.2286 17.577L10.6674 26.4981H15.3341L13.7804 17.6203Z" fill="#FBD381"/>
<path d="M10.4964 16.8484C10.0533 16.5443 9.66532 16.1656 9.35056 15.7306L2.08036 20.8352L5.38021 24.135L10.4964 16.8484Z" fill="#FBD381"/>
<path d="M8.5443 13.8467L-0.416016 15.4147V10.7481L8.51749 12.3114C8.48444 12.5355 8.46733 12.7648 8.46733 12.9981C8.46733 13.2879 8.49374 13.5715 8.5443 13.8467Z" fill="#FBD381"/>
<path d="M16.8007 12.9981C16.8007 15.0231 15.1591 16.6648 13.134 16.6648C11.109 16.6648 9.46733 15.0231 9.46733 12.9981C9.46733 10.973 11.109 9.33139 13.134 9.33139C15.1591 9.33139 16.8007 10.973 16.8007 12.9981Z" fill="#FBD381"/>
</g>
<rect x="1" y="0.998016" width="24.0001" height="24.0001" rx="12.0001" stroke="#EDEDED"/>
</svg>
