<svg width="26" height="26" viewBox="0 0 26 26" fill="none" xmlns="http://www.w3.org/2000/svg">
<mask id="mask0_4812_146333" style="mask-type:alpha" maskUnits="userSpaceOnUse" x="0" y="0" width="25" height="25">
<circle cx="12.0001" cy="12.0001" r="12.0001" transform="matrix(-4.37114e-08 -1 -1 4.37114e-08 24.998 24.9984)" fill="#D9D9D9"/>
</mask>
<g mask="url(#mask0_4812_146333)">
<rect width="24.0001" height="24.0001" transform="matrix(1 0 0 -1 0.998047 24.9984)" fill="#DD2033"/>
<rect width="6.00003" height="24.0001" transform="matrix(1 0 0 -1 9.99805 24.9983)" fill="#005EB8"/>
<path d="M5.66538 7.66494C6.03357 7.66494 6.33205 7.36647 6.33205 6.99827C6.33205 6.63008 6.03357 6.3316 5.66538 6.3316C5.29719 6.3316 4.99871 6.63008 4.99871 6.99827C4.99871 7.36647 5.29719 7.66494 5.66538 7.66494Z" fill="#F1B434"/>
<path d="M6.99872 9.33162C6.99872 10.068 6.40176 10.665 5.66538 10.665C4.929 10.665 4.33204 10.068 4.33204 9.33162C4.33204 8.59524 4.929 7.99828 5.66538 7.99828C6.40176 7.99828 6.99872 8.59523 6.99872 9.33162Z" fill="#F1B434"/>
<path d="M3.66537 10.9983H2.33203V17.665H3.66537L3.66537 10.9983Z" fill="#F1B434"/>
<path d="M5.66538 11.9983L6.99872 10.9983L4.33204 10.9983L5.66538 11.9983Z" fill="#F1B434"/>
<path d="M7.66539 10.9983H8.99873L8.99873 17.665H7.66539L7.66539 10.9983Z" fill="#F1B434"/>
<path fill-rule="evenodd" clip-rule="evenodd" d="M5.66538 12.665C5.22338 12.665 4.79944 12.8406 4.48689 13.1531C4.17433 13.4657 3.99871 13.8897 3.99871 14.3317C3.99871 14.7737 4.1743 15.1976 4.48685 15.5102C4.57538 15.5987 4.67285 15.6763 4.77714 15.7419C4.68789 15.5873 4.63973 15.4107 4.63973 15.2291C4.63974 15.2206 4.63984 15.2121 4.64005 15.2036C4.64655 14.9408 4.75378 14.6902 4.94013 14.5038C5.12045 14.3235 5.36103 14.2173 5.61452 14.2047C5.63037 14.2039 5.64626 14.2035 5.66219 14.2034L5.66538 14.2034C5.67813 14.2034 5.69085 14.2031 5.70352 14.2025C5.89363 14.1931 6.07405 14.1134 6.20929 13.9781C6.35355 13.8339 6.43461 13.6382 6.43461 13.4342C6.43461 13.4278 6.43454 13.4215 6.43438 13.4151C6.42949 13.218 6.34904 13.03 6.20929 12.8903C6.08138 12.7624 5.91305 12.6841 5.73433 12.6681C5.71149 12.666 5.68849 12.665 5.66538 12.665ZM5.27241 13.4342C5.27241 13.2218 5.44461 13.0496 5.65702 13.0496C5.86944 13.0496 6.04164 13.2218 6.04164 13.4342C6.04164 13.6466 5.86944 13.8188 5.65702 13.8188C5.44461 13.8188 5.27241 13.6466 5.27241 13.4342Z" fill="#F1B434"/>
<path fill-rule="evenodd" clip-rule="evenodd" d="M6.69102 13.431C6.69099 13.4224 6.69086 13.4138 6.69062 13.4052C6.68578 13.2338 6.63811 13.0677 6.55362 12.9214C6.65791 12.987 6.75538 13.0646 6.84392 13.1531C7.15647 13.4657 7.33206 13.8896 7.33206 14.3316C7.33206 14.7736 7.15643 15.1976 6.84387 15.5102C6.53132 15.8227 6.10738 15.9983 5.66538 15.9983C5.63243 15.9983 5.59969 15.9962 5.56736 15.992C5.39951 15.9705 5.24242 15.894 5.12147 15.773C4.98173 15.6333 4.90129 15.4453 4.89638 15.2482C4.89623 15.2419 4.89615 15.2355 4.89615 15.2291L4.89615 15.2267C4.89617 15.2212 4.89624 15.2156 4.89638 15.2101C4.90126 15.013 4.98171 14.8249 5.12147 14.6852C5.25671 14.5499 5.43713 14.4702 5.62724 14.4608C5.63991 14.4602 5.65263 14.4598 5.66538 14.4598C5.69826 14.4598 5.73097 14.4583 5.76342 14.4552C5.99945 14.4325 6.22154 14.3286 6.39063 14.1595C6.58297 13.9671 6.69103 13.7062 6.69103 13.4342L6.69102 13.431ZM6.05836 15.2291C6.05836 15.4415 5.88616 15.6137 5.67374 15.6137C5.46132 15.6137 5.28912 15.4415 5.28912 15.2291C5.28912 15.0167 5.46132 14.8445 5.67374 14.8445C5.88616 14.8445 6.05836 15.0167 6.05836 15.2291Z" fill="#F1B434"/>
<path d="M6.99872 16.665L5.66538 17.665L4.33204 16.665H6.99872Z" fill="#F1B434"/>
</g>
<rect x="0.998047" y="0.99823" width="24.0001" height="24.0001" rx="12.0001" stroke="#EDEDED"/>
</svg>
