<svg width="26" height="26" viewBox="0 0 26 26" fill="none" xmlns="http://www.w3.org/2000/svg">
<mask id="mask0_4812_146330" style="mask-type:alpha" maskUnits="userSpaceOnUse" x="1" y="0" width="24" height="25">
<circle cx="13.0001" cy="12.9983" r="12.0001" transform="rotate(-90 13.0001 12.9983)" fill="#D9D9D9"/>
</mask>
<g mask="url(#mask0_4812_146330)">
<rect x="25" y="24.9984" width="24.0001" height="24.0001" transform="rotate(180 25 24.9984)" fill="#008259"/>
<mask id="mask1_4812_146330" style="mask-type:alpha" maskUnits="userSpaceOnUse" x="4" y="4" width="17" height="17">
<circle cx="12.8653" cy="12.9983" r="8.00004" fill="#D9D9D9"/>
</mask>
<g mask="url(#mask1_4812_146330)">
<path fill-rule="evenodd" clip-rule="evenodd" d="M22.3321 19.9983L3.33203 19.9983L3.33203 20.9983L22.3321 20.9983L22.3321 19.9983ZM22.8653 17.9983L3.86524 17.9983L3.86524 18.9983L22.8653 18.9983L22.8653 17.9983Z" fill="#F5F7F8"/>
</g>
<path d="M14.5044 13.3612C15.1127 12.2761 15.1839 10.7355 12.8866 8.99829C10.5717 10.757 10.6156 12.2811 11.2156 13.3531C10.1314 12.7523 8.59671 12.6918 6.86719 14.9789C10.2453 19.4252 12.7576 15.1695 12.8637 14.985C12.8678 14.9874 12.8713 14.9895 12.8743 14.9912C13.0237 15.2479 15.5206 19.3839 18.8672 14.9789C17.13 12.6816 15.5894 12.7529 14.5044 13.3612Z" fill="#F5F7F8"/>
<path d="M12.7343 4.99823L12.3663 5.8306L11.4997 5.94135L12.1389 6.56657L11.9712 7.46738L12.7343 6.95297L13.4973 7.46738L13.3297 6.56657L13.9688 5.94135L13.1023 5.8306L12.7343 4.99823Z" fill="#F1B434"/>
<path d="M8.45402 6.45609L8.63001 7.34901L7.98367 7.93678L8.86586 8.08231L9.24523 8.91636L9.57521 8.05733L10.4953 8.04105L9.84131 7.3993L10.0063 6.52054L9.23289 6.92687L8.45402 6.45609Z" fill="#F1B434"/>
<path d="M7.4338 8.94887L7.0658 9.78124L6.19922 9.89199L6.83839 10.5172L6.67077 11.418L7.43379 10.9036L8.19681 11.418L8.02919 10.5172L8.66837 9.89199L7.80178 9.78124L7.4338 8.94887Z" fill="#F1B434"/>
<path d="M18.298 8.94887L17.9301 9.78124L17.0635 9.89199L17.7026 10.5172L17.535 11.418L18.298 10.9036L19.0611 11.418L18.8934 10.5172L19.5326 9.89199L18.666 9.78124L18.298 8.94887Z" fill="#F1B434"/>
<path d="M17.0308 6.45608L16.2519 6.92685L15.4786 6.52052L15.6435 7.39928L14.9895 8.04103L15.9096 8.05731L16.2396 8.91634L16.619 8.0823L17.5012 7.93676L16.8548 7.34899L17.0308 6.45608Z" fill="#F1B434"/>
</g>
<rect x="1" y="0.99823" width="24.0001" height="24.0001" rx="12.0001" stroke="#EDEDED"/>
</svg>
