<svg width="26" height="26" viewBox="0 0 26 26" fill="none" xmlns="http://www.w3.org/2000/svg">
<mask id="mask0_4812_146331" style="mask-type:alpha" maskUnits="userSpaceOnUse" x="1" y="0" width="24" height="25">
<circle cx="13.0001" cy="12.9983" r="12.0001" fill="#D9D9D9"/>
</mask>
<g mask="url(#mask0_4812_146331)">
<rect x="1" y="0.99823" width="24.0001" height="24.0001" fill="#0091DA"/>
<path fill-rule="evenodd" clip-rule="evenodd" d="M11.6995 21.3882C11.8245 21.7282 12.1436 21.9786 12.5293 21.9972C12.5449 21.9979 12.5604 21.9985 12.576 21.9983C12.9418 21.9983 13.2627 21.7858 13.4145 21.4732C13.6055 21.7814 13.9682 21.9629 14.3495 21.9051C14.7314 21.8466 15.0238 21.5652 15.1134 21.2135C15.3628 21.4775 15.7547 21.5819 16.1167 21.4483C16.1167 21.4483 16.0269 21.4818 15.9817 21.4986C15.9363 21.5154 15.9362 21.5155 16.1173 21.4483C16.4793 21.3141 16.7082 20.9791 16.7251 20.6162C17.0224 20.8243 17.428 20.848 17.7552 20.6435C18.0824 20.4391 18.2392 20.065 18.1826 19.7071C18.5154 19.8506 18.9166 19.7922 19.1965 19.5268C19.4758 19.2609 19.5548 18.8631 19.4273 18.5238C19.7825 18.5984 20.1638 18.4605 20.3846 18.1441C20.6055 17.8279 20.6023 17.4227 20.4095 17.1151C20.7728 17.117 21.1193 16.905 21.2717 16.5509C21.4241 16.196 21.3389 15.7995 21.0875 15.5373C21.444 15.4652 21.7401 15.188 21.8172 14.8102C21.895 14.4324 21.7314 14.0615 21.4328 13.8558C21.7662 13.7134 22.0001 13.3828 22.0001 12.9976V12.977C21.9995 12.5918 21.7644 12.2619 21.4309 12.1207C21.7289 11.9138 21.8912 11.5428 21.8135 11.165C21.7351 10.7872 21.4384 10.5106 21.082 10.4398C21.3326 10.1769 21.4166 9.77982 21.2636 9.42563C21.11 9.07206 20.7635 8.86074 20.4008 8.86325C20.593 8.55563 20.5948 8.15047 20.3734 7.8348C20.152 7.51852 19.77 7.3818 19.4148 7.457C19.5417 7.11711 19.4621 6.72004 19.1822 6.45468C18.9022 6.18999 18.5004 6.1322 18.1676 6.27697C18.2236 5.91843 18.0662 5.54498 17.7384 5.34176C17.4105 5.13792 17.0049 5.16221 16.7082 5.37096C16.6908 5.00806 16.4607 4.67375 16.098 4.54015C15.736 4.40722 15.3441 4.51218 15.0953 4.77698C15.0044 4.42581 14.7114 4.14498 14.3295 4.08781C13.9482 4.03003 13.5861 4.2127 13.3958 4.52094C13.2365 4.19584 12.8944 3.97967 12.5093 3.99949C12.1236 4.01875 11.8051 4.26982 11.6801 4.60971C11.4587 4.32263 11.0792 4.17909 10.706 4.27602C10.3322 4.37305 10.0703 4.68374 10.0174 5.04284C9.74187 4.80551 9.34065 4.74209 8.99476 4.91237C8.64826 5.08327 8.45483 5.43941 8.47534 5.80163C8.15874 5.62515 7.75316 5.64319 7.44896 5.88002C7.14415 6.11674 7.02595 6.50448 7.11928 6.85498C6.77278 6.74561 6.37966 6.84443 6.12895 7.13709C5.87762 7.43037 5.83967 7.83369 6.00141 8.15867C5.63999 8.12077 5.2742 8.29663 5.08698 8.63346C4.89975 8.97078 4.94452 9.37415 5.16785 9.66001C4.80636 9.69607 4.48355 9.94217 4.36848 10.3107C4.25341 10.6786 4.37904 11.0645 4.65586 11.2993C4.30941 11.4075 4.04316 11.7138 4.00521 12.0979H4.0046C3.96665 12.4807 4.16695 12.833 4.48484 13.007C4.16701 13.1823 3.96793 13.5346 4.00711 13.918C4.04629 14.3013 4.31254 14.6071 4.65966 14.714C4.38284 14.9496 4.25844 15.3361 4.37474 15.704C4.49043 16.0718 4.81391 16.3173 5.17533 16.3521C4.95206 16.6387 4.90847 17.0419 5.09698 17.3788C5.28487 17.7155 5.6506 17.8907 6.01142 17.8523C5.85085 18.1772 5.88947 18.5806 6.14141 18.8726C6.39335 19.1653 6.78647 19.2635 7.13236 19.1529C7.04031 19.504 7.15913 19.8911 7.46394 20.1273C7.76937 20.3634 8.17495 20.3808 8.49155 20.2031C8.47165 20.5654 8.6657 20.9215 9.01282 21.0918C9.35926 21.2614 9.75987 21.1968 10.0348 20.9594C10.089 21.3186 10.3508 21.6281 10.7253 21.7244C11.0992 21.8207 11.4786 21.6759 11.6995 21.3882ZM13 18.9983C16.3138 18.9983 19.0001 16.312 19.0001 12.9983C19.0001 9.68455 16.3138 6.99824 13 6.99824C9.68632 6.99824 7.00001 9.68455 7.00001 12.9983C7.00001 16.312 9.68632 18.9983 13 18.9983Z" fill="#F5F7F8"/>
<path d="M11.1674 7.99829C10.7992 7.99829 10.5008 8.29677 10.5008 8.66496V10.665C10.5008 11.0332 10.7992 11.3316 11.1674 11.3316H11.4174L10.2611 20.5823C10.2114 20.9802 10.5216 21.3317 10.9226 21.3317H15.0789C15.4799 21.3317 15.7902 20.9802 15.7405 20.5823L14.5841 11.3316H14.8341C15.2023 11.3316 15.5008 11.0332 15.5008 10.665V8.66496C15.5008 8.29677 15.2023 7.99829 14.8341 7.99829H11.1674Z" fill="#C1C3C3"/>
<path d="M13 8.99829L11.8077 11.6952L9 12.054L11.0709 14.0797L10.5278 16.9983L13 15.3317L15.4722 16.9983L14.9291 14.0797L17 12.054L14.1923 11.6952L13 8.99829Z" fill="#F5F7F8"/>
</g>
<rect x="1" y="0.99823" width="24.0001" height="24.0001" rx="12.0001" stroke="#EDEDED"/>
</svg>
