<svg width="26" height="26" viewBox="0 0 26 26" fill="none" xmlns="http://www.w3.org/2000/svg">
<mask id="mask0_4812_146334" style="mask-type:alpha" maskUnits="userSpaceOnUse" x="1" y="0" width="25" height="25">
<circle cx="13.002" cy="12.9983" r="12.0001" fill="#D9D9D9"/>
</mask>
<g mask="url(#mask0_4812_146334)">
<rect x="1.00195" y="0.998352" width="24.0001" height="24.0001" fill="#DD2033"/>
<rect x="1.00195" y="20.9984" width="16.0001" height="24.0001" transform="rotate(-90 1.00195 20.9984)" fill="#005B33"/>
<path d="M12.1084 9.0209L13.0026 6.99823L13.8968 9.0209L16.0026 9.29002L14.4495 10.8093L14.8568 12.9983L13.0026 11.7483L11.1485 12.9983L11.5558 10.8093L10.0026 9.29002L12.1084 9.0209Z" fill="#FBD381"/>
<path d="M17.5896 13.1585C17.9946 12.5871 18.2905 11.969 18.4812 11.3316C18.9011 12.9742 18.6257 14.7909 17.5778 16.2693C15.7316 18.8742 12.1866 19.443 9.6598 17.5398C7.75836 16.1076 6.97533 13.6837 7.49089 11.4617C7.81426 12.6776 8.51564 13.7843 9.56713 14.5763C12.0939 16.4795 15.6857 15.8447 17.5896 13.1585Z" fill="#FBD381"/>
</g>
<rect x="1.00195" y="0.99823" width="24.0001" height="24.0001" rx="12.0001" stroke="#EDEDED"/>
</svg>
