<svg width="26" height="26" viewBox="0 0 26 26" fill="none" xmlns="http://www.w3.org/2000/svg">
<mask id="mask0_4812_146335" style="mask-type:alpha" maskUnits="userSpaceOnUse" x="1" y="0" width="25" height="25">
<circle cx="13.002" cy="12.9983" r="12.0001" fill="#D9D9D9"/>
</mask>
<g mask="url(#mask0_4812_146335)">
<rect x="1.00195" y="0.99823" width="24.0001" height="24.0001" fill="#004692"/>
<path d="M14.6016 12.665H21.6016V15.5794C21.6016 17.6072 20.3654 19.4301 18.4816 20.1803L18.1016 20.3317L17.7216 20.1803C15.8377 19.4301 14.6016 17.6072 14.6016 15.5794V12.665Z" fill="#3CCBDA"/>
<mask id="mask1_4812_146335" style="mask-type:alpha" maskUnits="userSpaceOnUse" x="14" y="12" width="8" height="9">
<path d="M14.6035 12.6649H21.6035V15.5793C21.6035 17.6071 20.3674 19.43 18.4836 20.1803L18.1035 20.3316L17.7235 20.1803C15.8397 19.43 14.6035 17.6071 14.6035 15.5793V12.6649Z" fill="#0091DA"/>
</mask>
<g mask="url(#mask1_4812_146335)">
<path d="M17.6042 15.6649L17.6042 19.3316H18.6042L18.6042 15.6649H20.2709V14.6649H18.6042V13.3316H17.6042V14.6649H15.9375V15.6649H17.6042Z" fill="#31373D"/>
<rect x="14.6035" y="17.9983" width="7.00003" height="2.33334" fill="#936846"/>
</g>
<mask id="mask2_4812_146335" style="mask-type:alpha" maskUnits="userSpaceOnUse" x="1" y="0" width="13" height="13">
<path d="M1.00195 12.9983V12.9983C1.00195 6.37084 6.37456 0.998234 13.002 0.998233V0.998233L13.002 12.9983L1.00195 12.9983Z" fill="#002F6C"/>
</mask>
<g mask="url(#mask2_4812_146335)">
<rect x="1.00195" y="0.99823" width="12.0001" height="12.0001" fill="#004692"/>
<path d="M5.17547 2.04285L4.46836 2.74996L14.3104 12.592L15.0175 11.8849L5.17547 2.04285Z" fill="#F5F7F8"/>
<path d="M3.28985 3.92848L2.11133 5.10699L11.9534 14.949L13.1319 13.7705L3.28985 3.92848Z" fill="#F5F7F8"/>
<path d="M3.28985 3.92848L4.46836 2.74996L14.3104 12.592L13.1319 13.7705L3.28985 3.92848Z" fill="#DD2033"/>
<path d="M13.002 4.99823V6.6649L6.66863 6.6649L6.66863 12.9983H5.00195V4.99823H13.002Z" fill="#F5F7F8"/>
<path d="M13.002 0.331543V1.99822L2.66863 1.99822L2.66863 12.9983H1.00195V0.331543H13.002Z" fill="#F5F7F8"/>
<path fill-rule="evenodd" clip-rule="evenodd" d="M2.00195 12.9983H5.00197L5.00197 4.99824L13.002 4.99824V1.99823H5.00197H2.00195L2.00195 4.99824L2.00195 12.9983Z" fill="#DD2033"/>
</g>
</g>
<rect x="1.00195" y="0.99823" width="24.0001" height="24.0001" rx="12.0001" stroke="#EDEDED"/>
</svg>
