<svg width="26" height="26" viewBox="0 0 26 26" fill="none" xmlns="http://www.w3.org/2000/svg">
<mask id="mask0_4812_146338" style="mask-type:alpha" maskUnits="userSpaceOnUse" x="1" y="0" width="24" height="25">
<circle cx="12.9999" cy="12.9983" r="12.0001" transform="rotate(90 12.9999 12.9983)" fill="#D9D9D9"/>
</mask>
<g mask="url(#mask0_4812_146338)">
<rect x="1" y="0.99823" width="24.0001" height="24.0001" fill="#DD2033"/>
<rect x="4.33398" y="7.66492" width="17.3334" height="10.6667" fill="#005B33"/>
<path d="M16 16.7334C15.5046 16.6464 15.0149 16.484 14.5513 16.2418C12.3716 15.1029 11.5938 12.629 12.8142 10.7161C13.322 9.92011 14.0958 9.3467 14.9833 9.03054C13.2689 8.83182 11.5111 9.5592 10.5928 10.9986C9.37247 12.9115 10.0967 15.3575 12.2104 16.4618C13.4101 17.0887 14.7996 17.1486 16 16.7334Z" fill="#F5F7F8"/>
</g>
<rect x="1" y="0.99823" width="24.0001" height="24.0001" rx="12.0001" stroke="#EDEDED"/>
</svg>
