<svg width="26" height="26" viewBox="0 0 26 26" fill="none" xmlns="http://www.w3.org/2000/svg">
<mask id="mask0_4812_146340" style="mask-type:alpha" maskUnits="userSpaceOnUse" x="0" y="0" width="25" height="25">
<circle cx="12.9981" cy="12.9984" r="12.0001" fill="#D9D9D9"/>
</mask>
<g mask="url(#mask0_4812_146340)">
<rect x="19.6641" y="0.998413" width="5.33336" height="24.0001" fill="#DD2033"/>
<rect x="6.33203" y="0.998413" width="13.3334" height="24.0001" fill="#F5F7F8"/>
<rect x="0.998047" y="0.99823" width="5.33336" height="24.0001" fill="#008259"/>
<path fill-rule="evenodd" clip-rule="evenodd" d="M7.1334 12.8101C7.04474 13.2204 6.99805 13.6464 6.99805 14.0832C6.99805 17.397 9.68435 20.0833 12.9981 20.0833C16.3118 20.0833 18.9981 17.397 18.9981 14.0832C18.9981 13.637 18.9494 13.2022 18.857 12.7838L16.9692 13.6002C16.9883 13.7585 16.9981 13.9197 16.9981 14.0832C16.9981 16.2924 15.2072 18.0832 12.9981 18.0832C10.7889 18.0832 8.99806 16.2924 8.99806 14.0832C8.99806 13.9291 9.00677 13.7771 9.02373 13.6275L7.1334 12.8101Z" fill="#009B77"/>
<path d="M15.2645 10.3317L16.0487 11.6783C16.2376 12.0026 16.1296 12.4185 15.8069 12.6101L15.6503 12.3463C15.6401 12.4041 15.6279 12.4612 15.6136 12.5176L15.7106 12.681C15.9017 13.003 15.7955 13.4189 15.4736 13.61L15.2647 13.2581C15.2504 13.277 15.2357 13.2957 15.2207 13.3142C15.3866 13.6312 15.2771 14.0262 14.9657 14.211L14.697 13.7582C14.6967 13.7584 14.6963 13.7586 14.696 13.7588L14.6445 13.6696L13.5158 11.7678L13.7345 13.4684L15.2645 14.9985H12.4209C11.7574 14.9985 11.1948 14.5106 11.101 13.8537L10.8216 11.8985L9.82829 12.1903L9.64036 11.5507C9.43278 10.8442 9.83725 10.1031 10.5438 9.89556L11.1834 9.70763C11.755 9.53969 12.3492 9.77236 12.6652 10.2415L12.5978 10.1248C12.4138 9.80596 12.5213 9.38245 12.8779 9.29082C13.7838 9.05804 14.5813 9.51201 15.2645 10.3317Z" fill="#936846"/>
<path d="M9.62604 11.4984L9.82931 12.1903L10.8322 11.8957L9.62604 11.4984Z" fill="#F1B434"/>
<path fill-rule="evenodd" clip-rule="evenodd" d="M9.83255 13.9566C9.05719 12.6206 8.27924 11.9303 8 11.7558L8.52998 10.9078C8.98491 11.1921 9.86585 12.0218 10.6974 13.4547L9.83255 13.9566ZM12.6557 16.6008C11.7572 16.524 10.8585 16.0479 10.3119 14.8766L11.2181 14.4537C11.6048 15.2824 12.1784 15.5563 12.7409 15.6045C13.3439 15.6561 13.9685 15.4457 14.3532 15.2293L14.8435 16.1009C14.3393 16.3846 13.5138 16.6742 12.6557 16.6008Z" fill="#008259"/>
</g>
<rect x="0.998047" y="0.998352" width="24.0001" height="24.0001" rx="12.0001" stroke="#EDEDED"/>
</svg>
