<svg width="26" height="26" viewBox="0 0 26 26" fill="none" xmlns="http://www.w3.org/2000/svg">
<mask id="mask0_4812_146341" style="mask-type:alpha" maskUnits="userSpaceOnUse" x="1" y="0" width="24" height="25">
<circle cx="13.0001" cy="12.9984" r="12.0001" fill="#D9D9D9"/>
</mask>
<g mask="url(#mask0_4812_146341)">
<rect x="1" y="0.998352" width="24.0001" height="24.0001" fill="#F5F7F8"/>
<path d="M1 0.998353V3.99837L25.0001 3.99837V0.998352L1 0.998353Z" fill="#DD2033"/>
<path d="M1 6.99838V9.9984L25.0001 9.99839V6.99838L1 6.99838Z" fill="#DD2033"/>
<path d="M1 15.9984V12.9984L25.0001 12.9984V15.9984L1 15.9984Z" fill="#DD2033"/>
<path d="M1 18.9984V21.9985L25.0001 21.9985V18.9984L1 18.9984Z" fill="#DD2033"/>
<rect x="1" y="12.9984" width="12.0001" height="12.0001" transform="rotate(-90 1 12.9984)" fill="#004692"/>
<path d="M7.86721 5.9984C8.33872 5.9984 8.77757 6.13825 9.14453 6.37875C8.59433 5.73777 7.77818 5.33173 6.8672 5.33173C5.21034 5.33173 3.86719 6.67488 3.86719 8.33174C3.86719 9.9886 5.21034 11.3318 6.8672 11.3318C7.77818 11.3318 8.59433 10.9257 9.14453 10.2847C8.77757 10.5252 8.33872 10.6651 7.86721 10.6651C6.57854 10.6651 5.53386 9.62041 5.53386 8.33174C5.53386 7.04307 6.57854 5.9984 7.86721 5.9984Z" fill="#FBD381"/>
<path d="M11.0261 7.38748L10.5339 6.33173L10.0417 7.38748L8.93001 7.12406L9.42783 8.17698L8.53388 8.90413L9.6469 9.16149L9.64383 10.3317L10.5339 9.59961L11.424 10.3317L11.4209 9.16149L12.5339 8.90413L11.6399 8.17698L12.1377 7.12406L11.0261 7.38748Z" fill="#FBD381"/>
</g>
<rect x="1" y="0.998352" width="24.0001" height="24.0001" rx="12.0001" stroke="#EDEDED"/>
</svg>
