<svg width="26" height="26" viewBox="0 0 26 26" fill="none" xmlns="http://www.w3.org/2000/svg">
<mask id="mask0_4812_146343" style="mask-type:alpha" maskUnits="userSpaceOnUse" x="1" y="0" width="25" height="25">
<circle cx="13.002" cy="12.9984" r="12.0001" fill="#D9D9D9"/>
</mask>
<g mask="url(#mask0_4812_146343)">
<rect x="1.00195" y="0.998352" width="24.0001" height="24.0001" fill="#005EB8"/>
<path d="M25.002 24.9985L1.00184 24.9985L25.002 0.998352V24.9985Z" fill="#009B77"/>
<rect width="8.66671" height="24.6668" transform="matrix(0.707107 0.707107 0.707107 -0.707107 1.73633 19.1071)" fill="#F5F7F8"/>
<rect x="6.68945" y="23.6565" width="5.00002" height="24.0001" transform="rotate(-135 6.68945 23.6565)" fill="#DD2033"/>
<path d="M9.46812 7.99839L8.37849 8.53721L8.95871 9.64653L7.77551 9.40858L7.62559 10.6651L6.80143 9.74097L5.9773 10.6651L5.82738 9.40858L4.64414 9.64649L5.2244 8.53717L4.13477 7.99839L5.22444 7.4596L4.64414 6.35032L5.82734 6.58823L5.97734 5.33173L6.80143 6.25585L7.62562 5.33173L7.77551 6.58823L8.95875 6.35032L8.37852 7.45964L9.46812 7.99839Z" fill="#FBD381"/>
</g>
<rect x="1.00195" y="0.998352" width="24.0001" height="24.0001" rx="12.0001" stroke="#EDEDED"/>
</svg>
