<svg width="26" height="26" viewBox="0 0 26 26" fill="none" xmlns="http://www.w3.org/2000/svg">
<mask id="mask0_4812_146348" style="mask-type:alpha" maskUnits="userSpaceOnUse" x="1" y="0" width="24" height="25">
<circle cx="13.0001" cy="12.9984" r="12.0001" fill="#D9D9D9"/>
</mask>
<g mask="url(#mask0_4812_146348)">
<rect x="1" y="0.998352" width="24.0001" height="24.0001" fill="#005EB8"/>
<rect x="1" y="18.3318" width="10.6667" height="24.0001" transform="rotate(-90 1 18.3318)" fill="#F5F7F8"/>
<path fill-rule="evenodd" clip-rule="evenodd" d="M12.9994 15.9984C14.6562 15.9984 15.9994 14.6553 15.9994 12.9984C15.9994 11.3415 14.6562 9.99838 12.9994 9.99838C11.3425 9.99838 9.99936 11.3415 9.99936 12.9984C9.99936 14.6553 11.3425 15.9984 12.9994 15.9984ZM12.9994 17.3317C15.3926 17.3317 17.3327 15.3916 17.3327 12.9984C17.3327 10.6051 15.3926 8.66504 12.9994 8.66504C10.6061 8.66504 8.66602 10.6051 8.66602 12.9984C8.66602 15.3916 10.6061 17.3317 12.9994 17.3317Z" fill="#F1B434"/>
<mask id="mask1_4812_146348" style="mask-type:alpha" maskUnits="userSpaceOnUse" x="10" y="10" width="6" height="5">
<path d="M12.8984 10.9984L15.0635 14.7484H10.7334L12.8984 10.9984Z" fill="#D9D9D9"/>
</mask>
<g mask="url(#mask1_4812_146348)">
<rect x="10.7324" y="10.9984" width="4.66669" height="2.33334" fill="#86C5FA"/>
<rect x="10.7324" y="13.9984" width="4.66669" height="2.66668" fill="#005EB8"/>
<rect x="10.7324" y="13.3318" width="4.66669" height="0.66667" fill="#009B77"/>
</g>
</g>
<rect x="1" y="0.998352" width="24.0001" height="24.0001" rx="12.0001" stroke="#EDEDED"/>
</svg>
