<svg width="26" height="26" viewBox="0 0 26 26" fill="none" xmlns="http://www.w3.org/2000/svg">
<mask id="mask0_4812_146350" style="mask-type:alpha" maskUnits="userSpaceOnUse" x="0" y="0" width="25" height="25">
<circle cx="12.9981" cy="12.9986" r="12.0001" fill="#D9D9D9"/>
</mask>
<g mask="url(#mask0_4812_146350)">
<rect x="0.998047" y="0.998535" width="24.0001" height="24.0001" fill="#DD2033"/>
<path fill-rule="evenodd" clip-rule="evenodd" d="M7.79756 24.9986H5.79755L5.79755 16.8986H1.13086V14.8986H5.79755L5.79755 11.0986H1.13086V9.09859H5.79755L5.79755 0.998535H7.79756L7.79756 9.09859H11.5975L11.5975 0.998535H13.5976L13.5976 9.09859H25.131V11.0986L13.5976 11.0986V14.8986L25.131 14.8986V16.8986L13.5976 16.8986L13.5976 24.9986H11.5975L11.5975 16.8986H7.79756L7.79756 24.9986ZM11.5975 11.0986H7.79756L7.79756 14.8986H11.5975L11.5975 11.0986Z" fill="#F5F7F8"/>
<path d="M7.66475 24.9986H11.6648L11.6648 14.9986L24.9982 14.9986V10.9986L11.6648 10.9986L11.6648 0.998535H7.66475L7.66475 10.9986L0.998047 10.9986V14.9986H7.66475L7.66475 24.9986Z" fill="#004692"/>
</g>
<rect x="0.998047" y="0.998535" width="24.0001" height="24.0001" rx="12.0001" stroke="#EDEDED"/>
</svg>
