<svg width="26" height="26" viewBox="0 0 26 26" fill="none" xmlns="http://www.w3.org/2000/svg">
<mask id="mask0_4812_146351" style="mask-type:alpha" maskUnits="userSpaceOnUse" x="1" y="0" width="24" height="25">
<circle cx="13.0001" cy="12.9986" r="12.0001" fill="#D9D9D9"/>
</mask>
<g mask="url(#mask0_4812_146351)">
<rect x="1" y="0.998535" width="24.0001" height="24.0001" fill="#F5F7F8"/>
<path d="M24.7069 14.3319H13.3486L25.0243 26.332H9.16656L-3.4668 14.3319L6.68168 -1.69055L10.2867 1.51394L24.7069 14.3319Z" fill="#004692"/>
<path d="M21.2001 12.9986L7.16671 0.498535L-2 12.9986L-2 24.9987H21.8668L10.1911 12.9986H21.2001Z" fill="#DD2033"/>
<path d="M12.1993 18.6653L10.5648 19.4735L11.4351 21.1375L9.66034 20.7806L9.43545 22.6653L8.19921 21.2791L6.96303 22.6653L6.73814 20.7806L4.96329 21.1374L5.83368 19.4735L4.19922 18.6653L5.83373 17.8571L4.96329 16.1932L6.73808 16.55L6.96308 14.6653L8.19921 16.0515L9.43551 14.6653L9.66034 16.55L11.4352 16.1932L10.5649 17.8572L12.1993 18.6653Z" fill="#F5F7F8"/>
<mask id="mask1_4812_146351" style="mask-type:alpha" maskUnits="userSpaceOnUse" x="4" y="4" width="8" height="8">
<circle cx="8.19989" cy="7.99859" r="3.66668" fill="#D9D9D9"/>
</mask>
<g mask="url(#mask1_4812_146351)">
<path d="M10.8666 8.62979L9.77692 9.16862L10.3571 10.2779L9.17395 10.04L9.02402 11.2965L8.19986 10.3724L7.37574 11.2965L7.22581 10.04L6.04258 10.2779L6.62284 9.16858L5.5332 8.62979L6.62288 8.09101L6.04258 6.98173L7.22578 7.21964L7.37578 5.96313L8.19986 6.88725L9.02406 5.96313L9.17395 7.21964L10.3572 6.98173L9.77696 8.09105L10.8666 8.62979Z" fill="#F5F7F8"/>
</g>
<path d="M11.8483 7.62982C11.2215 9.01988 9.8237 9.98746 8.19989 9.98746C6.57607 9.98746 5.17825 9.01988 4.55151 7.62982C4.5394 7.75109 4.5332 7.87411 4.5332 7.99857C4.5332 10.0236 6.17483 11.6653 8.19989 11.6653C10.2249 11.6653 11.8666 10.0236 11.8666 7.99857C11.8666 7.87411 11.8604 7.7511 11.8483 7.62982Z" fill="#F5F7F8"/>
</g>
<rect x="1" y="0.998535" width="24.0001" height="24.0001" rx="12.0001" stroke="#EDEDED"/>
</svg>
