<svg width="26" height="26" viewBox="0 0 26 26" fill="none" xmlns="http://www.w3.org/2000/svg">
<mask id="mask0_4812_146352" style="mask-type:alpha" maskUnits="userSpaceOnUse" x="1" y="0" width="24" height="25">
<circle cx="13.0001" cy="12.9986" r="12.0001" fill="#D9D9D9"/>
</mask>
<g mask="url(#mask0_4812_146352)">
<rect x="1" y="0.998535" width="24.0001" height="24.0001" fill="#004692"/>
<rect x="1" y="14.6653" width="3.33335" height="24.0001" transform="rotate(-90 1 14.6653)" fill="#F1B434"/>
<path d="M11.8008 18.9986L10.575 19.6048L11.2277 20.8528L9.89662 20.5851L9.72795 21.9986L8.80077 20.959L7.87364 21.9986L7.70497 20.5851L6.37383 20.8527L7.02662 19.6047L5.80078 18.9986L7.02667 18.3925L6.37383 17.1445L7.70493 17.4122L7.87368 15.9986L8.80077 17.0382L9.728 15.9986L9.89662 17.4122L11.2278 17.1445L10.575 18.3925L11.8008 18.9986Z" fill="#F5F7F8"/>
</g>
<rect x="1" y="0.998535" width="24.0001" height="24.0001" rx="12.0001" stroke="#EDEDED"/>
</svg>
