<svg width="26" height="26" viewBox="0 0 26 26" fill="none" xmlns="http://www.w3.org/2000/svg">
<mask id="mask0_4812_146357" style="mask-type:alpha" maskUnits="userSpaceOnUse" x="1" y="0" width="24" height="25">
<circle cx="13.0001" cy="12.9987" r="12.0001" transform="rotate(-90 13.0001 12.9987)" fill="#D9D9D9"/>
</mask>
<g mask="url(#mask0_4812_146357)">
<rect x="1" y="0.998413" width="24.0001" height="24.0001" fill="#DD2033"/>
<rect x="19.666" y="24.9987" width="13.3334" height="24.0001" transform="rotate(180 19.666 24.9987)" fill="#F5F7F8"/>
<path fill-rule="evenodd" clip-rule="evenodd" d="M7.13535 12.8102C7.04669 13.2205 7 13.6465 7 14.0834C7 17.3971 9.6863 20.0834 13 20.0834C16.3138 20.0834 19.0001 17.3971 19.0001 14.0834C19.0001 13.6372 18.9514 13.2023 18.859 12.7839L16.9712 13.6003C16.9902 13.7586 17 13.9199 17 14.0834C17 16.2925 15.2092 18.0834 13 18.0834C10.7909 18.0834 9.00001 16.2925 9.00001 14.0834C9.00001 13.9292 9.00872 13.7772 9.02569 13.6276L7.13535 12.8102Z" fill="#009B77"/>
<path d="M9.73242 7.66528L16.3991 7.66528L16.3991 10.3124C16.3991 12.3374 15.1662 14.1585 13.286 14.9106L13.0658 14.9987L12.8456 14.9106C10.9653 14.1585 9.73242 12.3374 9.73242 10.3124L9.73242 7.66528Z" fill="#FF9E42"/>
<mask id="mask1_4812_146357" style="mask-type:alpha" maskUnits="userSpaceOnUse" x="9" y="7" width="8" height="8">
<path d="M9.73242 7.66528H16.3991V10.3124C16.3991 12.3374 15.1662 14.1585 13.286 14.9106L13.0658 14.9987L12.8456 14.9106C10.9653 14.1585 9.73242 12.3374 9.73242 10.3124V7.66528Z" fill="#005EB8"/>
</mask>
<g mask="url(#mask1_4812_146357)">
<rect x="9.73242" y="10.9986" width="6.6667" height="4.00002" fill="#DD2033"/>
<rect x="9.73242" y="7.66528" width="3.33335" height="3.33335" fill="#0091DA"/>
</g>
</g>
<rect x="1" y="0.998535" width="24.0001" height="24.0001" rx="12.0001" stroke="#EDEDED"/>
</svg>
