<svg width="26" height="26" viewBox="0 0 26 26" fill="none" xmlns="http://www.w3.org/2000/svg">
<mask id="mask0_4812_146358" style="mask-type:alpha" maskUnits="userSpaceOnUse" x="1" y="0" width="24" height="25">
<circle cx="13.0001" cy="12.9986" r="12.0001" fill="#D9D9D9"/>
</mask>
<g mask="url(#mask0_4812_146358)">
<rect x="1" y="0.998535" width="24.0001" height="24.0001" fill="#DD2033"/>
<rect x="1" y="18.9986" width="12.0001" height="24.0001" transform="rotate(-90 1 18.9986)" fill="#F5F7F8"/>
<mask id="mask1_4812_146358" style="mask-type:alpha" maskUnits="userSpaceOnUse" x="8" y="7" width="10" height="11">
<circle cx="13" cy="12.9986" r="5.00002" fill="#D9D9D9"/>
</mask>
<g mask="url(#mask1_4812_146358)">
<path d="M11.7498 13.5441C12.0623 13.2713 12.3747 12.9986 12.9997 12.9986C13.6247 12.9986 13.9372 13.2713 14.2498 13.5441C14.5623 13.8168 14.8748 14.0895 15.4999 14.0895C16.1249 14.0895 16.4375 13.8168 16.75 13.5441C17.0625 13.2713 17.375 12.9986 18 12.9986V14.9077C17.375 14.9077 17.0625 15.1804 16.75 15.4531C16.4374 15.7259 16.1249 15.9986 15.4999 15.9986C14.8748 15.9986 14.5623 15.7259 14.2498 15.4531C13.9372 15.1804 13.6247 14.9077 12.9997 14.9077C12.3747 14.9077 12.0623 15.1804 11.7498 15.4531C11.4373 15.7259 11.1248 15.9986 10.4999 15.9986C9.87489 15.9986 9.56241 15.7259 9.24993 15.4531C8.93744 15.1804 8.62496 14.9077 8 14.9077V12.9986C8.62496 12.9986 8.93744 13.2713 9.24993 13.5441C9.56241 13.8168 9.87489 14.0895 10.4999 14.0895C11.1248 14.0895 11.4373 13.8168 11.7498 13.5441Z" fill="#005EB8"/>
<path d="M11.7498 16.8774C12.0623 16.6047 12.3747 16.3319 12.9997 16.3319C13.6247 16.3319 13.9372 16.6047 14.2498 16.8774C14.5623 17.1501 14.8748 17.4229 15.4999 17.4229C16.1249 17.4229 16.4375 17.1501 16.75 16.8774C17.0625 16.6047 17.375 16.3319 18 16.3319V18.241C17.375 18.241 17.0625 18.5138 16.75 18.7865C16.4374 19.0592 16.1249 19.332 15.4999 19.332C14.8748 19.332 14.5623 19.0592 14.2498 18.7865C13.9372 18.5138 13.6247 18.241 12.9997 18.241C12.3747 18.241 12.0623 18.5138 11.7498 18.7865C11.4373 19.0592 11.1248 19.332 10.4999 19.332C9.87489 19.332 9.56241 19.0592 9.24993 18.7865C8.93744 18.5138 8.62496 18.241 8 18.241V16.3319C8.62496 16.3319 8.93744 16.6047 9.24993 16.8774C9.56241 17.1501 9.87489 17.4229 10.4999 17.4229C11.1248 17.4229 11.4373 17.1501 11.7498 16.8774Z" fill="#005EB8"/>
<rect x="6.66602" y="7.9986" width="12.6667" height="4.66669" fill="#F1B434"/>
</g>
<path d="M13.7334 8.9986H12.4001V12.9986H13.7334V8.9986Z" fill="#DD2033"/>
<path d="M11.3333 12.9986V10.9986H10V12.9986C10 14.2873 11.0447 15.332 12.3333 15.332H13.6667C14.9554 15.332 16 14.2873 16 12.9986V10.9986H14.6667V12.9986C14.6667 13.5509 14.219 13.9986 13.6667 13.9986H12.3333C11.7811 13.9986 11.3333 13.5509 11.3333 12.9986Z" fill="#DD2033"/>
</g>
<rect x="1" y="0.998535" width="24.0001" height="24.0001" rx="12.0001" stroke="#EDEDED"/>
</svg>
