<svg width="26" height="26" viewBox="0 0 26 26" fill="none" xmlns="http://www.w3.org/2000/svg">
<mask id="mask0_4812_146359" style="mask-type:alpha" maskUnits="userSpaceOnUse" x="0" y="1" width="25" height="25">
<path d="M21.3974 4.54293C26.0837 9.22925 26.0837 16.8273 21.3974 21.5136C16.7111 26.1999 9.11304 26.1999 4.42673 21.5136C-0.259584 16.8273 -0.259584 9.22925 4.42673 4.54293C9.11304 -0.143381 16.7111 -0.14338 21.3974 4.54293Z" fill="#D9D9D9"/>
</mask>
<g mask="url(#mask0_4812_146359)">
<path d="M25.0001 24.9989L1 24.9989L1 0.99878L25.0001 0.998779L25.0001 24.9989Z" fill="#DD2033"/>
<path d="M21.456 21.543L12.9706 30.0283L-4 13.0577L4.48532 4.57236L21.456 21.543Z" fill="#31373D"/>
<path d="M6.381 9.60415L5.97081 8.7243L5.56058 9.60415L4.63424 9.38454L5.04908 10.2621L4.30413 10.868L5.23165 11.0824L5.22905 12.0577L5.97081 11.4475L6.71254 12.0577L6.70997 11.0824L7.63748 10.868L6.89251 10.2621L7.30741 9.38454L6.381 9.60415Z" fill="#F5F7F8"/>
<path d="M2.63738 11.391L3.04757 12.2708L3.97398 12.0512L3.55908 12.9287L4.30405 13.5347L3.37654 13.7491L3.37911 14.7243L2.63738 14.1142L1.89562 14.7243L1.89822 13.7491L0.970703 13.5347L1.71565 12.9287L1.30081 12.0512L2.22715 12.2708L2.63738 11.391Z" fill="#F5F7F8"/>
<path d="M4.97072 19.391L5.46296 20.4468L6.57464 20.1833L6.07677 21.2363L6.97073 21.9635L5.85772 22.2208L5.8608 23.391L4.97072 22.6589L4.08061 23.391L4.08373 22.2208L2.97071 21.9635L3.86464 21.2363L3.36684 20.1833L4.47845 20.4468L4.97072 19.391Z" fill="#F5F7F8"/>
<path d="M9.30408 12.0577L9.71427 12.9375L10.6407 12.7179L10.2258 13.5954L10.9708 14.2014L10.0432 14.4158L10.0458 15.391L9.30408 14.7809L8.56232 15.391L8.56492 14.4158L7.6374 14.2014L8.38234 13.5954L7.96751 12.7179L8.89385 12.9375L9.30408 12.0577Z" fill="#F5F7F8"/>
<path d="M6.80415 17.391C7.26438 17.391 7.63748 17.0179 7.63748 16.5577C7.63748 16.0974 7.26438 15.7243 6.80415 15.7243C6.34391 15.7243 5.97081 16.0974 5.97081 16.5577C5.97081 17.0179 6.34391 17.391 6.80415 17.391Z" fill="#F5F7F8"/>
<path d="M14.3069 5.31453C13.8109 4.9518 13.1147 5.05987 12.752 5.55593L14.6234 6.92437C14.3605 6.95307 14.102 7.0524 13.8776 7.22612C13.2297 7.7277 13.1111 8.65954 13.6127 9.30745L15.3005 8.0008C14.9919 8.61463 14.9499 9.35656 15.2491 10.0341C15.7804 11.2375 17.1866 11.7822 18.3899 11.2509L17.3646 8.92885L19.2638 10.3176C19.8012 10.7105 19.9183 11.4647 19.5253 12.0021L19.4706 12.077C19.1078 12.573 18.4117 12.6811 17.9156 12.3184L17.4777 12.9172C18.3045 13.5217 19.4648 13.3416 20.0694 12.5148L20.1241 12.44C20.7589 11.5719 20.5697 10.3536 19.7016 9.71878L17.7938 8.32374L20.3297 8.59813C20.4712 7.29035 19.5258 6.11547 18.218 5.97397C17.5728 5.90416 16.9599 6.09893 16.4875 6.47126L17.2895 4.2792C16.52 3.99767 15.668 4.39324 15.3865 5.16272C15.2745 5.46894 15.2697 5.78822 15.353 6.07943L14.3069 5.31453Z" fill="#F1B434"/>
</g>
<rect x="1" y="0.998779" width="24.0001" height="24.0001" rx="12.0001" stroke="#EDEDED"/>
</svg>
