<svg width="26" height="26" viewBox="0 0 26 26" fill="none" xmlns="http://www.w3.org/2000/svg">
<mask id="mask0_4812_146360" style="mask-type:alpha" maskUnits="userSpaceOnUse" x="0" y="0" width="25" height="25">
<circle cx="12.9981" cy="12.9988" r="12.0001" fill="#D9D9D9"/>
</mask>
<g mask="url(#mask0_4812_146360)">
<rect x="0.998047" y="24.9989" width="12.0001" height="24.0001" transform="rotate(-90 0.998047 24.9989)" fill="#DD2033"/>
<rect x="0.998047" y="12.9988" width="12.0001" height="24.0001" transform="rotate(-90 0.998047 12.9988)" fill="#004692"/>
<path d="M16.9981 12.9988L0.998047 0.998779V24.9989L16.9981 12.9988Z" fill="#F5F7F8"/>
<path d="M10.0645 12.9988L8.43003 13.8071L9.30037 15.471L7.52557 15.1141L7.30068 16.9989L6.06444 15.6127L4.82826 16.9989L4.60337 15.1141L2.82852 15.471L3.69891 13.807L2.06445 12.9988L3.69897 12.1906L2.82852 10.5267L4.60331 10.8836L4.82832 8.99884L6.06444 10.385L7.30074 8.99884L7.52557 10.8836L9.30042 10.5267L8.43009 12.1907L10.0645 12.9988Z" fill="#F1B434"/>
<circle cx="12.931" cy="12.9989" r="1.33334" fill="#F1B434"/>
</g>
<rect x="0.998047" y="0.998779" width="24.0001" height="24.0001" rx="12.0001" stroke="#EDEDED"/>
</svg>
