<svg width="26" height="26" viewBox="0 0 26 26" fill="none" xmlns="http://www.w3.org/2000/svg">
<mask id="mask0_4812_146361" style="mask-type:alpha" maskUnits="userSpaceOnUse" x="1" y="0" width="24" height="25">
<circle cx="13.0001" cy="12.9988" r="12.0001" fill="#D9D9D9"/>
</mask>
<g mask="url(#mask0_4812_146361)">
<rect x="1" y="0.998779" width="24.0001" height="24.0001" fill="#005B33"/>
<path d="M14.0416 9.95618L14.4197 7.5282L15.961 9.44188L18.2985 9.12514L17.0684 11.2024L18.1351 13.4345L15.7857 12.6262L14.1552 14.5009L13.9628 12.0345L11.859 10.8506L14.0416 9.95618Z" fill="#F5F7F8"/>
<path d="M14.1665 17.3322C14.8126 17.3322 15.4326 17.2242 16.0085 17.0258C15.0306 18.2297 13.5384 18.9989 11.8666 18.9989C8.92103 18.9989 6.5332 16.6111 6.5332 13.6656C6.5332 11.4491 7.88533 9.54834 9.80976 8.74327C9.09293 9.64398 8.66651 10.7731 8.66651 11.9989C8.66651 14.9444 11.129 17.3322 14.1665 17.3322Z" fill="#F5F7F8"/>
</g>
<rect x="1" y="0.998779" width="24.0001" height="24.0001" rx="12.0001" stroke="#EDEDED"/>
</svg>
