<svg width="26" height="26" viewBox="0 0 26 26" fill="none" xmlns="http://www.w3.org/2000/svg">
<mask id="mask0_4812_146364" style="mask-type:alpha" maskUnits="userSpaceOnUse" x="1" y="0" width="25" height="25">
<circle cx="13.002" cy="12.9988" r="12.0001" fill="#D9D9D9"/>
</mask>
<g mask="url(#mask0_4812_146364)">
<rect x="1.00195" y="0.998779" width="24.0001" height="24.0001" fill="#004692"/>
<rect x="16.3359" y="10.0577" width="3.00001" height="2.66668" fill="#C1C3C3"/>
<path d="M16.668 7.72443H17.5013V8.72443H18.668V10.0578H16.668V7.72443Z" fill="#008259"/>
<path d="M14.3359 12.6655H21.336V15.5799C21.336 17.6077 20.0998 19.4306 18.216 20.1809L17.836 20.3322L17.4559 20.1809C15.5721 19.4306 14.3359 17.6077 14.3359 15.5799V12.6655Z" fill="#86C5FA"/>
<mask id="mask1_4812_146364" style="mask-type:alpha" maskUnits="userSpaceOnUse" x="14" y="12" width="8" height="9">
<path d="M14.334 12.6655H21.334V15.5799C21.334 17.6076 20.0979 19.4305 18.214 20.1808L17.834 20.3322L17.454 20.1808C15.5701 19.4305 14.334 17.6076 14.334 15.5799V12.6655Z" fill="#86C5FA"/>
</mask>
<g mask="url(#mask1_4812_146364)">
<path d="M17.834 12.6655L21.334 20.3322H14.334L17.834 12.6655Z" fill="#FBD381"/>
<path d="M17.834 14.3911L21.334 22.0578H14.334L17.834 14.3911Z" fill="#008259"/>
</g>
<mask id="mask2_4812_146364" style="mask-type:alpha" maskUnits="userSpaceOnUse" x="1" y="0" width="13" height="13">
<path d="M1.00195 12.9988V12.9988C1.00195 6.37139 6.37456 0.998783 13.002 0.998783V0.998783L13.002 12.9988L1.00195 12.9988Z" fill="#002F6C"/>
</mask>
<g mask="url(#mask2_4812_146364)">
<rect x="1.00195" y="0.998779" width="12.0001" height="12.0001" fill="#004692"/>
<path d="M5.17547 2.0434L4.46836 2.75051L14.3104 12.5926L15.0175 11.8854L5.17547 2.0434Z" fill="#F5F7F8"/>
<path d="M3.28985 3.92903L2.11133 5.10754L11.9534 14.9496L13.1319 13.7711L3.28985 3.92903Z" fill="#F5F7F8"/>
<path d="M3.28985 3.92903L4.46836 2.75051L14.3104 12.5926L13.1319 13.7711L3.28985 3.92903Z" fill="#DD2033"/>
<path d="M13.002 4.99878V6.66545L6.66863 6.66545L6.66863 12.9988H5.00195V4.99878H13.002Z" fill="#F5F7F8"/>
<path d="M13.002 0.332092V1.99877L2.66863 1.99877L2.66863 12.9988H1.00195V0.332092H13.002Z" fill="#F5F7F8"/>
<path fill-rule="evenodd" clip-rule="evenodd" d="M2.00195 12.9988H5.00197L5.00197 4.99879L13.002 4.99879V1.99878H5.00197H2.00195L2.00195 4.99879L2.00195 12.9988Z" fill="#DD2033"/>
</g>
</g>
<rect x="1.00195" y="0.998779" width="24.0001" height="24.0001" rx="12.0001" stroke="#EDEDED"/>
</svg>
