<svg width="26" height="26" viewBox="0 0 26 26" fill="none" xmlns="http://www.w3.org/2000/svg">
<mask id="mask0_4812_146365" style="mask-type:alpha" maskUnits="userSpaceOnUse" x="1" y="0" width="25" height="25">
<circle cx="13.002" cy="12.9988" r="12.0001" fill="#D9D9D9"/>
</mask>
<g mask="url(#mask0_4812_146365)">
<rect x="1.00195" y="0.998779" width="24.0001" height="24.0001" fill="#DD2033"/>
<path d="M1.00195 5.66547V10.3322L25.0021 10.3322V5.66547L1.00195 5.66547Z" fill="#F5F7F8"/>
<path d="M1.00195 15.6655V20.3322L25.0021 20.3322V15.6655L1.00195 15.6655Z" fill="#F5F7F8"/>
<path d="M17.002 12.9988L1.00195 0.998779V24.9989L17.002 12.9988Z" fill="#005EB8"/>
<path d="M8.00198 9.99884L7.10776 12.0215L5.00195 12.2906L6.55514 13.8099L6.14782 15.9989L8.00197 14.7489L9.85611 15.9989L9.44879 13.8099L11.002 12.2906L8.89618 12.0215L8.00198 9.99884Z" fill="#F5F7F8"/>
</g>
<rect x="1.00195" y="0.998779" width="24.0001" height="24.0001" rx="12.0001" stroke="#EDEDED"/>
</svg>
