<svg width="26" height="26" viewBox="0 0 26 26" fill="none" xmlns="http://www.w3.org/2000/svg">
<mask id="mask0_4812_146367" style="mask-type:alpha" maskUnits="userSpaceOnUse" x="1" y="0" width="24" height="25">
<circle cx="13.0001" cy="12.9988" r="12.0001" fill="#D9D9D9"/>
</mask>
<g mask="url(#mask0_4812_146367)">
<rect x="1" y="0.998779" width="9.33338" height="24.0001" fill="#005B33"/>
<rect x="10.334" y="0.998779" width="14.6667" height="24.0001" fill="#DD2033"/>
<circle cx="10.1335" cy="12.9988" r="4.66669" fill="#F1B434"/>
<path fill-rule="evenodd" clip-rule="evenodd" d="M7.13281 10.3322V13.6061C7.13281 14.924 7.93273 16.1099 9.15462 16.6036C9.78212 16.8572 10.4835 16.8572 11.111 16.6036C12.3329 16.1099 13.1328 14.924 13.1328 13.6061V10.3322H7.13281Z" fill="#F5F7F8"/>
<path fill-rule="evenodd" clip-rule="evenodd" d="M11.7995 11.6655H8.46615V13.6061C8.46615 14.3805 8.93617 15.0773 9.65412 15.3674C9.9612 15.4914 10.3045 15.4914 10.6115 15.3674C11.3295 15.0773 11.7995 14.3805 11.7995 13.6061V11.6655ZM7.13281 10.3322V13.6061C7.13281 14.924 7.93273 16.1099 9.15462 16.6036C9.78212 16.8572 10.4835 16.8572 11.111 16.6036C12.3329 16.1099 13.1328 14.924 13.1328 13.6061V10.3322H7.13281Z" fill="#DD2033"/>
</g>
<rect x="1" y="0.998779" width="24.0001" height="24.0001" rx="12.0001" stroke="#EDEDED"/>
</svg>
