<svg width="26" height="26" viewBox="0 0 26 26" fill="none" xmlns="http://www.w3.org/2000/svg">
<mask id="mask0_4812_146369" style="mask-type:alpha" maskUnits="userSpaceOnUse" x="1" y="0" width="24" height="25">
<circle cx="13.0001" cy="12.999" r="12.0001" fill="#D9D9D9"/>
</mask>
<g mask="url(#mask0_4812_146369)">
<rect x="1" y="24.9991" width="6.6667" height="24.0001" transform="rotate(-90 1 24.9991)" fill="#004692"/>
<rect x="1" y="18.3323" width="10.6667" height="24.0001" transform="rotate(-90 1 18.3323)" fill="#F5F7F8"/>
<rect x="1" y="7.66559" width="6.6667" height="24.0001" transform="rotate(-90 1 7.66559)" fill="#DD2033"/>
<path fill-rule="evenodd" clip-rule="evenodd" d="M7.66667 8.91412C7.24062 9.73829 7 10.6738 7 11.6656C7 14.9793 9.6863 17.6656 13 17.6656C16.3138 17.6656 19.0001 14.9793 19.0001 11.6656C19.0001 10.6738 18.7594 9.73829 18.3334 8.91412V9.05125L16.5993 9.91832C16.856 10.4462 17 11.0391 17 11.6656C17 13.8748 15.2092 15.6656 13 15.6656C10.7909 15.6656 9.00001 13.8748 9.00001 11.6656C9.00001 11.0391 9.14404 10.4462 9.4008 9.91832L7.66667 9.05125V8.91412Z" fill="#009B77"/>
<path d="M13.0007 8.66559L12.2058 10.4635L10.334 10.7027L11.7146 12.0532L11.3525 13.9989L13.0007 12.8878L14.6488 13.9989L14.2867 12.0532L15.6673 10.7027L13.7955 10.4635L13.0007 8.66559Z" fill="#F1B434"/>
</g>
<rect x="1" y="0.998901" width="24.0001" height="24.0001" rx="12.0001" stroke="#EDEDED"/>
</svg>
