<svg width="26" height="26" viewBox="0 0 26 26" fill="none" xmlns="http://www.w3.org/2000/svg">
<mask id="mask0_4812_146373" style="mask-type:alpha" maskUnits="userSpaceOnUse" x="1" y="0" width="25" height="25">
<circle cx="13.002" cy="12.999" r="12.0001" fill="#D9D9D9"/>
</mask>
<g mask="url(#mask0_4812_146373)">
<rect x="1.00195" y="24.9991" width="8.00004" height="24.0001" transform="rotate(-90 1.00195 24.9991)" fill="#F5F7F8"/>
<rect x="1.00195" y="16.999" width="8.00004" height="24.0001" transform="rotate(-90 1.00195 16.999)" fill="#004692"/>
<rect x="1.00195" y="8.9989" width="8.00004" height="24.0001" transform="rotate(-90 1.00195 8.9989)" fill="#DD2033"/>
<path d="M4.73633 8.99896H13.0697V13.4392C13.0697 15.3718 11.8995 17.112 10.1096 17.8409V17.8409C9.33607 18.156 8.46996 18.156 7.69639 17.8409V17.8409C5.90655 17.112 4.73633 15.3718 4.73633 13.4392V8.99896Z" fill="#DD2033"/>
<path d="M11.2592 10.4691C10.9353 10.4467 10.4597 10.4949 10.0898 10.6811C9.75645 10.8489 9.52407 11.111 9.52407 11.6023V11.7711L12.4734 10.972C12.583 11.3856 12.3371 11.8115 11.9241 11.9234L9.52407 12.5736V12.7741L12.5362 11.9581C12.6458 12.3716 12.3999 12.7975 11.9869 12.9094L9.60796 13.554L9.76556 13.712L12.414 12.9944C12.5236 13.408 12.2776 13.8339 11.8647 13.9458L10.3957 14.3438L11.6972 15.6486L10.8989 16.4489L9.49157 15.0379L10.0884 16.5338L8.95953 17.6656L7.83061 16.5338L8.42585 15.0418L7.01592 16.4554L6.21765 15.6551L7.50029 14.3691L5.93779 13.9458C5.52486 13.8339 5.27895 13.408 5.38854 12.9944L8.13047 13.7373L8.28808 13.5793L5.81556 12.9094C5.40263 12.7975 5.15672 12.3716 5.26631 11.9581L8.3908 12.8046V12.6041L5.87838 11.9234C5.46545 11.8115 5.21955 11.3856 5.32913 10.972L8.3908 11.8015V11.6088C8.3908 11.1175 8.15841 10.8554 7.82506 10.6876C7.45519 10.5014 6.97958 10.4532 6.65562 10.4756L6.57795 9.34643C7.03348 9.31493 7.7271 9.3718 8.3316 9.67608C8.55744 9.78976 8.77162 9.93957 8.95433 10.1295C9.13839 9.9365 9.35487 9.78459 9.58327 9.66962C10.1878 9.36533 10.8814 9.30846 11.3369 9.33996L11.2592 10.4691Z" fill="#F5F7F8"/>
<path d="M7.40234 11.6656H10.4024V13.5416C10.4024 14.2251 9.99981 14.8446 9.37518 15.1222V15.1222C9.07416 15.256 8.73055 15.256 8.42953 15.1222V15.1222C7.8049 14.8446 7.40234 14.2251 7.40234 13.5416V11.6656Z" fill="#DD2033"/>
<path fill-rule="evenodd" clip-rule="evenodd" d="M9.40171 3.85608H8.73504V4.33224L8.06837 4.33224V4.99891H8.73504V5.57331C8.46264 5.39097 8.13506 5.28463 7.78265 5.28463C6.83587 5.28463 6.06836 6.05215 6.06836 6.99893C6.06836 7.50665 6.28908 7.96281 6.63979 8.27671V8.99893H11.497V8.27671C11.8477 7.96281 12.0684 7.50664 12.0684 6.99893C12.0684 6.05215 11.3009 5.28463 10.3541 5.28463C10.0017 5.28463 9.67411 5.39097 9.40171 5.57331V4.99891H10.0684V4.33224L9.40171 4.33224V3.85608ZM9.06838 8.13286L9.06044 8.14178H9.07631L9.06838 8.13286ZM7.78586 7.8561L7.78265 7.85611C7.30926 7.85611 6.9255 7.47235 6.9255 6.99896C6.9255 6.52557 7.30926 6.14182 7.78265 6.14182C8.25603 6.14182 8.63981 6.52557 8.63981 6.99896V7.8561H7.78586ZM11.2112 6.99896C11.2112 7.47235 10.8275 7.85611 10.3541 7.85611L10.3509 7.8561H9.49694V6.99896C9.49695 6.52557 9.8807 6.14182 10.3541 6.14182C10.8275 6.14182 11.2112 6.52557 11.2112 6.99896Z" fill="#F1B434"/>
<path d="M9.33562 11.6656H8.66895V12.999H7.40234V13.6657H8.66895V15.3323H9.33562V13.6657H10.4024V12.999H9.33562V11.6656Z" fill="#F5F7F8"/>
</g>
<rect x="1.00195" y="0.998901" width="24.0001" height="24.0001" rx="12.0001" stroke="#EDEDED"/>
</svg>
