<svg width="26" height="26" viewBox="0 0 26 26" fill="none" xmlns="http://www.w3.org/2000/svg">
<mask id="mask0_4812_146376" style="mask-type:alpha" maskUnits="userSpaceOnUse" x="1" y="0" width="24" height="25">
<circle cx="13.0001" cy="12.999" r="12.0001" fill="#D9D9D9"/>
</mask>
<g mask="url(#mask0_4812_146376)">
<rect x="1" y="0.998901" width="24.0001" height="24.0001" fill="#005B33"/>
<path d="M6.15724 11.3826C6.15724 12.0207 5.63812 12.5398 5 12.5398V14.2757C6.59527 14.2757 7.89308 12.9778 7.89308 11.3826V7.33228H6.15724V11.3826Z" fill="#F5F7F8"/>
<path d="M18.5975 7.33228V11.3826C18.5975 12.0207 18.0784 12.5398 17.4403 12.5398V14.2757C19.0355 14.2757 20.3333 12.9778 20.3333 11.3826V7.33228H18.5975Z" fill="#F5F7F8"/>
<path d="M17.7296 7.33228H15.9937V11.3826H17.7296V7.33228Z" fill="#F5F7F8"/>
<path d="M13.3899 9.64676C13.3899 9.80631 13.2601 9.93606 13.1006 9.93606C12.9412 9.93606 12.8114 9.80625 12.8114 9.64676V7.33228H11.0755V9.64676C11.0755 9.80631 10.9457 9.93606 10.7862 9.93606C10.6267 9.93606 10.4969 9.80625 10.4969 9.64676V7.33228H8.76102V9.64676C8.76102 10.7635 9.66952 11.672 10.7862 11.672C11.2163 11.672 11.6151 11.5368 11.9435 11.3072C12.2717 11.5367 12.6706 11.672 13.1007 11.672C13.1873 11.672 13.2725 11.6659 13.3562 11.6552C13.2332 12.162 12.7768 12.5398 12.2328 12.5398V14.2757C13.828 14.2757 15.1258 12.9778 15.1258 11.3826V7.33228H13.39L13.3899 9.64676Z" fill="#F5F7F8"/>
<path d="M11.3648 12.5399H8.76102V14.2758H11.3648V12.5399Z" fill="#F5F7F8"/>
<path d="M17.7147 17.6657H19.3334V18.6657H17.7147C17.5088 19.2483 16.9531 19.6657 16.3 19.6657C15.6469 19.6657 15.0913 19.2483 14.8854 18.6657H6.66667V17.6657H14.8854C15.0913 17.0831 15.6469 16.6657 16.3 16.6657C16.9531 16.6657 17.5088 17.0831 17.7147 17.6657Z" fill="#F5F7F8"/>
</g>
<rect x="1" y="0.998901" width="24.0001" height="24.0001" rx="12.0001" stroke="#EDEDED"/>
</svg>
