<svg width="26" height="26" viewBox="0 0 26 26" fill="none" xmlns="http://www.w3.org/2000/svg">
<mask id="mask0_4812_146377" style="mask-type:alpha" maskUnits="userSpaceOnUse" x="1" y="0" width="24" height="25">
<circle cx="13.0001" cy="12.999" r="12.0001" fill="#D9D9D9"/>
</mask>
<g mask="url(#mask0_4812_146377)">
<rect x="1" y="0.998901" width="24.0001" height="24.0001" fill="#004692"/>
<path d="M24.9994 24.999V7.66559L7.66602 24.999H24.9994Z" fill="#009B77"/>
<rect width="2.00001" height="24.0001" transform="matrix(-0.707107 -0.707107 -0.707107 0.707107 24.9512 7.97845)" fill="#FBD381"/>
<path d="M12.4675 2.33221L11.8714 3.68066L10.4675 3.86008L11.5029 4.87292L11.2314 6.33223L12.4675 5.4989L13.7036 6.33223L13.432 4.87292L14.4675 3.86008L13.0636 3.68066L12.4675 2.33221Z" fill="#F5F7F8"/>
<path d="M12.4675 10.3323L11.8714 11.6807L10.4675 11.8601L11.5029 12.873L11.2314 14.3323L12.4675 13.4989L13.7036 14.3323L13.432 12.873L14.4675 11.8601L13.0636 11.6807L12.4675 10.3323Z" fill="#F5F7F8"/>
<path d="M8.20467 7.68068L8.80082 6.33223L9.39695 7.68068L10.8008 7.86009L9.76536 8.87294L10.0369 10.3323L8.80081 9.49892L7.56471 10.3323L7.83626 8.87294L6.8008 7.86009L8.20467 7.68068Z" fill="#F5F7F8"/>
<path d="M4.8008 10.3323L4.20465 11.6807L2.80078 11.8601L3.83624 12.873L3.5647 14.3323L4.80079 13.4989L6.03689 14.3323L5.76534 12.873L6.8008 11.8601L5.39693 11.6807L4.8008 10.3323Z" fill="#F5F7F8"/>
<path d="M4.20465 3.68066L4.8008 2.33221L5.39693 3.68066L6.8008 3.86008L5.76534 4.87292L6.03689 6.33223L4.80079 5.4989L3.5647 6.33223L3.83624 4.87292L2.80078 3.86008L4.20465 3.68066Z" fill="#F5F7F8"/>
</g>
<rect x="1" y="0.998901" width="24.0001" height="24.0001" rx="12.0001" stroke="#EDEDED"/>
</svg>
