<svg width="26" height="26" viewBox="0 0 26 26" fill="none" xmlns="http://www.w3.org/2000/svg">
<mask id="mask0_4812_146381" style="mask-type:alpha" maskUnits="userSpaceOnUse" x="1" y="0" width="24" height="25">
<circle cx="12.9999" cy="12.9991" r="12.0001" transform="rotate(-180 12.9999 12.9991)" fill="#D9D9D9"/>
</mask>
<g mask="url(#mask0_4812_146381)">
<rect x="25" y="0.999084" width="12.6667" height="24.0001" transform="rotate(90 25 0.999084)" fill="#DD2033"/>
<rect x="25" y="13.6658" width="11.3334" height="24.0001" transform="rotate(90 25 13.6658)" fill="#F5F7F8"/>
<path d="M8.79495 10.7385C9.15006 11.0222 9.53831 11.2351 9.94198 11.379C8.87583 11.6113 7.71783 11.3788 6.79889 10.6447C5.17992 9.3512 4.91603 6.9902 6.20949 5.37122C7.18281 4.15296 8.76061 3.702 10.1719 4.10453C9.38237 4.28483 8.65218 4.7182 8.11394 5.39189C6.82048 7.01087 7.12538 9.40463 8.79495 10.7385Z" fill="#F5F7F8"/>
<path d="M13.1367 4.89806L13.5341 3.9991L13.9316 4.89806L14.8675 5.01767L14.1772 5.6929L14.3582 6.66578L13.5341 6.11022L12.7101 6.66578L12.8911 5.6929L12.2008 5.01767L13.1367 4.89806Z" fill="#F5F7F8"/>
<path d="M10.47 6.89807L10.8675 5.99911L11.2649 6.89807L12.2008 7.01768L11.5105 7.69291L11.6915 8.66579L10.8675 8.11023L10.0434 8.66578L10.2244 7.69291L9.53412 7.01768L10.47 6.89807Z" fill="#F5F7F8"/>
<path d="M16.2008 5.99911L15.8034 6.89807L14.8675 7.01768L15.5578 7.69291L15.3768 8.66579L16.2008 8.11023L17.0249 8.66579L16.8439 7.69291L17.5342 7.01768L16.5982 6.89807L16.2008 5.99911Z" fill="#F5F7F8"/>
<path d="M11.47 9.89808L11.8675 8.99912L12.2649 9.89808L13.2008 10.0177L12.5105 10.6929L12.6915 11.6658L11.8675 11.1102L11.0434 11.6658L11.2244 10.6929L10.5341 10.0177L11.47 9.89808Z" fill="#F5F7F8"/>
<path d="M15.2008 8.99912L14.8034 9.89808L13.8675 10.0177L14.5578 10.6929L14.3768 11.6658L15.2008 11.1102L16.0249 11.6658L15.8438 10.6929L16.5342 10.0177L15.5982 9.89808L15.2008 8.99912Z" fill="#F5F7F8"/>
</g>
<rect x="1" y="0.999084" width="24.0001" height="24.0001" rx="12.0001" stroke="#EDEDED"/>
</svg>
