<svg width="26" height="26" viewBox="0 0 26 26" fill="none" xmlns="http://www.w3.org/2000/svg">
<mask id="mask0_4812_146382" style="mask-type:alpha" maskUnits="userSpaceOnUse" x="1" y="0" width="24" height="25">
<circle cx="13.0001" cy="12.9991" r="12.0001" fill="#D9D9D9"/>
</mask>
<g mask="url(#mask0_4812_146382)">
<rect x="1" y="0.999084" width="24.0001" height="24.0001" fill="#004692"/>
<path d="M14.4668 12.6658H21.4668V15.5802C21.4668 17.608 20.2307 19.4309 18.3468 20.1812L17.9668 20.3325L17.5868 20.1812C15.7029 19.4309 14.4668 17.608 14.4668 15.5803V12.6658Z" fill="#F1B434"/>
<circle cx="17.9662" cy="13.8325" r="0.833337" fill="#FDEFD3"/>
<mask id="mask1_4812_146382" style="mask-type:alpha" maskUnits="userSpaceOnUse" x="14" y="14" width="8" height="7">
<rect x="14.4668" y="14.9991" width="7.00003" height="5.33336" fill="#D9D9D9"/>
</mask>
<g mask="url(#mask1_4812_146382)">
<path d="M14.4668 12.6658H21.4668V15.5802C21.4668 17.608 20.2307 19.4309 18.3468 20.1812L17.9668 20.3325L17.5868 20.1812C15.7029 19.4309 14.4668 17.608 14.4668 15.5803V12.6658Z" fill="#86C5FA"/>
<rect x="14.4668" y="14.9991" width="7.00003" height="0.66667" fill="#31373D"/>
</g>
<mask id="mask2_4812_146382" style="mask-type:alpha" maskUnits="userSpaceOnUse" x="14" y="12" width="8" height="9">
<path d="M14.4668 12.6658H21.4668V15.5802C21.4668 17.608 20.2307 19.4309 18.3468 20.1812L17.9668 20.3325L17.5868 20.1812C15.7029 19.4309 14.4668 17.608 14.4668 15.5803V12.6658Z" fill="#F1B434"/>
</mask>
<g mask="url(#mask2_4812_146382)">
<path d="M17.9666 17.6658C17.0916 17.6658 17.0916 18.3931 16.2167 18.3931C15.3417 18.3931 15.3417 17.6658 14.4668 17.6658V18.9386C15.3417 18.9386 15.3417 19.6658 16.2167 19.6658C17.0916 19.6658 17.0916 18.9386 17.9666 18.9386C18.8416 18.9386 18.8416 19.6658 19.7167 19.6658C20.5918 19.6658 20.5917 18.9386 21.4668 18.9386V17.6658C20.5918 17.6658 20.5918 18.3931 19.7167 18.3931C18.8416 18.3931 18.8416 17.6658 17.9666 17.6658V17.6658Z" fill="#F5F7F8"/>
</g>
<path d="M18.1341 15.9991H17.4675V16.6658L16.8008 16.6658V17.3325H17.4675V18.6658H18.1341V17.3325H18.8008V16.6658L18.1341 16.6658V15.9991Z" fill="#936846"/>
<path d="M17.9668 19.4992C18.7952 19.4992 19.4668 18.8276 19.4668 17.9991H16.4668C16.4668 18.8276 17.1384 19.4992 17.9668 19.4992Z" fill="#31373D"/>
<mask id="mask3_4812_146382" style="mask-type:alpha" maskUnits="userSpaceOnUse" x="1" y="0" width="12" height="13">
<path d="M1 12.9991V12.9991C1 6.3717 6.37261 0.999088 13.0001 0.999088V0.999088L13.0001 12.9991L1 12.9991Z" fill="#002F6C"/>
</mask>
<g mask="url(#mask3_4812_146382)">
<rect x="1" y="0.999084" width="12.0001" height="12.0001" fill="#004692"/>
<path d="M5.17352 2.0437L4.46641 2.75081L14.3085 12.5929L15.0156 11.8858L5.17352 2.0437Z" fill="#F5F7F8"/>
<path d="M3.28789 3.92933L2.10938 5.10785L11.9514 14.9499L13.1299 13.7714L3.28789 3.92933Z" fill="#F5F7F8"/>
<path d="M3.28789 3.92933L4.46641 2.75081L14.3085 12.5929L13.1299 13.7714L3.28789 3.92933Z" fill="#DD2033"/>
<path d="M13 4.99908V6.66576L6.66667 6.66576L6.66667 12.9991H5V4.99908H13Z" fill="#F5F7F8"/>
<path d="M13.0001 0.332397V1.99907L2.66667 1.99907L2.66667 12.9991H1V0.332397H13.0001Z" fill="#F5F7F8"/>
<path fill-rule="evenodd" clip-rule="evenodd" d="M2 12.9991H5.00002L5.00002 4.9991L13.0001 4.9991V1.99908H5.00002H2L2 4.9991L2 12.9991Z" fill="#DD2033"/>
</g>
</g>
<rect x="1" y="0.999084" width="24.0001" height="24.0001" rx="12.0001" stroke="#EDEDED"/>
</svg>
