<svg width="26" height="26" viewBox="0 0 26 26" fill="none" xmlns="http://www.w3.org/2000/svg">
<mask id="mask0_4812_146384" style="mask-type:alpha" maskUnits="userSpaceOnUse" x="1" y="0" width="25" height="25">
<circle cx="13.002" cy="12.9991" r="12.0001" fill="#D9D9D9"/>
</mask>
<g mask="url(#mask0_4812_146384)">
<rect x="1.00195" y="0.999084" width="24.0001" height="24.0001" fill="#DD2033"/>
<path fill-rule="evenodd" clip-rule="evenodd" d="M7.80146 24.9992H5.80145L5.80146 16.8991H1.13477V14.8991H5.80146L5.80146 11.0991H1.13477V9.09914H5.80146L5.80146 0.999084H7.80146L7.80146 9.09914H11.6015L11.6015 0.999084H13.6015L13.6015 9.09914H25.1349V11.0991L13.6015 11.0991V14.8991L25.1349 14.8991V16.8991L13.6015 16.8991L13.6015 24.9992H11.6014L11.6015 16.8991H7.80146L7.80146 24.9992ZM11.6015 11.0991H7.80146L7.80146 14.8991H11.6015L11.6015 11.0991Z" fill="#F5F7F8"/>
<path d="M7.66865 24.9992H11.6687L11.6687 14.9991L25.0021 14.9992V10.9991L11.6687 10.9991L11.6687 0.999084H7.66865L7.66865 10.9991L1.00195 10.9991V14.9991H7.66865L7.66865 24.9992Z" fill="#004692"/>
</g>
<rect x="1.00195" y="0.999084" width="24.0001" height="24.0001" rx="12.0001" stroke="#EDEDED"/>
</svg>
