<svg width="26" height="26" viewBox="0 0 26 26" fill="none" xmlns="http://www.w3.org/2000/svg">
<mask id="mask0_4812_146385" style="mask-type:alpha" maskUnits="userSpaceOnUse" x="1" y="0" width="25" height="25">
<circle cx="13.002" cy="12.9991" r="12.0001" fill="#D9D9D9"/>
</mask>
<g mask="url(#mask0_4812_146385)">
<rect x="1.00195" y="24.9993" width="8.00004" height="24.0001" transform="rotate(-90 1.00195 24.9993)" fill="#DD2033"/>
<rect x="1.00195" y="16.9991" width="8.00004" height="24.0001" transform="rotate(-90 1.00195 16.9991)" fill="#005EB8"/>
<rect x="1.00195" y="8.99908" width="8.00004" height="24.0001" transform="rotate(-90 1.00195 8.99908)" fill="#F5F7F8"/>
<path d="M4.93555 7.33246H15.9356V17.1507L10.4356 19.3325L4.93555 17.1507V7.33246Z" fill="#DD2033"/>
<mask id="mask1_4812_146385" style="mask-type:alpha" maskUnits="userSpaceOnUse" x="4" y="7" width="12" height="13">
<path d="M4.93555 7.33246H15.9356V17.1507L10.4356 19.3325L4.93555 17.1507V7.33246Z" fill="#DD2033"/>
</mask>
<g mask="url(#mask1_4812_146385)">
<path d="M10.0013 8.33246H11.0013V9.33246L12.3347 9.33246V10.3325H11.0013V11.3325H13.3347V12.3325H11.0013V14.3325H10.0013V12.3325H7.66797V11.3325H10.0013V10.3325H8.66797L8.66797 9.33246L10.0013 9.33246V8.33246Z" fill="#F5F7F8"/>
<path d="M12.3126 22.1606C11.8127 22.8898 11.1552 23.3325 10.4349 23.3325C9.71464 23.3325 9.05713 22.8898 8.55721 22.1606C8.13732 22.8861 7.56531 23.3325 6.93491 23.3325C5.64624 23.3325 4.60156 21.467 4.60156 19.1658C4.60156 16.8646 5.64624 14.9992 6.93491 14.9992C7.41881 14.9992 7.8683 15.2622 8.241 15.7126C8.76059 14.6667 9.55043 13.9991 10.4349 13.9991C11.3194 13.9991 12.1093 14.6667 12.6288 15.7126C13.0015 15.2622 13.451 14.9992 13.9349 14.9992C15.2236 14.9992 16.2683 16.8646 16.2683 19.1658C16.2683 21.467 15.2236 23.3325 13.9349 23.3325C13.3045 23.3325 12.7325 22.8861 12.3126 22.1606Z" fill="#005EB8"/>
</g>
<path fill-rule="evenodd" clip-rule="evenodd" d="M3.93555 6.33246H16.9356V13.7874C16.9356 16.2276 15.4463 18.4206 13.1781 19.3204L10.4356 20.4083L7.69306 19.3204C5.42485 18.4206 3.93555 16.2276 3.93555 13.7874V6.33246ZM4.93555 7.33246V13.7874C4.93555 15.8177 6.17466 17.6422 8.06181 18.3909L10.4356 19.3325L12.8093 18.3909C14.6965 17.6422 15.9356 15.8177 15.9356 13.7874V7.33246H4.93555Z" fill="#F5F7F8"/>
</g>
<rect x="1.00195" y="0.999084" width="24.0001" height="24.0001" rx="12.0001" stroke="#EDEDED"/>
</svg>
