<svg width="26" height="26" viewBox="0 0 26 26" fill="none" xmlns="http://www.w3.org/2000/svg">
<mask id="mask0_4812_146387" style="mask-type:alpha" maskUnits="userSpaceOnUse" x="1" y="0" width="24" height="25">
<circle cx="12.9999" cy="12.9992" r="12.0001" transform="rotate(180 12.9999 12.9992)" fill="#D9D9D9"/>
</mask>
<g mask="url(#mask0_4812_146387)">
<rect x="25" y="0.999084" width="12.0001" height="24.0001" transform="rotate(90 25 0.999084)" fill="#F5F7F8"/>
<rect x="25" y="12.9991" width="12.0001" height="24.0001" transform="rotate(90 25 12.9991)" fill="#86C5FA"/>
<path d="M7.91322 10.4668C7.21229 11.4226 6.80078 12.5875 6.80078 13.8445C6.80078 16.7253 8.96215 19.1223 11.8154 19.6269C11.7542 19.6657 11.6962 19.7118 11.6428 19.7652C11.2523 20.1557 11.2523 20.7889 11.6428 21.1794L12.9964 19.8258L14.35 21.1794C14.7405 20.7889 14.7405 20.1557 14.35 19.7652C14.2885 19.7037 14.2209 19.6519 14.1492 19.6097C16.9563 19.0699 19.0707 16.6939 19.0707 13.8445C19.0707 12.5875 18.6592 11.4226 17.9583 10.4668L16.618 11.5664C17.0609 12.2226 17.318 13.0048 17.318 13.8445C17.318 16.1642 15.356 18.0447 12.9358 18.0447C10.5157 18.0447 8.55372 16.1642 8.55372 13.8445C8.55372 13.0048 8.81078 12.2227 9.25359 11.5665L7.91322 10.4668Z" fill="#009B77"/>
<path d="M10.1341 8.89136L15.8008 8.89136C16.2611 8.89136 16.6342 9.26446 16.6342 9.7247L16.6342 12.3793C16.6342 14.2102 15.5134 15.8544 13.8093 16.5236L12.9675 16.8542L12.1256 16.5236C10.4215 15.8544 9.30078 14.2102 9.30078 12.3793L9.30078 9.7247C9.30078 9.26446 9.67388 8.89136 10.1341 8.89136Z" fill="#86C5FA" stroke="#F1B434"/>
<path d="M11.4662 16.3914C11.7815 16.3914 12.0712 16.282 12.2995 16.099C12.5278 16.282 12.8175 16.3914 13.1328 16.3914C13.3757 16.3914 13.6034 16.3265 13.7995 16.213C13.9956 16.3265 14.2233 16.3914 14.4662 16.3914C15.2025 16.3914 15.7995 15.7945 15.7995 15.0581C15.7995 14.3217 15.2025 13.7247 14.4662 13.7247C14.2233 13.7247 13.9956 13.7897 13.7995 13.9031C13.6034 13.7897 13.3757 13.7247 13.1328 13.7247C12.8175 13.7247 12.5278 13.8342 12.2995 14.0172C12.0712 13.8342 11.7815 13.7247 11.4662 13.7247C10.7298 13.7247 10.1328 14.3217 10.1328 15.0581C10.1328 15.7945 10.7298 16.3914 11.4662 16.3914Z" fill="#008259"/>
<path fill-rule="evenodd" clip-rule="evenodd" d="M15.8008 9.39136L10.1341 9.39136C9.95003 9.39136 9.80079 9.5406 9.80079 9.7247L9.80079 12.3793C9.80079 14.0046 10.7957 15.4641 12.3084 16.0582L12.9675 16.317L13.6265 16.0582C15.1393 15.4641 16.1341 14.0046 16.1341 12.3793L16.1341 9.7247C16.1341 9.5406 15.9849 9.39136 15.8008 9.39136ZM12.9675 17.3914L13.9921 16.989C15.8876 16.2446 17.1342 14.4158 17.1342 12.3793L17.1342 9.7247C17.1342 8.98831 16.5372 8.39136 15.8008 8.39136L10.1341 8.39136C9.39774 8.39136 8.80078 8.98832 8.80078 9.7247L8.80078 12.3793C8.80078 14.4158 10.0474 16.2446 11.9428 16.989L12.9675 17.3914Z" fill="#F1B434"/>
<path d="M8.46745 18.7247H17.8008V19.3914H18.4675V21.3914H15.1341V20.7247H11.1341V21.3914H7.80078V19.3914H8.46745V18.7247Z" fill="#F5F7F8"/>
<path fill-rule="evenodd" clip-rule="evenodd" d="M13.1322 3.39136H12.4655V3.86752L11.7988 3.86752V4.53419H12.4655V5.10859C12.1931 4.92625 11.8655 4.81991 11.5131 4.81991C10.5663 4.81991 9.79883 5.58743 9.79883 6.53421C9.79883 7.04191 10.0195 7.49807 10.3702 7.81197V8.53421H15.2274V7.81199C15.5781 7.49809 15.7988 7.04192 15.7988 6.53421C15.7988 5.58743 15.0313 4.81991 14.0845 4.81991C13.7321 4.81991 13.4046 4.92625 13.1322 5.10858V4.53419H13.7988V3.86752L13.1322 3.86752V3.39136ZM12.7988 7.66815L12.7909 7.67706H12.8068L12.7988 7.66815ZM11.5163 7.39138L11.5131 7.39139C11.0397 7.39139 10.656 7.00763 10.656 6.53424C10.656 6.06085 11.0397 5.67709 11.5131 5.67709C11.9865 5.67709 12.3703 6.06085 12.3703 6.53424L12.3703 6.53745V7.39138H11.5163ZM14.9417 6.53424C14.9417 7.00763 14.558 7.39139 14.0846 7.39139L14.0814 7.39138H13.2274V6.53424C13.2274 6.06085 13.6112 5.67709 14.0846 5.67709C14.558 5.67709 14.9417 6.06085 14.9417 6.53424Z" fill="#F1B434"/>
</g>
<rect x="1" y="0.999084" width="24.0001" height="24.0001" rx="12.0001" stroke="#EDEDED"/>
</svg>
