<svg width="26" height="26" viewBox="0 0 26 26" fill="none" xmlns="http://www.w3.org/2000/svg">
<mask id="mask0_4812_146391" style="mask-type:alpha" maskUnits="userSpaceOnUse" x="1" y="0" width="24" height="25">
<circle cx="13.0001" cy="12.9993" r="12.0001" fill="#D9D9D9"/>
</mask>
<g mask="url(#mask0_4812_146391)">
<rect x="1" y="18.3326" width="10.6667" height="24.0001" transform="rotate(-90 1 18.3326)" fill="#F5F7F8"/>
<rect x="1.06641" y="16.3326" width="6.6667" height="24.0001" transform="rotate(-90 1.06641 16.3326)" fill="#DD2033"/>
<rect x="1" y="7.66589" width="6.6667" height="24.0001" transform="rotate(-90 1 7.66589)" fill="#31373D"/>
<rect x="1" y="24.9993" width="6.6667" height="24.0001" transform="rotate(-90 1 24.9993)" fill="#009B77"/>
<path d="M17.0001 12.9993L1 0.999207V24.9993L17.0001 12.9993Z" fill="#004692"/>
<path d="M5.07837 10.5446L5.8763 12.6072L4.57757 14.2865L6.75013 14.2625L8.00995 16.0984L8.43713 13.9034L10.6321 13.4762L8.79625 12.2164L8.82023 10.0438L7.14091 11.3426L5.07837 10.5446Z" fill="#FBD381"/>
</g>
<rect x="1" y="0.999207" width="24.0001" height="24.0001" rx="12.0001" stroke="#EDEDED"/>
</svg>
