<svg width="26" height="26" viewBox="0 0 26 26" fill="none" xmlns="http://www.w3.org/2000/svg">
<mask id="mask0_4812_146392" style="mask-type:alpha" maskUnits="userSpaceOnUse" x="1" y="0" width="24" height="25">
<circle cx="13.0001" cy="12.9993" r="12.0001" fill="#D9D9D9"/>
</mask>
<g mask="url(#mask0_4812_146392)">
<rect x="1" y="0.999207" width="24.0001" height="24.0001" fill="#009B77"/>
<rect x="1" y="16.9993" width="8.00004" height="24.0001" transform="rotate(-90 1 16.9993)" fill="#FBD381"/>
<path d="M15.2046 12.3477L15.8008 10.9993L16.3969 12.3477L17.8008 12.5271L16.7653 13.54L17.0369 14.9993L15.8008 14.1659L14.5647 14.9993L14.8362 13.54L13.8008 12.5271L15.2046 12.3477Z" fill="#31373D"/>
<path d="M20.4047 12.3477L21.0009 10.9993L21.597 12.3477L23.0009 12.5271L21.9654 13.54L22.2369 14.9993L21.0008 14.1659L19.7648 14.9993L20.0363 13.54L19.0008 12.5271L20.4047 12.3477Z" fill="#31373D"/>
<path d="M13.0001 12.9993L1 0.999207V24.9993L13.0001 12.9993Z" fill="#DD2033"/>
</g>
<rect x="1" y="0.999207" width="24.0001" height="24.0001" rx="12.0001" stroke="#EDEDED"/>
</svg>
