<svg width="26" height="26" viewBox="0 0 26 26" fill="none" xmlns="http://www.w3.org/2000/svg">
<mask id="mask0_4812_146393" style="mask-type:alpha" maskUnits="userSpaceOnUse" x="1" y="0" width="25" height="25">
<circle cx="13.002" cy="12.9993" r="12.0001" fill="#D9D9D9"/>
</mask>
<g mask="url(#mask0_4812_146393)">
<rect x="1.00195" y="0.999207" width="24.0001" height="24.0001" fill="#005EB8"/>
<rect x="1.00195" y="18.3326" width="10.6667" height="24.0001" transform="rotate(-90 1.00195 18.3326)" fill="#F5F7F8"/>
<path fill-rule="evenodd" clip-rule="evenodd" d="M7.66862 8.91443C7.24257 9.73859 7.00195 10.6742 7.00195 11.6659C7.00195 14.9796 9.68826 17.6659 13.002 17.6659C16.3157 17.6659 19.002 14.9796 19.002 11.6659C19.002 10.6742 18.7614 9.73859 18.3353 8.91443V9.05156L16.6012 9.91862C16.858 10.4465 17.002 11.0394 17.002 11.6659C17.002 13.8751 15.2111 15.6659 13.002 15.6659C10.7928 15.6659 9.00196 13.8751 9.00196 11.6659C9.00196 11.0394 9.146 10.4465 9.40276 9.91862L7.66862 9.05156V8.91443Z" fill="#009B77"/>
<path d="M13.002 8.99927L16.002 13.666H10.002L13.002 8.99927Z" fill="#FBD381"/>
<path d="M10.002 13.6659H16.002L14.502 11.3326H11.502L10.002 13.6659Z" fill="#009B77"/>
</g>
<rect x="1.00195" y="0.999207" width="24.0001" height="24.0001" rx="12.0001" stroke="#EDEDED"/>
</svg>
