<svg width="26" height="26" viewBox="0 0 26 26" fill="none" xmlns="http://www.w3.org/2000/svg">
<mask id="mask0_4812_146394" style="mask-type:alpha" maskUnits="userSpaceOnUse" x="1" y="0" width="25" height="25">
<circle cx="13.002" cy="12.9993" r="12.0001" fill="#D9D9D9"/>
</mask>
<g mask="url(#mask0_4812_146394)">
<rect x="1.00195" y="24.9993" width="12.0001" height="24.0001" transform="rotate(-90 1.00195 24.9993)" fill="#004692"/>
<rect x="1.00195" y="12.9993" width="12.0001" height="24.0001" transform="rotate(-90 1.00195 12.9993)" fill="#DD2033"/>
<path d="M17.002 12.9993L1.00195 0.999207V24.9993L17.002 12.9993Z" fill="#F5F7F8"/>
<path d="M6.83595 10.9993C7.66439 10.9993 8.33596 10.3277 8.33596 9.49927C8.33596 8.67084 7.66439 7.99927 6.83595 7.99927C6.00752 7.99927 5.33595 8.67084 5.33595 9.49927C5.33595 10.3277 6.00752 10.9993 6.83595 10.9993Z" fill="#FBD381"/>
<path d="M3.33594 16.9993V15.3326H10.336V16.9993H9.33597V17.9993H4.33594V16.9993H3.33594Z" fill="#FBD381"/>
<path d="M3.33594 9.33258H10.336V12.247C10.336 14.2748 9.09982 16.0977 7.21597 16.8479L6.83595 16.9993L6.45594 16.8479C4.57209 16.0977 3.33594 14.2748 3.33594 12.247V9.33258Z" fill="#86C5FA"/>
<path fill-rule="evenodd" clip-rule="evenodd" d="M9.33597 10.3326H4.33594V12.247C4.33594 13.8653 5.32248 15.3201 6.82594 15.9189L6.83595 15.9229L6.84597 15.9189C8.34942 15.3201 9.33597 13.8653 9.33597 12.247V10.3326ZM6.83595 16.9993L6.45594 16.8479C4.57209 16.0977 3.33594 14.2748 3.33594 12.247V9.33258H10.336V12.247C10.336 14.2748 9.09982 16.0977 7.21597 16.8479L6.83595 16.9993Z" fill="#DD2033"/>
<path d="M6.33594 11.3326L6.83594 10.8326L7.33595 11.3326V11.6659L8.33595 12.6659V14.3326H5.33594V12.6659L6.33594 11.6659V11.3326Z" fill="#F5F7F8"/>
</g>
<rect x="1.00195" y="0.999207" width="24.0001" height="24.0001" rx="12.0001" stroke="#EDEDED"/>
</svg>
