<svg width="26" height="26" viewBox="0 0 26 26" fill="none" xmlns="http://www.w3.org/2000/svg">
<mask id="mask0_4812_146396" style="mask-type:alpha" maskUnits="userSpaceOnUse" x="1" y="0" width="24" height="25">
<circle cx="13.0001" cy="12.9993" r="12.0001" fill="#D9D9D9"/>
</mask>
<g mask="url(#mask0_4812_146396)">
<rect x="1" y="0.999207" width="24.0001" height="24.0001" fill="#005EB8"/>
<rect x="1" y="20.3326" width="14.6667" height="24.0001" transform="rotate(-90 1 20.3326)" fill="#F1B434"/>
<rect x="1" y="18.3326" width="10.6667" height="24.0001" transform="rotate(-90 1 18.3326)" fill="#A00009"/>
<path d="M4.53321 11.6659L4.53321 10.6659L19.8666 10.6659V11.6659L4.53321 11.6659Z" fill="#F1B434"/>
<path d="M7.19989 13.6659V12.6659L22.5333 12.6659V13.6659L7.19989 13.6659Z" fill="#F1B434"/>
<path d="M3.5332 14.9992V15.9993L18.8666 15.9993V14.9992L3.5332 14.9992Z" fill="#F1B434"/>
<path d="M20.334 13.0336L19.8364 13.6331C18.0393 15.7981 16.2539 16.986 14.519 17.4443C12.7668 17.9071 11.1991 17.5907 9.92813 16.9928C8.67468 16.4031 7.69316 15.5344 7.03739 14.8393C6.70586 14.4879 6.44837 14.171 6.27203 13.9394C6.18368 13.8234 6.1152 13.7281 6.06748 13.6598L5.98701 13.5413L5.66725 13.0477L5.9752 12.5474L6.05334 12.4264C6.0997 12.3568 6.1663 12.2596 6.25237 12.1412C6.42413 11.9049 6.67544 11.5815 7.00025 11.2228C7.64238 10.5135 8.60871 9.62517 9.85498 9.02165C11.1207 8.40869 12.6885 8.08607 14.4521 8.55852C16.1946 9.02531 17.9991 10.2337 19.835 12.4352L20.334 13.0336Z" fill="#31373D"/>
<path fill-rule="evenodd" clip-rule="evenodd" d="M13.0078 16.6974L11.8672 15.6659L13.3416 14.3326L11.8672 12.9993L13.3416 11.6659L11.8672 10.3326L13.005 9.30365C14.758 9.38457 16.8053 10.3565 19.039 13.035C16.8288 15.6977 14.7754 16.6409 13.0078 16.6974ZM14.8672 11.6659H14.2005V14.3326H14.8672V11.6659ZM16.2006 11.6659H15.5339V14.3326H16.2006V11.6659Z" fill="#F5F7F8"/>
<path d="M8.86719 11.6659H9.53386V14.3326H8.86719V11.6659Z" fill="#F5F7F8"/>
<path d="M10.2005 11.6659H10.8672V14.3326H10.2005V11.6659Z" fill="#F5F7F8"/>
</g>
<rect x="1" y="0.999207" width="24.0001" height="24.0001" rx="12.0001" stroke="#EDEDED"/>
</svg>
