<svg width="26" height="26" viewBox="0 0 26 26" fill="none" xmlns="http://www.w3.org/2000/svg">
<mask id="mask0_4812_146397" style="mask-type:alpha" maskUnits="userSpaceOnUse" x="1" y="0" width="24" height="25">
<circle cx="13.0001" cy="12.9993" r="12.0001" fill="#D9D9D9"/>
</mask>
<g mask="url(#mask0_4812_146397)">
<rect x="1" y="0.999207" width="24.0001" height="24.0001" fill="#004692"/>
<path d="M14.4668 12.666H21.4668V15.5804C21.4668 17.6081 20.2307 19.431 18.3468 20.1813L17.9668 20.3327L17.5868 20.1813C15.7029 19.431 14.4668 17.6081 14.4668 15.5804V12.666Z" fill="#F1B434"/>
<circle cx="16.4668" cy="14.666" r="1" fill="#FDEFD3"/>
<circle cx="19.4668" cy="14.666" r="1" fill="#936846"/>
<circle cx="17.9675" cy="17.4993" r="1.16667" fill="#008259"/>
<mask id="mask1_4812_146397" style="mask-type:alpha" maskUnits="userSpaceOnUse" x="1" y="0" width="12" height="13">
<path d="M1 12.9993V12.9993C1 6.37182 6.37261 0.99921 13.0001 0.99921V0.99921L13.0001 12.9993L1 12.9993Z" fill="#002F6C"/>
</mask>
<g mask="url(#mask1_4812_146397)">
<rect x="1" y="0.999207" width="12.0001" height="12.0001" fill="#004692"/>
<path d="M5.17352 2.04383L4.46641 2.75094L14.3085 12.593L15.0156 11.8859L5.17352 2.04383Z" fill="#F5F7F8"/>
<path d="M3.28789 3.92945L2.10938 5.10797L11.9514 14.95L13.1299 13.7715L3.28789 3.92945Z" fill="#F5F7F8"/>
<path d="M3.28789 3.92945L4.46641 2.75094L14.3085 12.593L13.1299 13.7715L3.28789 3.92945Z" fill="#DD2033"/>
<path d="M13 4.99921V6.66588L6.66667 6.66588L6.66667 12.9993H5V4.99921H13Z" fill="#F5F7F8"/>
<path d="M13.0001 0.33252V1.99919L2.66667 1.99919L2.66667 12.9992H1V0.33252H13.0001Z" fill="#F5F7F8"/>
<path fill-rule="evenodd" clip-rule="evenodd" d="M2 12.9993H5.00002L5.00002 4.99922L13.0001 4.99922V1.99921H5.00002H2L2 4.99922L2 12.9993Z" fill="#DD2033"/>
</g>
</g>
<rect x="1" y="0.999207" width="24.0001" height="24.0001" rx="12.0001" stroke="#EDEDED"/>
</svg>
