<svg width="26" height="26" viewBox="0 0 26 26" fill="none" xmlns="http://www.w3.org/2000/svg">
<mask id="mask0_4812_146399" style="mask-type:alpha" maskUnits="userSpaceOnUse" x="1" y="0" width="24" height="25">
<circle cx="13.0001" cy="12.9994" r="12.0001" fill="#D9D9D9"/>
</mask>
<g mask="url(#mask0_4812_146399)">
<rect x="1" y="0.99939" width="24.0001" height="24.0001" fill="#004692"/>
<rect x="1" y="0.99939" width="12.6667" height="12.6667" fill="#F5F7F8"/>
<rect width="4.00002" height="12.0001" transform="matrix(1 1.31134e-07 6.55671e-08 -1 1 12.9995)" fill="#004692"/>
<rect width="4.00002" height="12" transform="matrix(1 1.31134e-07 6.55671e-08 -1 9 12.9996)" fill="#DD2033"/>
<path d="M13.666 15.6661L13.0699 17.0146L11.666 17.194L12.7015 18.2068L12.4299 19.6662L13.666 18.8328L14.9021 19.6662L14.6306 18.2068L15.666 17.194L14.2622 17.0146L13.666 15.6661Z" fill="#F5F7F8"/>
<path fill-rule="evenodd" clip-rule="evenodd" d="M15.9204 15.6661L16.7084 16.9474H18.9599V21.4162L17.2713 18.7287L14.9994 22.4162H16.1046L16.3277 22.0099H18.2121L19.0674 23.5724H20.2647L21.12 22.0099H23.0044L23.2275 22.4162H24.3327L22.0608 18.7287L20.3722 21.4162V18.9474H21.3854L22.1376 17.7286H20.3722V16.9474H22.6237L23.4117 15.6661H15.9204ZM17.7332 21.1349L17.2713 20.2912L16.8081 21.1349H17.7332ZM22.524 21.1349H21.599L22.0608 20.2912L22.524 21.1349Z" fill="#F5F7F8"/>
<path d="M15.0699 24.6813L15.666 23.3328L16.2622 24.6813L17.666 24.8607L16.6306 25.8736L16.9021 27.3329L15.666 26.4995L14.4299 27.3329L14.7015 25.8736L13.666 24.8607L15.0699 24.6813Z" fill="#F5F7F8"/>
</g>
<rect x="1" y="0.99939" width="24.0001" height="24.0001" rx="12.0001" stroke="#EDEDED"/>
</svg>
