<svg width="26" height="26" viewBox="0 0 26 26" fill="none" xmlns="http://www.w3.org/2000/svg">
<mask id="mask0_4812_146400" style="mask-type:alpha" maskUnits="userSpaceOnUse" x="0" y="0" width="25" height="25">
<circle cx="12.9981" cy="12.9994" r="12.0001" fill="#D9D9D9"/>
</mask>
<g mask="url(#mask0_4812_146400)">
<rect x="0.998047" y="24.9995" width="24.0001" height="24.0001" transform="rotate(-90 0.998047 24.9995)" fill="#009B77"/>
<rect x="0.998047" y="10.3328" width="4.66669" height="24.0001" transform="rotate(-90 0.998047 10.3328)" fill="#F1B434"/>
<rect x="0.998047" y="20.3328" width="4.66669" height="24.0001" transform="rotate(-90 0.998047 20.3328)" fill="#F1B434"/>
<rect x="0.998047" y="15.6661" width="14.6667" height="14.6667" transform="rotate(-90 0.998047 15.6661)" fill="#DD2033"/>
<path d="M8.99743 5.66608L8.00384 7.91348L5.66406 8.21251L7.38983 9.90059L6.93725 12.3328L8.99741 10.9439L11.0576 12.3328L10.605 9.90059L12.3308 8.21251L9.99098 7.91348L8.99743 5.66608Z" fill="#F5F7F8"/>
</g>
<rect x="0.998047" y="0.99939" width="24.0001" height="24.0001" rx="12.0001" stroke="#EDEDED"/>
</svg>
