<svg width="26" height="26" viewBox="0 0 26 26" fill="none" xmlns="http://www.w3.org/2000/svg">
<mask id="mask0_4812_146402" style="mask-type:alpha" maskUnits="userSpaceOnUse" x="1" y="0" width="24" height="25">
<circle cx="13.0001" cy="12.9994" r="12.0001" fill="#D9D9D9"/>
</mask>
<g mask="url(#mask0_4812_146402)">
<rect x="1" y="24.9996" width="8.00004" height="24.0001" transform="rotate(-90 1 24.9996)" fill="#008259"/>
<rect x="1" y="16.9995" width="8.00004" height="24.0001" transform="rotate(-90 1 16.9995)" fill="#F5F7F8"/>
<rect x="1" y="8.99939" width="8.00004" height="24.0001" transform="rotate(-90 1 8.99939)" fill="#DD2033"/>
<path d="M12.1263 6.78978L12.6231 5.66608L13.1199 6.78978L14.2898 6.93929L13.4269 7.78333L13.6532 8.99943L12.6231 8.30498L11.593 8.99943L11.8193 7.78333L10.9564 6.93929L12.1263 6.78978Z" fill="#F1B434"/>
<path d="M13.1342 10.9994L14.8485 12.7137L15.8008 11.9994L17.1342 12.9994L16.7439 14.9995H9.52439L9.13414 12.9994L10.4675 11.9994L11.4199 12.7137L13.1342 10.9994Z" fill="#F1B434"/>
<path d="M6.84477 7.63416L7.08235 8.83959L6.20979 9.63309L7.40074 9.82956L7.9129 10.9555L8.35837 9.79583L9.60048 9.77386L8.7176 8.90749L8.94031 7.72116L7.89623 8.26971L6.84477 7.63416Z" fill="#F1B434"/>
<path d="M4.97067 12.1231L5.46746 10.9994L5.96424 12.1231L7.13413 12.2726L6.27125 13.1167L6.49754 14.3328L5.46746 13.6383L4.43738 14.3328L4.66366 13.1167L3.80078 12.2726L4.97067 12.1231Z" fill="#F1B434"/>
<path d="M20.1342 10.9994L19.6374 12.1231L18.4675 12.2727L19.3304 13.1167L19.1041 14.3328L20.1342 13.6383L21.1643 14.3328L20.938 13.1167L21.8009 12.2727L20.631 12.1231L20.1342 10.9994Z" fill="#F1B434"/>
<path d="M17.372 8.26971L18.4235 7.63417L18.1859 8.83959L19.0585 9.63309L17.8675 9.82956L17.3553 10.9555L16.9099 9.79583L15.6678 9.77386L16.5506 8.90749L16.3279 7.72116L17.372 8.26971Z" fill="#F1B434"/>
</g>
<rect x="1" y="0.99939" width="24.0001" height="24.0001" rx="12.0001" stroke="#EDEDED"/>
</svg>
