<svg width="26" height="26" viewBox="0 0 26 26" fill="none" xmlns="http://www.w3.org/2000/svg">
<mask id="mask0_4812_146403" style="mask-type:alpha" maskUnits="userSpaceOnUse" x="1" y="0" width="25" height="25">
<circle cx="13.002" cy="12.9994" r="12.0001" fill="#D9D9D9"/>
</mask>
<g mask="url(#mask0_4812_146403)">
<rect x="1.00195" y="0.99939" width="24.0001" height="24.0001" fill="#004692"/>
<path d="M8.40173 12.9994L7.70622 14.5726L6.06837 14.7819L7.2764 15.9636L6.9596 17.6661L8.40171 16.6939L9.84383 17.6661L9.52702 15.9636L10.7351 14.7819L9.09721 14.5726L8.40173 12.9994Z" fill="#F5F7F8"/>
<path d="M5.73504 7.99941L5.23825 9.12311L4.06836 9.27263L4.93124 10.1167L4.70495 11.3328L5.73503 10.6383L6.76511 11.3328L6.53883 10.1167L7.40171 9.27263L6.23182 9.12311L5.73504 7.99941Z" fill="#F5F7F8"/>
<path d="M8.40172 3.99939L7.90493 5.12309L6.73504 5.27261L7.59792 6.11665L7.37163 7.33274L8.40171 6.63829L9.43179 7.33274L9.20551 6.11665L10.0684 5.27261L8.8985 5.12309L8.40172 3.99939Z" fill="#F5F7F8"/>
<path d="M11.4017 7.33274L10.9049 8.45644L9.73505 8.60596L10.5979 9.45L10.3716 10.6661L11.4017 9.97164L12.4318 10.6661L12.2055 9.45L13.0684 8.60596L11.8985 8.45644L11.4017 7.33274Z" fill="#F5F7F8"/>
<path d="M13.0684 15.6661H25.4018V17.6662H13.0684V15.6661Z" fill="#F1B434"/>
<path d="M25.7351 14.6661H13.0684C17.527 9.55735 23.3706 6.31522 25.7351 5.33276V14.6661Z" fill="#F1B434"/>
</g>
<rect x="1.00195" y="0.99939" width="24.0001" height="24.0001" rx="12.0001" stroke="#EDEDED"/>
</svg>
