<svg width="26" height="26" viewBox="0 0 26 26" fill="none" xmlns="http://www.w3.org/2000/svg">
<mask id="mask0_4812_146405" style="mask-type:alpha" maskUnits="userSpaceOnUse" x="1" y="0" width="25" height="25">
<circle cx="13.002" cy="12.9994" r="12.0001" fill="#D9D9D9"/>
</mask>
<g mask="url(#mask0_4812_146405)">
<rect x="1.00195" y="0.99939" width="24.0001" height="24.0001" fill="#009B77"/>
<path d="M13.6381 4.69412L13.9362 4.0199L14.2343 4.69412L14.9362 4.78383L14.4185 5.29025L14.5543 6.01991L13.9362 5.60324L13.3182 6.01991L13.4539 5.29025L12.9362 4.78383L13.6381 4.69412Z" fill="#F5F7F8"/>
<path d="M16.3048 6.36079L16.6029 5.68657L16.901 6.36079L17.6029 6.4505L17.0852 6.95693L17.2209 7.68658L16.6029 7.26991L15.9848 7.68658L16.1206 6.95693L15.6029 6.4505L16.3048 6.36079Z" fill="#F5F7F8"/>
<path d="M13.6381 7.69413L13.9362 7.01991L14.2343 7.69413L14.9362 7.78384L14.4185 8.29027L14.5543 9.01992L13.9362 8.60325L13.3182 9.01992L13.4539 8.29027L12.9362 7.78384L13.6381 7.69413Z" fill="#F5F7F8"/>
<path d="M11.2695 8.35325L10.9715 9.02747L10.2695 9.11718L10.7873 9.62361L10.6515 10.3533L11.2695 9.93659L11.8876 10.3533L11.7518 9.62361L12.2695 9.11718L11.5676 9.02747L11.2695 8.35325Z" fill="#F5F7F8"/>
<path d="M13.9362 10.0199L13.6381 10.6941L12.9362 10.7839L13.4539 11.2903L13.3182 12.0199L13.9362 11.6033L14.5543 12.0199L14.4185 11.2903L14.9362 10.7839L14.2343 10.6941L13.9362 10.0199Z" fill="#F5F7F8"/>
<path d="M19.4991 7.88195C19.2473 6.42329 18.3843 5.22829 17.2304 4.53033C19.1593 4.94729 20.7368 6.49462 21.0931 8.55878C21.5617 11.2734 19.741 13.8539 17.0264 14.3225C15.3027 14.62 13.6331 13.9946 12.5239 12.8034C13.4515 13.3749 14.571 13.6235 15.7136 13.4263C18.2571 12.9872 19.9519 10.5049 19.4991 7.88195Z" fill="#F5F7F8"/>
<rect x="0.935547" y="24.9995" width="24.0001" height="8.00004" transform="rotate(-90 0.935547 24.9995)" fill="#DD2033"/>
<path d="M7.43558 5.66608L8.93559 7.16609V4.16608L7.43558 5.66608Z" fill="#E26E00"/>
<path d="M7.43558 10.8328L8.93559 12.3328V9.33277L7.43558 10.8328Z" fill="#E26E00"/>
<path d="M2.43555 10.8328L0.935547 12.3328V9.33277L2.43555 10.8328Z" fill="#E26E00"/>
<path d="M7.43558 15.9995L8.93559 17.4995V14.4995L7.43558 15.9995Z" fill="#E26E00"/>
<path d="M2.43555 15.9995L0.935547 17.4995V14.4995L2.43555 15.9995Z" fill="#E26E00"/>
<path d="M7.43558 21.1662L8.93559 22.6662V19.6662L7.43558 21.1662Z" fill="#E26E00"/>
<path fill-rule="evenodd" clip-rule="evenodd" d="M6.0008 12.3328H4.20235L3.60157 12.8134V13.8521L4.20235 14.3328H6.0008L6.60158 13.8521V12.8134L6.0008 12.3328ZM6.35158 11.3328H3.85157L2.60156 12.3328V14.3328L3.85157 15.3328H6.35158L7.60159 14.3328V12.3328L6.35158 11.3328Z" fill="#009B77"/>
<path fill-rule="evenodd" clip-rule="evenodd" d="M6.0008 17.3328H4.20235L3.60157 17.8134V18.8522L4.20235 19.3328H6.0008L6.60158 18.8522V17.8134L6.0008 17.3328ZM6.35158 16.3328H3.85157L2.60156 17.3328V19.3328L3.85157 20.3328H6.35158L7.60159 19.3328V17.3328L6.35158 16.3328Z" fill="#009B77"/>
<path fill-rule="evenodd" clip-rule="evenodd" d="M6.0008 7.33273H4.20235L3.60157 7.81336V8.85211L4.20235 9.33274H6.0008L6.60158 8.85211V7.81336L6.0008 7.33273ZM6.35158 6.33273H3.85157L2.60156 7.33273V9.33274L3.85157 10.3327H6.35158L7.60159 9.33274V7.33273L6.35158 6.33273Z" fill="#009B77"/>
<path fill-rule="evenodd" clip-rule="evenodd" d="M6.0008 2.33271H4.20235L3.60157 2.81333V3.85209L4.20235 4.33272H6.0008L6.60158 3.85209V2.81333L6.0008 2.33271ZM6.35158 1.3327H3.85157L2.60156 2.33271V4.33272L3.85157 5.33272H6.35158L7.60159 4.33272V2.33271L6.35158 1.3327Z" fill="#009B77"/>
<path fill-rule="evenodd" clip-rule="evenodd" d="M6.0008 22.3328H4.20235L3.60157 22.8134V23.8522L4.20235 24.3328H6.0008L6.60158 23.8522V22.8134L6.0008 22.3328ZM6.35158 21.3328H3.85157L2.60156 22.3328V24.3328L3.85157 25.3328H6.35158L7.60159 24.3328V22.3328L6.35158 21.3328Z" fill="#009B77"/>
</g>
<rect x="1.00195" y="0.99939" width="24.0001" height="24.0001" rx="12.0001" stroke="#EDEDED"/>
</svg>
