<svg width="26" height="26" viewBox="0 0 26 26" fill="none" xmlns="http://www.w3.org/2000/svg">
<mask id="mask0_4812_146406" style="mask-type:alpha" maskUnits="userSpaceOnUse" x="1" y="0" width="24" height="25">
<circle cx="13.0001" cy="12.9994" r="12.0001" fill="#D9D9D9"/>
</mask>
<g mask="url(#mask0_4812_146406)">
<rect x="1" y="0.99939" width="24.0001" height="24.0001" fill="#DD2033"/>
<path fill-rule="evenodd" clip-rule="evenodd" d="M13.0013 20.0069C17.0514 20.0069 20.3347 16.7966 20.3347 12.8365C20.3347 8.87638 17.0514 5.66608 13.0013 5.66608C8.95123 5.66608 5.66797 8.87638 5.66797 12.8365C5.66797 16.7966 8.95123 20.0069 13.0013 20.0069ZM14.3347 8.73276C15.596 8.73276 16.7295 9.28005 17.5106 10.1501C16.5653 8.65723 14.8991 7.66609 13.0013 7.66609C10.0558 7.66609 7.66798 10.0539 7.66798 12.9994C7.66798 15.945 10.0558 18.3328 13.0013 18.3328C14.899 18.3328 16.5653 17.3417 17.5106 15.8488C16.7295 16.7188 15.596 17.2661 14.3347 17.2661C11.9783 17.2661 10.068 15.3559 10.068 12.9994C10.068 10.643 11.9783 8.73276 14.3347 8.73276ZM15.3407 11.5871L17.3574 10.8069L16.5772 12.8236L17.847 14.4656L15.7227 14.4422L14.4909 16.2373L14.0732 14.0911L11.927 13.6734L13.7221 12.4415L13.6986 10.3173L15.3407 11.5871Z" fill="#F5F7F8"/>
</g>
<rect x="1" y="0.99939" width="24.0001" height="24.0001" rx="12.0001" stroke="#EDEDED"/>
</svg>
