<svg width="26" height="26" viewBox="0 0 26 26" fill="none" xmlns="http://www.w3.org/2000/svg">
<mask id="mask0_4812_146408" style="mask-type:alpha" maskUnits="userSpaceOnUse" x="1" y="0" width="24" height="25">
<circle cx="13.0001" cy="12.9994" r="12.0001" fill="#D9D9D9"/>
</mask>
<g mask="url(#mask0_4812_146408)">
<rect x="1" y="24.9995" width="24.0001" height="24.0001" transform="rotate(-90 1 24.9995)" fill="#DD2033"/>
<path d="M16.2976 10.223L15.9573 12.4081L13.9929 13.2131L15.8864 14.2786L16.0595 16.4984L17.527 14.8111L19.6415 15.5387L18.6815 13.5297L19.7885 11.6602L17.6848 11.9453L16.2976 10.223Z" fill="#F5F7F8"/>
<path d="M14.4493 9.52856C13.7968 9.10069 13.0163 8.85185 12.1777 8.85185C9.88673 8.85185 8.02953 10.709 8.02953 13C8.02953 15.291 9.88673 17.1482 12.1777 17.1482C13.0153 17.1482 13.7949 16.8999 14.447 16.473C13.4689 17.6116 12.0186 18.3328 10.3998 18.3328C7.45423 18.3328 5.06641 15.945 5.06641 12.9994C5.06641 10.0539 7.45423 7.66608 10.3998 7.66608C12.0198 7.66608 13.4712 8.3884 14.4493 9.52856Z" fill="#F5F7F8"/>
</g>
<rect x="1" y="0.99939" width="24.0001" height="24.0001" rx="12.0001" stroke="#EDEDED"/>
</svg>
