<svg width="26" height="26" viewBox="0 0 26 26" fill="none" xmlns="http://www.w3.org/2000/svg">
<mask id="mask0_4812_146410" style="mask-type:alpha" maskUnits="userSpaceOnUse" x="0" y="0" width="25" height="25">
<circle cx="12.9981" cy="12.9996" r="12.0001" fill="#D9D9D9"/>
</mask>
<g mask="url(#mask0_4812_146410)">
<rect x="0.998047" y="0.999573" width="24.0001" height="24.0001" fill="#0091DA"/>
<path d="M18.599 9.66626L18.1022 10.79L16.9323 10.9395L17.7952 11.7835L17.5689 12.9996L18.599 12.3052L19.6291 12.9996L19.4028 11.7835L20.2657 10.9395L19.0958 10.79L18.599 9.66626Z" fill="#FBD381"/>
<path d="M14.4323 13.8896L14.5639 15.1111L13.6255 15.8255L14.7948 16.1251L15.2069 17.2914L15.7518 16.1749L16.9911 16.2613L16.187 15.3213L16.5123 14.1589L15.4244 14.6143L14.4323 13.8896Z" fill="#FBD381"/>
<path d="M20.2657 15.333L19.7689 16.4567L18.599 16.6062L19.4619 17.4502L19.2356 18.6663L20.2657 17.9719L21.2958 18.6663L21.0695 17.4502L21.9323 16.6062L20.7625 16.4567L20.2657 15.333Z" fill="#FBD381"/>
<path d="M16.1676 18.0564L15.9786 19.2704L14.8873 19.7176L15.9392 20.3096L16.0354 21.5428L16.8506 20.6054L18.0253 21.0096L17.492 19.8935L18.107 18.8549L16.9383 19.0133L16.1676 18.0564Z" fill="#FBD381"/>
<path d="M11.9323 19.6663L11.4355 20.79L10.2656 20.9395L11.1285 21.7836L10.9022 22.9997L11.9323 22.3052L12.9624 22.9997L12.7361 21.7836L13.599 20.9395L12.4291 20.79L11.9323 19.6663Z" fill="#FBD381"/>
<mask id="mask1_4812_146410" style="mask-type:alpha" maskUnits="userSpaceOnUse" x="0" y="0" width="13" height="13">
<path d="M0.998047 12.9996V12.9996C0.998047 6.37218 6.37065 0.999576 12.9981 0.999576V0.999576L12.9981 12.9996L0.998047 12.9996Z" fill="#002F6C"/>
</mask>
<g mask="url(#mask1_4812_146410)">
<rect x="0.998047" y="0.999573" width="12.0001" height="12.0001" fill="#004692"/>
<path d="M5.17157 2.04419L4.46446 2.7513L14.3065 12.5933L15.0136 11.8862L5.17157 2.04419Z" fill="#F5F7F8"/>
<path d="M3.28594 3.92982L2.10742 5.10834L11.9495 14.9504L13.128 13.7719L3.28594 3.92982Z" fill="#F5F7F8"/>
<path d="M3.28594 3.92982L4.46446 2.7513L14.3065 12.5933L13.128 13.7719L3.28594 3.92982Z" fill="#DD2033"/>
<path d="M12.9981 4.99957V6.66625L6.66472 6.66625L6.66472 12.9996H4.99805V4.99957H12.9981Z" fill="#F5F7F8"/>
<path d="M12.9981 0.332886V1.99956L2.66472 1.99956L2.66472 12.9996H0.998047V0.332886H12.9981Z" fill="#F5F7F8"/>
<path fill-rule="evenodd" clip-rule="evenodd" d="M1.99805 12.9996H4.99806L4.99806 4.99959L12.9981 4.99959V1.99957H4.99806H1.99805L1.99805 4.99959L1.99805 12.9996Z" fill="#DD2033"/>
</g>
</g>
<rect x="0.998047" y="0.999573" width="24.0001" height="24.0001" rx="12.0001" stroke="#EDEDED"/>
</svg>
