<svg width="26" height="26" viewBox="0 0 26 26" fill="none" xmlns="http://www.w3.org/2000/svg">
<mask id="mask0_4812_146414" style="mask-type:alpha" maskUnits="userSpaceOnUse" x="1" y="0" width="25" height="25">
<circle cx="13.002" cy="12.9996" r="12.0001" fill="#D9D9D9"/>
</mask>
<g mask="url(#mask0_4812_146414)">
<rect x="1.00195" y="16.9996" width="16.0001" height="24.0001" transform="rotate(-90 1.00195 16.9996)" fill="#31373D"/>
<rect x="1.00195" y="8.99963" width="4.00002" height="24.0001" transform="rotate(-90 1.00195 8.99963)" fill="#F1B434"/>
<rect x="1.00195" y="24.9997" width="4.00002" height="24.0001" transform="rotate(-90 1.00195 24.9997)" fill="#DD2033"/>
<rect x="1.00195" y="12.9996" width="4.00002" height="24.0001" transform="rotate(-90 1.00195 12.9996)" fill="#DD2033"/>
<rect x="1.00195" y="20.9997" width="4.00002" height="24.0001" transform="rotate(-90 1.00195 20.9997)" fill="#F1B434"/>
<circle cx="12.6687" cy="12.9996" r="6.6667" fill="#F5F7F8"/>
<path fill-rule="evenodd" clip-rule="evenodd" d="M13.2755 14.5521L12.3786 13.543L12.6277 13.3216L13.5246 14.3306C13.7966 14.6365 13.6058 15.1217 13.1983 15.1605L10.8362 15.3855C10.7197 15.3966 10.6506 15.5212 10.703 15.6259L10.8189 15.8578L10.5208 16.0069L10.4048 15.775C10.2478 15.4609 10.455 15.087 10.8046 15.0537L13.1667 14.8287C13.3025 14.8158 13.3661 14.654 13.2755 14.5521Z" fill="#31373D"/>
<path d="M11.3359 15.2657V15.2657C11.1062 15.2657 10.9568 15.5074 11.0595 15.7129L11.1693 15.9324" stroke="#31373D" stroke-width="0.333335"/>
<path d="M11.3359 15.2657L11.5026 15.599" stroke="#31373D" stroke-width="0.333335"/>
<path fill-rule="evenodd" clip-rule="evenodd" d="M14.4709 15.5165C15.0866 15.1755 15.5034 14.5193 15.5034 13.7656C15.5034 12.6611 14.6079 11.7656 13.5034 11.7656C12.9084 11.7656 12.3742 12.0254 12.0078 12.4377C13.4008 12.5259 14.5034 13.6837 14.5034 15.099C14.5034 15.241 14.4923 15.3804 14.4709 15.5165Z" fill="#31373D"/>
<path fill-rule="evenodd" clip-rule="evenodd" d="M12.482 10.233C11.6701 10.3819 11.003 11.0279 10.8673 11.8895C10.6954 12.9806 11.4406 14.0045 12.5317 14.1764C13.3003 14.2975 14.0355 13.9635 14.4631 13.3742C13.1259 13.0515 12.2396 11.75 12.4573 10.3675C12.4645 10.3222 12.4727 10.2774 12.482 10.233Z" fill="#31373D"/>
<path d="M13.2698 9.1454C13.1485 8.51259 12.5371 8.09796 11.9043 8.2193L12.124 9.3651L13.2698 9.1454Z" fill="#DD2033"/>
<circle cx="12.0033" cy="9.59902" r="0.833337" fill="#31373D"/>
<path d="M10.5039 10.099L11.5039 9.43231L11.8372 9.93231L10.5039 10.099Z" fill="#31373D"/>
<path fill-rule="evenodd" clip-rule="evenodd" d="M14.127 13.7342C14.3653 14.1334 14.5022 14.6002 14.5022 15.099C14.5022 15.241 14.4911 15.3805 14.4697 15.5165C15.0854 15.1755 15.5022 14.5193 15.5022 13.7657C15.5022 13.1762 15.2472 12.6463 14.8415 12.2803C14.8384 12.357 14.8308 12.4343 14.8185 12.512C14.7402 13.0093 14.4849 13.4347 14.127 13.7342Z" fill="#DD2033"/>
<path d="M12.5026 13.4324V17.0991M12.5026 17.0991H11.3359M12.5026 17.0991L12.0026 17.7657M12.5026 17.0991L13.1693 17.2657" stroke="#31373D" stroke-width="0.333335"/>
</g>
<rect x="1.00195" y="0.999573" width="24.0001" height="24.0001" rx="12.0001" stroke="#EDEDED"/>
</svg>
