<svg width="26" height="26" viewBox="0 0 26 26" fill="none" xmlns="http://www.w3.org/2000/svg">
<mask id="mask0_4812_146415" style="mask-type:alpha" maskUnits="userSpaceOnUse" x="1" y="0" width="25" height="25">
<circle cx="13.002" cy="12.9996" r="12.0001" fill="#D9D9D9"/>
</mask>
<g mask="url(#mask0_4812_146415)">
<rect x="1.00195" y="21.9997" width="21.0001" height="24.0001" transform="rotate(-90 1.00195 21.9997)" fill="#F5F7F8"/>
<rect x="13.002" y="6.99957" width="3.00001" height="12.0001" transform="rotate(-90 13.002 6.99957)" fill="#DD2033"/>
<rect x="13.002" y="12.9996" width="3.00001" height="12.0001" transform="rotate(-90 13.002 12.9996)" fill="#DD2033"/>
<rect x="1.00195" y="18.9996" width="3.00001" height="24.0001" transform="rotate(-90 1.00195 18.9996)" fill="#DD2033"/>
<rect x="1.00195" y="24.9997" width="3.00001" height="24.0001" transform="rotate(-90 1.00195 24.9997)" fill="#DD2033"/>
<rect x="1.00195" y="12.9996" width="12.0001" height="12.0001" transform="rotate(-90 1.00195 12.9996)" fill="#004692"/>
<path d="M10.4682 8.33292L9.87201 9.68137L8.46814 9.86079L9.5036 10.8736L9.23205 12.3329L10.4681 11.4996L11.7042 12.3329L11.4327 10.8736L12.4682 9.86079L11.0643 9.68137L10.4682 8.33292Z" fill="#F5F7F8"/>
<path d="M10.4682 0.332886L9.87201 1.68133L8.46814 1.86075L9.5036 2.8736L9.23205 4.3329L10.4681 3.49957L11.7042 4.3329L11.4327 2.8736L12.4682 1.86075L11.0643 1.68133L10.4682 0.332886Z" fill="#F5F7F8"/>
<path d="M7.80148 4.3329L7.20533 5.68135L5.80146 5.86077L6.83692 6.87361L6.56537 8.33292L7.80147 7.49959L9.03756 8.33292L8.76602 6.87361L9.80148 5.86077L8.39761 5.68135L7.80148 4.3329Z" fill="#F5F7F8"/>
<path d="M4.80147 8.33292L4.20531 9.68137L2.80145 9.86079L3.8369 10.8736L3.56536 12.3329L4.80145 11.4996L6.03755 12.3329L5.76601 10.8736L6.80146 9.86079L5.3976 9.68137L4.80147 8.33292Z" fill="#F5F7F8"/>
<path d="M4.80147 0.332886L4.20531 1.68133L2.80145 1.86075L3.8369 2.8736L3.56536 4.3329L4.80145 3.49957L6.03755 4.3329L5.76601 2.8736L6.80146 1.86075L5.3976 1.68133L4.80147 0.332886Z" fill="#F5F7F8"/>
<path d="M2.13479 4.3329L1.53863 5.68135L0.134766 5.86077L1.17022 6.87361L0.898679 8.33292L2.13478 7.49959L3.37087 8.33292L3.09933 6.87361L4.13478 5.86077L2.73092 5.68135L2.13479 4.3329Z" fill="#F5F7F8"/>
</g>
<rect x="1.00195" y="0.999573" width="24.0001" height="24.0001" rx="12.0001" stroke="#EDEDED"/>
</svg>
