<svg width="26" height="26" viewBox="0 0 26 26" fill="none" xmlns="http://www.w3.org/2000/svg">
<mask id="mask0_4812_146416" style="mask-type:alpha" maskUnits="userSpaceOnUse" x="1" y="0" width="24" height="25">
<circle cx="13.0001" cy="12.9996" r="12.0001" fill="#D9D9D9"/>
</mask>
<g mask="url(#mask0_4812_146416)">
<rect x="1" y="0.999573" width="24.0001" height="24.0001" fill="#86C5FA"/>
<path fill-rule="evenodd" clip-rule="evenodd" d="M15.8985 19.7377C18.5068 18.6139 20.3328 16.02 20.3328 12.9996C20.3328 11.4442 19.8485 10.0018 19.0225 8.81512C18.8297 8.53817 18.6183 8.27514 18.3901 8.02786L17.2444 9.24569C18.1291 10.2453 18.6661 11.5598 18.6661 12.9996C18.6661 16.1293 16.129 18.6663 12.9994 18.6663C9.86976 18.6663 7.33269 16.1293 7.33269 12.9996C7.33269 11.4897 7.92322 10.1178 8.88591 9.10209L7.74241 7.88666C7.5085 8.12712 7.29094 8.38357 7.09154 8.65422C6.19551 9.87037 5.66602 11.3732 5.66602 12.9996C5.66602 16.1481 7.65017 18.8332 10.4363 19.8726C10.7615 19.994 11.0976 20.0929 11.4428 20.1675C11.2884 20.3511 11.1952 20.5688 11.1632 20.7934C11.1474 20.9047 11.1465 21.0178 11.1607 21.1293C11.1945 21.3943 11.3131 21.6506 11.5167 21.8542L13.038 20.3329C13.1491 20.3323 13.2596 20.3293 13.3695 20.3238L14.8998 21.8542C15.131 21.623 15.2526 21.3239 15.2648 21.0211C15.2679 20.9451 15.2641 20.8689 15.2533 20.7934C15.2165 20.5349 15.0987 20.2857 14.8998 20.0869L14.8979 20.0849C14.8997 20.0844 14.9014 20.0839 14.9032 20.0835C15.2455 19.9917 15.5779 19.8758 15.8985 19.7377ZM12.1994 14.4621C12.2313 14.4796 12.2639 14.4961 12.2971 14.5116C12.3727 14.5468 12.4515 14.5764 12.5327 14.6001V15.9636C12.4194 15.9459 12.3082 15.9218 12.1994 15.8918C12.1123 15.8678 12.0268 15.8399 11.9431 15.8084C11.8008 15.7549 11.6637 15.6909 11.5327 15.6173C11.4605 15.5767 11.39 15.5333 11.3216 15.487C11.281 15.4596 11.2411 15.4311 11.2019 15.4017C11.1643 15.3735 11.1273 15.3445 11.0911 15.3146C11.0786 15.3043 11.0662 15.2939 11.0539 15.2834L12.0021 14.3351C12.0533 14.3735 12.1068 14.4089 12.1624 14.4412C12.1746 14.4483 12.187 14.4553 12.1994 14.4621ZM10.3958 16.0364C10.1791 15.8505 9.98248 15.6417 9.80974 15.4138C9.7664 15.3566 9.72457 15.2982 9.68429 15.2387C9.37029 14.7747 9.15114 14.2413 9.05467 13.6663C9.04091 13.5843 9.02964 13.5014 9.02095 13.4178C9.00668 13.2803 8.99936 13.1408 8.99936 12.9996C8.99936 12.8584 9.00668 12.719 9.02095 12.5815C9.02964 12.4979 9.04091 12.415 9.05467 12.333C9.15114 11.7579 9.37029 11.2245 9.68429 10.7605C9.72455 10.7011 9.76636 10.6427 9.80968 10.5856C9.98247 10.3576 10.1791 10.1488 10.396 9.96271C10.4636 9.90466 10.5332 9.84883 10.6047 9.79533C11.0687 9.44804 11.6106 9.19915 12.1994 9.07963C12.2692 9.06546 12.3396 9.05311 12.4107 9.04264C12.6028 9.0143 12.7994 8.99962 12.9994 8.99962C13.0832 8.99962 13.1663 9.00219 13.2488 9.00727C13.3444 9.01315 13.4391 9.02239 13.5328 9.03487C14.1587 9.11827 14.7388 9.34641 15.2385 9.68455C15.2979 9.72479 15.3563 9.76659 15.4134 9.80989C15.6414 9.98271 15.8503 10.1794 16.0364 10.3963C16.0944 10.4639 16.1502 10.5335 16.2037 10.605C16.577 11.1037 16.8367 11.6925 16.9441 12.333C16.9579 12.415 16.9691 12.4979 16.9778 12.5816C16.9921 12.719 16.9994 12.8585 16.9994 12.9996C16.9994 13.1408 16.9921 13.2803 16.9778 13.4177C16.9691 13.5014 16.9579 13.5843 16.9441 13.6663C16.8367 14.3067 16.577 14.8956 16.2037 15.3943C16.1501 15.4659 16.0943 15.5355 16.0361 15.6033C15.8502 15.82 15.6414 16.0165 15.4136 16.1893C15.3564 16.2326 15.298 16.2744 15.2385 16.3147C14.7388 16.6529 14.1587 16.881 13.5328 16.9644C13.4391 16.9769 13.3444 16.9861 13.2488 16.992C13.1663 16.9971 13.0832 16.9997 12.9994 16.9997C12.7994 16.9997 12.6028 16.985 12.4107 16.9566C12.3396 16.9462 12.2692 16.9338 12.1994 16.9196C11.6106 16.8001 11.0687 16.5512 10.6047 16.2039C10.5332 16.1504 10.4635 16.0945 10.3958 16.0364ZM14.5137 15.59C14.6118 15.5325 14.7063 15.4696 14.7969 15.4017L13.8364 14.4412C13.7408 14.4968 13.6392 14.5432 13.5328 14.5791C13.5253 14.5817 13.5178 14.5841 13.5103 14.5865C13.4956 14.5913 13.4809 14.5958 13.466 14.6001C13.3798 14.6252 13.2908 14.6435 13.1994 14.6544V15.9931C13.2352 15.9907 13.2707 15.9878 13.3061 15.9842C13.3599 15.9787 13.4132 15.9718 13.466 15.9636C13.4883 15.9601 13.5106 15.9564 13.5328 15.9524C13.6428 15.9326 13.7508 15.9069 13.8564 15.8755C13.9739 15.8405 14.0884 15.7985 14.1994 15.75C14.3077 15.7027 14.4126 15.6492 14.5137 15.59ZM14.5113 13.7019C14.4899 13.748 14.4664 13.793 14.441 13.8366C14.4086 13.8922 14.3732 13.9457 14.3349 13.9969L15.2831 14.9451C15.2936 14.9328 15.304 14.9204 15.3143 14.9079C15.3442 14.8717 15.3733 14.8348 15.4015 14.7971C15.4309 14.758 15.4593 14.718 15.4868 14.6774C15.561 14.5675 15.6281 14.4525 15.6876 14.333C15.7322 14.2431 15.7725 14.1507 15.8081 14.056C15.8556 13.9299 15.8948 13.7998 15.9251 13.6663C15.9498 13.5573 15.9686 13.4461 15.9811 13.333H14.6327C14.6092 13.4489 14.5736 13.5605 14.5274 13.6663C14.5222 13.6783 14.5168 13.6901 14.5113 13.7019ZM13.68 12.9996L13.6527 13.134C13.6331 13.2307 13.5922 13.3203 13.5341 13.398L13.4518 13.508L13.3335 13.5769C13.2573 13.6212 13.1721 13.6506 13.0807 13.6615L12.9429 13.678L12.8122 13.6399C12.7358 13.6177 12.6645 13.5818 12.6011 13.5343L12.491 13.452L12.4221 13.3337C12.3864 13.2723 12.3605 13.2052 12.3461 13.134L12.3188 12.9996L12.3461 12.8652C12.3605 12.7941 12.3864 12.7269 12.4221 12.6656L12.491 12.5473L12.6011 12.4649C12.6645 12.4175 12.7358 12.3816 12.8122 12.3593L12.9429 12.3213L13.0807 12.3378C13.1721 12.3487 13.2573 12.3781 13.3335 12.4224L13.4518 12.4912L13.5341 12.6013C13.5922 12.679 13.6331 12.7686 13.6527 12.8652L13.68 12.9996ZM14.5274 12.333C14.5736 12.4388 14.6092 12.5504 14.6327 12.6663H15.9811C15.981 12.6657 15.981 12.6652 15.9809 12.6646C15.9684 12.552 15.9497 12.4414 15.9251 12.333C15.8948 12.1995 15.8556 12.0694 15.8081 11.9433C15.7725 11.8486 15.7322 11.7562 15.6876 11.6663C15.6281 11.5468 15.561 11.4317 15.4868 11.3219C15.4593 11.2812 15.4309 11.2413 15.4015 11.2021C15.3636 11.1515 15.3241 11.1022 15.2831 11.0541L14.3349 12.0024C14.3732 12.0536 14.4086 12.1071 14.441 12.1626C14.4664 12.2063 14.4899 12.2513 14.5113 12.2973C14.5168 12.3091 14.5222 12.321 14.5274 12.333ZM14.5137 10.4093C14.6109 10.4662 14.7046 10.5285 14.7943 10.5956C14.7952 10.5963 14.796 10.5969 14.7969 10.5975L13.8364 11.5581C13.7408 11.5024 13.6392 11.4561 13.5328 11.4201C13.5253 11.4176 13.5178 11.4151 13.5103 11.4127C13.4956 11.408 13.4809 11.4035 13.466 11.3992C13.3798 11.3741 13.2908 11.3558 13.1994 11.3448V10.0062C13.2894 10.0121 13.3784 10.022 13.466 10.0357C13.4883 10.0392 13.5106 10.0429 13.5328 10.0469C13.6428 10.0666 13.7508 10.0924 13.8564 10.1238C13.9739 10.1588 14.0884 10.2008 14.1994 10.2493C14.3077 10.2966 14.4126 10.3501 14.5137 10.4093ZM12.5327 10.0357C12.5298 10.0362 12.5269 10.0366 12.5239 10.0371C12.4136 10.0547 12.3053 10.0782 12.1994 10.1075C12.1123 10.1315 12.0268 10.1594 11.9431 10.1909C11.8008 10.2444 11.6637 10.3084 11.5327 10.382C11.4605 10.4225 11.39 10.466 11.3216 10.5123C11.281 10.5397 11.2411 10.5682 11.2019 10.5975C11.1513 10.6355 11.1019 10.6749 11.0539 10.7159L12.0021 11.6641C12.0533 11.6258 12.1068 11.5904 12.1624 11.5581C12.1746 11.5509 12.187 11.544 12.1994 11.5371C12.2313 11.5196 12.2639 11.5031 12.2971 11.4877C12.3727 11.4525 12.4515 11.4228 12.5327 11.3992V10.0357ZM10.4091 11.4853C10.466 11.3881 10.5282 11.2945 10.5954 11.2047C10.596 11.2038 10.5966 11.203 10.5973 11.2021L11.5578 12.1626C11.5259 12.2175 11.497 12.2744 11.4714 12.333C11.4493 12.3836 11.4296 12.4356 11.4125 12.4887C11.3939 12.5466 11.3783 12.6059 11.366 12.6663H10.0177C10.0302 12.5532 10.049 12.4419 10.0737 12.333C10.0883 12.2687 10.1049 12.2052 10.1236 12.1426C10.1727 11.9774 10.2357 11.8182 10.3112 11.6663C10.3418 11.6047 10.3744 11.5444 10.4091 11.4853ZM10.0737 13.6663C10.0491 13.5579 10.0304 13.4472 10.0179 13.3347C10.0178 13.3341 10.0177 13.3335 10.0177 13.333H11.366C11.3783 13.3934 11.3939 13.4527 11.4125 13.5105C11.4296 13.5637 11.4493 13.6156 11.4714 13.6663C11.497 13.7249 11.5259 13.7818 11.5578 13.8366L10.5973 14.7971C10.5294 14.7066 10.4665 14.6121 10.4091 14.514C10.3744 14.4549 10.3418 14.3945 10.3112 14.333C10.2357 14.1811 10.1727 14.0218 10.1236 13.8566C10.1049 13.794 10.0883 13.7306 10.0737 13.6663Z" fill="#F5F7F8"/>
</g>
<rect x="1" y="0.999573" width="24.0001" height="24.0001" rx="12.0001" stroke="#EDEDED"/>
</svg>
