<svg width="26" height="26" viewBox="0 0 26 26" fill="none" xmlns="http://www.w3.org/2000/svg">
<mask id="mask0_4812_146417" style="mask-type:alpha" maskUnits="userSpaceOnUse" x="1" y="0" width="24" height="25">
<circle cx="13.0001" cy="12.9996" r="12.0001" fill="#D9D9D9"/>
</mask>
<g mask="url(#mask0_4812_146417)">
</g>
<mask id="mask1_4812_146417" style="mask-type:alpha" maskUnits="userSpaceOnUse" x="1" y="0" width="24" height="25">
<circle cx="13.0001" cy="12.9996" r="12.0001" fill="#D9D9D9"/>
</mask>
<g mask="url(#mask1_4812_146417)">
<rect x="1" y="21.9997" width="21.0001" height="24.0001" transform="rotate(-90 1 21.9997)" fill="#F5F7F8"/>
<rect x="13" y="6.99957" width="3.00001" height="12.0001" transform="rotate(-90 13 6.99957)" fill="#DD2033"/>
<rect x="13" y="12.9996" width="3.00001" height="12.0001" transform="rotate(-90 13 12.9996)" fill="#DD2033"/>
<rect x="1" y="18.9996" width="3.00001" height="24.0001" transform="rotate(-90 1 18.9996)" fill="#DD2033"/>
<rect x="1" y="24.9997" width="3.00001" height="24.0001" transform="rotate(-90 1 24.9997)" fill="#DD2033"/>
<rect x="1" y="12.9996" width="12.0001" height="12.0001" transform="rotate(-90 1 12.9996)" fill="#004692"/>
<path d="M10.4662 8.33292L9.87005 9.68137L8.46619 9.86079L9.50164 10.8736L9.2301 12.3329L10.4662 11.4996L11.7023 12.3329L11.4307 10.8736L12.4662 9.86079L11.0623 9.68137L10.4662 8.33292Z" fill="#F5F7F8"/>
<path d="M10.4662 0.332886L9.87005 1.68133L8.46619 1.86075L9.50164 2.8736L9.2301 4.3329L10.4662 3.49957L11.7023 4.3329L11.4307 2.8736L12.4662 1.86075L11.0623 1.68133L10.4662 0.332886Z" fill="#F5F7F8"/>
<path d="M7.79953 4.3329L7.20337 5.68135L5.79951 5.86077L6.83496 6.87361L6.56342 8.33292L7.79952 7.49959L9.03561 8.33292L8.76407 6.87361L9.79953 5.86077L8.39566 5.68135L7.79953 4.3329Z" fill="#F5F7F8"/>
<path d="M4.79951 8.33292L4.20336 9.68137L2.79949 9.86079L3.83495 10.8736L3.56341 12.3329L4.7995 11.4996L6.0356 12.3329L5.76405 10.8736L6.79951 9.86079L5.39564 9.68137L4.79951 8.33292Z" fill="#F5F7F8"/>
<path d="M4.79951 0.332886L4.20336 1.68133L2.79949 1.86075L3.83495 2.8736L3.56341 4.3329L4.7995 3.49957L6.0356 4.3329L5.76405 2.8736L6.79951 1.86075L5.39564 1.68133L4.79951 0.332886Z" fill="#F5F7F8"/>
<path d="M2.13283 4.3329L1.53668 5.68135L0.132812 5.86077L1.16827 6.87361L0.896726 8.33292L2.13282 7.49959L3.36892 8.33292L3.09737 6.87361L4.13283 5.86077L2.72896 5.68135L2.13283 4.3329Z" fill="#F5F7F8"/>
</g>
<rect x="1" y="0.999573" width="24.0001" height="24.0001" rx="12.0001" stroke="#EDEDED"/>
</svg>
