<svg width="26" height="26" viewBox="0 0 26 26" fill="none" xmlns="http://www.w3.org/2000/svg">
<mask id="mask0_4812_146418" style="mask-type:alpha" maskUnits="userSpaceOnUse" x="1" y="0" width="24" height="25">
<circle cx="13.0001" cy="12.9996" r="12.0001" fill="#D9D9D9"/>
</mask>
<g mask="url(#mask0_4812_146418)">
<rect x="1" y="24.9997" width="24.0001" height="24.0001" transform="rotate(-90 1 24.9997)" fill="#F5F7F8"/>
<path d="M13.0001 6.99959V3.99957L25.0001 3.99957V6.99959L13.0001 6.99959Z" fill="#004692"/>
<path d="M13.0001 12.9996V9.9996L25.0001 9.9996V12.9996L13.0001 12.9996Z" fill="#004692"/>
<path d="M1 18.9996L1 15.9996L25.0001 15.9996V18.9996L1 18.9996Z" fill="#004692"/>
<path d="M1 24.9997L1 21.9997L25.0001 21.9997V24.9997L1 24.9997Z" fill="#004692"/>
<path d="M10.9994 9.33292L9.50113 10.0738L10.2989 11.5991L8.67204 11.2719L8.46589 12.9996L7.33267 11.729L6.19951 12.9996L5.99336 11.2719L4.36641 11.5991L5.16427 10.0737L3.66602 9.33292L5.16432 8.59209L4.36641 7.06683L5.9933 7.39395L6.19956 5.66626L7.33267 6.93692L8.46595 5.66626L8.67204 7.39395L10.299 7.06683L9.50118 8.59214L10.9994 9.33292Z" fill="#F1B434"/>
</g>
<rect x="1" y="0.999573" width="24.0001" height="24.0001" rx="12.0001" stroke="#EDEDED"/>
</svg>
