<svg width="26" height="26" viewBox="0 0 26 26" fill="none" xmlns="http://www.w3.org/2000/svg">
<mask id="mask0_4812_146419" style="mask-type:alpha" maskUnits="userSpaceOnUse" x="1" y="0" width="24" height="25">
<circle cx="13.0001" cy="12.9998" r="12.0001" fill="#D9D9D9"/>
</mask>
<g mask="url(#mask0_4812_146419)">
<rect width="8.00004" height="24.0001" transform="matrix(-4.37114e-08 1 1 4.37114e-08 1 0.999695)" fill="#0091DA"/>
<path d="M18.0346 2.00723L18.3327 1.33301L18.6307 2.00723L19.3327 2.09694L18.8149 2.60336L18.9507 3.33302L18.3326 2.91635L17.7146 3.33302L17.8504 2.60336L17.3326 2.09694L18.0346 2.00723Z" fill="#F5F7F8"/>
<path d="M20.7013 2.00723L20.9993 1.33301L21.2974 2.00723L21.9993 2.09694L21.4816 2.60336L21.6174 3.33302L20.9993 2.91635L20.3813 3.33302L20.5171 2.60336L19.9993 2.09694L20.7013 2.00723Z" fill="#F5F7F8"/>
<path d="M15.666 3.66635L15.3679 4.34057L14.666 4.43028L15.1837 4.93671L15.0479 5.66636L15.666 5.24969L16.284 5.66636L16.1482 4.93671L16.666 4.43028L15.964 4.34057L15.666 3.66635Z" fill="#F5F7F8"/>
<path d="M18.0346 4.34057L18.3327 3.66635L18.6307 4.34057L19.3327 4.43028L18.8149 4.93671L18.9507 5.66636L18.3326 5.24969L17.7146 5.66636L17.8504 4.93671L17.3326 4.43028L18.0346 4.34057Z" fill="#F5F7F8"/>
<path d="M20.9993 3.66635L20.7013 4.34057L19.9993 4.43028L20.5171 4.93671L20.3813 5.66636L20.9993 5.24969L21.6174 5.66636L21.4816 4.93671L21.9993 4.43028L21.2974 4.34057L20.9993 3.66635Z" fill="#F5F7F8"/>
<path d="M15.3679 6.67392L15.666 5.9997L15.964 6.67392L16.666 6.76363L16.1482 7.27005L16.284 7.99971L15.666 7.58304L15.0479 7.99971L15.1837 7.27005L14.666 6.76363L15.3679 6.67392Z" fill="#F5F7F8"/>
<path d="M12.9993 5.9997L12.7012 6.67392L11.9993 6.76363L12.517 7.27005L12.3812 7.99971L12.9993 7.58304L13.6173 7.99971L13.4816 7.27005L13.9993 6.76363L13.2974 6.67392L12.9993 5.9997Z" fill="#F5F7F8"/>
<path d="M20.7013 6.67392L20.9993 5.9997L21.2974 6.67392L21.9993 6.76363L21.4816 7.27005L21.6174 7.99971L20.9993 7.58304L20.3813 7.99971L20.5171 7.27005L19.9993 6.76363L20.7013 6.67392Z" fill="#F5F7F8"/>
<path d="M18.3327 5.9997L18.0346 6.67392L17.3326 6.76363L17.8504 7.27005L17.7146 7.99971L18.3326 7.58304L18.9507 7.99971L18.8149 7.27005L19.3327 6.76363L18.6307 6.67392L18.3327 5.9997Z" fill="#F5F7F8"/>
<path d="M8.94006 7.35562C9.47156 7.78025 10.1325 7.92832 10.7423 7.81718C9.78205 8.49846 8.45058 8.4945 7.48485 7.72294C6.3161 6.78919 6.1256 5.08477 7.05935 3.91602C7.99311 2.74727 9.69753 2.55677 10.8663 3.49052C10.9344 3.54497 10.9993 3.60204 11.0607 3.66147C10.1827 3.30447 9.1546 3.53221 8.54953 4.28956C7.80779 5.21797 7.98263 6.5907 8.94006 7.35562Z" fill="#F5F7F8"/>
<rect width="8.00004" height="24.0001" transform="matrix(-4.37114e-08 1 1 4.37114e-08 1 16.9998)" fill="#009B77"/>
<rect width="8.00004" height="24.0001" transform="matrix(-4.37114e-08 1 1 4.37114e-08 1 8.99976)" fill="#DD2033"/>
<rect width="5.33336" height="24.0001" transform="matrix(-4.37114e-08 1 1 4.37114e-08 1 10.3331)" fill="#F5F7F8"/>
</g>
<rect x="1" y="0.999695" width="24.0001" height="24.0001" rx="12.0001" stroke="#EDEDED"/>
</svg>
