<svg width="26" height="26" viewBox="0 0 26 26" fill="none" xmlns="http://www.w3.org/2000/svg">
<mask id="mask0_4812_146420" style="mask-type:alpha" maskUnits="userSpaceOnUse" x="0" y="0" width="25" height="25">
<circle cx="12.9981" cy="12.9998" r="12.0001" fill="#D9D9D9"/>
</mask>
<g mask="url(#mask0_4812_146420)">
<rect x="0.998047" y="0.999695" width="24.0001" height="24.0001" fill="#F5F7F8"/>
<rect x="0.931641" y="24.9998" width="24.0001" height="12.0001" transform="rotate(-90 0.931641 24.9998)" fill="#F1B434"/>
<path d="M17.0977 8.33295V9.33296L18.2643 9.33296V11.333L19.2643 11.333V9.33296H20.431V8.33295H19.2643V7.33295L18.2643 7.33295L18.2643 8.33295L17.0977 8.33295Z" fill="#F1B434"/>
<path fill-rule="evenodd" clip-rule="evenodd" d="M22.2801 9.77734L22.9872 10.4845L22.6933 10.7784L23.8979 11.983L22.248 13.6329L21.0433 12.4283L18.2103 15.2613C18.684 16.0889 18.5675 17.1623 17.8609 17.8689C17.0147 18.7151 15.6429 18.7151 14.7967 17.8689C13.9506 17.0228 13.9506 15.6509 14.7967 14.8048C15.5387 14.0628 16.685 13.9715 17.5266 14.5309L22.2801 9.77734ZM15.5038 17.1618C15.9594 17.6174 16.6981 17.6174 17.1537 17.1618C17.6094 16.7062 17.6094 15.9675 17.1537 15.5119C16.6981 15.0563 15.9594 15.0563 15.5038 15.5119C15.0482 15.9675 15.0482 16.7062 15.5038 17.1618Z" fill="#F1B434"/>
<path fill-rule="evenodd" clip-rule="evenodd" d="M15.1764 9.6665L14.4693 10.3736L14.8186 10.723L13.5586 11.983L15.2085 13.6329L16.4686 12.3729L19.2876 15.192C18.7664 16.0281 18.869 17.1423 19.5956 17.8689C20.4418 18.7151 21.8136 18.7151 22.6598 17.8689C23.5059 17.0228 23.5059 15.6509 22.6598 14.8048C21.9375 14.0825 20.832 13.9768 19.9976 14.4877L15.1764 9.6665ZM21.9527 17.1618C21.497 17.6174 20.7583 17.6174 20.3027 17.1618C19.8471 16.7062 19.8471 15.9675 20.3027 15.5119C20.7583 15.0563 21.497 15.0563 21.9527 15.5119C22.4083 15.9675 22.4083 16.7062 21.9527 17.1618Z" fill="#C1C3C3"/>
</g>
<rect x="0.998047" y="0.999695" width="24.0001" height="24.0001" rx="12.0001" stroke="#EDEDED"/>
</svg>
