<svg width="26" height="26" viewBox="0 0 26 26" fill="none" xmlns="http://www.w3.org/2000/svg">
<mask id="mask0_4812_146422" style="mask-type:alpha" maskUnits="userSpaceOnUse" x="1" y="0" width="24" height="25">
<circle cx="13.0001" cy="12.9998" r="12.0001" fill="#D9D9D9"/>
</mask>
<g mask="url(#mask0_4812_146422)">
<rect x="1" y="24.9999" width="6.6667" height="24.0001" transform="rotate(-90 1 24.9999)" fill="#DD2033"/>
<rect x="1" y="18.3331" width="10.6667" height="24.0001" transform="rotate(-90 1 18.3331)" fill="#004692"/>
<rect x="1" y="7.66638" width="6.6667" height="24.0001" transform="rotate(-90 1 7.66638)" fill="#F1B434"/>
<path d="M12.6231 8.33307L12.1263 9.45677L10.9564 9.60629L11.8193 10.4503L11.593 11.6664L12.6231 10.972L13.6532 11.6664L13.4269 10.4503L14.2898 9.60629L13.1199 9.45677L12.6231 8.33307Z" fill="#F5F7F8"/>
<path d="M6.84477 10.3012L7.08235 11.5066L6.20979 12.3001L7.40074 12.4966L7.9129 13.6225L8.35837 12.4628L9.60048 12.4408L8.7176 11.5745L8.94031 10.3882L7.89623 10.9367L6.84477 10.3012Z" fill="#F5F7F8"/>
<path d="M5.46746 13.6664L4.97067 14.7901L3.80078 14.9396L4.66366 15.7837L4.43738 16.9998L5.46746 16.3053L6.49754 16.9998L6.27125 15.7837L7.13413 14.9396L5.96424 14.7901L5.46746 13.6664Z" fill="#F5F7F8"/>
<path d="M20.1342 13.6664L19.6374 14.7901L18.4675 14.9396L19.3304 15.7837L19.1041 16.9998L20.1342 16.3053L21.1643 16.9998L20.938 15.7837L21.8009 14.9396L20.631 14.7901L20.1342 13.6664Z" fill="#F5F7F8"/>
<path d="M18.4235 10.3012L17.372 10.9367L16.3279 10.3882L16.5506 11.5745L15.6678 12.4408L16.9099 12.4628L17.3553 13.6225L17.8675 12.4966L19.0585 12.3001L18.1859 11.5066L18.4235 10.3012Z" fill="#F5F7F8"/>
</g>
<rect x="1" y="0.999695" width="24.0001" height="24.0001" rx="12.0001" stroke="#EDEDED"/>
</svg>
