<svg width="26" height="26" viewBox="0 0 26 26" fill="none" xmlns="http://www.w3.org/2000/svg">
<mask id="mask0_4812_146423" style="mask-type:alpha" maskUnits="userSpaceOnUse" x="1" y="0" width="25" height="25">
<circle cx="13.002" cy="12.9998" r="12.0001" fill="#D9D9D9"/>
</mask>
<g mask="url(#mask0_4812_146423)">
<rect x="1.00195" y="0.999695" width="24.0001" height="24.0001" fill="#004692"/>
<mask id="mask1_4812_146423" style="mask-type:alpha" maskUnits="userSpaceOnUse" x="1" y="0" width="13" height="13">
<path d="M1.00195 12.9998V12.9998C1.00195 6.37231 6.37456 0.999698 13.002 0.999698V0.999698L13.002 12.9998L1.00195 12.9998Z" fill="#002F6C"/>
</mask>
<g mask="url(#mask1_4812_146423)">
<rect x="1.00195" y="0.999695" width="12.0001" height="12.0001" fill="#004692"/>
<path d="M5.17547 2.04431L4.46836 2.75142L14.3104 12.5935L15.0175 11.8864L5.17547 2.04431Z" fill="#F5F7F8"/>
<path d="M3.28985 3.92994L2.11133 5.10846L11.9534 14.9505L13.1319 13.772L3.28985 3.92994Z" fill="#F5F7F8"/>
<path d="M3.28985 3.92994L4.46836 2.75142L14.3104 12.5935L13.1319 13.772L3.28985 3.92994Z" fill="#DD2033"/>
<path d="M13.002 4.99969V6.66637L6.66863 6.66637L6.66863 12.9997H5.00195V4.99969H13.002Z" fill="#F5F7F8"/>
<path d="M13.002 0.333008V1.99968L2.66863 1.99968L2.66863 12.9997H1.00195V0.333008H13.002Z" fill="#F5F7F8"/>
<path fill-rule="evenodd" clip-rule="evenodd" d="M2.00195 12.9997H5.00197L5.00197 4.99971L13.002 4.99971V1.99969H5.00197H2.00195L2.00195 4.99971L2.00195 12.9997Z" fill="#DD2033"/>
</g>
<path d="M21.4024 18.6664H14.4023V20.3331H15.4023V21.3331H20.4024V20.3331H21.4024V18.6664Z" fill="#FBD381"/>
<path d="M14.4023 12.6664H21.4024V15.5809C21.4024 17.6086 20.1662 19.4315 18.2824 20.1818L17.9024 20.3331L17.5223 20.1818C15.6385 19.4315 14.4023 17.6086 14.4023 15.5809V12.6664Z" fill="#008259"/>
<rect x="17.0684" y="13.9998" width="1.66667" height="5.00002" fill="#F5F7F8"/>
<path d="M15.5684 14.3331C15.8445 14.3331 16.0684 14.1092 16.0684 13.8331C16.0684 13.5569 15.8445 13.3331 15.5684 13.3331C15.2922 13.3331 15.0684 13.5569 15.0684 13.8331C15.0684 14.1092 15.2922 14.3331 15.5684 14.3331Z" fill="#F1B434"/>
<path d="M20.2351 14.3331C20.5112 14.3331 20.7351 14.1092 20.7351 13.8331C20.7351 13.5569 20.5112 13.3331 20.2351 13.3331C19.9589 13.3331 19.735 13.5569 19.735 13.8331C19.735 14.1092 19.9589 14.3331 20.2351 14.3331Z" fill="#F1B434"/>
<path d="M20.7351 15.4997C20.7351 15.7759 20.5112 15.9997 20.2351 15.9997C19.9589 15.9997 19.735 15.7759 19.735 15.4997C19.735 15.2236 19.9589 14.9997 20.2351 14.9997C20.5112 14.9997 20.7351 15.2236 20.7351 15.4997Z" fill="#F1B434"/>
<path d="M15.5684 15.9997C15.8445 15.9997 16.0684 15.7759 16.0684 15.4997C16.0684 15.2236 15.8445 14.9997 15.5684 14.9997C15.2922 14.9997 15.0684 15.2236 15.0684 15.4997C15.0684 15.7759 15.2922 15.9997 15.5684 15.9997Z" fill="#F1B434"/>
<path d="M20.7351 17.1664C20.7351 17.4426 20.5112 17.6664 20.2351 17.6664C19.9589 17.6664 19.735 17.4426 19.735 17.1664C19.735 16.8903 19.9589 16.6664 20.2351 16.6664C20.5112 16.6664 20.7351 16.8903 20.7351 17.1664Z" fill="#F1B434"/>
<path d="M15.5684 17.6664C15.8445 17.6664 16.0684 17.4426 16.0684 17.1664C16.0684 16.8903 15.8445 16.6664 15.5684 16.6664C15.2922 16.6664 15.0684 16.8903 15.0684 17.1664C15.0684 17.4426 15.2922 17.6664 15.5684 17.6664Z" fill="#F1B434"/>
</g>
<rect x="1.00195" y="0.999695" width="24.0001" height="24.0001" rx="12.0001" stroke="#EDEDED"/>
</svg>
