<svg width="26" height="26" viewBox="0 0 26 26" fill="none" xmlns="http://www.w3.org/2000/svg">
<mask id="mask0_4812_146424" style="mask-type:alpha" maskUnits="userSpaceOnUse" x="1" y="0" width="25" height="25">
<circle cx="13.002" cy="12.9998" r="12.0001" fill="#D9D9D9"/>
</mask>
<g mask="url(#mask0_4812_146424)">
<rect x="1.00195" y="0.999695" width="24.0001" height="24.0001" fill="#F5F7F8"/>
<path d="M9.09714 8.81241C9.66056 8.77388 10.4877 8.85684 11.131 9.17706C11.7107 9.46567 12.1149 9.91653 12.1149 10.7615V11.0932L6.7899 9.6664C6.59931 10.3777 7.02143 11.1088 7.73272 11.2994L12.1149 12.4736V12.8187L6.68053 11.3626C6.48994 12.0739 6.91205 12.805 7.62334 12.9956L11.9359 14.1511L11.6619 14.4228L6.8931 13.145C6.70251 13.8563 7.12462 14.5874 7.83591 14.778L10.5659 15.5095L8.33544 17.7211L9.72375 19.0977L12.1753 16.6668L11.1402 19.2327L13.1036 21.1795L15.067 19.2327L14.0292 16.6602L16.4764 19.0867L17.8647 17.7102L15.6013 15.4658L18.1684 14.778C18.8797 14.5874 19.3018 13.8563 19.1112 13.145L14.5053 14.3791L14.2313 14.1075L18.3809 12.9956C19.0922 12.805 19.5143 12.0739 19.3237 11.3626L14.0853 12.7662V12.4211L18.2715 11.2994C18.9828 11.1088 19.405 10.3777 19.2144 9.6664L14.0853 11.0407V10.7505H14.0782C14.0742 9.04331 13.1244 7.99107 12.0119 7.43728C10.9606 6.91392 9.7543 6.8161 8.96206 6.87027L9.09714 8.81241Z" fill="#F1B434"/>
<path d="M9.60156 10.3331H16.2683V12.9802C16.2683 15.0052 15.0354 16.8263 13.1551 17.5783L12.9349 17.6664L12.7147 17.5783C10.8345 16.8263 9.60156 15.0052 9.60156 12.9802V10.3331Z" fill="#005EB8"/>
<mask id="mask1_4812_146424" style="mask-type:alpha" maskUnits="userSpaceOnUse" x="9" y="10" width="8" height="8">
<path d="M9.60156 10.3331H16.2683V12.9802C16.2683 15.0052 15.0354 16.8263 13.1551 17.5783L12.9349 17.6664L12.7147 17.5783C10.8345 16.8263 9.60156 15.0052 9.60156 12.9802V10.3331Z" fill="#005EB8"/>
</mask>
<g mask="url(#mask1_4812_146424)">
<path d="M9.60156 12.6664H16.2683V17.6665H9.60156V12.6664Z" fill="#F5F7F8"/>
<path d="M11.6009 12.6664L10.2676 12.6664L10.2676 17.6665L11.6009 17.6665L11.6009 12.6664Z" fill="#DD2033"/>
<path d="M12.9343 12.6664L14.2676 12.6664V17.6665H12.9343V12.6664Z" fill="#DD2033"/>
<path d="M15.6009 12.6664L16.3343 12.6664V17.6665H15.6009V12.6664Z" fill="#DD2033"/>
</g>
<path d="M21.3354 10.9997H22.002V14.6664H21.3354V10.9997Z" fill="#005EB8"/>
<path d="M3.64591 10.9997L3.00195 11.1722L3.94943 14.7083L4.64595 14.7228L5.59343 11.1867L4.94947 11.0142L4.29963 13.4394L3.64591 10.9997Z" fill="#005EB8"/>
</g>
<rect x="1.00195" y="0.999695" width="24.0001" height="24.0001" rx="12.0001" stroke="#EDEDED"/>
</svg>
