<svg width="26" height="26" viewBox="0 0 26 26" fill="none" xmlns="http://www.w3.org/2000/svg">
<mask id="mask0_4812_146426" style="mask-type:alpha" maskUnits="userSpaceOnUse" x="1" y="0" width="24" height="25">
<circle cx="12.0001" cy="12.0001" r="12.0001" transform="matrix(1 0 0 -1 1 24.9998)" fill="#D9D9D9"/>
</mask>
<g mask="url(#mask0_4812_146426)">
<rect width="9.00004" height="24.0001" transform="matrix(-4.37114e-08 1 1 4.37114e-08 1 0.999695)" fill="#DD2033"/>
<rect width="9.00004" height="24.0001" transform="matrix(-4.37114e-08 1 1 4.37114e-08 1 15.9998)" fill="#008259"/>
<path d="M25.0003 9.99974H17.9335L5.93344 0.999695H3.4668V24.9998H5.93344L17.9335 15.9998L25.0003 15.9998V9.99974Z" fill="#31373D"/>
<path d="M24.9998 13.9998H17.2663L2.59961 24.9998V0.999695L17.2663 11.9997H24.9998V13.9998Z" fill="#F1B434"/>
<path d="M8.19991 12.9998C8.19991 13.7361 7.60295 14.3331 6.86657 14.3331C6.13019 14.3331 5.53323 13.7361 5.53323 12.9998C5.53323 12.2634 6.13019 11.6664 6.86657 11.6664C7.60295 11.6664 8.19991 12.2634 8.19991 12.9998Z" fill="#31373D"/>
<path fill-rule="evenodd" clip-rule="evenodd" d="M-0.466797 0.999695L15.5333 12.9998L-0.466797 24.9998V0.999695ZM10.1999 12.9998C10.1999 14.8407 8.70753 16.3331 6.86657 16.3331C5.02561 16.3331 3.53322 14.8407 3.53322 12.9998C3.53322 11.1588 5.02561 9.6664 6.86657 9.6664C8.70753 9.6664 10.1999 11.1588 10.1999 12.9998Z" fill="#31373D"/>
</g>
<rect width="24.0001" height="24.0001" rx="12.0001" transform="matrix(1 0 0 -1 1 24.9998)" stroke="#EDEDED"/>
</svg>
