<svg width="26" height="26" viewBox="0 0 26 26" fill="none" xmlns="http://www.w3.org/2000/svg">
<mask id="mask0_4812_146428" style="mask-type:alpha" maskUnits="userSpaceOnUse" x="1" y="0" width="24" height="25">
<circle cx="13.0001" cy="12.9998" r="12.0001" fill="#D9D9D9"/>
</mask>
<g mask="url(#mask0_4812_146428)">
<rect x="1" y="24.9998" width="24.0001" height="24.0001" transform="rotate(-90 1 24.9998)" fill="#DD2033"/>
<rect x="1" y="15.6664" width="14.6667" height="14.6667" transform="rotate(-90 1 15.6664)" fill="#004692"/>
<path d="M5.06643 6.6664L4.47027 8.01484L3.06641 8.19426L4.10186 9.20711L3.83032 10.6664L5.06642 9.83308L6.30251 10.6664L6.03097 9.20711L7.06643 8.19426L5.66256 8.01484L5.06643 6.6664Z" fill="#F5F7F8"/>
<path d="M9.73311 9.66641L9.23632 10.7901L8.06643 10.9396L8.92931 11.7837L8.70302 12.9998L9.7331 12.3053L10.7632 12.9998L10.5369 11.7837L11.3998 10.9396L10.2299 10.7901L9.73311 9.66641Z" fill="#F5F7F8"/>
<path d="M11.0665 3.66638L10.4703 5.01483L9.06643 5.19424L10.1019 6.20709L9.83035 7.6664L11.0664 6.83306L12.3025 7.6664L12.031 6.20709L13.0665 5.19424L11.6626 5.01483L11.0665 3.66638Z" fill="#F5F7F8"/>
</g>
<rect x="1" y="0.999695" width="24.0001" height="24.0001" rx="12.0001" stroke="#EDEDED"/>
</svg>
