<svg width="26" height="26" viewBox="0 0 26 26" fill="none" xmlns="http://www.w3.org/2000/svg">
<mask id="mask0_4812_146429" style="mask-type:alpha" maskUnits="userSpaceOnUse" x="1" y="1" width="24" height="24">
<circle cx="13.0001" cy="13" r="12.0001" fill="#D9D9D9"/>
</mask>
<g mask="url(#mask0_4812_146429)">
<rect x="1" y="0.999939" width="24.0001" height="24.0001" fill="#004692"/>
<path d="M13.0001 5.33331L12.5033 6.45702L11.3334 6.60653L12.1963 7.45057L11.97 8.66666L13 7.97221L14.0301 8.66666L13.8038 7.45057L14.6667 6.60653L13.4968 6.45702L13.0001 5.33331Z" fill="#F5F7F8"/>
<path d="M9.33337 6.33332L8.83657 7.45703L7.66668 7.60654L8.52957 8.45058L8.30328 9.66667L9.33336 8.97222L10.3634 9.66667L10.1372 8.45058L11 7.60654L9.83014 7.45703L9.33337 6.33332Z" fill="#F5F7F8"/>
<path d="M5.66668 8.66667L5.16989 9.79037L4 9.93988L4.86288 10.7839L4.63659 12L5.66667 11.3056L6.69675 12L6.47047 10.7839L7.33335 9.93988L6.16346 9.79037L5.66668 8.66667Z" fill="#F5F7F8"/>
<path d="M20.3334 8.66667L19.8366 9.79037L18.6667 9.93988L19.5296 10.7839L19.3033 12L20.3334 11.3056L21.3635 12L21.1372 10.7839L22.0001 9.93988L20.8302 9.79037L20.3334 8.66667Z" fill="#F5F7F8"/>
<path d="M16.6667 6.33332L16.1699 7.45703L15.0001 7.60654L15.8629 8.45058L15.6366 9.66667L16.6667 8.97222L17.6968 9.66667L17.4705 8.45058L18.3334 7.60654L17.1635 7.45703L16.6667 6.33332Z" fill="#F5F7F8"/>
<path d="M11.3809 20.7473L11.1699 18.3704L8.68388 16.5L8.68388 15.3773C11.4936 14.38 11.6686 12.0505 11.4049 11.0105L12.6443 10.4915L15.8735 12.9044L15.7513 13.8969L18.9373 15.2969L17.825 17.5109L17.662 18.8342L16.6287 19.0428L16.4201 18.0095L13.0531 19.442L12.8697 20.9307L11.3809 20.7473Z" fill="#F1B434"/>
</g>
<rect x="1" y="0.999939" width="24.0001" height="24.0001" rx="12.0001" stroke="#EDEDED"/>
</svg>
