<svg width="26" height="26" viewBox="0 0 26 26" fill="none" xmlns="http://www.w3.org/2000/svg">
<mask id="mask0_4812_146434" style="mask-type:alpha" maskUnits="userSpaceOnUse" x="1" y="1" width="25" height="24">
<circle cx="13.002" cy="13" r="12.0001" fill="#D9D9D9"/>
</mask>
<g mask="url(#mask0_4812_146434)">
<rect x="1.00195" y="25.0001" width="24.0001" height="24.0001" transform="rotate(-90 1.00195 25.0001)" fill="#008259"/>
<rect x="1.00195" y="21.3334" width="16.6667" height="24.0001" transform="rotate(-90 1.00195 21.3334)" fill="#F1B434"/>
<rect x="1.00195" y="18" width="10" height="24.0001" transform="rotate(-90 1.00195 18)" fill="#DD2033"/>
<path d="M16.7798 14.6667H25.0021V11.3333L16.7798 11.3333L3.00195 0.999939V25.0001L16.7798 14.6667Z" fill="#31373D"/>
<path d="M17.002 13L1.00195 0.999939V25.0001L17.002 13Z" fill="#F5F7F8"/>
<path d="M7.00199 9L5.80969 11.6969L3.00195 12.0557L5.07287 14.0814L4.52978 17L7.00197 15.3334L9.47416 17L8.93108 14.0814L11.002 12.0557L8.19426 11.6969L7.00199 9Z" fill="#DD2033"/>
<path d="M4.78984 11.5303L5.33529 14.6666L5.8353 15.6667H8.83531L9.50198 14.6666L6.48174 10.7835C6.20277 10.4248 5.70941 10.3129 5.30299 10.5161C5.13651 10.5994 5.00288 10.7265 4.91184 10.8784L4.00195 11.3333L4.78984 11.5303Z" fill="#FBD381"/>
</g>
<rect x="1.00195" y="0.999939" width="24.0001" height="24.0001" rx="12.0001" stroke="#EDEDED"/>
</svg>
