<svg width="25" height="14" viewBox="0 0 25 14" fill="none" xmlns="http://www.w3.org/2000/svg">
<rect x="0.5" y="0.5" width="24" height="13" rx="6.5" stroke="#A0BBCE"/>
<path d="M10.799 10.072C10.613 10.072 10.469 10.021 10.367 9.919C10.271 9.811 10.223 9.664 10.223 9.478V4.618H8.468C8.312 4.618 8.189 4.576 8.099 4.492C8.015 4.402 7.973 4.282 7.973 4.132C7.973 3.976 8.015 3.859 8.099 3.781C8.189 3.697 8.312 3.655 8.468 3.655H13.13C13.286 3.655 13.406 3.697 13.49 3.781C13.58 3.859 13.625 3.976 13.625 4.132C13.625 4.282 13.58 4.402 13.49 4.492C13.406 4.576 13.286 4.618 13.13 4.618H11.375V9.478C11.375 9.664 11.327 9.811 11.231 9.919C11.135 10.021 10.991 10.072 10.799 10.072ZM15.225 10.063C15.045 10.063 14.907 10.009 14.811 9.901C14.715 9.793 14.667 9.643 14.667 9.451V6.148C14.667 5.95 14.715 5.8 14.811 5.698C14.907 5.59 15.045 5.536 15.225 5.536C15.405 5.536 15.543 5.59 15.639 5.698C15.741 5.8 15.792 5.95 15.792 6.148V9.451C15.792 9.643 15.744 9.793 15.648 9.901C15.552 10.009 15.411 10.063 15.225 10.063ZM15.225 4.699C15.015 4.699 14.85 4.648 14.73 4.546C14.616 4.438 14.559 4.291 14.559 4.105C14.559 3.913 14.616 3.766 14.73 3.664C14.85 3.562 15.015 3.511 15.225 3.511C15.441 3.511 15.606 3.562 15.72 3.664C15.834 3.766 15.891 3.913 15.891 4.105C15.891 4.291 15.834 4.438 15.72 4.546C15.606 4.648 15.441 4.699 15.225 4.699Z" fill="#A0BBCE"/>
</svg>
