<svg width="25" height="14" viewBox="0 0 25 14" fill="none" xmlns="http://www.w3.org/2000/svg">
<rect x="0.5" y="0.5" width="24" height="13" rx="6.5" stroke="#B3B3B3"/>
<path d="M8.256 10.072C8.112 10.072 7.995 10.039 7.905 9.973C7.821 9.907 7.77 9.82 7.752 9.712C7.734 9.598 7.755 9.472 7.815 9.334L10.191 4.069C10.269 3.895 10.362 3.772 10.47 3.7C10.584 3.622 10.713 3.583 10.857 3.583C10.995 3.583 11.118 3.622 11.226 3.7C11.34 3.772 11.436 3.895 11.514 4.069L13.899 9.334C13.965 9.472 13.989 9.598 13.971 9.712C13.953 9.826 13.902 9.916 13.818 9.982C13.734 10.042 13.623 10.072 13.485 10.072C13.317 10.072 13.185 10.033 13.089 9.955C12.999 9.871 12.918 9.745 12.846 9.577L12.261 8.218L12.747 8.533H8.949L9.435 8.218L8.859 9.577C8.781 9.751 8.7 9.877 8.616 9.955C8.532 10.033 8.412 10.072 8.256 10.072ZM10.839 4.906L9.579 7.903L9.345 7.615H12.351L12.126 7.903L10.857 4.906H10.839ZM16.2853 10.09C15.7873 10.09 15.4123 9.949 15.1603 9.667C14.9083 9.379 14.7823 8.959 14.7823 8.407V4.15C14.7823 3.964 14.8303 3.823 14.9263 3.727C15.0223 3.631 15.1603 3.583 15.3403 3.583C15.5203 3.583 15.6583 3.631 15.7543 3.727C15.8563 3.823 15.9073 3.964 15.9073 4.15V8.353C15.9073 8.629 15.9643 8.833 16.0783 8.965C16.1983 9.097 16.3663 9.163 16.5823 9.163C16.6303 9.163 16.6753 9.163 16.7173 9.163C16.7593 9.157 16.8013 9.151 16.8433 9.145C16.9273 9.133 16.9843 9.157 17.0143 9.217C17.0443 9.271 17.0593 9.385 17.0593 9.559C17.0593 9.709 17.0293 9.826 16.9693 9.91C16.9093 9.994 16.8103 10.045 16.6723 10.063C16.6123 10.069 16.5493 10.075 16.4833 10.081C16.4173 10.087 16.3513 10.09 16.2853 10.09Z" fill="#B3B3B3"/>
</svg>
