<svg width="25" height="14" viewBox="0 0 25 14" fill="none" xmlns="http://www.w3.org/2000/svg">
<rect x="0.5" y="0.5" width="24" height="13" rx="6.5" stroke="#CEC1A0"/>
<path d="M8.733 10.072C8.559 10.072 8.424 10.024 8.328 9.928C8.238 9.832 8.193 9.694 8.193 9.514V4.159C8.193 3.973 8.238 3.832 8.328 3.736C8.424 3.634 8.547 3.583 8.697 3.583C8.835 3.583 8.937 3.61 9.003 3.664C9.075 3.712 9.159 3.796 9.255 3.916L12.702 8.389H12.468V4.132C12.468 3.958 12.513 3.823 12.603 3.727C12.699 3.631 12.834 3.583 13.008 3.583C13.182 3.583 13.314 3.631 13.404 3.727C13.494 3.823 13.539 3.958 13.539 4.132V9.532C13.539 9.7 13.497 9.832 13.413 9.928C13.329 10.024 13.215 10.072 13.071 10.072C12.933 10.072 12.822 10.045 12.738 9.991C12.66 9.937 12.573 9.85 12.477 9.73L9.039 5.257H9.264V9.514C9.264 9.694 9.219 9.832 9.129 9.928C9.039 10.024 8.907 10.072 8.733 10.072ZM15.3754 10.063C15.1954 10.063 15.0574 10.009 14.9614 9.901C14.8654 9.793 14.8174 9.643 14.8174 9.451V6.148C14.8174 5.95 14.8654 5.8 14.9614 5.698C15.0574 5.59 15.1954 5.536 15.3754 5.536C15.5554 5.536 15.6934 5.59 15.7894 5.698C15.8914 5.8 15.9424 5.95 15.9424 6.148V9.451C15.9424 9.643 15.8944 9.793 15.7984 9.901C15.7024 10.009 15.5614 10.063 15.3754 10.063ZM15.3754 4.699C15.1654 4.699 15.0004 4.648 14.8804 4.546C14.7664 4.438 14.7094 4.291 14.7094 4.105C14.7094 3.913 14.7664 3.766 14.8804 3.664C15.0004 3.562 15.1654 3.511 15.3754 3.511C15.5914 3.511 15.7564 3.562 15.8704 3.664C15.9844 3.766 16.0414 3.913 16.0414 4.105C16.0414 4.291 15.9844 4.438 15.8704 4.546C15.7564 4.648 15.5914 4.699 15.3754 4.699Z" fill="#CEC1A0"/>
</svg>
