<svg width="25" height="14" viewBox="0 0 25 14" fill="none" xmlns="http://www.w3.org/2000/svg">
<rect x="0.5" y="0.5" width="24" height="13" rx="6.5" stroke="#BEBEBE"/>
<path d="M7.954 10C7.804 10 7.681 9.97 7.585 9.91C7.495 9.85 7.432 9.769 7.396 9.667C7.366 9.559 7.366 9.442 7.396 9.316C7.432 9.184 7.501 9.049 7.603 8.911L11.041 4.249V4.618H7.864C7.696 4.618 7.567 4.576 7.477 4.492C7.393 4.408 7.351 4.288 7.351 4.132C7.351 3.976 7.393 3.859 7.477 3.781C7.567 3.697 7.696 3.655 7.864 3.655H11.59C11.74 3.655 11.86 3.685 11.95 3.745C12.046 3.805 12.109 3.886 12.139 3.988C12.175 4.09 12.175 4.207 12.139 4.339C12.109 4.471 12.043 4.606 11.941 4.744L8.503 9.397V9.037H11.815C11.983 9.037 12.109 9.079 12.193 9.163C12.283 9.241 12.328 9.358 12.328 9.514C12.328 9.67 12.283 9.79 12.193 9.874C12.109 9.958 11.983 10 11.815 10H7.954ZM13.5922 10.072C13.4122 10.072 13.2742 10.024 13.1782 9.928C13.0822 9.826 13.0342 9.682 13.0342 9.496V6.094C13.0342 5.908 13.0822 5.767 13.1782 5.671C13.2742 5.575 13.4092 5.527 13.5832 5.527C13.7572 5.527 13.8922 5.575 13.9882 5.671C14.0842 5.767 14.1322 5.908 14.1322 6.094V6.706L14.0332 6.481C14.1652 6.163 14.3692 5.923 14.6452 5.761C14.9272 5.593 15.2452 5.509 15.5992 5.509C15.9532 5.509 16.2442 5.575 16.4722 5.707C16.7002 5.839 16.8712 6.04 16.9852 6.31C17.0992 6.574 17.1562 6.91 17.1562 7.318V9.496C17.1562 9.682 17.1082 9.826 17.0122 9.928C16.9162 10.024 16.7782 10.072 16.5982 10.072C16.4182 10.072 16.2772 10.024 16.1752 9.928C16.0792 9.826 16.0312 9.682 16.0312 9.496V7.372C16.0312 7.03 15.9652 6.781 15.8332 6.625C15.7072 6.469 15.5092 6.391 15.2392 6.391C14.9092 6.391 14.6452 6.496 14.4472 6.706C14.2552 6.91 14.1592 7.183 14.1592 7.525V9.496C14.1592 9.88 13.9702 10.072 13.5922 10.072Z" fill="#BEBEBE"/>
</svg>
