<svg width="25" height="14" viewBox="0 0 25 14" fill="none" xmlns="http://www.w3.org/2000/svg">
<rect x="0.5" y="0.5" width="24" height="13" rx="6.5" stroke="#C1CADB"/>
<path d="M8.769 10.072C8.583 10.072 8.439 10.021 8.337 9.919C8.241 9.811 8.193 9.664 8.193 9.478V4.24C8.193 4.048 8.244 3.904 8.346 3.808C8.448 3.706 8.592 3.655 8.778 3.655H10.947C11.643 3.655 12.18 3.829 12.558 4.177C12.936 4.525 13.125 5.011 13.125 5.635C13.125 6.259 12.936 6.748 12.558 7.102C12.18 7.45 11.643 7.624 10.947 7.624H9.345V9.478C9.345 9.664 9.297 9.811 9.201 9.919C9.105 10.021 8.961 10.072 8.769 10.072ZM9.345 6.715H10.767C11.175 6.715 11.484 6.625 11.694 6.445C11.904 6.259 12.009 5.989 12.009 5.635C12.009 5.281 11.904 5.014 11.694 4.834C11.484 4.654 11.175 4.564 10.767 4.564H9.345V6.715ZM16.1039 10.09C15.7139 10.09 15.3869 10.024 15.1229 9.892C14.8649 9.76 14.6729 9.568 14.5469 9.316C14.4209 9.058 14.3579 8.74 14.3579 8.362V6.445H13.8899C13.7459 6.445 13.6349 6.409 13.5569 6.337C13.4789 6.259 13.4399 6.154 13.4399 6.022C13.4399 5.884 13.4789 5.779 13.5569 5.707C13.6349 5.635 13.7459 5.599 13.8899 5.599H14.3579V4.78C14.3579 4.594 14.4059 4.453 14.5019 4.357C14.6039 4.261 14.7449 4.213 14.9249 4.213C15.1049 4.213 15.2429 4.261 15.3389 4.357C15.4349 4.453 15.4829 4.594 15.4829 4.78V5.599H16.4369C16.5809 5.599 16.6919 5.635 16.7699 5.707C16.8479 5.779 16.8869 5.884 16.8869 6.022C16.8869 6.154 16.8479 6.259 16.7699 6.337C16.6919 6.409 16.5809 6.445 16.4369 6.445H15.4829V8.299C15.4829 8.587 15.5459 8.803 15.6719 8.947C15.7979 9.091 16.0019 9.163 16.2839 9.163C16.3859 9.163 16.4759 9.154 16.5539 9.136C16.6319 9.118 16.7009 9.106 16.7609 9.1C16.8329 9.094 16.8929 9.118 16.9409 9.172C16.9889 9.22 17.0129 9.322 17.0129 9.478C17.0129 9.598 16.9919 9.706 16.9499 9.802C16.9139 9.892 16.8449 9.955 16.7429 9.991C16.6649 10.015 16.5629 10.036 16.4369 10.054C16.3109 10.078 16.1999 10.09 16.1039 10.09Z" fill="#C1CADB"/>
</svg>
