<svg width="14" height="30" viewBox="0 0 14 30" fill="none" xmlns="http://www.w3.org/2000/svg">
<path d="M13.8698 0.940855C13.8302 0.447875 13.3977 0.0776194 12.908 0.146582C9.56443 0.617406 6.46749 2.20487 4.12894 4.66463C1.58414 7.34132 0.116316 10.8628 0.0066179 14.5545C-0.10308 18.2462 1.15306 21.8486 3.53443 24.6716C5.7228 27.2659 8.72002 29.0345 12.0297 29.703C12.5145 29.8009 12.9682 29.457 13.037 28.9672C13.1058 28.4775 12.7637 28.0277 12.2797 27.9259C9.40669 27.3213 6.8074 25.774 4.90342 23.5168C2.80639 21.0309 1.70023 17.8586 1.79683 14.6077C1.89343 11.3568 3.18599 8.25577 5.42694 5.89867C7.46159 3.75857 10.1482 2.36831 13.052 1.93541C13.5412 1.86249 13.9094 1.43384 13.8698 0.940855Z" fill="#92A3BD"/>
</svg>
