<svg width="25" height="14" viewBox="0 0 25 14" fill="none" xmlns="http://www.w3.org/2000/svg">
<rect x="0.5" y="0.5" width="24" height="13" rx="6.5" stroke="#E6B22C"/>
<path d="M7.256 10.072C7.112 10.072 6.995 10.039 6.905 9.973C6.821 9.907 6.77 9.82 6.752 9.712C6.734 9.598 6.755 9.472 6.815 9.334L9.191 4.069C9.269 3.895 9.362 3.772 9.47 3.7C9.584 3.622 9.713 3.583 9.857 3.583C9.995 3.583 10.118 3.622 10.226 3.7C10.34 3.772 10.436 3.895 10.514 4.069L12.899 9.334C12.965 9.472 12.989 9.598 12.971 9.712C12.953 9.826 12.902 9.916 12.818 9.982C12.734 10.042 12.623 10.072 12.485 10.072C12.317 10.072 12.185 10.033 12.089 9.955C11.999 9.871 11.918 9.745 11.846 9.577L11.261 8.218L11.747 8.533H7.949L8.435 8.218L7.859 9.577C7.781 9.751 7.7 9.877 7.616 9.955C7.532 10.033 7.412 10.072 7.256 10.072ZM9.839 4.906L8.579 7.903L8.345 7.615H11.351L11.126 7.903L9.857 4.906H9.839ZM15.3753 10.09C15.0093 10.09 14.7063 10.024 14.4663 9.892C14.2263 9.754 14.0463 9.55 13.9263 9.28C13.8123 9.01 13.7553 8.674 13.7553 8.272V6.094C13.7553 5.902 13.8033 5.761 13.8993 5.671C13.9953 5.575 14.1333 5.527 14.3133 5.527C14.4933 5.527 14.6313 5.575 14.7273 5.671C14.8293 5.761 14.8803 5.902 14.8803 6.094V8.29C14.8803 8.602 14.9433 8.833 15.0693 8.983C15.1953 9.133 15.3963 9.208 15.6723 9.208C15.9723 9.208 16.2183 9.106 16.4103 8.902C16.6023 8.692 16.6983 8.416 16.6983 8.074V6.094C16.6983 5.902 16.7463 5.761 16.8423 5.671C16.9383 5.575 17.0763 5.527 17.2563 5.527C17.4363 5.527 17.5743 5.575 17.6703 5.671C17.7723 5.761 17.8233 5.902 17.8233 6.094V9.496C17.8233 9.88 17.6403 10.072 17.2743 10.072C17.1003 10.072 16.9653 10.024 16.8693 9.928C16.7733 9.826 16.7253 9.682 16.7253 9.496V8.812L16.8513 9.082C16.7253 9.406 16.5333 9.655 16.2753 9.829C16.0233 10.003 15.7233 10.09 15.3753 10.09Z" fill="#E6B22C"/>
</svg>
