<svg width="25" height="14" viewBox="0 0 25 14" fill="none" xmlns="http://www.w3.org/2000/svg">
<rect x="0.5" y="0.5" width="24" height="13" rx="6.5" stroke="black"/>
<path d="M9.537 10.09C8.925 10.09 8.388 9.955 7.926 9.685C7.47 9.415 7.116 9.037 6.864 8.551C6.612 8.059 6.486 7.483 6.486 6.823C6.486 6.325 6.558 5.878 6.702 5.482C6.846 5.08 7.05 4.738 7.314 4.456C7.584 4.168 7.905 3.949 8.277 3.799C8.655 3.643 9.075 3.565 9.537 3.565C10.155 3.565 10.692 3.7 11.148 3.97C11.604 4.234 11.958 4.609 12.21 5.095C12.462 5.581 12.588 6.154 12.588 6.814C12.588 7.312 12.516 7.762 12.372 8.164C12.228 8.566 12.021 8.911 11.751 9.199C11.487 9.487 11.166 9.709 10.788 9.865C10.416 10.015 9.999 10.09 9.537 10.09ZM9.537 9.1C9.927 9.1 10.257 9.01 10.527 8.83C10.803 8.65 11.013 8.389 11.157 8.047C11.307 7.705 11.382 7.297 11.382 6.823C11.382 6.103 11.22 5.545 10.896 5.149C10.578 4.753 10.125 4.555 9.537 4.555C9.153 4.555 8.823 4.645 8.547 4.825C8.271 4.999 8.058 5.257 7.908 5.599C7.764 5.935 7.692 6.343 7.692 6.823C7.692 7.537 7.854 8.095 8.178 8.497C8.502 8.899 8.955 9.1 9.537 9.1ZM14.2094 10.063C14.0294 10.063 13.8914 10.009 13.7954 9.901C13.6994 9.793 13.6514 9.643 13.6514 9.451V6.148C13.6514 5.95 13.6994 5.8 13.7954 5.698C13.8914 5.59 14.0294 5.536 14.2094 5.536C14.3894 5.536 14.5274 5.59 14.6234 5.698C14.7254 5.8 14.7764 5.95 14.7764 6.148V9.451C14.7764 9.643 14.7284 9.793 14.6324 9.901C14.5364 10.009 14.3954 10.063 14.2094 10.063ZM14.2094 4.699C13.9994 4.699 13.8344 4.648 13.7144 4.546C13.6004 4.438 13.5434 4.291 13.5434 4.105C13.5434 3.913 13.6004 3.766 13.7144 3.664C13.8344 3.562 13.9994 3.511 14.2094 3.511C14.4254 3.511 14.5904 3.562 14.7044 3.664C14.8184 3.766 14.8754 3.913 14.8754 4.105C14.8754 4.291 14.8184 4.438 14.7044 4.546C14.5904 4.648 14.4254 4.699 14.2094 4.699ZM17.4484 10.09C16.9504 10.09 16.5754 9.949 16.3234 9.667C16.0714 9.379 15.9454 8.959 15.9454 8.407V4.15C15.9454 3.964 15.9934 3.823 16.0894 3.727C16.1854 3.631 16.3234 3.583 16.5034 3.583C16.6834 3.583 16.8214 3.631 16.9174 3.727C17.0194 3.823 17.0704 3.964 17.0704 4.15V8.353C17.0704 8.629 17.1274 8.833 17.2414 8.965C17.3614 9.097 17.5294 9.163 17.7454 9.163C17.7934 9.163 17.8384 9.163 17.8804 9.163C17.9224 9.157 17.9644 9.151 18.0064 9.145C18.0904 9.133 18.1474 9.157 18.1774 9.217C18.2074 9.271 18.2224 9.385 18.2224 9.559C18.2224 9.709 18.1924 9.826 18.1324 9.91C18.0724 9.994 17.9734 10.045 17.8354 10.063C17.7754 10.069 17.7124 10.075 17.6464 10.081C17.5804 10.087 17.5144 10.09 17.4484 10.09Z" fill="#393939"/>
</svg>
