<svg width="25" height="14" viewBox="0 0 25 14" fill="none" xmlns="http://www.w3.org/2000/svg">
<rect x="0.5" y="0.5" width="24" height="13" rx="6.5" stroke="black"/>
<path d="M6.645 10.09C5.985 10.09 5.418 9.958 4.944 9.694C4.476 9.424 4.116 9.046 3.864 8.56C3.612 8.068 3.486 7.489 3.486 6.823C3.486 6.325 3.558 5.878 3.702 5.482C3.846 5.08 4.053 4.738 4.323 4.456C4.593 4.168 4.923 3.949 5.313 3.799C5.709 3.643 6.153 3.565 6.645 3.565C6.975 3.565 7.299 3.607 7.617 3.691C7.935 3.775 8.214 3.895 8.454 4.051C8.58 4.129 8.664 4.225 8.706 4.339C8.748 4.447 8.757 4.555 8.733 4.663C8.709 4.765 8.658 4.852 8.58 4.924C8.508 4.996 8.415 5.038 8.301 5.05C8.193 5.056 8.073 5.017 7.941 4.933C7.755 4.813 7.554 4.726 7.338 4.672C7.122 4.618 6.903 4.591 6.681 4.591C6.255 4.591 5.895 4.678 5.601 4.852C5.307 5.026 5.085 5.278 4.935 5.608C4.785 5.938 4.71 6.343 4.71 6.823C4.71 7.297 4.785 7.702 4.935 8.038C5.085 8.374 5.307 8.629 5.601 8.803C5.895 8.977 6.255 9.064 6.681 9.064C6.909 9.064 7.134 9.037 7.356 8.983C7.578 8.923 7.788 8.833 7.986 8.713C8.118 8.635 8.235 8.602 8.337 8.614C8.445 8.62 8.535 8.656 8.607 8.722C8.679 8.788 8.727 8.872 8.751 8.974C8.775 9.07 8.769 9.172 8.733 9.28C8.697 9.382 8.625 9.472 8.517 9.55C8.277 9.724 7.989 9.859 7.653 9.955C7.323 10.045 6.987 10.09 6.645 10.09ZM11.3928 10.09C10.9368 10.09 10.5408 9.997 10.2048 9.811C9.86878 9.625 9.60778 9.361 9.42178 9.019C9.23578 8.671 9.14278 8.263 9.14278 7.795C9.14278 7.441 9.19378 7.126 9.29578 6.85C9.40378 6.568 9.55678 6.328 9.75478 6.13C9.95278 5.926 10.1898 5.773 10.4658 5.671C10.7418 5.563 11.0508 5.509 11.3928 5.509C11.8488 5.509 12.2448 5.602 12.5808 5.788C12.9168 5.974 13.1778 6.238 13.3638 6.58C13.5498 6.922 13.6428 7.327 13.6428 7.795C13.6428 8.149 13.5888 8.467 13.4808 8.749C13.3788 9.031 13.2288 9.274 13.0308 9.478C12.8328 9.676 12.5958 9.829 12.3198 9.937C12.0438 10.039 11.7348 10.09 11.3928 10.09ZM11.3928 9.235C11.6148 9.235 11.8098 9.181 11.9778 9.073C12.1458 8.965 12.2748 8.806 12.3648 8.596C12.4608 8.38 12.5088 8.113 12.5088 7.795C12.5088 7.315 12.4068 6.958 12.2028 6.724C11.9988 6.484 11.7288 6.364 11.3928 6.364C11.1708 6.364 10.9758 6.418 10.8078 6.526C10.6398 6.628 10.5078 6.787 10.4118 7.003C10.3218 7.213 10.2768 7.477 10.2768 7.795C10.2768 8.269 10.3788 8.629 10.5828 8.875C10.7868 9.115 11.0568 9.235 11.3928 9.235ZM16.0203 10.09C15.7023 10.09 15.4173 10.03 15.1653 9.91C14.9193 9.784 14.7243 9.616 14.5803 9.406C14.4423 9.196 14.3733 8.959 14.3733 8.695C14.3733 8.371 14.4573 8.116 14.6253 7.93C14.7933 7.738 15.0663 7.6 15.4443 7.516C15.8223 7.432 16.3293 7.39 16.9653 7.39H17.4153V8.038H16.9743C16.6023 8.038 16.3053 8.056 16.0833 8.092C15.8613 8.128 15.7023 8.191 15.6063 8.281C15.5163 8.365 15.4713 8.485 15.4713 8.641C15.4713 8.839 15.5403 9.001 15.6783 9.127C15.8163 9.253 16.0083 9.316 16.2543 9.316C16.4523 9.316 16.6263 9.271 16.7763 9.181C16.9323 9.085 17.0553 8.956 17.1453 8.794C17.2353 8.632 17.2803 8.446 17.2803 8.236V7.201C17.2803 6.901 17.2143 6.685 17.0823 6.553C16.9503 6.421 16.7283 6.355 16.4163 6.355C16.2423 6.355 16.0533 6.376 15.8493 6.418C15.6513 6.46 15.4413 6.532 15.2193 6.634C15.1053 6.688 15.0033 6.703 14.9133 6.679C14.8293 6.655 14.7633 6.607 14.7153 6.535C14.6673 6.457 14.6433 6.373 14.6433 6.283C14.6433 6.193 14.6673 6.106 14.7153 6.022C14.7633 5.932 14.8443 5.866 14.9583 5.824C15.2343 5.71 15.4983 5.629 15.7503 5.581C16.0083 5.533 16.2423 5.509 16.4523 5.509C16.8843 5.509 17.2383 5.575 17.5143 5.707C17.7963 5.839 18.0063 6.04 18.1443 6.31C18.2823 6.574 18.3513 6.916 18.3513 7.336V9.496C18.3513 9.682 18.3063 9.826 18.2163 9.928C18.1263 10.024 17.9973 10.072 17.8293 10.072C17.6613 10.072 17.5293 10.024 17.4333 9.928C17.3433 9.826 17.2983 9.682 17.2983 9.496V9.064H17.3703C17.3283 9.274 17.2443 9.457 17.1183 9.613C16.9983 9.763 16.8453 9.88 16.6593 9.964C16.4733 10.048 16.2603 10.09 16.0203 10.09ZM20.9962 10.09C20.4982 10.09 20.1232 9.949 19.8712 9.667C19.6192 9.379 19.4932 8.959 19.4932 8.407V4.15C19.4932 3.964 19.5412 3.823 19.6372 3.727C19.7332 3.631 19.8712 3.583 20.0512 3.583C20.2312 3.583 20.3692 3.631 20.4652 3.727C20.5672 3.823 20.6182 3.964 20.6182 4.15V8.353C20.6182 8.629 20.6752 8.833 20.7892 8.965C20.9092 9.097 21.0772 9.163 21.2932 9.163C21.3412 9.163 21.3862 9.163 21.4282 9.163C21.4702 9.157 21.5122 9.151 21.5542 9.145C21.6382 9.133 21.6952 9.157 21.7252 9.217C21.7552 9.271 21.7702 9.385 21.7702 9.559C21.7702 9.709 21.7402 9.826 21.6802 9.91C21.6202 9.994 21.5212 10.045 21.3832 10.063C21.3232 10.069 21.2602 10.075 21.1942 10.081C21.1282 10.087 21.0622 10.09 20.9962 10.09Z" fill="#393939"/>
</svg>
