<svg width="25" height="14" viewBox="0 0 25 14" fill="none" xmlns="http://www.w3.org/2000/svg">
<rect x="0.5" y="0.5" width="24" height="13" rx="6.5" stroke="#9C9EAA"/>
<path d="M6.756 10.072C6.612 10.072 6.495 10.039 6.405 9.973C6.321 9.907 6.27 9.82 6.252 9.712C6.234 9.598 6.255 9.472 6.315 9.334L8.691 4.069C8.769 3.895 8.862 3.772 8.97 3.7C9.084 3.622 9.213 3.583 9.357 3.583C9.495 3.583 9.618 3.622 9.726 3.7C9.84 3.772 9.936 3.895 10.014 4.069L12.399 9.334C12.465 9.472 12.489 9.598 12.471 9.712C12.453 9.826 12.402 9.916 12.318 9.982C12.234 10.042 12.123 10.072 11.985 10.072C11.817 10.072 11.685 10.033 11.589 9.955C11.499 9.871 11.418 9.745 11.346 9.577L10.761 8.218L11.247 8.533H7.449L7.935 8.218L7.359 9.577C7.281 9.751 7.2 9.877 7.116 9.955C7.032 10.033 6.912 10.072 6.756 10.072ZM9.339 4.906L8.079 7.903L7.845 7.615H10.851L10.626 7.903L9.357 4.906H9.339ZM15.2903 11.71C14.9663 11.71 14.6513 11.68 14.3453 11.62C14.0453 11.56 13.7723 11.467 13.5263 11.341C13.4123 11.281 13.3343 11.209 13.2923 11.125C13.2563 11.041 13.2443 10.954 13.2563 10.864C13.2743 10.78 13.3103 10.705 13.3643 10.639C13.4243 10.573 13.4963 10.528 13.5803 10.504C13.6643 10.48 13.7513 10.492 13.8413 10.54C14.1053 10.672 14.3543 10.756 14.5883 10.792C14.8283 10.834 15.0323 10.855 15.2003 10.855C15.6023 10.855 15.9023 10.756 16.1003 10.558C16.3043 10.366 16.4063 10.078 16.4063 9.694V8.884H16.4873C16.3973 9.19 16.2083 9.436 15.9203 9.622C15.6383 9.802 15.3173 9.892 14.9573 9.892C14.5613 9.892 14.2163 9.802 13.9223 9.622C13.6283 9.436 13.4003 9.178 13.2383 8.848C13.0763 8.518 12.9953 8.134 12.9953 7.696C12.9953 7.366 13.0403 7.069 13.1303 6.805C13.2263 6.535 13.3583 6.304 13.5263 6.112C13.7003 5.92 13.9073 5.773 14.1473 5.671C14.3933 5.563 14.6633 5.509 14.9573 5.509C15.3293 5.509 15.6533 5.602 15.9293 5.788C16.2113 5.968 16.3943 6.208 16.4783 6.508L16.3883 6.733V6.094C16.3883 5.908 16.4363 5.767 16.5323 5.671C16.6343 5.575 16.7723 5.527 16.9463 5.527C17.1263 5.527 17.2643 5.575 17.3603 5.671C17.4563 5.767 17.5043 5.908 17.5043 6.094V9.559C17.5043 10.273 17.3153 10.81 16.9373 11.17C16.5593 11.53 16.0103 11.71 15.2903 11.71ZM15.2633 9.037C15.4973 9.037 15.6983 8.983 15.8663 8.875C16.0343 8.767 16.1633 8.614 16.2533 8.416C16.3493 8.212 16.3973 7.972 16.3973 7.696C16.3973 7.282 16.2953 6.958 16.0913 6.724C15.8873 6.484 15.6113 6.364 15.2633 6.364C15.0293 6.364 14.8283 6.418 14.6603 6.526C14.4923 6.634 14.3603 6.787 14.2643 6.985C14.1743 7.183 14.1293 7.42 14.1293 7.696C14.1293 8.11 14.2313 8.437 14.4353 8.677C14.6393 8.917 14.9153 9.037 15.2633 9.037Z" fill="#9C9EAA"/>
</svg>
