<svg width="25" height="14" viewBox="0 0 25 14" fill="none" xmlns="http://www.w3.org/2000/svg">
<rect x="0.5" y="0.5" width="24" height="13" rx="6.5" stroke="#C66F6F"/>
<path d="M8.787 10.072C8.601 10.072 8.454 10.021 8.346 9.919C8.244 9.811 8.193 9.658 8.193 9.46V4.267C8.193 4.069 8.244 3.919 8.346 3.817C8.454 3.709 8.607 3.655 8.805 3.655H11.946C12.102 3.655 12.219 3.694 12.297 3.772C12.375 3.85 12.414 3.961 12.414 4.105C12.414 4.255 12.375 4.372 12.297 4.456C12.219 4.534 12.102 4.573 11.946 4.573H9.345V6.364H11.757C11.907 6.364 12.021 6.403 12.099 6.481C12.183 6.559 12.225 6.67 12.225 6.814C12.225 6.964 12.183 7.081 12.099 7.165C12.021 7.243 11.907 7.282 11.757 7.282H9.345V9.46C9.345 9.868 9.159 10.072 8.787 10.072ZM15.1495 10.09C14.6515 10.09 14.2225 9.997 13.8625 9.811C13.5025 9.625 13.2235 9.361 13.0255 9.019C12.8335 8.677 12.7375 8.272 12.7375 7.804C12.7375 7.348 12.8305 6.949 13.0165 6.607C13.2085 6.265 13.4695 5.998 13.7995 5.806C14.1355 5.608 14.5165 5.509 14.9425 5.509C15.2545 5.509 15.5335 5.56 15.7795 5.662C16.0315 5.764 16.2445 5.911 16.4185 6.103C16.5985 6.295 16.7335 6.529 16.8235 6.805C16.9195 7.075 16.9675 7.381 16.9675 7.723C16.9675 7.831 16.9285 7.915 16.8505 7.975C16.7785 8.029 16.6735 8.056 16.5355 8.056H13.6465V7.408H16.1755L16.0315 7.543C16.0315 7.267 15.9895 7.036 15.9055 6.85C15.8275 6.664 15.7105 6.523 15.5545 6.427C15.4045 6.325 15.2155 6.274 14.9875 6.274C14.7355 6.274 14.5195 6.334 14.3395 6.454C14.1655 6.568 14.0305 6.733 13.9345 6.949C13.8445 7.159 13.7995 7.411 13.7995 7.705V7.768C13.7995 8.26 13.9135 8.629 14.1415 8.875C14.3755 9.115 14.7175 9.235 15.1675 9.235C15.3235 9.235 15.4975 9.217 15.6895 9.181C15.8875 9.139 16.0735 9.07 16.2475 8.974C16.3735 8.902 16.4845 8.872 16.5805 8.884C16.6765 8.89 16.7515 8.923 16.8055 8.983C16.8655 9.043 16.9015 9.118 16.9135 9.208C16.9255 9.292 16.9075 9.379 16.8595 9.469C16.8175 9.559 16.7425 9.637 16.6345 9.703C16.4245 9.835 16.1815 9.934 15.9055 10C15.6355 10.06 15.3835 10.09 15.1495 10.09Z" fill="#C66F6F"/>
</svg>
