<svg width="25" height="14" viewBox="0 0 25 14" fill="none" xmlns="http://www.w3.org/2000/svg">
<rect x="0.5" y="0.5" width="24" height="13" rx="6.5" stroke="#FFD159"/>
<path d="M12.38 10.09C12.116 10.09 11.852 10.069 11.588 10.027C11.324 9.991 11.075 9.934 10.841 9.856C10.607 9.772 10.397 9.67 10.211 9.55C10.103 9.478 10.028 9.391 9.986 9.289C9.944 9.187 9.929 9.088 9.941 8.992C9.959 8.89 9.998 8.803 10.058 8.731C10.124 8.653 10.205 8.605 10.301 8.587C10.397 8.569 10.502 8.596 10.616 8.668C10.88 8.824 11.159 8.938 11.453 9.01C11.747 9.082 12.056 9.118 12.38 9.118C12.854 9.118 13.199 9.04 13.415 8.884C13.631 8.722 13.739 8.515 13.739 8.263C13.739 8.053 13.661 7.888 13.505 7.768C13.355 7.648 13.094 7.549 12.722 7.471L11.732 7.264C11.162 7.144 10.736 6.943 10.454 6.661C10.178 6.373 10.04 5.995 10.04 5.527C10.04 5.233 10.1 4.966 10.22 4.726C10.34 4.486 10.508 4.279 10.724 4.105C10.946 3.931 11.207 3.799 11.507 3.709C11.813 3.613 12.149 3.565 12.515 3.565C12.875 3.565 13.217 3.61 13.541 3.7C13.865 3.79 14.156 3.922 14.414 4.096C14.51 4.162 14.573 4.243 14.603 4.339C14.639 4.435 14.648 4.531 14.63 4.627C14.612 4.717 14.57 4.795 14.504 4.861C14.438 4.927 14.354 4.966 14.252 4.978C14.156 4.99 14.045 4.96 13.919 4.888C13.697 4.762 13.472 4.672 13.244 4.618C13.016 4.564 12.77 4.537 12.506 4.537C12.23 4.537 11.993 4.576 11.795 4.654C11.597 4.732 11.444 4.843 11.336 4.987C11.234 5.125 11.183 5.29 11.183 5.482C11.183 5.698 11.255 5.872 11.399 6.004C11.543 6.13 11.789 6.229 12.137 6.301L13.118 6.508C13.712 6.634 14.153 6.832 14.441 7.102C14.735 7.372 14.882 7.732 14.882 8.182C14.882 8.47 14.822 8.731 14.702 8.965C14.588 9.199 14.42 9.4 14.198 9.568C13.982 9.736 13.721 9.865 13.415 9.955C13.109 10.045 12.764 10.09 12.38 10.09Z" fill="#FFD159"/>
</svg>
