<svg width="25" height="14" viewBox="0 0 25 14" fill="none" xmlns="http://www.w3.org/2000/svg">
<rect x="0.5" y="0.5" width="24" height="13" rx="6.5" stroke="#B3B3B3"/>
<path d="M7.233 10.072C7.059 10.072 6.924 10.024 6.828 9.928C6.738 9.832 6.693 9.694 6.693 9.514V4.159C6.693 3.973 6.738 3.832 6.828 3.736C6.924 3.634 7.047 3.583 7.197 3.583C7.335 3.583 7.437 3.61 7.503 3.664C7.575 3.712 7.659 3.796 7.755 3.916L11.202 8.389H10.968V4.132C10.968 3.958 11.013 3.823 11.103 3.727C11.199 3.631 11.334 3.583 11.508 3.583C11.682 3.583 11.814 3.631 11.904 3.727C11.994 3.823 12.039 3.958 12.039 4.132V9.532C12.039 9.7 11.997 9.832 11.913 9.928C11.829 10.024 11.715 10.072 11.571 10.072C11.433 10.072 11.322 10.045 11.238 9.991C11.16 9.937 11.073 9.85 10.977 9.73L7.539 5.257H7.764V9.514C7.764 9.694 7.719 9.832 7.629 9.928C7.539 10.024 7.407 10.072 7.233 10.072ZM15.3694 11.71C15.0454 11.71 14.7304 11.68 14.4244 11.62C14.1244 11.56 13.8514 11.467 13.6054 11.341C13.4914 11.281 13.4134 11.209 13.3714 11.125C13.3354 11.041 13.3234 10.954 13.3354 10.864C13.3534 10.78 13.3894 10.705 13.4434 10.639C13.5034 10.573 13.5754 10.528 13.6594 10.504C13.7434 10.48 13.8304 10.492 13.9204 10.54C14.1844 10.672 14.4334 10.756 14.6674 10.792C14.9074 10.834 15.1114 10.855 15.2794 10.855C15.6814 10.855 15.9814 10.756 16.1794 10.558C16.3834 10.366 16.4854 10.078 16.4854 9.694V8.884H16.5664C16.4764 9.19 16.2874 9.436 15.9994 9.622C15.7174 9.802 15.3964 9.892 15.0364 9.892C14.6404 9.892 14.2954 9.802 14.0014 9.622C13.7074 9.436 13.4794 9.178 13.3174 8.848C13.1554 8.518 13.0744 8.134 13.0744 7.696C13.0744 7.366 13.1194 7.069 13.2094 6.805C13.3054 6.535 13.4374 6.304 13.6054 6.112C13.7794 5.92 13.9864 5.773 14.2264 5.671C14.4724 5.563 14.7424 5.509 15.0364 5.509C15.4084 5.509 15.7324 5.602 16.0084 5.788C16.2904 5.968 16.4734 6.208 16.5574 6.508L16.4674 6.733V6.094C16.4674 5.908 16.5154 5.767 16.6114 5.671C16.7134 5.575 16.8514 5.527 17.0254 5.527C17.2054 5.527 17.3434 5.575 17.4394 5.671C17.5354 5.767 17.5834 5.908 17.5834 6.094V9.559C17.5834 10.273 17.3944 10.81 17.0164 11.17C16.6384 11.53 16.0894 11.71 15.3694 11.71ZM15.3424 9.037C15.5764 9.037 15.7774 8.983 15.9454 8.875C16.1134 8.767 16.2424 8.614 16.3324 8.416C16.4284 8.212 16.4764 7.972 16.4764 7.696C16.4764 7.282 16.3744 6.958 16.1704 6.724C15.9664 6.484 15.6904 6.364 15.3424 6.364C15.1084 6.364 14.9074 6.418 14.7394 6.526C14.5714 6.634 14.4394 6.787 14.3434 6.985C14.2534 7.183 14.2084 7.42 14.2084 7.696C14.2084 8.11 14.3104 8.437 14.5144 8.677C14.7184 8.917 14.9944 9.037 15.3424 9.037Z" fill="#B3B3B3"/>
</svg>
