<svg width="25" height="14" viewBox="0 0 25 14" fill="none" xmlns="http://www.w3.org/2000/svg">
<rect x="0.5" y="0.5" width="24" height="13" rx="6.5" stroke="#02A1D3"/>
<path d="M10.645 10.09C9.985 10.09 9.418 9.958 8.944 9.694C8.476 9.424 8.116 9.046 7.864 8.56C7.612 8.068 7.486 7.489 7.486 6.823C7.486 6.325 7.558 5.878 7.702 5.482C7.846 5.08 8.053 4.738 8.323 4.456C8.593 4.168 8.923 3.949 9.313 3.799C9.709 3.643 10.153 3.565 10.645 3.565C10.975 3.565 11.299 3.607 11.617 3.691C11.935 3.775 12.214 3.895 12.454 4.051C12.58 4.129 12.664 4.225 12.706 4.339C12.748 4.447 12.757 4.555 12.733 4.663C12.709 4.765 12.658 4.852 12.58 4.924C12.508 4.996 12.415 5.038 12.301 5.05C12.193 5.056 12.073 5.017 11.941 4.933C11.755 4.813 11.554 4.726 11.338 4.672C11.122 4.618 10.903 4.591 10.681 4.591C10.255 4.591 9.895 4.678 9.601 4.852C9.307 5.026 9.085 5.278 8.935 5.608C8.785 5.938 8.71 6.343 8.71 6.823C8.71 7.297 8.785 7.702 8.935 8.038C9.085 8.374 9.307 8.629 9.601 8.803C9.895 8.977 10.255 9.064 10.681 9.064C10.909 9.064 11.134 9.037 11.356 8.983C11.578 8.923 11.788 8.833 11.986 8.713C12.118 8.635 12.235 8.602 12.337 8.614C12.445 8.62 12.535 8.656 12.607 8.722C12.679 8.788 12.727 8.872 12.751 8.974C12.775 9.07 12.769 9.172 12.733 9.28C12.697 9.382 12.625 9.472 12.517 9.55C12.277 9.724 11.989 9.859 11.653 9.955C11.323 10.045 10.987 10.09 10.645 10.09ZM15.3928 10.09C14.9368 10.09 14.5408 9.997 14.2048 9.811C13.8688 9.625 13.6078 9.361 13.4218 9.019C13.2358 8.671 13.1428 8.263 13.1428 7.795C13.1428 7.441 13.1938 7.126 13.2958 6.85C13.4038 6.568 13.5568 6.328 13.7548 6.13C13.9528 5.926 14.1898 5.773 14.4658 5.671C14.7418 5.563 15.0508 5.509 15.3928 5.509C15.8488 5.509 16.2448 5.602 16.5808 5.788C16.9168 5.974 17.1778 6.238 17.3638 6.58C17.5498 6.922 17.6428 7.327 17.6428 7.795C17.6428 8.149 17.5888 8.467 17.4808 8.749C17.3788 9.031 17.2288 9.274 17.0308 9.478C16.8328 9.676 16.5958 9.829 16.3198 9.937C16.0438 10.039 15.7348 10.09 15.3928 10.09ZM15.3928 9.235C15.6148 9.235 15.8098 9.181 15.9778 9.073C16.1458 8.965 16.2748 8.806 16.3648 8.596C16.4608 8.38 16.5088 8.113 16.5088 7.795C16.5088 7.315 16.4068 6.958 16.2028 6.724C15.9988 6.484 15.7288 6.364 15.3928 6.364C15.1708 6.364 14.9758 6.418 14.8078 6.526C14.6398 6.628 14.5078 6.787 14.4118 7.003C14.3218 7.213 14.2768 7.477 14.2768 7.795C14.2768 8.269 14.3788 8.629 14.5828 8.875C14.7868 9.115 15.0568 9.235 15.3928 9.235Z" fill="#02A1D3"/>
</svg>
