<svg width="25" height="14" viewBox="0 0 25 14" fill="none" xmlns="http://www.w3.org/2000/svg">
<rect x="0.5" y="0.5" width="24" height="13" rx="6.5" stroke="#FF5858"/>
<path d="M10.145 10.09C9.485 10.09 8.918 9.958 8.444 9.694C7.976 9.424 7.616 9.046 7.364 8.56C7.112 8.068 6.986 7.489 6.986 6.823C6.986 6.325 7.058 5.878 7.202 5.482C7.346 5.08 7.553 4.738 7.823 4.456C8.093 4.168 8.423 3.949 8.813 3.799C9.209 3.643 9.653 3.565 10.145 3.565C10.475 3.565 10.799 3.607 11.117 3.691C11.435 3.775 11.714 3.895 11.954 4.051C12.08 4.129 12.164 4.225 12.206 4.339C12.248 4.447 12.257 4.555 12.233 4.663C12.209 4.765 12.158 4.852 12.08 4.924C12.008 4.996 11.915 5.038 11.801 5.05C11.693 5.056 11.573 5.017 11.441 4.933C11.255 4.813 11.054 4.726 10.838 4.672C10.622 4.618 10.403 4.591 10.181 4.591C9.755 4.591 9.395 4.678 9.101 4.852C8.807 5.026 8.585 5.278 8.435 5.608C8.285 5.938 8.21 6.343 8.21 6.823C8.21 7.297 8.285 7.702 8.435 8.038C8.585 8.374 8.807 8.629 9.101 8.803C9.395 8.977 9.755 9.064 10.181 9.064C10.409 9.064 10.634 9.037 10.856 8.983C11.078 8.923 11.288 8.833 11.486 8.713C11.618 8.635 11.735 8.602 11.837 8.614C11.945 8.62 12.035 8.656 12.107 8.722C12.179 8.788 12.227 8.872 12.251 8.974C12.275 9.07 12.269 9.172 12.233 9.28C12.197 9.382 12.125 9.472 12.017 9.55C11.777 9.724 11.489 9.859 11.153 9.955C10.823 10.045 10.487 10.09 10.145 10.09ZM14.6809 10.09C14.3149 10.09 14.0119 10.024 13.7719 9.892C13.5319 9.754 13.3519 9.55 13.2319 9.28C13.1179 9.01 13.0609 8.674 13.0609 8.272V6.094C13.0609 5.902 13.1089 5.761 13.2049 5.671C13.3009 5.575 13.4389 5.527 13.6189 5.527C13.7989 5.527 13.9369 5.575 14.0329 5.671C14.1349 5.761 14.1859 5.902 14.1859 6.094V8.29C14.1859 8.602 14.2489 8.833 14.3749 8.983C14.5009 9.133 14.7019 9.208 14.9779 9.208C15.2779 9.208 15.5239 9.106 15.7159 8.902C15.9079 8.692 16.0039 8.416 16.0039 8.074V6.094C16.0039 5.902 16.0519 5.761 16.1479 5.671C16.2439 5.575 16.3819 5.527 16.5619 5.527C16.7419 5.527 16.8799 5.575 16.9759 5.671C17.0779 5.761 17.1289 5.902 17.1289 6.094V9.496C17.1289 9.88 16.9459 10.072 16.5799 10.072C16.4059 10.072 16.2709 10.024 16.1749 9.928C16.0789 9.826 16.0309 9.682 16.0309 9.496V8.812L16.1569 9.082C16.0309 9.406 15.8389 9.655 15.5809 9.829C15.3289 10.003 15.0289 10.09 14.6809 10.09Z" fill="#FF5858"/>
</svg>
