<svg width="26" height="9" viewBox="0 0 26 9" fill="none" xmlns="http://www.w3.org/2000/svg">
<path d="M25.5458 2.1013C25.9507 2.38537 26.0506 2.94577 25.7429 3.33295C24.3092 5.13696 22.4762 6.58971 20.3837 7.57381C18.0205 8.68519 15.4082 9.16037 12.805 8.95233C10.2019 8.74429 7.69816 7.86025 5.54151 6.38765C3.63184 5.0837 2.0529 3.35828 0.923851 1.34945C0.681531 0.918312 0.869239 0.380909 1.31407 0.164743C1.7589 -0.0514221 2.2921 0.135752 2.5379 0.564917C3.52832 2.29416 4.89934 3.78047 6.55146 4.90857C8.4506 6.20533 10.6554 6.98382 12.9477 7.16702C15.24 7.35022 17.5405 6.93178 19.6215 5.9531C21.4318 5.10172 23.0215 3.85202 24.274 2.30202C24.5848 1.91735 25.141 1.81723 25.5458 2.1013Z" fill="#9C9EAA"/>
</svg>
