<svg width="25" height="14" viewBox="0 0 25 14" fill="none" xmlns="http://www.w3.org/2000/svg">
<rect x="0.5" y="0.5" width="24" height="13" rx="6.5" stroke="#3EDB31"/>
<path d="M12.33 10.09C11.892 10.09 11.505 10.033 11.169 9.919C10.839 9.805 10.56 9.637 10.332 9.415C10.104 9.187 9.933 8.905 9.819 8.569C9.705 8.233 9.648 7.843 9.648 7.399V4.168C9.648 3.97 9.696 3.823 9.792 3.727C9.894 3.631 10.038 3.583 10.224 3.583C10.41 3.583 10.551 3.631 10.647 3.727C10.749 3.823 10.8 3.97 10.8 4.168V7.39C10.8 7.96 10.929 8.389 11.187 8.677C11.451 8.959 11.832 9.1 12.33 9.1C12.828 9.1 13.206 8.959 13.464 8.677C13.722 8.389 13.851 7.96 13.851 7.39V4.168C13.851 3.97 13.899 3.823 13.995 3.727C14.097 3.631 14.241 3.583 14.427 3.583C14.607 3.583 14.745 3.631 14.841 3.727C14.943 3.823 14.994 3.97 14.994 4.168V7.399C14.994 7.987 14.892 8.482 14.688 8.884C14.49 9.286 14.193 9.589 13.797 9.793C13.401 9.991 12.912 10.09 12.33 10.09Z" fill="#3EDB31"/>
</svg>
