<svg width="20" height="21" viewBox="0 0 20 21" fill="none" xmlns="http://www.w3.org/2000/svg">
<g clip-path="url(#clip0_1_3516)">
<path d="M11.6665 3V6.33333C11.6665 6.55435 11.7543 6.76631 11.9106 6.92259C12.0669 7.07887 12.2788 7.16667 12.4998 7.16667H15.8332" stroke="#026FD3" stroke-width="1.5" stroke-linecap="round" stroke-linejoin="round"/>
<path d="M14.1665 18H5.83317C5.39114 18 4.96722 17.8244 4.65466 17.5118C4.3421 17.1993 4.1665 16.7754 4.1665 16.3333V4.66667C4.1665 4.22464 4.3421 3.80072 4.65466 3.48816C4.96722 3.17559 5.39114 3 5.83317 3H11.6665L15.8332 7.16667V16.3333C15.8332 16.7754 15.6576 17.1993 15.345 17.5118C15.0325 17.8244 14.6085 18 14.1665 18Z" stroke="#026FD3" stroke-width="1.5" stroke-linecap="round" stroke-linejoin="round"/>
<path d="M7.5 8H8.33333" stroke="#026FD3" stroke-width="1.5" stroke-linecap="round" stroke-linejoin="round"/>
<path d="M7.5 11.3333H12.5" stroke="#026FD3" stroke-width="1.5" stroke-linecap="round" stroke-linejoin="round"/>
<path d="M7.5 14.6667H12.5" stroke="#026FD3" stroke-width="1.5" stroke-linecap="round" stroke-linejoin="round"/>
</g>
<defs>
<clipPath id="clip0_1_3516">
<rect width="20" height="20" fill="white" transform="translate(0 0.5)"/>
</clipPath>
</defs>
</svg>
