
<svg width="11" height="12" viewBox="0 0 11 12" fill="none" xmlns="http://www.w3.org/2000/svg">
    <path d="M1.16674 1.3335H9.8334C9.92942 1.36717 10.0164 1.42237 10.0878 1.49487C10.1592 1.56737 10.2131 1.65525 10.2452 1.75178C10.2774 1.8483 10.2871 1.95091 10.2735 2.05174C10.2598 2.15257 10.2233 2.24895 10.1667 2.3335L6.8334 6.00016V10.6668L4.16674 8.66683V6.00016L0.833405 2.3335C0.776799 2.24895 0.740295 2.15257 0.72669 2.05174C0.713085 1.95091 0.72274 1.8483 0.754914 1.75178C0.787089 1.65525 0.84093 1.56737 0.912313 1.49487C0.983696 1.42237 1.07073 1.36717 1.16674 1.3335Z" stroke="#02A1D3" stroke-linecap="round" stroke-linejoin="round"/>
</svg>

