<svg width="20" height="20" viewBox="0 0 20 20" fill="none" xmlns="http://www.w3.org/2000/svg">
<g clip-path="url(#clip0_540_19)">
<path d="M10 17.5C14.1421 17.5 17.5 14.1421 17.5 10C17.5 5.85786 14.1421 2.5 10 2.5C5.85786 2.5 2.5 5.85786 2.5 10C2.5 14.1421 5.85786 17.5 10 17.5Z" stroke="#74879B" stroke-linecap="round" stroke-linejoin="round"/>
<path d="M10 10.8334C11.3807 10.8334 12.5 9.71412 12.5 8.3334C12.5 6.95269 11.3807 5.8334 10 5.8334C8.61929 5.8334 7.5 6.95269 7.5 8.3334C7.5 9.71412 8.61929 10.8334 10 10.8334Z" fill="#74879B" stroke="#74879B" stroke-linecap="round" stroke-linejoin="round"/>
<path d="M8.70356 13.3571H11.2861C12.5354 13.3571 13.6966 14.0007 14.3587 15.0601C14.5402 15.3506 14.45 15.7136 14.1846 15.8748C12.578 16.8508 11.2807 17.2934 10.0166 17.2879C8.75046 17.2825 7.44659 16.8275 5.82683 15.8664C5.55773 15.7067 5.46524 15.3419 5.64687 15.0513C6.30557 13.9974 7.46073 13.3571 8.70356 13.3571Z" fill="#74879B" stroke="#74879B"/>
</g>
<defs>
<clipPath id="clip0_540_19">
<rect width="20" height="20" fill="white"/>
</clipPath>
</defs>
</svg>
