<svg width="18" height="18" viewBox="0 0 18 18" fill="none" xmlns="http://www.w3.org/2000/svg">
<mask id="mask0_2949_38843" style="mask-type:alpha" maskUnits="userSpaceOnUse" x="0" y="0" width="18" height="18">
<rect width="18" height="18" fill="#D9D9D9"/>
</mask>
<g mask="url(#mask0_2949_38843)">
<path d="M1.55645 8.25019C1.34395 8.25019 1.17207 8.17206 1.04082 8.01581C0.90957 7.85956 0.862695 7.67519 0.900195 7.46269C1.0252 6.87519 1.1877 6.33456 1.3877 5.84081C1.5877 5.34706 1.85645 4.85019 2.19395 4.35019C2.31895 4.16269 2.48145 4.05644 2.68145 4.03144C2.88145 4.00644 3.0627 4.07519 3.2252 4.23769C3.4002 4.41269 3.4877 4.60331 3.4877 4.80956C3.4877 5.01581 3.41895 5.22519 3.28145 5.43769C3.06895 5.76269 2.9002 6.08769 2.7752 6.41269C2.6502 6.73769 2.5377 7.09394 2.4377 7.48144C2.3877 7.70644 2.28457 7.89081 2.12832 8.03456C1.97207 8.17831 1.78145 8.25019 1.55645 8.25019ZM8.2502 1.53769C8.2502 1.77519 8.17832 1.96894 8.03457 2.11894C7.89082 2.26894 7.7002 2.36894 7.4627 2.41894C7.0877 2.50644 6.74082 2.61894 6.42207 2.75644C6.10332 2.89394 5.78145 3.06894 5.45645 3.28144C5.25645 3.41894 5.05332 3.48144 4.84707 3.46894C4.64082 3.45644 4.4502 3.36269 4.2752 3.18769C4.1252 3.03769 4.05957 2.86581 4.07832 2.67206C4.09707 2.47831 4.19395 2.31269 4.36895 2.17519C4.85645 1.85019 5.34082 1.58456 5.82207 1.37831C6.30332 1.17206 6.8377 1.01269 7.4252 0.900188C7.6502 0.862688 7.84395 0.906438 8.00645 1.03144C8.16895 1.15644 8.2502 1.32519 8.2502 1.53769ZM13.7627 3.18769C13.5877 3.36269 13.3939 3.45331 13.1814 3.45956C12.9689 3.46581 12.7627 3.40019 12.5627 3.26269C12.2377 3.05019 11.9127 2.88144 11.5877 2.75644C11.2627 2.63144 10.9064 2.51894 10.5189 2.41894C10.2939 2.36894 10.1096 2.26581 9.96582 2.10956C9.82207 1.95331 9.7502 1.76269 9.7502 1.53769C9.7502 1.32519 9.82832 1.15644 9.98457 1.03144C10.1408 0.906438 10.3252 0.862688 10.5377 0.900188C11.1377 1.01269 11.6814 1.16894 12.1689 1.36894C12.6564 1.56894 13.1502 1.83769 13.6502 2.17519C13.8252 2.30019 13.9252 2.46269 13.9502 2.66269C13.9752 2.86269 13.9127 3.03769 13.7627 3.18769ZM16.4627 8.25019C16.2252 8.25019 16.0314 8.17831 15.8814 8.03456C15.7314 7.89081 15.6314 7.70019 15.5814 7.46269C15.4814 7.07519 15.3658 6.72206 15.2346 6.40331C15.1033 6.08456 14.9314 5.75644 14.7189 5.41894C14.5814 5.21894 14.5189 5.01581 14.5314 4.80956C14.5439 4.60331 14.6377 4.41269 14.8127 4.23769C14.9627 4.08769 15.1346 4.02519 15.3283 4.05019C15.5221 4.07519 15.6877 4.17519 15.8252 4.35019C16.1627 4.85019 16.4314 5.34394 16.6314 5.83144C16.8314 6.31894 16.9877 6.86269 17.1002 7.46269C17.1377 7.67519 17.0939 7.85956 16.9689 8.01581C16.8439 8.17206 16.6752 8.25019 16.4627 8.25019Z" fill="#74879B"/>
<path d="M1.55645 9.74981C1.34395 9.74981 1.17207 9.82794 1.04082 9.98419C0.90957 10.1404 0.862695 10.3248 0.900195 10.5373C1.0252 11.1248 1.1877 11.6654 1.3877 12.1592C1.5877 12.6529 1.85645 13.1498 2.19395 13.6498C2.31895 13.8373 2.48145 13.9436 2.68145 13.9686C2.88145 13.9936 3.0627 13.9248 3.2252 13.7623C3.4002 13.5873 3.4877 13.3967 3.4877 13.1904C3.4877 12.9842 3.41895 12.7748 3.28145 12.5623C3.06895 12.2373 2.9002 11.9123 2.7752 11.5873C2.6502 11.2623 2.5377 10.9061 2.4377 10.5186C2.3877 10.2936 2.28457 10.1092 2.12832 9.96544C1.97207 9.82169 1.78145 9.74981 1.55645 9.74981ZM8.2502 16.4623C8.2502 16.2248 8.17832 16.0311 8.03457 15.8811C7.89082 15.7311 7.7002 15.6311 7.4627 15.5811C7.0877 15.4936 6.74082 15.3811 6.42207 15.2436C6.10332 15.1061 5.78145 14.9311 5.45645 14.7186C5.25645 14.5811 5.05332 14.5186 4.84707 14.5311C4.64082 14.5436 4.4502 14.6373 4.2752 14.8123C4.1252 14.9623 4.05957 15.1342 4.07832 15.3279C4.09707 15.5217 4.19395 15.6873 4.36895 15.8248C4.85645 16.1498 5.34082 16.4154 5.82207 16.6217C6.30332 16.8279 6.8377 16.9873 7.4252 17.0998C7.6502 17.1373 7.84395 17.0936 8.00645 16.9686C8.16895 16.8436 8.2502 16.6748 8.2502 16.4623ZM13.7627 14.8123C13.5877 14.6373 13.3939 14.5467 13.1814 14.5404C12.9689 14.5342 12.7627 14.5998 12.5627 14.7373C12.2377 14.9498 11.9127 15.1186 11.5877 15.2436C11.2627 15.3686 10.9064 15.4811 10.5189 15.5811C10.2939 15.6311 10.1096 15.7342 9.96582 15.8904C9.82207 16.0467 9.7502 16.2373 9.7502 16.4623C9.7502 16.6748 9.82832 16.8436 9.98457 16.9686C10.1408 17.0936 10.3252 17.1373 10.5377 17.0998C11.1377 16.9873 11.6814 16.8311 12.1689 16.6311C12.6564 16.4311 13.1502 16.1623 13.6502 15.8248C13.8252 15.6998 13.9252 15.5373 13.9502 15.3373C13.9752 15.1373 13.9127 14.9623 13.7627 14.8123ZM16.4627 9.74981C16.2252 9.74981 16.0314 9.82169 15.8814 9.96544C15.7314 10.1092 15.6314 10.2998 15.5814 10.5373C15.4814 10.9248 15.3658 11.2779 15.2346 11.5967C15.1033 11.9154 14.9314 12.2436 14.7189 12.5811C14.5814 12.7811 14.5189 12.9842 14.5314 13.1904C14.5439 13.3967 14.6377 13.5873 14.8127 13.7623C14.9627 13.9123 15.1346 13.9748 15.3283 13.9498C15.5221 13.9248 15.6877 13.8248 15.8252 13.6498C16.1627 13.1498 16.4314 12.6561 16.6314 12.1686C16.8314 11.6811 16.9877 11.1373 17.1002 10.5373C17.1377 10.3248 17.0939 10.1404 16.9689 9.98419C16.8439 9.82794 16.6752 9.74981 16.4627 9.74981Z" fill="#74879B"/>
</g>
</svg>
