<svg width="20" height="20" viewBox="0 0 20 20" fill="none" xmlns="http://www.w3.org/2000/svg">
<g clip-path="url(#clip0_3428_54551)">
<path d="M8.33203 4.16667C8.33203 3.72464 8.50763 3.30072 8.82019 2.98816C9.13275 2.67559 9.55667 2.5 9.9987 2.5C10.4407 2.5 10.8647 2.67559 11.1772 2.98816C11.4898 3.30072 11.6654 3.72464 11.6654 4.16667C12.6224 4.61919 13.4382 5.3236 14.0254 6.20442C14.6126 7.08523 14.9491 8.10923 14.9987 9.16667V11.6667C15.0614 12.1848 15.2449 12.6809 15.5344 13.1151C15.8239 13.5493 16.2113 13.9095 16.6654 14.1667H3.33203C3.78615 13.9095 4.17354 13.5493 4.46302 13.1151C4.7525 12.6809 4.93599 12.1848 4.9987 11.6667V9.16667C5.04833 8.10923 5.38478 7.08523 5.97199 6.20442C6.5592 5.3236 7.37503 4.61919 8.33203 4.16667" stroke="#74879B" stroke-linecap="round" stroke-linejoin="round"/>
<path d="M7.5 14.1667V15C7.5 15.6631 7.76339 16.2989 8.23223 16.7678C8.70107 17.2366 9.33696 17.5 10 17.5C10.663 17.5 11.2989 17.2366 11.7678 16.7678C12.2366 16.2989 12.5 15.6631 12.5 15V14.1667" stroke="#74879B" stroke-linecap="round" stroke-linejoin="round"/>
</g>
<defs>
<clipPath id="clip0_3428_54551">
<rect width="20" height="20" fill="white"/>
</clipPath>
</defs>
</svg>
