<svg width="18" height="18" viewBox="0 0 18 18" fill="none" xmlns="http://www.w3.org/2000/svg">
<g clip-path="url(#clip0_2974_5261)">
<path d="M10.2863 5.14265C10.2863 4.80166 10.1508 4.47463 9.90969 4.23351C9.66858 3.99239 9.34155 3.85693 9.00056 3.85693C8.65957 3.85693 8.33254 3.99239 8.09142 4.23351C7.8503 4.47463 7.71484 4.80166 7.71484 5.14265C7.71484 5.48364 7.8503 5.81067 8.09142 6.05178C8.33254 6.2929 8.65957 6.42836 9.00056 6.42836C9.34155 6.42836 9.66858 6.2929 9.90969 6.05178C10.1508 5.81067 10.2863 5.48364 10.2863 5.14265Z" stroke="white" stroke-linecap="round" stroke-linejoin="round"/>
<path d="M10.2863 12.857C10.2863 12.516 10.1508 12.189 9.90969 11.9479C9.66858 11.7067 9.34155 11.5713 9.00056 11.5713C8.65957 11.5713 8.33254 11.7067 8.09142 11.9479C7.8503 12.189 7.71484 12.516 7.71484 12.857C7.71484 13.198 7.8503 13.525 8.09142 13.7661C8.33254 14.0073 8.65957 14.1427 9.00056 14.1427C9.34155 14.1427 9.66858 14.0073 9.90969 13.7661C10.1508 13.525 10.2863 13.198 10.2863 12.857Z" stroke="white" stroke-linecap="round" stroke-linejoin="round"/>
<path d="M9 6.42871V11.5716" stroke="white" stroke-linecap="round" stroke-linejoin="round"/>
</g>
<defs>
<clipPath id="clip0_2974_5261">
<rect width="15.4286" height="15.4286" fill="white" transform="translate(1.28613 1.28564)"/>
</clipPath>
</defs>
</svg>
