<svg width="18" height="13" viewBox="0 0 18 13" fill="none" xmlns="http://www.w3.org/2000/svg">
<rect x="0.5" y="1" width="17" height="11" rx="2.5" stroke="#171C29"/>
<path d="M3.256 9.572C3.112 9.572 2.995 9.539 2.905 9.473C2.821 9.407 2.77 9.32 2.752 9.212C2.734 9.098 2.755 8.972 2.815 8.834L5.191 3.569C5.269 3.395 5.362 3.272 5.47 3.2C5.584 3.122 5.713 3.083 5.857 3.083C5.995 3.083 6.118 3.122 6.226 3.2C6.34 3.272 6.436 3.395 6.514 3.569L8.899 8.834C8.965 8.972 8.989 9.098 8.971 9.212C8.953 9.326 8.902 9.416 8.818 9.482C8.734 9.542 8.623 9.572 8.485 9.572C8.317 9.572 8.185 9.533 8.089 9.455C7.999 9.371 7.918 9.245 7.846 9.077L7.261 7.718L7.747 8.033H3.949L4.435 7.718L3.859 9.077C3.781 9.251 3.7 9.377 3.616 9.455C3.532 9.533 3.412 9.572 3.256 9.572ZM5.839 4.406L4.579 7.403L4.345 7.115H7.351L7.126 7.403L5.857 4.406H5.839ZM11.8741 9.572C11.7121 9.572 11.5771 9.536 11.4691 9.464C11.3671 9.386 11.2831 9.272 11.2171 9.122L8.86813 3.848C8.80213 3.698 8.78413 3.566 8.81413 3.452C8.84413 3.338 8.90713 3.248 9.00313 3.182C9.09913 3.116 9.21313 3.083 9.34513 3.083C9.51913 3.083 9.64813 3.122 9.73213 3.2C9.82213 3.272 9.89713 3.383 9.95713 3.533L12.0901 8.474H11.7031L13.8271 3.524C13.8931 3.38 13.9711 3.272 14.0611 3.2C14.1511 3.122 14.2771 3.083 14.4391 3.083C14.5711 3.083 14.6791 3.116 14.7631 3.182C14.8531 3.248 14.9101 3.338 14.9341 3.452C14.9581 3.566 14.9371 3.698 14.8711 3.848L12.5221 9.122C12.4561 9.272 12.3721 9.386 12.2701 9.464C12.1741 9.536 12.0421 9.572 11.8741 9.572Z" fill="#171C29"/>
</svg>
