<svg width="25" height="13" viewBox="0 0 25 13" fill="none" xmlns="http://www.w3.org/2000/svg">
<rect x="0.5" y="1" width="24" height="11" rx="2.5" stroke="#8E95B1"/>
<path d="M6.645 9.59C5.985 9.59 5.418 9.458 4.944 9.194C4.476 8.924 4.116 8.546 3.864 8.06C3.612 7.568 3.486 6.989 3.486 6.323C3.486 5.825 3.558 5.378 3.702 4.982C3.846 4.58 4.053 4.238 4.323 3.956C4.593 3.668 4.923 3.449 5.313 3.299C5.709 3.143 6.153 3.065 6.645 3.065C6.975 3.065 7.299 3.107 7.617 3.191C7.935 3.275 8.214 3.395 8.454 3.551C8.58 3.629 8.664 3.725 8.706 3.839C8.748 3.947 8.757 4.055 8.733 4.163C8.709 4.265 8.658 4.352 8.58 4.424C8.508 4.496 8.415 4.538 8.301 4.55C8.193 4.556 8.073 4.517 7.941 4.433C7.755 4.313 7.554 4.226 7.338 4.172C7.122 4.118 6.903 4.091 6.681 4.091C6.255 4.091 5.895 4.178 5.601 4.352C5.307 4.526 5.085 4.778 4.935 5.108C4.785 5.438 4.71 5.843 4.71 6.323C4.71 6.797 4.785 7.202 4.935 7.538C5.085 7.874 5.307 8.129 5.601 8.303C5.895 8.477 6.255 8.564 6.681 8.564C6.909 8.564 7.134 8.537 7.356 8.483C7.578 8.423 7.788 8.333 7.986 8.213C8.118 8.135 8.235 8.102 8.337 8.114C8.445 8.12 8.535 8.156 8.607 8.222C8.679 8.288 8.727 8.372 8.751 8.474C8.775 8.57 8.769 8.672 8.733 8.78C8.697 8.882 8.625 8.972 8.517 9.05C8.277 9.224 7.989 9.359 7.653 9.455C7.323 9.545 6.987 9.59 6.645 9.59ZM10.3862 9.572C10.2002 9.572 10.0562 9.521 9.95419 9.419C9.85819 9.311 9.81019 9.164 9.81019 8.978V3.677C9.81019 3.485 9.85819 3.338 9.95419 3.236C10.0562 3.134 10.2002 3.083 10.3862 3.083C10.5722 3.083 10.7132 3.134 10.8092 3.236C10.9112 3.338 10.9622 3.485 10.9622 3.677V5.801H14.2292V3.677C14.2292 3.485 14.2772 3.338 14.3732 3.236C14.4752 3.134 14.6192 3.083 14.8052 3.083C14.9912 3.083 15.1322 3.134 15.2282 3.236C15.3302 3.338 15.3812 3.485 15.3812 3.677V8.978C15.3812 9.164 15.3302 9.311 15.2282 9.419C15.1322 9.521 14.9912 9.572 14.8052 9.572C14.6192 9.572 14.4752 9.521 14.3732 9.419C14.2772 9.311 14.2292 9.164 14.2292 8.978V6.764H10.9622V8.978C10.9622 9.164 10.9142 9.311 10.8182 9.419C10.7222 9.521 10.5782 9.572 10.3862 9.572ZM17.3651 9.572C17.1791 9.572 17.0321 9.521 16.9241 9.419C16.8221 9.311 16.7711 9.158 16.7711 8.96V3.767C16.7711 3.569 16.8221 3.419 16.9241 3.317C17.0321 3.209 17.1851 3.155 17.3831 3.155H20.5241C20.6801 3.155 20.7971 3.194 20.8751 3.272C20.9531 3.35 20.9921 3.461 20.9921 3.605C20.9921 3.755 20.9531 3.872 20.8751 3.956C20.7971 4.034 20.6801 4.073 20.5241 4.073H17.9231V5.864H20.3351C20.4851 5.864 20.5991 5.903 20.6771 5.981C20.7611 6.059 20.8031 6.17 20.8031 6.314C20.8031 6.464 20.7611 6.581 20.6771 6.665C20.5991 6.743 20.4851 6.782 20.3351 6.782H17.9231V8.96C17.9231 9.368 17.7371 9.572 17.3651 9.572Z" fill="#8E95B1"/>
</svg>
