<svg width="25" height="13" viewBox="0 0 25 13" fill="none" xmlns="http://www.w3.org/2000/svg">
<rect x="0.5" y="1" width="24" height="11" rx="2.5" stroke="#8E95B1"/>
<path d="M7.145 9.59C6.485 9.59 5.918 9.458 5.444 9.194C4.976 8.924 4.616 8.546 4.364 8.06C4.112 7.568 3.986 6.989 3.986 6.323C3.986 5.825 4.058 5.378 4.202 4.982C4.346 4.58 4.553 4.238 4.823 3.956C5.093 3.668 5.423 3.449 5.813 3.299C6.209 3.143 6.653 3.065 7.145 3.065C7.475 3.065 7.799 3.107 8.117 3.191C8.435 3.275 8.714 3.395 8.954 3.551C9.08 3.629 9.164 3.725 9.206 3.839C9.248 3.947 9.257 4.055 9.233 4.163C9.209 4.265 9.158 4.352 9.08 4.424C9.008 4.496 8.915 4.538 8.801 4.55C8.693 4.556 8.573 4.517 8.441 4.433C8.255 4.313 8.054 4.226 7.838 4.172C7.622 4.118 7.403 4.091 7.181 4.091C6.755 4.091 6.395 4.178 6.101 4.352C5.807 4.526 5.585 4.778 5.435 5.108C5.285 5.438 5.21 5.843 5.21 6.323C5.21 6.797 5.285 7.202 5.435 7.538C5.585 7.874 5.807 8.129 6.101 8.303C6.395 8.477 6.755 8.564 7.181 8.564C7.409 8.564 7.634 8.537 7.856 8.483C8.078 8.423 8.288 8.333 8.486 8.213C8.618 8.135 8.735 8.102 8.837 8.114C8.945 8.12 9.035 8.156 9.107 8.222C9.179 8.288 9.227 8.372 9.251 8.474C9.275 8.57 9.269 8.672 9.233 8.78C9.197 8.882 9.125 8.972 9.017 9.05C8.777 9.224 8.489 9.359 8.153 9.455C7.823 9.545 7.487 9.59 7.145 9.59ZM10.9222 9.5C10.7242 9.5 10.5712 9.449 10.4632 9.347C10.3612 9.239 10.3102 9.086 10.3102 8.888V3.767C10.3102 3.569 10.3612 3.419 10.4632 3.317C10.5712 3.209 10.7242 3.155 10.9222 3.155H13.0822C13.5262 3.155 13.9042 3.221 14.2162 3.353C14.5282 3.485 14.7652 3.674 14.9272 3.92C15.0952 4.166 15.1792 4.46 15.1792 4.802C15.1792 5.186 15.0682 5.51 14.8462 5.774C14.6242 6.038 14.3212 6.215 13.9372 6.305V6.17C14.3812 6.236 14.7262 6.404 14.9722 6.674C15.2182 6.944 15.3412 7.295 15.3412 7.727C15.3412 8.291 15.1492 8.729 14.7652 9.041C14.3872 9.347 13.8592 9.5 13.1812 9.5H10.9222ZM11.4172 8.627H13.0372C13.4452 8.627 13.7452 8.549 13.9372 8.393C14.1292 8.231 14.2252 7.991 14.2252 7.673C14.2252 7.349 14.1292 7.109 13.9372 6.953C13.7452 6.797 13.4452 6.719 13.0372 6.719H11.4172V8.627ZM11.4172 5.846H12.8842C13.2802 5.846 13.5742 5.771 13.7662 5.621C13.9642 5.465 14.0632 5.237 14.0632 4.937C14.0632 4.637 13.9642 4.412 13.7662 4.262C13.5742 4.106 13.2802 4.028 12.8842 4.028H11.4172V5.846ZM17.1005 9.572C16.9145 9.572 16.7675 9.521 16.6595 9.419C16.5575 9.311 16.5065 9.158 16.5065 8.96V3.767C16.5065 3.569 16.5575 3.419 16.6595 3.317C16.7675 3.209 16.9205 3.155 17.1185 3.155H20.2595C20.4155 3.155 20.5325 3.194 20.6105 3.272C20.6885 3.35 20.7275 3.461 20.7275 3.605C20.7275 3.755 20.6885 3.872 20.6105 3.956C20.5325 4.034 20.4155 4.073 20.2595 4.073H17.6585V5.864H20.0705C20.2205 5.864 20.3345 5.903 20.4125 5.981C20.4965 6.059 20.5385 6.17 20.5385 6.314C20.5385 6.464 20.4965 6.581 20.4125 6.665C20.3345 6.743 20.2205 6.782 20.0705 6.782H17.6585V8.96C17.6585 9.368 17.4725 9.572 17.1005 9.572Z" fill="#8E95B1"/>
</svg>
