<svg width="25" height="13" viewBox="0 0 25 13" fill="none" xmlns="http://www.w3.org/2000/svg">
<rect x="0.5" y="1" width="24" height="11" rx="2.5" stroke="#8E95B1"/>
<path d="M7.145 9.59C6.485 9.59 5.918 9.458 5.444 9.194C4.976 8.924 4.616 8.546 4.364 8.06C4.112 7.568 3.986 6.989 3.986 6.323C3.986 5.825 4.058 5.378 4.202 4.982C4.346 4.58 4.553 4.238 4.823 3.956C5.093 3.668 5.423 3.449 5.813 3.299C6.209 3.143 6.653 3.065 7.145 3.065C7.475 3.065 7.799 3.107 8.117 3.191C8.435 3.275 8.714 3.395 8.954 3.551C9.08 3.629 9.164 3.725 9.206 3.839C9.248 3.947 9.257 4.055 9.233 4.163C9.209 4.265 9.158 4.352 9.08 4.424C9.008 4.496 8.915 4.538 8.801 4.55C8.693 4.556 8.573 4.517 8.441 4.433C8.255 4.313 8.054 4.226 7.838 4.172C7.622 4.118 7.403 4.091 7.181 4.091C6.755 4.091 6.395 4.178 6.101 4.352C5.807 4.526 5.585 4.778 5.435 5.108C5.285 5.438 5.21 5.843 5.21 6.323C5.21 6.797 5.285 7.202 5.435 7.538C5.585 7.874 5.807 8.129 6.101 8.303C6.395 8.477 6.755 8.564 7.181 8.564C7.409 8.564 7.634 8.537 7.856 8.483C8.078 8.423 8.288 8.333 8.486 8.213C8.618 8.135 8.735 8.102 8.837 8.114C8.945 8.12 9.035 8.156 9.107 8.222C9.179 8.288 9.227 8.372 9.251 8.474C9.275 8.57 9.269 8.672 9.233 8.78C9.197 8.882 9.125 8.972 9.017 9.05C8.777 9.224 8.489 9.359 8.153 9.455C7.823 9.545 7.487 9.59 7.145 9.59ZM10.8862 9.572C10.7002 9.572 10.5562 9.521 10.4542 9.419C10.3582 9.311 10.3102 9.164 10.3102 8.978V3.74C10.3102 3.548 10.3612 3.404 10.4632 3.308C10.5652 3.206 10.7092 3.155 10.8952 3.155H13.0642C13.7602 3.155 14.2972 3.329 14.6752 3.677C15.0532 4.025 15.2422 4.511 15.2422 5.135C15.2422 5.759 15.0532 6.248 14.6752 6.602C14.2972 6.95 13.7602 7.124 13.0642 7.124H11.4622V8.978C11.4622 9.164 11.4142 9.311 11.3182 9.419C11.2222 9.521 11.0782 9.572 10.8862 9.572ZM11.4622 6.215H12.8842C13.2922 6.215 13.6012 6.125 13.8112 5.945C14.0212 5.759 14.1262 5.489 14.1262 5.135C14.1262 4.781 14.0212 4.514 13.8112 4.334C13.6012 4.154 13.2922 4.064 12.8842 4.064H11.4622V6.215ZM16.7753 9.572C16.5893 9.572 16.4423 9.521 16.3343 9.419C16.2323 9.311 16.1813 9.158 16.1813 8.96V3.767C16.1813 3.569 16.2323 3.419 16.3343 3.317C16.4423 3.209 16.5953 3.155 16.7933 3.155H19.9343C20.0903 3.155 20.2073 3.194 20.2853 3.272C20.3633 3.35 20.4023 3.461 20.4023 3.605C20.4023 3.755 20.3633 3.872 20.2853 3.956C20.2073 4.034 20.0903 4.073 19.9343 4.073H17.3333V5.864H19.7453C19.8953 5.864 20.0093 5.903 20.0873 5.981C20.1713 6.059 20.2133 6.17 20.2133 6.314C20.2133 6.464 20.1713 6.581 20.0873 6.665C20.0093 6.743 19.8953 6.782 19.7453 6.782H17.3333V8.96C17.3333 9.368 17.1473 9.572 16.7753 9.572Z" fill="#8E95B1"/>
</svg>
