<svg width="25" height="13" viewBox="0 0 25 13" fill="none" xmlns="http://www.w3.org/2000/svg">
<rect x="0.5" y="1" width="24" height="11" rx="2.5" stroke="#8E95B1"/>
<path d="M7.145 9.59C6.485 9.59 5.918 9.458 5.444 9.194C4.976 8.924 4.616 8.546 4.364 8.06C4.112 7.568 3.986 6.989 3.986 6.323C3.986 5.825 4.058 5.378 4.202 4.982C4.346 4.58 4.553 4.238 4.823 3.956C5.093 3.668 5.423 3.449 5.813 3.299C6.209 3.143 6.653 3.065 7.145 3.065C7.475 3.065 7.799 3.107 8.117 3.191C8.435 3.275 8.714 3.395 8.954 3.551C9.08 3.629 9.164 3.725 9.206 3.839C9.248 3.947 9.257 4.055 9.233 4.163C9.209 4.265 9.158 4.352 9.08 4.424C9.008 4.496 8.915 4.538 8.801 4.55C8.693 4.556 8.573 4.517 8.441 4.433C8.255 4.313 8.054 4.226 7.838 4.172C7.622 4.118 7.403 4.091 7.181 4.091C6.755 4.091 6.395 4.178 6.101 4.352C5.807 4.526 5.585 4.778 5.435 5.108C5.285 5.438 5.21 5.843 5.21 6.323C5.21 6.797 5.285 7.202 5.435 7.538C5.585 7.874 5.807 8.129 6.101 8.303C6.395 8.477 6.755 8.564 7.181 8.564C7.409 8.564 7.634 8.537 7.856 8.483C8.078 8.423 8.288 8.333 8.486 8.213C8.618 8.135 8.735 8.102 8.837 8.114C8.945 8.12 9.035 8.156 9.107 8.222C9.179 8.288 9.227 8.372 9.251 8.474C9.275 8.57 9.269 8.672 9.233 8.78C9.197 8.882 9.125 8.972 9.017 9.05C8.777 9.224 8.489 9.359 8.153 9.455C7.823 9.545 7.487 9.59 7.145 9.59ZM10.8862 9.572C10.7002 9.572 10.5562 9.521 10.4542 9.419C10.3582 9.311 10.3102 9.164 10.3102 8.978V3.74C10.3102 3.548 10.3612 3.404 10.4632 3.308C10.5652 3.206 10.7092 3.155 10.8952 3.155H13.0642C13.7602 3.155 14.2972 3.323 14.6752 3.659C15.0532 3.989 15.2422 4.454 15.2422 5.054C15.2422 5.444 15.1552 5.78 14.9812 6.062C14.8132 6.344 14.5672 6.56 14.2432 6.71C13.9192 6.86 13.5262 6.935 13.0642 6.935L13.1452 6.8H13.4422C13.6882 6.8 13.9012 6.86 14.0812 6.98C14.2672 7.1 14.4292 7.289 14.5672 7.547L15.2422 8.798C15.3142 8.924 15.3472 9.047 15.3412 9.167C15.3352 9.287 15.2902 9.386 15.2062 9.464C15.1222 9.536 14.9992 9.572 14.8372 9.572C14.6752 9.572 14.5432 9.539 14.4412 9.473C14.3392 9.401 14.2492 9.293 14.1712 9.149L13.2622 7.475C13.1542 7.271 13.0252 7.136 12.8752 7.07C12.7312 6.998 12.5452 6.962 12.3172 6.962H11.4622V8.978C11.4622 9.164 11.4142 9.311 11.3182 9.419C11.2222 9.521 11.0782 9.572 10.8862 9.572ZM11.4622 6.107H12.8662C13.2802 6.107 13.5922 6.023 13.8022 5.855C14.0182 5.681 14.1262 5.423 14.1262 5.081C14.1262 4.745 14.0182 4.493 13.8022 4.325C13.5922 4.151 13.2802 4.064 12.8662 4.064H11.4622V6.107ZM17.0741 9.572C16.8881 9.572 16.7411 9.521 16.6331 9.419C16.5311 9.311 16.4801 9.158 16.4801 8.96V3.767C16.4801 3.569 16.5311 3.419 16.6331 3.317C16.7411 3.209 16.8941 3.155 17.0921 3.155H20.2331C20.3891 3.155 20.5061 3.194 20.5841 3.272C20.6621 3.35 20.7011 3.461 20.7011 3.605C20.7011 3.755 20.6621 3.872 20.5841 3.956C20.5061 4.034 20.3891 4.073 20.2331 4.073H17.6321V5.864H20.0441C20.1941 5.864 20.3081 5.903 20.3861 5.981C20.4701 6.059 20.5121 6.17 20.5121 6.314C20.5121 6.464 20.4701 6.581 20.3861 6.665C20.3081 6.743 20.1941 6.782 20.0441 6.782H17.6321V8.96C17.6321 9.368 17.4461 9.572 17.0741 9.572Z" fill="#8E95B1"/>
</svg>
