<svg width="18" height="13" viewBox="0 0 18 13" fill="none" xmlns="http://www.w3.org/2000/svg">
<rect x="0.5" y="1" width="17" height="11" rx="2.5" stroke="#02A1D3"/>
<path d="M4.305 9.5C4.107 9.5 3.954 9.449 3.846 9.347C3.744 9.239 3.693 9.086 3.693 8.888V3.767C3.693 3.569 3.744 3.419 3.846 3.317C3.954 3.209 4.107 3.155 4.305 3.155H7.518C7.668 3.155 7.782 3.194 7.86 3.272C7.944 3.35 7.986 3.461 7.986 3.605C7.986 3.755 7.944 3.872 7.86 3.956C7.782 4.034 7.668 4.073 7.518 4.073H4.8V5.819H7.32C7.476 5.819 7.593 5.858 7.671 5.936C7.749 6.014 7.788 6.128 7.788 6.278C7.788 6.428 7.749 6.542 7.671 6.62C7.593 6.698 7.476 6.737 7.32 6.737H4.8V8.582H7.518C7.668 8.582 7.782 8.621 7.86 8.699C7.944 8.777 7.986 8.891 7.986 9.041C7.986 9.191 7.944 9.305 7.86 9.383C7.782 9.461 7.668 9.5 7.518 9.5H4.305ZM11.5568 9.572C11.3948 9.572 11.2598 9.536 11.1518 9.464C11.0498 9.386 10.9658 9.272 10.8998 9.122L8.55075 3.848C8.48475 3.698 8.46675 3.566 8.49675 3.452C8.52675 3.338 8.58975 3.248 8.68575 3.182C8.78175 3.116 8.89575 3.083 9.02775 3.083C9.20175 3.083 9.33075 3.122 9.41475 3.2C9.50475 3.272 9.57975 3.383 9.63975 3.533L11.7728 8.474H11.3858L13.5098 3.524C13.5758 3.38 13.6538 3.272 13.7438 3.2C13.8338 3.122 13.9598 3.083 14.1218 3.083C14.2538 3.083 14.3618 3.116 14.4458 3.182C14.5358 3.248 14.5928 3.338 14.6168 3.452C14.6408 3.566 14.6198 3.698 14.5538 3.848L12.2048 9.122C12.1388 9.272 12.0548 9.386 11.9528 9.464C11.8568 9.536 11.7248 9.572 11.5568 9.572Z" fill="#02A1D3"/>
</svg>
