<svg width="18" height="13" viewBox="0 0 18 13" fill="none" xmlns="http://www.w3.org/2000/svg">
<rect x="0.5" y="1" width="17" height="11" rx="2.5" stroke="#ECB766"/>
<path d="M3.805 9.5C3.607 9.5 3.454 9.449 3.346 9.347C3.244 9.239 3.193 9.086 3.193 8.888V3.767C3.193 3.569 3.244 3.419 3.346 3.317C3.454 3.209 3.607 3.155 3.805 3.155H7.018C7.168 3.155 7.282 3.194 7.36 3.272C7.444 3.35 7.486 3.461 7.486 3.605C7.486 3.755 7.444 3.872 7.36 3.956C7.282 4.034 7.168 4.073 7.018 4.073H4.3V5.819H6.82C6.976 5.819 7.093 5.858 7.171 5.936C7.249 6.014 7.288 6.128 7.288 6.278C7.288 6.428 7.249 6.542 7.171 6.62C7.093 6.698 6.976 6.737 6.82 6.737H4.3V8.582H7.018C7.168 8.582 7.282 8.621 7.36 8.699C7.444 8.777 7.486 8.891 7.486 9.041C7.486 9.191 7.444 9.305 7.36 9.383C7.282 9.461 7.168 9.5 7.018 9.5H3.805ZM13.8283 10.517C13.9123 10.649 13.9453 10.769 13.9273 10.877C13.9093 10.985 13.8613 11.075 13.7833 11.147C13.7053 11.225 13.6093 11.273 13.4953 11.291C13.3813 11.315 13.2673 11.303 13.1533 11.255C13.0393 11.213 12.9433 11.129 12.8653 11.003L12.2443 10.004C12.1603 9.866 12.0463 9.761 11.9023 9.689C11.7643 9.623 11.5933 9.59 11.3893 9.59L12.2803 9.239C12.5623 9.239 12.7873 9.29 12.9553 9.392C13.1233 9.488 13.2853 9.659 13.4413 9.905L13.8283 10.517ZM11.3983 9.59C10.7863 9.59 10.2493 9.455 9.78733 9.185C9.33133 8.915 8.97733 8.537 8.72533 8.051C8.47333 7.559 8.34733 6.983 8.34733 6.323C8.34733 5.825 8.41933 5.378 8.56333 4.982C8.70733 4.58 8.91133 4.238 9.17533 3.956C9.44533 3.668 9.76633 3.449 10.1383 3.299C10.5163 3.143 10.9363 3.065 11.3983 3.065C12.0163 3.065 12.5533 3.2 13.0093 3.47C13.4653 3.734 13.8193 4.109 14.0713 4.595C14.3233 5.081 14.4493 5.654 14.4493 6.314C14.4493 6.812 14.3773 7.262 14.2333 7.664C14.0893 8.066 13.8823 8.411 13.6123 8.699C13.3483 8.987 13.0273 9.209 12.6493 9.365C12.2773 9.515 11.8603 9.59 11.3983 9.59ZM11.3983 8.6C11.7883 8.6 12.1183 8.51 12.3883 8.33C12.6643 8.15 12.8743 7.889 13.0183 7.547C13.1683 7.205 13.2433 6.797 13.2433 6.323C13.2433 5.603 13.0813 5.045 12.7573 4.649C12.4393 4.253 11.9863 4.055 11.3983 4.055C11.0143 4.055 10.6843 4.145 10.4083 4.325C10.1323 4.499 9.91933 4.757 9.76933 5.099C9.62533 5.435 9.55333 5.843 9.55333 6.323C9.55333 7.037 9.71533 7.595 10.0393 7.997C10.3633 8.399 10.8163 8.6 11.3983 8.6Z" fill="#ECB766"/>
</svg>
