<svg width="16" height="16" viewBox="0 0 16 16" fill="none" xmlns="http://www.w3.org/2000/svg">
    <g clip-path="url(#clip0_3143_40754)">
        <path d="M4.33301 12.6667C4.33301 13.0203 4.47348 13.3594 4.72353 13.6095C4.97358 13.8595 5.31272 14 5.66634 14C6.01996 14 6.3591 13.8595 6.60915 13.6095C6.8592 13.3594 6.99967 13.0203 6.99967 12.6667C6.99967 12.3131 6.8592 11.9739 6.60915 11.7239C6.3591 11.4738 6.01996 11.3333 5.66634 11.3333C5.31272 11.3333 4.97358 11.4738 4.72353 11.7239C4.47348 11.9739 4.33301 12.3131 4.33301 12.6667Z" stroke="#02A1D3" stroke-width="1.5" stroke-linecap="round" stroke-linejoin="round"/>
        <path d="M8.66699 12.6667C8.66699 13.0203 8.80747 13.3594 9.05752 13.6095C9.30757 13.8595 9.6467 14 10.0003 14C10.3539 14 10.6931 13.8595 10.9431 13.6095C11.1932 13.3594 11.3337 13.0203 11.3337 12.6667C11.3337 12.3131 11.1932 11.9739 10.9431 11.7239C10.6931 11.4738 10.3539 11.3333 10.0003 11.3333C9.6467 11.3333 9.30757 11.4738 9.05752 11.7239C8.80747 11.9739 8.66699 12.3131 8.66699 12.6667Z" stroke="#02A1D3" stroke-width="1.5" stroke-linecap="round" stroke-linejoin="round"/>
        <path d="M8.66634 12.6667L7.33301 12.6667" stroke="#02A1D3" stroke-width="1.5" stroke-linecap="round" stroke-linejoin="round"/>
        <path d="M1.99984 6H13.6665M1.99984 6L2.6665 12.6667H3.99984M1.99984 6H1M13.6665 6L12.9998 12.6667H11.6665M13.6665 6H15" stroke="#02A1D3" stroke-width="1.5" stroke-linecap="round" stroke-linejoin="round"/>
        <path d="M4.0077 1.91465L3.87875 1.94689C2.97031 2.174 2.33301 2.99649 2.33301 3.93289C2.33301 5.07006 3.25487 5.99999 4.39204 5.99999H11.6663C12.5868 5.99999 13.333 5.2538 13.333 4.33332C13.333 3.42699 12.2378 2.52067 11.0399 3.10331C10.8254 3.20767 10.555 3.16631 10.4227 2.9678C10.1584 2.57141 9.71353 2.33332 9.23713 2.33332H9.06016C8.59457 2.33332 8.14805 2.51828 7.81883 2.8475L7.5506 3.11573C7.24633 3.42 6.75302 3.42 6.44875 3.11573L5.72269 2.38967C5.27413 1.94112 4.62312 1.7608 4.0077 1.91465Z" stroke="#02A1D3" stroke-width="1.5"/>
    </g>
    <defs>
        <clipPath id="clip0_3143_40754">
            <rect width="16" height="16" fill="white"/>
        </clipPath>
    </defs>
</svg>
