<svg width="16" height="16" viewBox="0 0 16 16" fill="none" xmlns="http://www.w3.org/2000/svg">
    <mask id="mask0_3143_40720" style="mask-type:alpha" maskUnits="userSpaceOnUse" x="0" y="0" width="16" height="16">
        <rect width="16" height="16" fill="#5E6377"/>
    </mask>
    <g mask="url(#mask0_3143_40720)">
        <path d="M8.00033 7.33334C8.18921 7.33334 8.34755 7.26945 8.47533 7.14168C8.6031 7.0139 8.66699 6.85557 8.66699 6.66668V4.66668C8.66699 4.47779 8.6031 4.31945 8.47533 4.19168C8.34755 4.0639 8.18921 4.00001 8.00033 4.00001C7.81144 4.00001 7.6531 4.0639 7.52533 4.19168C7.39755 4.31945 7.33366 4.47779 7.33366 4.66668V6.66668C7.33366 6.85557 7.39755 7.0139 7.52533 7.14168C7.6531 7.26945 7.81144 7.33334 8.00033 7.33334ZM8.00033 10C8.18921 10 8.34755 9.93612 8.47533 9.80834C8.6031 9.68057 8.66699 9.52223 8.66699 9.33334C8.66699 9.14445 8.6031 8.98612 8.47533 8.85834C8.34755 8.73057 8.18921 8.66668 8.00033 8.66668C7.81144 8.66668 7.6531 8.73057 7.52533 8.85834C7.39755 8.98612 7.33366 9.14445 7.33366 9.33334C7.33366 9.52223 7.39755 9.68057 7.52533 9.80834C7.6531 9.93612 7.81144 10 8.00033 10ZM8.00033 12.9C9.35588 11.6556 10.3614 10.525 11.017 9.50834C11.6725 8.49168 12.0003 7.5889 12.0003 6.80001C12.0003 5.5889 11.6142 4.59723 10.842 3.82501C10.0698 3.05279 9.12255 2.66668 8.00033 2.66668C6.8781 2.66668 5.93088 3.05279 5.15866 3.82501C4.38644 4.59723 4.00033 5.5889 4.00033 6.80001C4.00033 7.5889 4.3281 8.49168 4.98366 9.50834C5.63921 10.525 6.64477 11.6556 8.00033 12.9ZM8.00033 14.2167C7.84477 14.2167 7.68921 14.1889 7.53366 14.1333C7.3781 14.0778 7.23921 13.9945 7.11699 13.8833C6.39477 13.2167 5.75588 12.5667 5.20033 11.9333C4.64477 11.3 4.18088 10.6861 3.80866 10.0917C3.43644 9.49723 3.1531 8.92501 2.95866 8.37501C2.76421 7.82501 2.66699 7.30001 2.66699 6.80001C2.66699 5.13334 3.2031 3.80557 4.27533 2.81668C5.34755 1.82779 6.58921 1.33334 8.00033 1.33334C9.41144 1.33334 10.6531 1.82779 11.7253 2.81668C12.7975 3.80557 13.3337 5.13334 13.3337 6.80001C13.3337 7.30001 13.2364 7.82501 13.042 8.37501C12.8475 8.92501 12.5642 9.49723 12.192 10.0917C11.8198 10.6861 11.3559 11.3 10.8003 11.9333C10.2448 12.5667 9.60588 13.2167 8.88366 13.8833C8.76144 13.9945 8.62255 14.0778 8.46699 14.1333C8.31144 14.1889 8.15588 14.2167 8.00033 14.2167Z" fill="#5E6377"/>
    </g>
</svg>
