<svg width="25" height="13" viewBox="0 0 25 13" fill="none" xmlns="http://www.w3.org/2000/svg">
<rect x="0.5" y="1" width="24" height="11" rx="2.5" stroke="#D3764E"/>
<path d="M6.83 9.59C6.392 9.59 6.005 9.533 5.669 9.419C5.339 9.305 5.06 9.137 4.832 8.915C4.604 8.687 4.433 8.405 4.319 8.069C4.205 7.733 4.148 7.343 4.148 6.899V3.668C4.148 3.47 4.196 3.323 4.292 3.227C4.394 3.131 4.538 3.083 4.724 3.083C4.91 3.083 5.051 3.131 5.147 3.227C5.249 3.323 5.3 3.47 5.3 3.668V6.89C5.3 7.46 5.429 7.889 5.687 8.177C5.951 8.459 6.332 8.6 6.83 8.6C7.328 8.6 7.706 8.459 7.964 8.177C8.222 7.889 8.351 7.46 8.351 6.89V3.668C8.351 3.47 8.399 3.323 8.495 3.227C8.597 3.131 8.741 3.083 8.927 3.083C9.107 3.083 9.245 3.131 9.341 3.227C9.443 3.323 9.494 3.47 9.494 3.668V6.899C9.494 7.487 9.392 7.982 9.188 8.384C8.99 8.786 8.693 9.089 8.297 9.293C7.901 9.491 7.412 9.59 6.83 9.59ZM11.4135 9.572C11.2275 9.572 11.0835 9.521 10.9815 9.419C10.8855 9.311 10.8375 9.164 10.8375 8.978V3.74C10.8375 3.548 10.8885 3.404 10.9905 3.308C11.0925 3.206 11.2365 3.155 11.4225 3.155H13.5915C14.2875 3.155 14.8245 3.323 15.2025 3.659C15.5805 3.989 15.7695 4.454 15.7695 5.054C15.7695 5.444 15.6825 5.78 15.5085 6.062C15.3405 6.344 15.0945 6.56 14.7705 6.71C14.4465 6.86 14.0535 6.935 13.5915 6.935L13.6725 6.8H13.9695C14.2155 6.8 14.4285 6.86 14.6085 6.98C14.7945 7.1 14.9565 7.289 15.0945 7.547L15.7695 8.798C15.8415 8.924 15.8745 9.047 15.8685 9.167C15.8625 9.287 15.8175 9.386 15.7335 9.464C15.6495 9.536 15.5265 9.572 15.3645 9.572C15.2025 9.572 15.0705 9.539 14.9685 9.473C14.8665 9.401 14.7765 9.293 14.6985 9.149L13.7895 7.475C13.6815 7.271 13.5525 7.136 13.4025 7.07C13.2585 6.998 13.0725 6.962 12.8445 6.962H11.9895V8.978C11.9895 9.164 11.9415 9.311 11.8455 9.419C11.7495 9.521 11.6055 9.572 11.4135 9.572ZM11.9895 6.107H13.3935C13.8075 6.107 14.1195 6.023 14.3295 5.855C14.5455 5.681 14.6535 5.423 14.6535 5.081C14.6535 4.745 14.5455 4.493 14.3295 4.325C14.1195 4.151 13.8075 4.064 13.3935 4.064H11.9895V6.107ZM17.6015 9.572C17.4155 9.572 17.2685 9.521 17.1605 9.419C17.0585 9.311 17.0075 9.158 17.0075 8.96V3.767C17.0075 3.569 17.0585 3.419 17.1605 3.317C17.2685 3.209 17.4215 3.155 17.6195 3.155H20.7605C20.9165 3.155 21.0335 3.194 21.1115 3.272C21.1895 3.35 21.2285 3.461 21.2285 3.605C21.2285 3.755 21.1895 3.872 21.1115 3.956C21.0335 4.034 20.9165 4.073 20.7605 4.073H18.1595V5.864H20.5715C20.7215 5.864 20.8355 5.903 20.9135 5.981C20.9975 6.059 21.0395 6.17 21.0395 6.314C21.0395 6.464 20.9975 6.581 20.9135 6.665C20.8355 6.743 20.7215 6.782 20.5715 6.782H18.1595V8.96C18.1595 9.368 17.9735 9.572 17.6015 9.572Z" fill="#D3764E"/>
</svg>
