<svg width="25" height="13" viewBox="0 0 25 13" fill="none" xmlns="http://www.w3.org/2000/svg">
<rect x="0.5" y="1" width="24" height="11" rx="2.5" stroke="#D3764E"/>
<path d="M7.805 9.5C7.607 9.5 7.454 9.449 7.346 9.347C7.244 9.239 7.193 9.086 7.193 8.888V3.767C7.193 3.569 7.244 3.419 7.346 3.317C7.454 3.209 7.607 3.155 7.805 3.155H9.965C10.409 3.155 10.787 3.221 11.099 3.353C11.411 3.485 11.648 3.674 11.81 3.92C11.978 4.166 12.062 4.46 12.062 4.802C12.062 5.186 11.951 5.51 11.729 5.774C11.507 6.038 11.204 6.215 10.82 6.305V6.17C11.264 6.236 11.609 6.404 11.855 6.674C12.101 6.944 12.224 7.295 12.224 7.727C12.224 8.291 12.032 8.729 11.648 9.041C11.27 9.347 10.742 9.5 10.064 9.5H7.805ZM8.3 8.627H9.92C10.328 8.627 10.628 8.549 10.82 8.393C11.012 8.231 11.108 7.991 11.108 7.673C11.108 7.349 11.012 7.109 10.82 6.953C10.628 6.797 10.328 6.719 9.92 6.719H8.3V8.627ZM8.3 5.846H9.767C10.163 5.846 10.457 5.771 10.649 5.621C10.847 5.465 10.946 5.237 10.946 4.937C10.946 4.637 10.847 4.412 10.649 4.262C10.457 4.106 10.163 4.028 9.767 4.028H8.3V5.846ZM13.9833 9.572C13.7973 9.572 13.6503 9.521 13.5423 9.419C13.4403 9.311 13.3893 9.158 13.3893 8.96V3.767C13.3893 3.569 13.4403 3.419 13.5423 3.317C13.6503 3.209 13.8033 3.155 14.0013 3.155H17.1423C17.2983 3.155 17.4153 3.194 17.4933 3.272C17.5713 3.35 17.6103 3.461 17.6103 3.605C17.6103 3.755 17.5713 3.872 17.4933 3.956C17.4153 4.034 17.2983 4.073 17.1423 4.073H14.5413V5.864H16.9533C17.1033 5.864 17.2173 5.903 17.2953 5.981C17.3793 6.059 17.4213 6.17 17.4213 6.314C17.4213 6.464 17.3793 6.581 17.2953 6.665C17.2173 6.743 17.1033 6.782 16.9533 6.782H14.5413V8.96C14.5413 9.368 14.3553 9.572 13.9833 9.572Z" fill="#D3764E"/>
</svg>
