<svg width="45" height="36" viewBox="0 0 45 36" fill="none" xmlns="http://www.w3.org/2000/svg">
<mask id="path-1-inside-1_46_27980" fill="white">
<path d="M0 0H45V36H0V0Z"/>
</mask>
<path d="M45 0H46V-1H45V0ZM0 1H45V-1H0V1ZM44 0V36H46V0H44Z" fill="#E7E7E7" mask="url(#path-1-inside-1_46_27980)"/>
<g clip-path="url(#clip0_46_27980)">
<path d="M23.666 10.5V13.8333C23.666 14.0543 23.7538 14.2663 23.9101 14.4226C24.0664 14.5789 24.2783 14.6667 24.4993 14.6667H27.8327" stroke="#026FD3" stroke-width="1.5" stroke-linecap="round" stroke-linejoin="round"/>
<path d="M26.166 25.5H17.8327C17.3907 25.5 16.9667 25.3244 16.6542 25.0118C16.3416 24.6993 16.166 24.2754 16.166 23.8333V12.1667C16.166 11.7246 16.3416 11.3007 16.6542 10.9882C16.9667 10.6756 17.3907 10.5 17.8327 10.5H23.666L27.8327 14.6667V23.8333C27.8327 24.2754 27.6571 24.6993 27.3445 25.0118C27.032 25.3244 26.608 25.5 26.166 25.5Z" stroke="#026FD3" stroke-width="1.5" stroke-linecap="round" stroke-linejoin="round"/>
<path d="M19.5 15.5H20.3333" stroke="#026FD3" stroke-width="1.5" stroke-linecap="round" stroke-linejoin="round"/>
<path d="M19.5 18.8335H24.5" stroke="#026FD3" stroke-width="1.5" stroke-linecap="round" stroke-linejoin="round"/>
<path d="M19.5 22.1665H24.5" stroke="#026FD3" stroke-width="1.5" stroke-linecap="round" stroke-linejoin="round"/>
</g>
<defs>
<clipPath id="clip0_46_27980">
<rect width="20" height="20" fill="white" transform="translate(12 8)"/>
</clipPath>
</defs>
</svg>
