<svg width="32" height="32" viewBox="0 0 32 32" fill="none" xmlns="http://www.w3.org/2000/svg">
<path d="M15.9998 5.37975C19.4358 5.37975 19.9043 5.37975 21.31 5.37975C22.5594 5.37975 23.1841 5.69211 23.6527 5.84829C24.2774 6.16065 24.7459 6.31684 25.2145 6.78538C25.683 7.25392 25.9954 7.72246 26.1516 8.34718C26.3077 8.81572 26.4639 9.44044 26.6201 10.6899C26.6201 12.0955 26.6201 12.4079 26.6201 16C26.6201 19.5922 26.6201 19.9045 26.6201 21.3101C26.6201 22.5596 26.3077 23.1843 26.1516 23.6528C25.8392 24.2776 25.683 24.7461 25.2145 25.2147C24.7459 25.6832 24.2774 25.9956 23.6527 26.1517C23.1841 26.3079 22.5594 26.4641 21.31 26.6203C19.9043 26.6203 19.592 26.6203 15.9998 26.6203C12.4077 26.6203 12.0953 26.6203 10.6897 26.6203C9.44026 26.6203 8.81554 26.3079 8.347 26.1517C7.72227 25.8394 7.25373 25.6832 6.78519 25.2147C6.31665 24.7461 6.00429 24.2776 5.84811 23.6528C5.69193 23.1843 5.53575 22.5596 5.37957 21.3101C5.37957 19.9045 5.37957 19.5922 5.37957 16C5.37957 12.4079 5.37957 12.0955 5.37957 10.6899C5.37957 9.44044 5.69193 8.81572 5.84811 8.34718C6.16047 7.72246 6.31665 7.25392 6.78519 6.78538C7.25373 6.31684 7.72227 6.00447 8.347 5.84829C8.81554 5.69211 9.44026 5.53593 10.6897 5.37975C12.0953 5.37975 12.5639 5.37975 15.9998 5.37975ZM15.9998 3.03705C12.4077 3.03705 12.0953 3.03705 10.6897 3.03705C9.28408 3.03705 8.347 3.34941 7.56609 3.66177C6.78519 3.97413 6.00429 4.44267 5.22339 5.22357C4.44249 6.00447 4.13013 6.6292 3.66159 7.56628C3.34923 8.34718 3.19305 9.28426 3.03687 10.6899C3.03687 12.0955 3.03687 12.564 3.03687 16C3.03687 19.5922 3.03687 19.9045 3.03687 21.3101C3.03687 22.7158 3.34923 23.6528 3.66159 24.4337C3.97395 25.2147 4.44249 25.9956 5.22339 26.7765C6.00429 27.5574 6.62901 27.8697 7.56609 28.3383C8.347 28.6506 9.28408 28.8068 10.6897 28.963C12.0953 28.963 12.5639 28.963 15.9998 28.963C19.4358 28.963 19.9043 28.963 21.31 28.963C22.7156 28.963 23.6527 28.6506 24.4336 28.3383C25.2145 28.0259 25.9954 27.5574 26.7763 26.7765C27.5572 25.9956 27.8695 25.3708 28.3381 24.4337C28.6504 23.6528 28.8066 22.7158 28.9628 21.3101C28.9628 19.9045 28.9628 19.436 28.9628 16C28.9628 12.564 28.9628 12.0955 28.9628 10.6899C28.9628 9.28426 28.6504 8.34718 28.3381 7.56628C28.0257 6.78538 27.5572 6.00447 26.7763 5.22357C25.9954 4.44267 25.3706 4.13031 24.4336 3.66177C23.6527 3.34941 22.7156 3.19323 21.31 3.03705C19.9043 3.03705 19.592 3.03705 15.9998 3.03705Z" fill="white"/>
<path d="M15.9998 9.28426C12.2515 9.28426 9.28408 12.2517 9.28408 16C9.28408 19.7483 12.2515 22.7158 15.9998 22.7158C19.7482 22.7158 22.7156 19.7483 22.7156 16C22.7156 12.2517 19.7482 9.28426 15.9998 9.28426ZM15.9998 20.3731C13.6571 20.3731 11.6268 18.4989 11.6268 16C11.6268 13.6573 13.5009 11.627 15.9998 11.627C18.3425 11.627 20.3729 13.5011 20.3729 16C20.3729 18.3427 18.3425 20.3731 15.9998 20.3731Z" fill="white"/>
<path d="M22.8718 10.6899C23.7343 10.6899 24.4336 9.99064 24.4336 9.12808C24.4336 8.26552 23.7343 7.56628 22.8718 7.56628C22.0092 7.56628 21.31 8.26552 21.31 9.12808C21.31 9.99064 22.0092 10.6899 22.8718 10.6899Z" fill="white"/>
</svg>
