<svg width="36" height="36" viewBox="0 0 36 36" fill="none" xmlns="http://www.w3.org/2000/svg">
<g clip-path="url(#clip0_1_1101)">
<path d="M18 31.5C25.4558 31.5 31.5 25.4558 31.5 18C31.5 10.5442 25.4558 4.5 18 4.5C10.5442 4.5 4.5 10.5442 4.5 18C4.5 25.4558 10.5442 31.5 18 31.5Z" stroke="#91949D" stroke-width="1.28571" stroke-linecap="round" stroke-linejoin="round"/>
<path d="M18 19.5C20.4853 19.5 22.5 17.4853 22.5 15C22.5 12.5147 20.4853 10.5 18 10.5C15.5147 10.5 13.5 12.5147 13.5 15C13.5 17.4853 15.5147 19.5 18 19.5Z" fill="#91949D" stroke="#91949D" stroke-width="0.857143" stroke-linecap="round" stroke-linejoin="round"/>
<path d="M10.1864 25.3585C11.0479 23.9802 12.5587 23.1428 14.1841 23.1428H21.8155C23.4409 23.1428 24.9517 23.9802 25.8132 25.3585L26.9858 27.2347C27.3524 27.8213 27.1876 28.5972 26.6037 28.9681C20.1308 33.0802 15.9279 32.991 9.41929 28.964C8.82511 28.5963 8.65275 27.8124 9.02307 27.2199L10.1864 25.3585Z" fill="#91949D"/>
</g>
<defs>
<clipPath id="clip0_1_1101">
<rect width="36" height="36" fill="white"/>
</clipPath>
</defs>
</svg>
