<svg width="132" height="32" viewBox="0 0 132 32" fill="none" xmlns="http://www.w3.org/2000/svg">
<path d="M31.9165 27.9559L39.6958 6.53101H48.6058L51.9957 19.4239L64.1021 6.53101H72.9809L65.1204 28.2083H57.5376L60.8433 19.1333L52.4149 27.9559H45.0547L42.7633 18.8097L39.4379 27.9559H31.9165Z" fill="white"/>
<path d="M67.5891 27.9559L72.56 14.2871H80.5027L77.6953 22.0422H88.1873C88.4879 22.0422 88.6814 21.9824 88.7677 21.8629C88.853 21.7444 88.9269 21.6001 88.9935 21.4291L91.8685 13.4442C91.9527 13.1011 92.0193 12.8476 92.0619 12.6858C92.1046 12.524 91.9746 12.4437 91.6739 12.4437H73.2403L75.3705 6.53101H96.5481C97.4302 6.53101 98.151 6.7474 98.7116 7.17709C99.2702 7.60884 99.68 8.15188 99.939 8.8093C100.196 9.46879 100.313 10.2056 100.294 11.0217C100.272 11.8419 100.121 12.6374 99.8402 13.4133L97.0339 21.1055C96.753 21.8804 96.3328 22.6718 95.7753 23.4786C95.2146 24.2865 94.5625 25.0202 93.8219 25.6776C93.0771 26.3371 92.272 26.8801 91.3993 27.3098C90.5277 27.7395 89.6498 27.9559 88.7688 27.9559H67.5891Z" fill="white"/>
<path d="M102.229 13.4138C102.511 12.6379 102.933 11.8424 103.505 11.0221C104.076 10.206 104.738 9.46515 105.492 8.80979C106.246 8.15237 107.051 7.60933 107.911 7.17758C108.772 6.74789 109.644 6.53149 110.527 6.53149H127.411C128.27 6.53149 128.983 6.74789 129.542 7.17758C130.102 7.60933 130.515 8.15855 130.782 8.82628C131.053 9.49606 131.183 10.2308 131.172 11.0397C131.16 11.8465 131.016 12.6389 130.734 13.4148L127.958 21.0751C127.678 21.85 127.248 22.6455 126.667 23.4626C126.087 24.2839 125.42 25.0217 124.665 25.6781C123.913 26.3376 123.099 26.8806 122.228 27.3103C121.356 27.74 120.49 27.9564 119.629 27.9564H102.745C101.861 27.9564 101.148 27.74 100.599 27.3103C100.053 26.8806 99.648 26.3293 99.389 25.6606C99.1311 24.9928 99.0073 24.2581 99.0177 23.4472C99.0291 22.6424 99.1727 21.849 99.4535 21.0741L102.229 13.4138ZM111.042 12.4761C110.784 12.4761 110.601 12.5699 110.494 12.7523C110.386 12.9367 110.277 13.1655 110.169 13.4457L107.297 21.3976C107.233 21.5697 107.2 21.7202 107.2 21.849C107.2 21.9572 107.35 22.0097 107.653 22.0097H119.112C119.37 22.0097 119.555 21.9232 119.662 21.75C119.769 21.579 119.856 21.4079 119.921 21.2328L122.76 13.3808C122.868 13.0583 122.928 12.8285 122.939 12.6863C122.949 12.5482 122.803 12.4761 122.503 12.4761H111.042Z" fill="white"/>
<path d="M16.9577 30.2903L7.15836 31.9998L0 24.8011L3.43043 15.2696L13.5064 13.3354L10.2091 22.5002L16.9577 30.2903Z" fill="#5A97D1"/>
<path d="M30.8675 17.6947L24.1376 10.461L13.812 12.6579L17.6783 1.91146L28.4262 0L34.5226 7.51292L30.8675 17.6947Z" fill="white"/>
<path d="M11.1306 22.3739L20.3464 20.5717L23.7311 11.1648L30.5483 18.4778L27.1157 28.0176L17.5265 29.6313L11.1306 22.3739Z" fill="#92C53E"/>
</svg>
