<svg width="32" height="32" viewBox="0 0 32 32" fill="none" xmlns="http://www.w3.org/2000/svg">
<path d="M28.963 8.0228C27.9908 8.50143 27.0186 8.66098 25.8843 8.82052C27.0186 8.18235 27.8288 7.22508 28.1529 5.94873C27.1806 6.5869 26.0464 6.90599 24.7501 7.22508C23.7779 6.26782 22.3195 5.62964 20.8612 5.62964C17.4584 5.62964 14.8658 8.82052 15.676 12.0114C11.301 11.8519 7.41211 9.77779 4.65748 6.5869C3.19915 8.98007 4.00933 12.0114 6.27785 13.6068C5.46767 13.6068 4.65748 13.2878 3.84729 12.9687C3.84729 15.3618 5.6297 17.5955 8.06026 18.2336C7.25007 18.3932 6.43989 18.5527 5.6297 18.3932C6.27785 20.4672 8.2223 22.0627 10.6529 22.0627C8.70841 23.4986 5.79174 24.2963 3.03711 23.9772C5.46767 25.4131 8.2223 26.3704 11.139 26.3704C21.0232 26.3704 26.5325 18.2336 26.2084 10.7351C27.3427 10.0969 28.3149 9.13961 28.963 8.0228Z" fill="white"/>
</svg>
